<svg width="40" height="40" viewBox="0 0 40 40" fill="none" xmlns="http://www.w3.org/2000/svg">
<g clip-path="url(#clip0_283_165)">
<rect width="40" height="40" fill="white"/>
<path d="M10.9978 20.7017C10.9978 20.7017 9.22653 18.4191 8.26609 17.2404C7.30565 16.0617 8.56131 15.5431 8.48652 14.8831C3.91262 12.3018 0 12.8204 0 12.8204C0 12.8204 3.91262 15.1031 5.0187 16.5018C6.12478 17.9004 8.1913 22.6151 8.1913 22.6151L10.9978 20.7017ZM8.85652 27.7737L12.3243 25.4164L10.4822 22.9098L6.64436 25.2671L8.85652 27.7737ZM9.00217 34.8457C7.97087 32.9284 8.04566 31.6044 8.04566 31.6044L6.12478 29.4671C5.16434 30.795 5.0187 31.3844 5.23913 33.2977C5.45956 35.2111 6.56957 39.7058 6.56957 39.7058L8.78174 40.0004L10.7735 38.4564L10.9978 36.6884C10.9978 36.6884 10.0374 36.7591 9.00217 34.8457ZM21.0352 11.0013L20.0748 8.40039L20 8.57326L19.9291 8.40039L18.9687 11.0013L18.0083 13.2604L18.1067 13.3429L18.0831 13.4097L20 14.9538L21.9209 13.4097L21.8973 13.3429L21.9957 13.2604L21.0352 11.0013Z" fill="black"/>
<path d="M12.1789 9.28392C12.8402 9.57858 15.4972 11.6412 15.4972 11.6412C15.4972 11.6412 15.3515 11.2719 16.0167 10.3879C16.682 9.50393 19.335 5.2293 20.0002 5.15858C20.6654 5.2293 23.3224 9.50393 23.9876 10.3879C24.6528 11.2719 24.5033 11.6412 24.5033 11.6412C24.5033 11.6412 27.1602 9.57858 27.8254 9.28392C28.4907 8.98925 29.9628 9.05997 29.9628 9.05997L31.5137 2.2905C31.5137 2.2905 27.3807 8.62779 25.8298 8.47849C24.2789 8.3292 20.1695 0.0078125 20.0002 0.0078125C19.831 0.0078125 15.7215 8.33312 14.1707 8.47849C12.6198 8.62386 8.48673 2.2905 8.48673 2.2905L10.0376 9.06783C10.0376 9.06783 11.5137 8.98925 12.1789 9.28392ZM9.00238 29.3212L6.05021 26.0053C6.05021 26.0053 5.31413 26.6692 5.82978 27.2586C6.54201 28.1299 7.20688 29.0388 7.82151 29.9813C8.19152 30.5706 8.48674 30.8653 9.15196 30.4999C9.49047 30.3113 10.4391 29.667 11.3484 29.0305L11.3995 28.9912C11.6515 29.4863 11.9782 30.217 11.8837 30.4999C11.6397 31.2268 10.4785 31.8986 10.4785 31.8986C10.4785 31.8986 12.4741 32.1186 12.9898 31.0146C13.407 30.1227 12.7182 28.7516 12.4387 28.2644C12.8323 27.9697 13.163 27.734 13.285 27.6318C13.7259 27.2664 13.4306 26.5278 13.4306 26.5278L9.00238 29.3212ZM29.522 31.8986C29.522 31.8986 28.3647 31.2268 28.1207 30.4999C28.0262 30.217 28.3529 29.4863 28.6009 28.9912L28.656 29.0305C29.5653 29.667 30.5139 30.3113 30.8485 30.4999C31.5137 30.8653 31.8089 30.5706 32.1789 29.9813C32.7949 29.0397 33.4597 28.1309 34.1707 27.2586C34.6863 26.6692 33.9502 26.0053 33.9502 26.0053L30.9981 29.3212L26.5698 26.5199C26.5698 26.5199 26.2746 27.2586 26.7154 27.624C26.8375 27.7261 27.1563 27.9618 27.5657 28.2565C27.2822 28.7516 26.5934 30.1227 27.0106 31.0067C27.5302 32.1186 29.522 31.8986 29.522 31.8986ZM21.3307 24.9012C21.3307 24.9012 20.8111 25.2666 21.4015 26.2999C21.992 27.3332 23.9876 32.4879 20.2954 33.9613C20.1931 34.0005 20.0947 34.0477 20.0002 34.0948C19.9044 34.0449 19.8058 34.0003 19.705 33.9613C16.0167 32.4879 18.0085 27.3293 18.5989 26.2999C19.1894 25.2706 18.6737 24.9012 18.6737 24.9012C17.4928 26.9639 14.9067 26.5199 14.7611 26.74C14.6155 26.96 13.0646 30.0559 14.8359 32.5626C16.3474 34.7038 19.0476 38.4009 19.7995 39.4303C19.9215 39.6071 20.0002 39.7053 20.0002 39.7053C20.0002 39.7053 20.0789 39.6071 20.201 39.4303C20.9528 38.4009 23.653 34.7156 25.1685 32.5626C26.9398 30.0559 25.3889 26.9639 25.2393 26.74C25.0898 26.516 22.5115 26.9639 21.3307 24.9012ZM31.9585 31.6039C31.9585 31.6039 32.0293 32.928 30.9981 34.8453C29.9668 36.7626 29.0063 36.6879 29.0063 36.6879L29.2267 38.4559L31.2185 40L33.4346 39.7053C33.4346 39.7053 34.5407 35.2146 34.7611 33.2973C34.9815 31.38 34.8359 30.7946 33.8754 29.4666L31.9585 31.6039ZM31.5137 14.8826C31.4389 15.5426 32.6946 16.0612 31.7341 17.2399C30.7737 18.4186 29.0063 20.7013 29.0063 20.7013L31.8089 22.6146C31.8089 22.6146 33.8754 17.9 34.9815 16.5013C36.0876 15.1026 40.0002 12.8199 40.0002 12.8199C40.0002 12.8199 36.0915 12.3013 31.5137 14.8826Z" fill="black"/>
<path d="M33.3588 25.2667L29.521 22.9093L27.6749 25.416L31.1466 27.7733L33.3588 25.2667ZM23.2781 18.6937L31.4418 12.7453L29.0092 10.168L20.0031 16.3756L11.001 10.168L8.56445 12.7453L16.7282 18.6937L11.3631 22.3279L13.654 25.5692L19.9992 21.0392L26.3484 25.5692L28.6353 22.3279L23.2781 18.6937ZM22.2547 20.5402L20.0386 18.9922L17.8264 20.5402L17.5312 20.1238L19.5938 18.6819L11.5166 13.0282L11.8118 12.6078L20.0386 18.3676L28.2692 12.6078L28.5645 13.0282L20.4834 18.6819L22.546 20.1238L22.2547 20.5402Z" fill="black"/>
</g>
<defs>
<clipPath id="clip0_283_165">
<rect width="40" height="40" fill="white"/>
</clipPath>
</defs>
</svg>
