<svg width="40" height="40" viewBox="0 0 40 40" fill="none" xmlns="http://www.w3.org/2000/svg">
<g clip-path="url(#clip0_283_156)">
<path d="M21.5632 13.8838C22.9498 13.4434 24.3493 13.0691 24.9014 11.6873C24.2915 11.4176 23.6496 11.2304 22.8921 11.4671C22.8792 11.346 22.8664 11.2359 22.8535 11.1203C22.7958 10.6689 22.738 10.2175 22.6738 9.76603C22.6481 9.59538 22.5647 9.55684 22.3657 9.63391C21.8521 9.84311 21.3771 10.0963 21.0561 10.5092C20.8956 10.7129 20.8186 10.9606 20.6902 11.2194C20.626 11.1313 20.5233 11.0432 20.4912 10.9386C20.2601 10.2725 19.6695 9.89265 19.0083 9.57336C18.79 9.46876 18.6809 9.59538 18.6295 9.74952C18.4433 10.3331 18.2764 10.9221 18.6423 11.5056C18.6488 11.5167 18.6359 11.5387 18.6359 11.5552C18.148 11.5552 17.6602 11.5442 17.1723 11.5607C16.8641 11.5717 16.5624 11.6268 16.2607 11.6653C16.036 11.6928 16.0039 11.7864 16.1002 11.9516C16.3506 12.392 16.6651 12.7883 17.1338 13.0856C17.2236 13.1407 17.3135 13.2012 17.4291 13.2783C17.0888 13.4434 16.7678 13.5701 16.4918 13.7462C16.3056 13.8618 16.1837 14.0545 16.0296 14.2141C16.235 14.3022 16.4276 14.4233 16.6395 14.4619C17.0118 14.5334 17.397 14.55 17.8014 14.594C17.7629 14.638 17.7243 14.6821 17.6794 14.7151C17.153 15.0895 16.5945 15.4363 15.9269 15.6124C15.1951 15.8051 14.4825 15.4968 14.1551 14.9023C13.6736 14.016 13.6415 13.0856 13.7057 12.1332C13.7635 11.3185 14.1166 10.5863 14.5339 9.87614C14.6815 9.6229 14.9447 9.41921 15.2143 9.12744C14.8099 9.30361 14.4504 9.41371 14.1487 9.60088C13.2371 10.1624 12.287 10.6854 11.568 11.4451C10.4446 12.6287 9.45601 13.8728 9.25059 15.4473C9.17998 15.9207 9.14146 16.3942 9.13504 16.8676C9.13504 17.3135 9.39182 17.6769 9.82835 17.9301C10.1686 18.1283 10.3419 18.0952 10.5794 17.809C10.6565 17.7154 10.7207 17.6108 10.8426 17.4456C10.8747 17.5833 10.9197 17.6603 10.9068 17.7209C10.695 18.5191 10.3547 19.2348 9.62292 19.8238C9.08368 20.2532 8.06298 20.1431 7.63929 19.5211C7.34399 19.0917 7.2798 18.6292 7.2477 18.1503C7.11289 16.0694 7.69065 14.1316 8.91677 12.3479C9.35972 11.6983 9.95032 11.1203 10.4767 10.5147C10.5345 10.4487 10.5987 10.3936 10.695 10.3L9.62934 9.25406C9.22491 9.65593 8.83332 9.99174 8.51876 10.3716C7.50448 11.5937 6.74698 12.9535 6.27193 14.3958C5.72628 16.0749 5.6364 17.7759 6.10503 19.488C6.32971 20.3028 6.55439 21.112 7.02944 21.8552C7.11931 22.0039 7.17067 22.1635 7.17709 22.3287C7.33115 23.9306 8.2684 25.1913 9.50737 26.3309C10.4189 27.1676 11.4974 27.8282 12.5887 28.4723C12.8327 28.6155 13.1023 28.7311 13.3462 28.8742C13.4297 28.9238 13.4875 29.0008 13.5003 29.0889C13.5324 29.3587 13.5388 29.6339 13.5581 29.9422C13.4554 29.9147 13.3719 29.8982 13.2885 29.8651C8.74345 28.1751 5.6043 25.3675 4.00585 21.3212C3.95449 21.1836 3.89029 21.112 3.71055 21.09C3.22266 21.0184 2.81182 20.7982 2.46516 20.501C1.70124 19.8569 1.20694 19.0531 0.699795 18.2549C0.50079 17.9466 0.256848 17.6548 0.0514234 17.3465C6.73109e-05 17.264 -0.0191912 17.1153 0.0321649 17.0383C0.410916 16.4657 0.815346 15.9097 1.21336 15.3427C1.6884 14.6656 2.1506 13.9829 2.92737 13.5205C3.12637 13.4049 3.35747 13.2893 3.58858 13.2563C3.92239 13.2067 4.0251 13.0526 4.1214 12.8048C5.32185 9.87063 7.42103 7.52546 10.4254 5.77484C11.8377 4.95458 13.3912 4.33251 15.0282 3.93064C15.3299 3.85356 15.5032 3.73245 15.5738 3.48472C15.7921 2.63694 16.4725 2.08092 17.2557 1.61299C18.1031 1.10652 19.0018 0.660611 19.8749 0.187173C19.984 0.126617 20.0803 0.0550509 20.1638 0C21.146 0.539499 22.1346 1.05698 23.0911 1.6185C23.8421 2.0589 24.4969 2.60391 24.7024 3.40215C24.7987 3.782 24.9848 3.93064 25.4085 4.06826C27.3151 4.69034 29.119 5.47206 30.6982 6.61162C33.1055 8.35122 34.8388 10.4762 35.776 13.0636C35.8274 13.2122 35.8916 13.2893 36.1034 13.2893C36.6683 13.2948 37.1305 13.5315 37.5286 13.8508C38.209 14.3958 38.6648 15.0784 39.1142 15.7721C39.4095 16.229 39.7112 16.6804 40.0129 17.1263C39.4865 17.8916 38.9537 18.6788 38.4016 19.4605C38.0357 20 37.5029 20.4514 36.8738 20.7597C36.6683 20.8533 36.4308 20.8973 36.1997 20.8918C35.9044 20.8863 35.7953 20.9854 35.7118 21.2111C35.4936 21.7836 35.2368 22.3452 34.9736 22.9617C34.8901 22.8792 34.8452 22.8406 34.8003 22.7966C34.4215 22.4112 34.0941 21.9818 33.6512 21.657C33.2724 21.3763 33.2275 21.112 33.3751 20.7542C33.8566 19.5871 34.1005 18.3595 34.1005 17.1208C34.1005 16.2455 33.985 15.3702 33.7475 14.5169C33.4714 13.4655 33.0028 12.458 32.3608 11.5277C31.873 10.8285 31.2888 10.1789 30.711 9.46325C30.2681 9.95871 29.8765 10.3881 29.4913 10.812C32.6561 14.2086 32.8808 17.9576 31.9564 20.6001C31.4942 20.556 31.0577 20.3193 30.4863 20.4184C31.154 20.9579 31.3016 21.591 31.2503 22.2516C31.1861 23.0498 30.8073 23.76 30.1975 24.3655C29.8508 24.7069 29.3244 24.7564 29.0805 24.4922C28.9778 24.371 28.9264 24.2224 28.9392 24.0738C28.9906 23.5453 29.4143 23.193 29.7995 22.8186C29.8829 22.736 29.9407 22.5599 29.9022 22.4663C29.7995 22.2461 29.6646 22.0369 29.4977 21.8442C28.7017 20.8973 27.6939 20.1321 26.564 19.488C26.3522 19.3669 26.1403 19.2458 25.9349 19.1137C25.8771 19.0641 25.845 18.9981 25.845 18.932C25.8386 18.2164 25.845 17.5062 25.845 16.7905C25.845 16.6914 25.8386 16.5868 25.845 16.4878C25.8579 16.3226 25.7744 16.2565 25.5818 16.207C24.6574 15.9703 23.7523 15.6785 22.9948 15.15C22.616 14.8858 22.2629 14.5885 21.9163 14.2967C21.7751 14.1811 21.6852 14.0325 21.5632 13.8838ZM29.6005 8.57693C29.3116 8.39527 29.0163 8.23562 28.7595 8.03743C27.8993 7.37682 26.885 6.93091 25.845 6.52353C24.2594 5.90146 22.5711 5.58767 20.8378 5.49959C19.5282 5.43353 18.2122 5.52711 16.9283 5.78035C15.2464 6.11616 13.648 6.64465 12.1779 7.42637C11.6772 7.69061 11.2342 8.04294 10.7335 8.37325L11.8633 9.39719C14.3284 7.72915 17.1209 6.97495 20.2408 7.0245C23.3864 7.07404 26.0505 8.08698 28.3872 9.82659L29.6005 8.57693Z" fill="black"/>
<path d="M30.0434 29.8703C29.9151 30.0354 29.8444 30.14 29.7546 30.2391C29.119 30.9162 28.201 31.2576 27.3601 31.687C26.1083 32.3145 24.7474 32.7329 23.4121 33.2009C21.9163 33.7238 20.626 34.5001 19.4641 35.4579C18.9313 35.8928 18.5718 36.4103 18.3022 36.9829C18.2636 37.0985 18.2765 37.2251 18.3471 37.3352C18.3792 37.3847 18.5718 37.3407 18.6809 37.3682C18.8542 37.4123 19.0661 37.4453 19.1688 37.5499C19.4577 37.8306 19.4384 38.3812 19.2458 38.717C18.9569 39.2124 18.5846 39.6198 17.9748 39.8235C17.7116 39.9171 17.4291 39.9776 17.1402 39.9996C16.3763 40.0492 15.7664 39.5978 15.5032 38.9207C15.208 38.1665 15.3684 37.4233 15.5674 36.6966C15.8371 35.7167 16.1773 34.7478 16.5111 33.7844C16.6074 33.4981 16.7936 33.2339 16.9669 32.9036C16.5946 32.9036 16.2672 32.9201 15.9462 32.9036C15.1502 32.8595 15.1694 33.0467 15.1373 32.2155C15.0988 31.1805 15.0603 30.1455 15.0025 29.1106C14.9961 29.017 14.887 28.9014 14.7907 28.8463C14.0717 28.45 13.3335 28.0866 12.6273 27.6682C12.1844 27.4095 11.7928 27.0792 11.3434 26.7599C12.9547 26.8975 14.3413 26.6498 15.3492 25.5268C15.9911 24.8111 16.0682 23.3412 15.0154 22.6256C14.9062 22.5375 14.842 22.4164 14.8292 22.2898C14.7714 21.5025 14.7329 20.7153 14.7008 19.9281C14.6944 19.7684 14.6238 19.7024 14.444 19.6748C13.725 19.5592 13.0317 19.6638 12.3641 19.873C11.3177 20.1978 10.3933 20.6823 9.62939 21.4034C8.88473 22.1081 8.60227 23.589 9.71285 24.3707C10.3034 24.7836 10.8748 25.202 11.6194 25.3946C11.6901 25.4112 11.7607 25.4222 11.8377 25.4277C11.3113 25.0093 10.7785 24.5909 10.2585 24.1615C10.1044 24.0349 9.96963 23.8862 9.86691 23.7321C9.46248 23.1431 9.44964 22.565 9.91185 21.976C10.5345 21.1832 11.459 20.7924 12.4732 20.5226C12.7236 20.4566 12.9804 20.4235 13.2757 20.3685C13.3335 20.8089 13.3848 21.1943 13.4362 21.5906C12.8841 21.7558 12.409 21.976 12.1202 22.4109C11.7478 22.9724 11.6708 23.5614 11.9982 24.145C12.2935 24.679 12.9932 24.8386 13.5774 24.5579C13.6544 24.5083 13.7315 24.4588 13.7957 24.3982C13.526 24.3652 13.2821 24.3652 13.0574 24.2991C12.929 24.2606 12.8006 24.134 12.7364 24.0184C12.5695 23.7046 12.7364 23.11 13.0189 22.8623C13.3976 22.532 13.8663 22.532 14.2964 22.6696C14.5532 22.7522 14.7907 22.9724 14.9383 23.1871C15.7151 24.3267 14.8677 25.7139 13.3463 25.9396C12.1779 26.1103 11.0995 25.9231 10.0788 25.4937C8.80127 24.9597 8.09513 24.0679 8.05661 22.8072C8.01809 21.5631 8.55733 20.5777 9.75778 19.873C10.3099 19.5482 10.8619 19.2179 11.4397 18.9151C12.3898 18.4142 13.4426 18.205 14.566 18.1279V16.6195C14.9062 16.5149 15.24 16.4434 15.5353 16.3112C16.4533 15.8984 17.3713 15.4855 18.2508 15.0175C18.6937 14.7808 19.0725 14.4395 19.4448 14.1202C19.8043 13.8119 20.5233 13.856 20.7416 14.2303C20.9984 14.6652 21.3964 14.979 21.865 15.2212C22.5262 15.557 23.2067 15.8653 23.9 16.1516C24.3172 16.3222 24.773 16.4268 25.1775 16.5535C25.1775 17.0379 25.1903 17.5499 25.1775 18.0564C25.1518 19.0197 25.1004 19.9831 25.0812 20.941C25.094 21.0346 25.1518 21.1172 25.2417 21.1667C25.8579 21.5246 26.5127 21.8384 27.1097 22.2237C27.4756 22.4604 27.7581 22.7962 28.0919 23.099C28.0085 23.2477 27.9122 23.3853 27.803 23.5229C27.3087 24.0954 27.8801 25.0974 28.6119 25.4001C29.0227 25.5653 30.0948 25.3891 30.4415 25.1469C31.3723 24.4918 31.8859 23.589 32.4315 22.7082C32.6562 22.3448 32.6434 22.3778 33.0478 22.6146C33.6576 22.9669 34.0621 23.4403 34.3766 23.9908C34.8773 24.8606 34.8324 25.736 34.3509 26.5892C33.8438 27.4976 33.0285 28.2573 32.0078 28.7527C31.353 29.072 29.9664 29.0335 29.3694 28.6482C28.8815 28.3344 28.9072 27.3379 29.44 27.0847C29.8894 26.87 30.2425 26.9746 30.3708 27.5251C30.4029 27.6627 30.4094 27.8004 30.4415 28.0261C30.5442 27.9105 30.6084 27.8664 30.6212 27.8169C30.6982 27.4701 30.833 27.1012 30.5185 26.7984C30.1397 26.4351 29.6519 26.4131 29.1576 26.6883C28.2781 27.1893 27.9186 28.4995 28.4963 29.2482C28.8237 29.6611 29.2988 29.9308 30.0434 29.8703ZM24.0605 21.6897C24.0733 21.508 24.0797 21.3209 24.0926 21.1392L24.2851 17.6214C24.2916 17.4508 24.2595 17.3682 24.0348 17.2911C22.6867 16.8507 21.4991 16.1956 20.5618 15.2432C20.35 15.0175 19.9648 14.979 19.7016 15.1607L19.6952 15.1662C18.4755 15.9809 17.2558 16.8012 15.8692 17.4123C15.7729 17.4618 15.7023 17.5389 15.683 17.638C15.6702 18.0784 15.6637 18.5188 15.683 18.9537C15.7279 19.862 15.7793 20.7649 15.8435 21.6732C15.8563 21.8218 15.9205 21.9705 16.0296 22.0861C16.5368 22.6091 16.877 23.1926 16.9605 23.8642C17.0696 24.7616 17.0439 25.6314 16.1452 26.2865C16.081 26.3415 16.0425 26.4186 16.0361 26.5012C16.1003 28.0756 16.1516 29.6556 16.2543 31.23C16.2672 31.4227 16.5111 31.7035 16.7165 31.764C17.0439 31.8521 17.4419 31.8301 17.795 31.764C17.9555 31.7365 18.0646 31.4998 18.193 31.3622C18.3086 31.241 18.4049 31.1089 18.5333 30.9933C19.3999 30.2226 20.2601 29.4409 21.146 28.6867C21.8265 28.1086 22.5583 27.5636 23.258 27.0076C23.6625 26.6883 23.9513 26.314 23.9449 25.8185C23.9449 25.6424 23.9257 25.4717 23.9321 25.2955C23.9834 24.0899 24.0219 22.8953 24.0605 21.6897ZM17.4227 37.5113C17.5126 35.7112 18.193 34.0431 19.3678 32.5402C20.3436 31.2906 21.422 30.1015 22.9884 29.3198C23.5212 29.0555 24.054 28.8023 24.7024 28.9344C24.8757 28.9729 25.0747 29.05 25.1839 29.1656C25.9157 29.9308 25.4407 30.8557 24.4328 31.197C24.298 31.2466 24.0733 31.197 23.9385 31.1309C23.8037 31.0649 23.7266 30.9218 23.579 31.0649C23.4313 31.208 23.5854 31.3071 23.6946 31.4062C23.9898 31.6704 24.3686 31.5934 24.7217 31.5824C25.3572 31.5603 26.1275 30.9218 26.1982 30.3878C26.2238 30.1951 26.288 30.0079 26.288 29.8152C26.288 29.3143 26.3394 28.7638 25.7681 28.45C24.8757 27.96 23.9192 27.6848 22.8857 28.5491C21.9228 29.3528 20.9598 30.1676 20.0675 31.0263C19.111 31.9457 18.2059 32.8981 17.6859 34.0927C17.1659 35.3038 16.7743 36.5204 16.7936 37.8086C16.8 38.1389 16.9284 38.4913 17.0953 38.794C17.2686 39.1133 17.6217 39.1794 17.9683 39.0583C18.4562 38.8876 18.6745 38.6234 18.6167 38.2766C18.5782 38.0288 18.3343 37.9463 18.1096 38.0949C17.8335 38.2766 17.4805 38.1499 17.4419 37.8527C17.4163 37.7481 17.4163 37.6325 17.4227 37.5113Z" fill="black"/>
<path d="M21.2669 27.0243C20.8047 27.0683 20.4067 27.0903 20.1242 26.8371C19.861 26.6059 19.585 26.3361 19.4759 26.0389C19.1164 25.0479 19.1292 24.0625 19.8482 23.1707C20.2655 22.6532 20.6892 22.1357 21.1321 21.6348C21.5751 21.1338 21.6007 20.1925 21.1706 19.697C20.9331 19.4217 20.7469 19.1024 20.2719 19.0529C19.7968 19.0034 19.4438 19.1079 19.1485 19.4383C18.8275 19.7961 18.7312 20.1814 18.9174 20.5998C19.0458 20.8861 19.6685 20.9742 20.0536 20.776C20.1435 20.732 20.227 20.6769 20.3168 20.6218C20.5608 21.0898 20.4067 21.4806 19.9188 21.7559C19.5529 21.9651 19.1485 22.0587 18.7312 21.9981C18.4937 21.9596 18.2754 21.8605 18.1085 21.7064C17.5821 21.1558 17.3061 20.5283 17.4794 19.7906C17.6848 18.9208 18.789 18.0565 19.8354 18.0675C21.2733 18.0895 22.5187 18.7942 22.8333 19.9722C23.0772 20.8696 22.8654 21.7229 22.1528 22.444C21.4788 23.1157 20.7726 23.7598 20.3425 24.591C20.028 25.1966 20.182 26.5178 21.0615 26.8866C21.1385 26.9252 21.2027 26.9747 21.2669 27.0243Z" fill="black"/>
</g>
<defs>
<clipPath id="clip0_283_156">
<rect width="40" height="40" fill="white"/>
</clipPath>
</defs>
</svg>
