<svg width="40" height="40" viewBox="0 0 40 40" fill="none" xmlns="http://www.w3.org/2000/svg">
<g clip-path="url(#clip0_283_189)">
<path d="M32.8836 8.31968C32.6829 7.8825 32.4822 7.45221 32.2632 6.97028C32.4201 7.02191 32.5369 7.05978 32.6574 7.0942C32.9311 7.17682 33.2085 7.24222 33.4785 7.33861C34.0296 7.53827 34.5661 7.76202 35.0661 8.07183C35.5333 8.36099 35.9384 8.7121 36.2595 9.13551C36.588 9.57269 36.807 10.0615 36.7449 10.6157C36.7231 10.8154 36.6829 11.015 36.6282 11.2078C36.5698 11.4109 36.2632 11.5279 36.099 11.4281C35.9457 11.3352 35.9384 11.2044 36.088 11.108C36.1501 11.0667 36.2267 11.0426 36.3398 10.9909C36.2924 10.8085 36.2632 10.6019 36.1866 10.4126C35.9165 9.77923 35.4384 9.30074 34.8252 8.95307C34.5515 8.79816 34.2304 8.70866 33.9311 8.59162C33.6464 8.48147 33.3581 8.39885 33.015 8.45049C34.2741 10.3472 35.7048 12.0925 37.5552 13.5142C37.0661 13.6106 36.8946 14.0064 37.0807 14.5951C34.796 15.2732 32.5114 15.9513 30.2158 16.6295C30.026 16.1992 29.7413 15.8343 29.4019 15.5107C29.1501 15.2698 28.8362 15.1286 28.5004 15.015C28.0844 14.8739 27.672 14.7465 27.2158 14.7741C26.6793 14.805 26.2048 14.9462 25.8398 15.3386C25.5369 15.6656 25.2596 16.0133 25.1099 16.4264C25.0004 16.7328 25.0077 17.046 25.0807 17.373C25.1464 17.6622 25.3179 17.8687 25.5187 18.089C25.2121 18.1923 24.9092 18.2921 24.6099 18.3885C24.0844 18.5606 23.5552 18.7362 23.0296 18.9083C22.7887 18.984 22.5406 19.0391 22.307 19.1286C22.1464 19.1871 22.0515 19.1252 21.9676 19.0219C21.8325 18.8567 21.6975 18.688 21.5807 18.509C21.5515 18.4643 21.5552 18.3644 21.588 18.3197C21.8362 17.9961 22.099 17.6828 22.3508 17.3661C22.5296 17.1424 22.7012 16.9118 22.88 16.6846C23.1464 16.3507 23.4201 16.0236 23.6793 15.6863C24.1574 15.0701 24.6209 14.4436 25.1026 13.8309C25.4639 13.3696 25.8544 12.9221 26.2158 12.4608C26.453 12.1579 26.661 11.8377 26.8982 11.5348C27.6428 10.5813 28.3909 9.63121 29.1391 8.68112C29.3216 8.45049 29.5004 8.21641 29.6866 7.98921C29.7121 7.95823 29.7596 7.92725 29.796 7.93069C30.1209 7.9479 30.442 7.96856 30.7632 7.9961C31.1318 8.02708 31.5004 8.04773 31.8654 8.10281C32.1975 8.14756 32.526 8.2405 32.8836 8.31968ZM9.23765 6.38164C10.7669 8.40574 12.2997 10.4298 13.8252 12.447C13.2158 13.1596 12.9603 13.9686 13.0661 14.8532C13.1574 15.6381 13.7742 16.4402 14.7158 16.6536C15.1209 16.7465 15.5223 16.6983 15.9238 16.6088C16.2194 16.5434 16.4639 16.4023 16.672 16.1544C16.8617 16.3782 17.0442 16.5882 17.2158 16.8016C17.6172 17.3076 18.015 17.8137 18.4092 18.3231C18.4384 18.3644 18.453 18.4539 18.4274 18.4883C18.2705 18.688 18.1026 18.8808 17.9274 19.0667C17.8982 19.0976 17.8143 19.1045 17.7669 19.0908C16.9201 18.8291 16.0734 18.5572 15.2267 18.2956C14.6355 18.1131 14.0406 17.9479 13.4493 17.7655C12.8617 17.583 12.2814 17.3834 11.6939 17.2009C10.9238 16.96 10.1501 16.7293 9.37999 16.4952C8.41649 16.1992 7.45663 15.8963 6.49313 15.6071C6.2778 15.5417 6.21576 15.3765 6.16466 15.225C5.94203 14.54 5.7486 13.8481 5.78875 13.1183C5.8143 12.6674 5.78875 12.2164 5.83619 11.7689C5.87999 11.3421 5.97853 10.9186 6.06977 10.4987C6.14641 10.1372 6.2267 9.77579 6.34714 9.42811C6.41649 9.22501 6.56977 9.0529 6.67926 8.86357C6.97488 8.35754 7.2778 7.85152 7.56247 7.33861C7.70481 7.08043 7.81795 6.81193 7.95298 6.55031C7.96758 6.51933 8.06977 6.49524 8.09897 6.51589C8.31795 6.65703 8.55882 6.58818 8.78145 6.56064C8.93473 6.53654 9.07707 6.44704 9.23765 6.38164ZM34.2231 29.8825C33.9676 30.2577 33.6975 30.626 33.4566 31.0081C33.1282 31.5279 32.8106 32.0581 32.5114 32.5916C32.3179 32.9393 32.161 33.3076 31.9785 33.6897C31.599 33.4006 31.2194 33.4522 30.8435 33.7069C30.4968 33.2457 30.1537 32.781 29.807 32.3231C29.0479 31.3145 28.2851 30.3059 27.526 29.2939C27.3727 29.0908 27.2377 28.8808 27.0698 28.6915C26.9676 28.5779 26.9384 28.4849 26.9603 28.3334C27.0223 27.8756 26.9384 27.4212 26.6975 27.0288C26.4749 26.6639 26.1464 26.3679 25.7158 26.2061C25.4822 26.12 25.2304 26.0787 25.0004 25.9858C24.9019 25.9445 24.8252 25.8377 24.7559 25.7482C24.2997 25.1596 23.8435 24.5675 23.3909 23.9754L22.6793 23.046C23.3654 22.5847 24.1099 22.2749 24.8909 22.0615C25.3763 21.9272 25.869 21.9686 26.3727 22.1407C27.8946 22.657 29.4384 23.1183 30.9639 23.6243C31.2048 23.7035 31.4274 23.8722 31.6245 24.0374C32.2048 24.5159 32.6355 25.1011 33.0004 25.7379C33.172 26.0374 33.3763 26.3231 33.5187 26.6329C33.6756 26.9737 33.7705 27.3352 33.9055 27.6863C34.0917 28.1751 34.1099 28.6846 34.161 29.194C34.1829 29.404 34.2231 29.614 34.2523 29.8274C34.2377 29.8446 34.2304 29.8618 34.2231 29.8825ZM19.6574 13.0185C19.3654 12.7672 19.0844 12.5021 18.7742 12.2715C18.3106 11.9204 17.7596 11.7138 17.1829 11.614C16.7413 11.5383 16.2814 11.5211 15.8325 11.5451C15.3106 11.5727 14.8216 11.7448 14.3946 12.0408C14.3581 12.0684 14.3143 12.089 14.2741 12.1131C12.7304 10.1131 11.1866 8.11658 9.64276 6.12002C10.0442 5.72759 10.172 5.5658 9.96393 5.04257C13.1355 4.74997 16.0588 3.77923 18.796 2.27148C18.8252 2.81537 19.2304 2.98749 19.7267 3.0047C19.7304 3.03568 19.734 3.07011 19.734 3.10109C19.734 6.37475 19.734 9.65186 19.7304 12.9255C19.7304 12.9531 19.7267 12.984 19.7267 13.0116C19.7048 13.015 19.6793 13.0185 19.6574 13.0185ZM38.0953 15.7207C38.0442 15.9376 37.9895 16.151 37.9457 16.3713C37.869 16.7534 37.7741 17.1355 37.7377 17.5211C37.6756 18.1303 37.6355 18.7431 37.6245 19.3558C37.6172 19.9032 37.661 20.4505 37.6902 20.9978C37.7085 21.3593 37.7267 21.7207 37.7705 22.0787C37.8325 22.5606 37.9165 23.0426 38.0041 23.5211C38.0661 23.8515 38.1464 24.1751 38.2267 24.5228C38.0807 24.5228 37.9347 24.5021 37.796 24.5262C37.5187 24.5744 37.3325 24.7431 37.2596 24.9978C37.2231 25.1183 37.1683 25.1252 37.0661 25.0908C36.526 24.9118 35.9895 24.7328 35.4493 24.5606C35.0698 24.4402 34.6902 24.33 34.307 24.213C34.0223 24.1269 33.7377 24.0477 33.4603 23.9445C33.3508 23.9032 33.245 23.824 33.1683 23.7414C32.7048 23.2422 32.1902 22.7982 31.6282 22.4023C31.0041 21.9651 30.2997 21.6587 29.599 21.3593C29.3435 21.2526 29.0698 21.1906 28.7668 21.0976C30.0114 20.0133 30.5953 18.7052 30.3471 17.0735C30.4238 17.0529 30.5223 17.0254 30.6172 16.9978C31.3106 16.7844 32.0041 16.5744 32.6939 16.361C33.1172 16.2267 33.5369 16.0822 33.9603 15.9479C34.5114 15.7723 35.0661 15.6071 35.6172 15.435C36.0844 15.287 36.5515 15.1424 37.0114 14.984C37.1647 14.9324 37.2194 14.984 37.2449 15.1045C37.3033 15.4006 37.515 15.5727 37.7924 15.6794C37.88 15.7035 37.9858 15.7035 38.0953 15.7207ZM4.94568 28.8911C4.65371 28.5847 4.36904 28.2715 4.06612 27.9754C3.7632 27.6794 3.44568 27.404 3.13181 27.1183C2.93838 26.9427 2.74495 26.7672 2.52962 26.571C3.09532 26.3403 3.01138 25.9135 2.85079 25.4522C5.19021 24.75 7.51868 24.0477 9.86539 23.3421C9.7997 23.6863 9.71941 23.9823 9.69386 24.2818C9.63911 24.9324 9.66101 25.583 9.89094 26.2061C9.96758 26.4126 10.1099 26.6088 10.2596 26.781C10.6501 27.2285 11.1574 27.5417 11.7121 27.762C12.0333 27.8894 12.3946 27.9617 12.7705 27.8928C13.0479 27.8412 13.3362 27.8446 13.6172 27.8274C13.3581 28.1785 13.0953 28.5331 12.8362 28.8877C12.8106 28.9221 12.7851 28.9531 12.7596 28.9875C12.5552 29.2422 12.3471 29.4935 12.1501 29.7551C11.7486 30.2853 11.3581 30.8223 10.9603 31.3524C10.734 31.6553 10.4968 31.9513 10.2705 32.2543C9.97123 32.657 9.67926 33.0632 9.38364 33.466C9.31795 33.5555 9.2486 33.6381 9.17561 33.7379C8.93838 33.5486 8.66101 33.4866 8.35809 33.5038C8.3216 33.5038 8.27415 33.497 8.25225 33.5142C8.06247 33.6484 8.01868 33.5211 7.94568 33.3834C7.65736 32.836 7.36904 32.2887 7.05882 31.7517C6.86174 31.404 6.63546 31.0735 6.41284 30.7396C6.2851 30.5538 6.13546 30.3816 5.99678 30.1992C5.83254 29.9823 5.66831 29.762 5.50408 29.5417C5.46758 29.497 5.42743 29.4522 5.39094 29.4075C5.31795 29.318 5.24495 29.2285 5.16831 29.1355C5.14276 29.1114 5.12087 29.0873 5.09532 29.0632C5.08437 29.0529 5.07342 29.0391 5.05882 29.0288C5.01868 28.984 4.98218 28.9393 4.94568 28.8911ZM10.015 34.7775C10.099 34.3885 9.82524 34.1992 9.54057 34.003C12.2559 30.4883 14.9639 26.9772 17.6756 23.4625C17.9749 23.5865 18.1537 23.7896 18.307 23.9995C18.6464 24.4608 18.9019 24.9668 19.0771 25.5038C19.307 26.2026 19.4603 26.9118 19.2997 27.6519C19.2012 28.1097 19.1428 28.5813 18.9968 29.0254C18.8252 29.5452 18.6209 30.0649 18.3544 30.5469C18.0953 31.0116 17.745 31.435 17.4165 31.8618C16.8143 32.6398 15.9968 33.1871 15.1355 33.6794C14.9822 33.7655 14.8471 33.8825 14.6866 33.9479C14.4092 34.0649 14.1245 34.1682 13.8325 34.2577C13.4019 34.392 12.9676 34.5159 12.5296 34.6295C12.3362 34.6777 12.1318 34.6983 11.9311 34.7087C11.3289 34.7431 10.7267 34.7637 10.1245 34.7913C10.099 34.7878 10.0734 34.7844 10.015 34.7775ZM20.3654 29.7104C20.672 29.9513 20.9566 30.2233 21.2887 30.4264C21.7486 30.7087 22.2632 30.9152 22.807 31.0116C23.7048 31.1699 24.5953 31.1768 25.4274 30.75C25.8544 30.5297 26.2085 30.2302 26.453 29.8274C26.5479 29.6725 26.6574 29.5245 26.7814 29.3421C28.0077 30.8773 29.2194 32.3954 30.4457 33.9307C30.0698 34.2026 29.7267 34.4952 29.9566 35.0254C26.8106 35.2594 23.9201 36.2061 21.2158 37.7345C21.1793 37.5211 21.1428 37.3283 20.8873 37.2939C20.6939 37.2663 20.5041 37.2319 20.2924 37.194C20.2924 37.1803 20.2851 37.1355 20.2851 37.0908C20.2851 34.657 20.2887 32.2233 20.2887 29.793C20.2887 29.7689 20.2924 29.7482 20.2924 29.7242C20.3143 29.7138 20.3398 29.7138 20.3654 29.7104ZM1.83984 15.6347C2.10262 15.645 2.35444 15.5796 2.53692 15.3765C2.61722 15.2835 2.67926 15.1665 2.71941 15.0495C2.7559 14.9462 2.7778 14.9324 2.89459 14.9703C3.34349 15.1183 3.79605 15.2526 4.2486 15.3902C4.43838 15.4488 4.64276 15.4832 4.81065 15.5761C4.89824 15.6243 4.93838 15.7655 4.98583 15.8687C5.16466 16.2543 5.33254 16.6433 5.50773 17.0288C5.7632 17.5865 6.14276 18.0718 6.55152 18.5365C7.09897 19.1596 7.70116 19.731 8.39459 20.2095C8.93473 20.5847 9.51503 20.9014 10.1318 21.1527C10.453 21.287 10.7814 21.404 11.1099 21.5314C11.1464 21.5452 11.1756 21.5761 11.2231 21.6106C11.0588 21.7896 10.8909 21.9686 10.7267 22.1476C10.5917 22.2921 10.4676 22.447 10.3289 22.5847C10.2559 22.657 10.161 22.7259 10.0625 22.7569C8.64641 23.2216 7.22671 23.6828 5.807 24.1407C5.15736 24.3507 4.50408 24.5503 3.85444 24.7569C3.54057 24.8567 3.234 24.9634 2.92014 25.0667C2.86539 25.0839 2.807 25.0976 2.7413 25.1114C2.67926 24.6054 2.30335 24.4815 1.86539 24.4574C2.56612 21.5073 2.46393 18.5779 1.83984 15.6347ZM20.2486 2.97716C20.442 2.95307 20.6391 2.9393 20.8289 2.89799C21.0442 2.8498 21.1647 2.69489 21.234 2.50212C21.245 2.47114 21.2705 2.44704 21.2924 2.41951C24.0041 3.93758 26.9639 4.70178 30.0807 4.99438C29.8398 5.31796 29.8179 5.78956 30.2814 6.03052C30.3909 6.0856 30.4384 6.14756 30.3289 6.25427C30.2413 6.33689 30.1756 6.43672 30.1026 6.52966C30.0333 6.61572 29.9493 6.65014 29.8252 6.65014C29.1318 6.64326 28.4384 6.63637 27.745 6.66047C27.4749 6.6708 27.2048 6.74308 26.942 6.80849C26.4384 6.93241 25.9311 7.0529 25.442 7.21469C25.1464 7.31107 24.8727 7.47286 24.6026 7.62432C24.0661 7.92725 23.5296 8.23018 23.0077 8.5572C22.8143 8.67768 22.672 8.86701 22.5004 9.02191C22.2486 9.25255 21.9712 9.46253 21.7413 9.71038C21.4347 10.0408 21.1391 10.3851 20.8763 10.75C20.672 11.0288 20.526 11.3421 20.3544 11.6415C20.3362 11.6415 20.3179 11.6381 20.2997 11.6381C20.296 10.5779 20.2924 9.52105 20.2924 8.46081C20.2887 7.52105 20.296 6.58474 20.2851 5.64498C20.2778 4.99093 20.2486 4.33345 20.2304 3.6794C20.2304 3.44188 20.2413 3.2078 20.2486 2.97716Z" fill="black"/>
<path d="M29.0071 7.89983C28.9231 7.99622 28.8574 8.06162 28.8027 8.13391C28.4523 8.59174 28.102 9.04957 27.748 9.50741C27.1823 10.2406 26.6129 10.967 26.0472 11.7002C25.6859 12.1718 25.3355 12.6503 24.9742 13.1184C24.4925 13.7415 23.9998 14.3508 23.5217 14.9773C23.091 15.5384 22.675 16.1133 22.248 16.6778C21.9523 17.0702 21.6531 17.4558 21.3501 17.8448C21.2334 17.9928 21.1859 17.9893 21.1166 17.8207C20.9377 17.4041 20.7844 16.9738 20.7589 16.5229C20.7297 16.0444 20.6859 15.559 20.7334 15.0874C20.7771 14.6021 20.8939 14.1167 21.0326 13.6451C21.3063 12.7019 21.7772 11.8344 22.4231 11.0737C22.81 10.6193 23.2698 10.2165 23.7334 9.82754C24.102 9.51773 24.5034 9.23546 24.9195 8.98417C25.3611 8.71222 25.8428 8.50224 26.3611 8.36799C26.748 8.26816 27.1275 8.13391 27.5144 8.03408C27.9779 7.90672 28.4633 7.85852 29.0071 7.89983ZM6.62387 16.1683C10.2917 17.2905 13.9049 18.3921 17.5801 19.5143C17.2589 19.6795 16.9852 19.8413 16.6932 19.9687C16.2772 20.1477 15.8538 20.3095 15.4268 20.4678C15.1275 20.5814 14.8063 20.609 14.4888 20.6262C14.3501 20.6331 14.2151 20.6503 14.0764 20.6571C13.3355 20.695 12.6239 20.5401 11.9122 20.368C11.2699 20.2096 10.6823 19.9411 10.0947 19.6589C9.68591 19.4627 9.28445 19.2527 8.94138 18.9738C8.56182 18.6675 8.20051 18.337 7.87204 17.9825C7.56912 17.6554 7.3027 17.2905 7.04722 16.9291C6.89029 16.7019 6.77715 16.4472 6.62387 16.1683ZM19.7626 37.1735C19.372 37.2355 18.9049 37.1287 18.737 37.6451C17.1896 36.7673 15.5107 36.1993 13.7772 35.7036C14.1348 35.5659 14.4633 35.4317 14.799 35.3146C15.4049 35.0978 15.9742 34.8086 16.5107 34.4678C16.7553 34.3095 16.9852 34.1236 17.2078 33.9377C17.6239 33.5831 18.0399 33.2286 18.4377 32.8602C18.7808 32.5401 19.029 32.1477 19.2626 31.7518C19.3939 31.5281 19.5217 31.2974 19.6713 31.0324C19.7078 31.1047 19.7589 31.1597 19.7589 31.2148C19.7626 33.1942 19.7626 35.1769 19.7626 37.1735ZM25.529 27.6864C25.799 28.0685 25.6896 28.8293 25.3501 29.1942C24.9122 29.6623 24.3793 29.9308 23.7151 29.8861C23.2078 29.8516 22.6932 29.7897 22.2516 29.5246C21.8611 29.2905 21.518 29.0048 21.2662 28.6262C20.9706 28.1855 20.7881 27.7208 20.7553 27.201C20.7443 26.9979 20.6677 26.7914 20.6969 26.5986C20.7589 26.1683 20.8611 25.7449 20.9633 25.3215C21.0144 25.1184 21.0947 24.9153 21.1823 24.7226C21.4122 24.2096 21.8428 23.8413 22.2443 23.4523C22.3136 23.3835 22.3355 23.4145 22.383 23.4833C22.7334 23.9618 23.091 24.4334 23.4523 24.905C23.7297 25.2699 24.0144 25.6313 24.2954 25.9962C24.1239 26.0719 23.9268 26.1236 23.7845 26.2303C23.5655 26.399 23.3574 26.5917 23.1859 26.8052C23.0071 27.0289 22.9012 27.2871 22.9049 27.5831C22.9158 28.0892 23.31 28.6158 23.8428 28.7742C24.2954 28.9084 24.7042 28.874 25.0764 28.6158C25.2078 28.5229 25.31 28.3783 25.383 28.2372C25.445 28.1167 25.4377 27.9652 25.4669 27.831C25.4742 27.7828 25.4998 27.7484 25.529 27.6864ZM17.3611 23.0702C16.6129 24.0238 15.8757 24.9601 15.1385 25.8964C15.1239 25.8895 15.1093 25.8861 15.0947 25.8792C15.1275 25.5556 15.0399 25.2596 14.883 24.9773C14.5253 24.3405 13.8136 24.0513 13.0728 24.1546C12.7553 24.1993 12.5217 24.337 12.3465 24.5539C12.1677 24.7776 12.0728 25.0427 12.0655 25.3284C12.0582 25.5625 12.0764 25.7897 12.2042 25.9962C12.3903 26.2923 12.6713 26.4403 13.029 26.4713C13.1129 26.4781 13.2005 26.4713 13.3027 26.5126C13.2042 26.5573 13.1056 26.6365 13.0071 26.6365C12.7261 26.6365 12.4268 26.6571 12.175 26.5676C11.6056 26.3611 11.175 25.9756 11.0326 25.4041C10.9341 25.0186 10.956 24.6124 11.0509 24.2131C11.1567 23.7553 11.3465 23.3353 11.6859 22.9979C11.8538 22.8327 12.0618 22.6916 12.2808 22.5917C12.6823 22.4059 13.091 22.2269 13.5144 22.1029C13.9998 21.9584 14.5071 21.9446 15.0253 21.9893C15.7297 22.0479 16.3027 22.3783 16.8866 22.6985C17.0618 22.7948 17.2042 22.9463 17.3611 23.0702ZM29.0801 17.473C29.0618 17.9136 29.0983 18.3198 28.9596 18.7363C28.7443 19.38 28.3319 19.8482 27.737 20.189C27.445 20.3577 27.1713 20.5573 26.8173 20.6055C26.7005 20.6193 26.5837 20.6503 26.4669 20.6571C25.9158 20.7019 25.3647 20.6744 24.8246 20.5814C24.4815 20.5229 24.1494 20.399 23.8282 20.2647C23.5034 20.1305 23.1896 19.9618 22.8903 19.7828C22.7443 19.6967 22.6348 19.5556 22.4998 19.4248C23.4414 19.1494 24.3355 18.8843 25.2297 18.6227C25.4304 18.5642 25.6275 18.4747 25.8319 18.4472C25.9888 18.4265 26.1567 18.4644 26.3173 18.4954C26.883 18.6021 27.675 18.4334 27.9158 17.8757C27.9304 17.8413 27.9742 17.8034 28.0144 17.7931C28.3574 17.683 28.7078 17.5831 29.0801 17.473ZM18.7589 17.9859C18.3939 17.504 18.0582 17.0668 17.7261 16.6262C17.4998 16.3232 17.2772 16.0169 17.0618 15.7071C17.029 15.6589 17.0217 15.5763 17.0326 15.5177C17.1713 14.8189 16.9998 14.2337 16.2662 13.8551C16.1093 13.7759 15.8939 13.8 15.7078 13.7725C15.6531 13.7656 15.5764 13.7587 15.5509 13.7243C15.4122 13.5556 15.2844 13.3766 15.1567 13.2045C15.5107 12.843 15.9268 12.8121 16.3939 12.8671C16.6932 12.905 17.0071 12.8706 17.2845 13.0048C17.5728 13.1425 17.8684 13.2802 18.1275 13.4558C18.6677 13.8275 19.0618 14.3164 19.2261 14.9325C19.3793 15.5074 19.456 16.0926 19.2662 16.6778C19.1969 16.8947 19.1202 17.1115 19.0399 17.3215C18.9596 17.5315 18.8647 17.738 18.7589 17.9859ZM34.2224 29.8826C34.2297 29.862 34.237 29.8448 34.2443 29.8241C34.299 29.7862 34.3684 29.7621 34.4049 29.7139C34.748 29.2699 35.0874 28.8224 35.4414 28.3577C35.4633 28.4265 35.4961 28.4781 35.4998 28.5332C35.5326 28.9635 35.5801 29.3938 35.5874 29.8241C35.602 30.5022 35.4815 31.1632 35.2699 31.8103C35.0691 32.4231 34.8355 33.022 34.4304 33.5418C34.1823 33.8585 33.9012 34.1546 33.4669 34.2682C32.8866 34.4196 32.799 34.3232 32.4341 33.9102C32.3866 33.8551 32.3465 33.7862 32.3282 33.7174C32.3027 33.6107 32.3246 33.504 32.4523 33.473C32.5655 33.4454 32.664 33.4661 32.6896 33.6107C32.7188 33.7587 32.8903 33.8103 33.0618 33.7553C33.3465 33.6623 33.5326 33.4523 33.6932 33.2389C34.0217 32.7983 34.2151 32.2991 34.2553 31.7553C34.2881 31.325 34.3282 30.8947 34.3319 30.4644C34.3392 30.2682 34.2626 30.0754 34.2224 29.8826ZM37.3465 26.5917C36.6421 27.1012 36.029 27.6967 35.4596 28.3783C35.2188 26.9463 34.6348 25.6967 33.8136 24.5332L33.8465 24.4919C34.0837 24.5608 34.3246 24.6262 34.5618 24.695C34.9961 24.8189 35.4304 24.9429 35.8611 25.0702C36.2407 25.1838 36.6239 25.2974 36.9998 25.4179C37.029 25.4282 37.0509 25.4971 37.0472 25.5384C37.0363 25.621 37.0071 25.7002 36.9852 25.7794C36.8939 26.1167 37.018 26.3714 37.3136 26.5642C37.3355 26.5711 37.3428 26.5883 37.3465 26.5917ZM4.51803 11.7208C4.31365 12.2923 4.39394 12.874 4.41584 13.4454C4.43408 13.9274 4.58372 14.4024 4.67496 14.8809C4.68591 14.9291 4.70416 14.9807 4.69686 15.0289C4.69321 15.0565 4.64211 15.1081 4.62751 15.1047C4.06912 14.9497 3.51438 14.788 2.95598 14.6262C2.92314 14.6158 2.89759 14.5917 2.88299 14.5814C2.91584 14.4265 2.96328 14.2819 2.97423 14.1339C2.99248 13.8895 2.87934 13.7002 2.64211 13.5866C2.54357 13.5384 2.55817 13.4902 2.62387 13.4317C3.05452 13.0392 3.48518 12.6468 3.91949 12.2578C4.11292 12.0823 4.30635 11.9102 4.51803 11.7208ZM2.12751 25.053C2.237 25.3491 2.33919 25.6244 2.44868 25.9239C2.13116 25.9721 1.82824 26.0169 1.52897 26.0616C1.17131 26.1133 0.850142 26.2475 0.536274 26.4162C0.452332 26.4609 0.313646 26.4747 0.229704 26.4403C0.0983176 26.3886 0.0326241 26.2578 0.0581716 26.1133C0.083719 25.9756 0.204157 25.9136 0.320945 25.8998C0.762551 25.8379 1.14941 25.6485 1.51803 25.4282C1.71876 25.3112 1.90854 25.1873 2.12751 25.053ZM37.883 15.022C37.7881 14.7845 37.6932 14.5539 37.5983 14.3232C37.5472 14.1993 37.6166 14.1683 37.7297 14.1511C38.0363 14.1064 38.3501 14.0823 38.6531 14.0065C38.8903 13.948 39.1129 13.831 39.3428 13.7346C39.3757 13.7208 39.3976 13.683 39.4304 13.6761C39.5582 13.6554 39.7115 13.6003 39.8136 13.6417C39.8939 13.6726 39.9523 13.8379 39.945 13.9377C39.9377 14.096 39.7881 14.189 39.6348 14.2131C39.0326 14.3026 38.5472 14.6021 38.0655 14.9188C38.0399 14.936 38.0217 14.9566 37.9961 14.9738C37.9633 14.9945 37.9304 15.0048 37.883 15.022ZM37.8647 25.0496C38.3574 25.4317 38.8866 25.7139 39.4669 25.8998C39.5071 25.9136 39.5436 25.9239 39.5837 25.9274C39.8355 25.948 39.8976 26.0031 39.8793 26.2303C39.872 26.3129 39.8282 26.43 39.7662 26.4575C39.6823 26.4919 39.5399 26.4885 39.4633 26.4403C39.0326 26.1821 38.5618 26.0582 38.0582 26.0306C37.9122 26.0238 37.7662 25.9962 37.6239 25.9549C37.5874 25.9446 37.5472 25.8516 37.5618 25.8103C37.6494 25.559 37.7553 25.3146 37.8647 25.0496ZM2.47788 14.2062C2.37934 14.4609 2.29175 14.7088 2.18956 14.9497C2.17861 14.9738 2.07642 14.9945 2.05452 14.9773C1.62387 14.6434 1.12022 14.43 0.605617 14.2406C0.47788 14.1924 0.320945 14.2441 0.207807 14.1201C0.131164 14.0341 0.0946679 13.8138 0.17131 13.7208C0.262551 13.6072 0.368391 13.5556 0.539923 13.6589C1.02168 13.9446 1.53627 14.1442 2.11657 14.158C2.23335 14.158 2.34284 14.1855 2.47788 14.2062ZM20.5144 2.50568H19.5363C19.5983 2.27161 19.6567 2.04785 19.7188 1.83099C19.8319 1.42135 19.8976 1.01171 19.7735 0.591743C19.7407 0.478146 19.7516 0.350779 19.7699 0.23374C19.7844 0.113258 19.883 0.0719497 20.0071 0.075392C20.1531 0.075392 20.2516 0.123585 20.2771 0.264721C20.2881 0.33701 20.2917 0.416184 20.2735 0.488473C20.1312 1.12186 20.2297 1.7346 20.4304 2.34045C20.4487 2.38864 20.4815 2.44028 20.5144 2.50568ZM9.45963 5.56593C9.20416 5.74837 8.96328 5.92049 8.71511 6.09949C8.55087 5.54183 8.2516 5.07367 7.90489 4.62961C7.83189 4.53322 7.70416 4.47126 7.64211 4.37143C7.58737 4.28537 7.54357 4.15801 7.56912 4.06506C7.58737 3.99278 7.70781 3.92049 7.7954 3.89639C7.93773 3.86197 8.01803 3.96179 8.08372 4.07539C8.22606 4.31636 8.34284 4.57797 8.52533 4.78451C8.72241 5.00827 8.98518 5.17694 9.21876 5.36971C9.29175 5.43512 9.36474 5.49364 9.45963 5.56593ZM30.9341 5.7587C30.8611 5.70018 30.7917 5.63477 30.7115 5.59002C30.6056 5.53494 30.6421 5.49019 30.7078 5.442C30.8501 5.33873 30.9961 5.2389 31.1348 5.13219C31.4961 4.86369 31.7735 4.53322 31.9633 4.13735C32.029 3.99966 32.102 3.85508 32.299 3.89639C32.383 3.9136 32.4888 3.96868 32.518 4.03408C32.5509 4.10637 32.5436 4.23374 32.4961 4.2957C32.3465 4.48159 32.1348 4.62961 32.0071 4.82926C31.7626 5.20792 31.5618 5.61412 31.3319 6.0272C31.2516 5.96868 31.1385 5.89295 31.0253 5.81377C30.9925 5.79656 30.9633 5.77935 30.9341 5.7587ZM28.0363 17.2871C28.0107 16.5022 27.3976 16.306 26.6932 16.1305C26.8501 16.0685 26.9596 15.9962 27.0764 15.9824C27.6604 15.917 28.1786 16.0444 28.5874 16.4644C28.7005 16.5814 28.8246 16.695 28.9304 16.8189C29.0144 16.9188 28.9961 17.0186 28.8611 17.0599C28.5874 17.1425 28.31 17.2114 28.0363 17.2871ZM32.1969 36.2406C32.1129 36.1683 32.0363 36.127 31.9961 36.0651C31.8428 35.8379 31.7188 35.5935 31.5545 35.3731C31.4523 35.2389 31.3063 35.1287 31.175 35.0186C31.029 34.8981 30.8757 34.7811 30.7188 34.6709C30.6348 34.6124 30.6166 34.5814 30.7188 34.5126C30.883 34.4024 31.0326 34.2682 31.1859 34.1442C31.2954 34.0547 31.3611 34.0651 31.4012 34.2028C31.5436 34.6847 31.8319 35.0909 32.1458 35.4833C32.2151 35.5694 32.3027 35.6451 32.3903 35.7139C32.5034 35.8 32.5509 35.9205 32.4925 36.0272C32.445 36.1133 32.3173 36.158 32.1969 36.2406ZM9.40854 34.5367C9.13846 34.7639 8.85744 34.9704 8.61657 35.2079C8.44138 35.38 8.30635 35.5935 8.16036 35.7931C8.10562 35.8689 8.06912 35.9618 8.01438 36.0375C7.93408 36.1442 7.8246 36.1959 7.68956 36.1339C7.55087 36.0719 7.49613 35.9343 7.57277 35.8034C7.64211 35.6864 7.74795 35.5866 7.83919 35.4799C8.17131 35.0909 8.44503 34.6744 8.61657 34.1993C8.67861 34.0238 8.73335 34.01 8.88664 34.1305C9.05452 34.2647 9.2297 34.3955 9.40854 34.5367ZM19.5326 37.6692H20.3757C20.3209 38.0306 20.2626 38.3921 20.2115 38.757C20.1896 38.9188 20.1713 39.084 20.1786 39.2458C20.1859 39.4041 20.2261 39.5625 20.248 39.7243C20.2698 39.8861 20.1458 39.948 20.0144 39.9687C19.8611 39.9928 19.7771 39.8826 19.7443 39.7656C19.7188 39.6692 19.7516 39.5625 19.7516 39.4592C19.7589 39.1701 19.7954 38.8775 19.7626 38.5917C19.7188 38.2854 19.6129 37.9859 19.5326 37.6692ZM31.9925 6.50568C32.0363 6.63305 32.0801 6.75009 32.1239 6.87746C31.6494 6.92221 31.2078 6.8568 30.7662 6.77419C30.7188 6.76386 30.6713 6.76386 30.6275 6.74665C30.5947 6.73632 30.5436 6.69846 30.5436 6.69501C30.6056 6.59519 30.6713 6.49191 30.748 6.40241C30.7589 6.38864 30.8465 6.41963 30.8903 6.44372C31.0947 6.57109 31.3246 6.62272 31.5655 6.60207C31.7005 6.59519 31.8355 6.54355 31.9925 6.50568ZM27.4779 22.0341C28.372 22.0719 29.1896 22.337 29.9633 22.7432C29.956 22.7639 29.9487 22.7811 29.945 22.8017C29.1166 22.5642 28.2917 22.3267 27.4633 22.0857C27.4669 22.0685 27.4742 22.0513 27.4779 22.0341ZM14.4998 14.8155C14.3173 14.3818 14.383 13.9928 14.6969 13.6072C14.7917 13.7243 14.8793 13.8275 14.9596 13.9308C14.9742 13.9515 14.9852 14.0031 14.9706 14.0169C14.7662 14.2406 14.6385 14.4988 14.5472 14.7742C14.5436 14.788 14.5217 14.7983 14.4998 14.8155ZM20.248 2.97729C20.2407 3.21136 20.2297 3.442 20.2224 3.67608C20.2042 3.621 20.175 3.56593 20.175 3.51085C20.1677 3.36283 20.1677 3.21481 20.175 3.07023C20.175 3.0358 20.2224 3.00482 20.248 2.97729ZM20.2917 11.6348C20.31 11.6348 20.3282 11.6382 20.3465 11.6382L20.3136 11.7518C20.3027 11.7484 20.2954 11.7484 20.2844 11.7449C20.2881 11.7105 20.2917 11.6726 20.2917 11.6348ZM12.7589 28.9911C12.7844 28.9566 12.81 28.9256 12.8355 28.8912C12.8136 28.9256 12.7844 28.9566 12.7589 28.9911ZM20.3647 29.7105C20.3392 29.7139 20.3173 29.7174 20.2917 29.7174C20.299 29.6967 20.3027 29.6726 20.31 29.652C20.3246 29.6692 20.3428 29.6898 20.3647 29.7105ZM5.09102 29.0668C5.11657 29.0909 5.13846 29.115 5.16401 29.1391C5.13846 29.1115 5.11657 29.0874 5.09102 29.0668Z" fill="black"/>
<path d="M30.9336 5.75879L31.0212 5.81042C30.992 5.79665 30.9628 5.77944 30.9336 5.75879ZM19.6562 13.0187C19.6781 13.0187 19.7037 13.0152 19.7256 13.0152C19.7256 13.029 19.7219 13.0428 19.7219 13.06L19.6562 13.0187Z" fill="black"/>
</g>
<defs>
<clipPath id="clip0_283_189">
<rect width="40" height="40" fill="white"/>
</clipPath>
</defs>
</svg>
