<svg width="40" height="40" viewBox="0 0 40 40" fill="none" xmlns="http://www.w3.org/2000/svg">
<g clip-path="url(#clip0_283_163)">
<rect width="40" height="40" fill="white"/>
<path d="M19.966 40.0001C19.9104 39.664 19.8671 39.328 19.8053 38.9919C19.5458 37.5604 19.2801 36.1352 19.0267 34.7099C18.6745 32.737 18.3408 30.7641 17.9886 28.7974C17.8464 28.0007 17.7352 27.1917 17.4819 26.4324C17.3212 25.9469 17.3088 25.6419 17.6796 25.2685C18.106 24.8329 18.2172 24.2292 18.2419 23.6317C18.2605 23.1462 18.279 22.6546 18.2358 22.1691C18.2049 21.8455 18.0689 21.5281 17.9577 21.1235C17.8279 21.2667 17.7846 21.3164 17.7414 21.3662C17.1049 22.1255 16.4561 22.8724 15.8443 23.6441C15.5168 24.0549 15.1893 24.4843 14.9668 24.9511C14.2809 26.4075 14.2314 27.9572 14.5095 29.5193C14.6887 30.5214 14.9359 31.5047 15.4612 32.3947C13.8483 30.8077 12.5753 28.9716 11.7349 26.8742C10.7524 24.4345 10.3507 21.9824 10.7894 20.2086C10.8327 20.2833 10.876 20.358 10.9068 20.4389C11.2591 21.4658 11.945 22.138 12.9832 22.4367C13.6011 22.6172 14.7443 22.3932 15.0718 21.5156C13.7618 21.0799 13.1871 19.9597 12.6433 18.8207C12.2972 18.0988 12.1304 16.7295 12.3096 16.0947C13.1562 17.4142 14.0769 18.6278 15.5724 19.3311C15.2325 18.3477 15.3499 17.3893 15.4241 16.4308C15.4241 16.3126 15.387 16.1943 15.3128 16.0947C14.769 15.4537 14.2314 14.8126 13.6691 14.1903C13.2427 13.7235 12.5815 13.7546 12.2416 14.2961C12.013 14.6508 11.84 15.0429 11.7411 15.4599C11.4815 16.5864 11.4939 17.7316 11.8523 18.8394C12.0006 19.3062 12.254 19.7418 12.4641 20.1962C12.5321 20.3331 12.6062 20.47 12.6989 20.6505C12.254 20.6443 11.9388 20.4202 11.6484 20.1899C11.1355 19.7854 10.7833 19.2626 10.5175 18.6589C9.83779 17.0905 9.28164 15.4723 8.86143 13.8106C8.79963 13.5679 8.60189 13.4994 8.40414 13.711C8.11371 14.0098 7.79855 14.3272 7.61935 14.6944C6.92106 16.1134 6.64298 17.6382 6.61208 19.2128C6.59355 20.2148 6.60591 21.2231 6.60591 22.2376C6.38344 21.9575 6.13008 21.665 5.90762 21.3538C4.97451 20.0344 4.51105 18.5469 4.38128 16.9474C4.36892 16.7918 4.33802 16.6424 4.28859 16.493C4.12792 16.0263 3.71389 15.9018 3.38638 16.269C3.0774 16.6113 2.76843 16.9909 2.60776 17.4079C1.94037 19.1008 1.61286 20.887 1.2977 22.6794C1.05052 24.03 1.06906 25.393 1.09378 26.7622C1.09996 26.8805 1.0876 26.9987 1.05052 27.1108C1.01962 27.0423 0.994905 26.9738 0.976367 26.9054C0.784802 26.1398 0.580878 25.3805 0.401672 24.615C0.0741577 23.2396 -0.0494326 21.8268 0.0247216 20.4202C0.0988757 19.0137 0.216287 17.6071 0.383133 16.213C0.525262 15.0491 0.8157 13.904 1.24827 12.821C1.61904 11.8688 1.95273 10.8979 2.37912 9.96434C2.70663 9.25483 3.14538 8.59511 3.53469 7.9105C4.18354 6.77778 4.95597 5.72597 5.83965 4.76751C6.62444 3.91486 7.4525 3.10577 8.30527 2.3278C9.19512 1.51249 10.1777 0.802987 11.2344 0.211731C11.4136 0.112151 11.6237 0.0748088 11.8152 0.00634766L11.8709 0.105928C11.7967 0.180612 11.7164 0.249074 11.636 0.311311C10.7029 0.883895 10.0788 1.74277 9.4732 2.62654C8.9912 3.3236 8.60807 4.07668 8.49684 4.9231C8.31145 6.32345 8.70694 7.55575 9.83161 8.42707C10.2333 8.73826 10.8018 8.88763 11.3147 8.99343C12.3158 9.20504 13.3107 9.15525 14.2747 8.70092C14.8185 8.44574 15.4117 8.28393 15.9802 8.08477C16.042 8.05987 16.1162 8.05365 16.2707 8.01631C16.1965 8.147 16.178 8.23414 16.1162 8.27148C15.0657 9.00588 14.5589 10.0577 14.5033 11.3024C14.4415 12.6717 14.9915 13.8666 15.7887 14.9807C16.2336 14.2276 16.7094 13.5305 17.4942 13.1198C17.3953 13.294 17.2903 13.4683 17.1976 13.6488C16.8145 14.3832 16.7465 15.1861 16.8454 15.9827C16.8824 16.3188 17.1049 16.6673 17.3335 16.9287C17.6054 17.2399 17.9639 17.4826 18.3099 17.7191C18.8722 18.105 19.2739 17.9058 19.2986 17.1714C19.3295 16.2939 19.2368 15.4163 19.1689 14.5326C19.1503 14.2898 19.0391 14.0596 18.9649 13.8231L18.8784 13.848C18.7795 14.2525 18.6745 14.657 18.5571 15.1114C18.3099 14.5139 18.106 13.9724 17.8588 13.4559C17.6363 12.9829 17.3953 12.5098 16.9133 12.2173C16.6723 12.0742 16.4622 11.9871 16.1965 12.1426C16.1285 12.1738 16.0544 12.1924 15.974 12.1987C15.9617 12.1551 15.9555 12.1426 15.9617 12.1364C16.4561 11.3024 16.5364 10.3564 16.6909 9.42909C16.8454 8.48931 17.3335 7.76736 18.1369 7.12009C18.0071 7.39393 17.9206 7.59309 17.8279 7.78603C17.5066 8.47064 17.5251 9.19259 17.5993 9.92077C17.624 10.1635 17.7414 10.4124 17.9886 10.4124C18.1492 10.4124 18.3223 10.2257 18.4706 10.1013C18.5571 10.0328 18.6065 9.92699 18.7239 9.83364C18.7116 10.4249 18.6992 11.0037 19.1812 11.4954C19.3913 11.0597 19.5952 10.6365 19.8053 10.2195C19.861 10.1262 19.9228 10.039 19.9907 9.95189C20.0649 10.039 20.1514 10.1199 20.207 10.2195C20.4171 10.6303 20.6149 11.0535 20.825 11.4954C21.307 11.0099 21.3132 10.4436 21.239 9.85231L21.3193 9.83986C21.4058 9.94567 21.4738 10.0764 21.5727 10.1573C21.7086 10.2693 21.894 10.4436 22.0176 10.4124C22.1659 10.3751 22.3513 10.1697 22.376 10.0079C22.512 9.26728 22.4996 8.52043 22.1906 7.81715C22.0979 7.61176 21.9991 7.4126 21.8693 7.14498C22.5861 7.674 23.0372 8.30882 23.2412 9.10546C23.3524 9.5349 23.3709 9.98923 23.4822 10.4187C23.6243 10.9539 23.822 11.4767 23.9951 12.0057C24.0136 12.0617 24.0321 12.1178 24.0569 12.18C24.026 12.1924 23.9889 12.2049 23.9518 12.2049C23.7355 12.1738 23.4945 12.0617 23.3153 12.1302C22.9322 12.2671 22.617 12.5534 22.444 12.9331C22.135 13.599 21.8508 14.2712 21.5542 14.9433C21.5356 14.9869 21.5171 15.0305 21.4553 15.1549C21.3317 14.6757 21.2328 14.2712 21.1278 13.8666L21.066 13.8417C20.9918 14.0284 20.8744 14.2089 20.8559 14.3956C20.7817 15.2856 20.7385 16.1756 20.6828 17.0656C20.6767 17.1714 20.689 17.2772 20.7076 17.3768C20.8373 17.9183 21.1401 18.049 21.6159 17.7938C22.1597 17.5013 22.6108 17.1154 22.9445 16.5802C23.2906 16.0263 23.1794 15.4412 23.1423 14.8562C23.1052 14.2712 22.8889 13.7484 22.5614 13.2691C22.5305 13.2256 22.5182 13.1696 22.5305 13.1198C23.2782 13.5554 23.7602 14.24 24.199 15.0056C24.99 13.9164 25.5214 12.7401 25.4905 11.3896C25.4596 10.0266 24.8169 8.94987 23.7232 8.13456L23.7973 8.05987C23.9394 8.09721 24.0816 8.12833 24.2175 8.17812C24.8911 8.42707 25.5585 8.68847 26.2382 8.91875C27.3753 9.2984 28.4876 9.16147 29.5875 8.73826C30.8605 8.25281 31.2869 7.18232 31.5094 5.96247C31.7009 4.91688 31.2066 4.06423 30.7678 3.19913C30.3291 2.33403 29.7235 1.58718 29.0808 0.883895C28.914 0.703407 28.7039 0.566485 28.5061 0.417115C28.3887 0.317535 28.2589 0.224179 28.1292 0.130823L28.1601 0.0312426C28.3269 0.0685851 28.5061 0.0810326 28.6544 0.155718C29.7049 0.722078 30.6875 1.41914 31.5711 2.22822C32.5043 3.06843 33.3941 3.96465 34.2531 4.89199C35.1305 5.84422 35.8906 6.89603 36.5209 8.02875C37.0091 8.89385 37.522 9.74651 37.936 10.6489C38.2883 11.4082 38.5231 12.2173 38.8074 13.0077C39.6725 15.3541 39.8579 17.8063 39.9753 20.2771C40.0865 22.6048 39.5736 24.8266 38.9866 27.0423C38.9618 27.0859 38.9371 27.1232 38.9062 27.1605C38.9 27.0423 38.8877 26.9676 38.8877 26.8929C38.8877 26.1025 38.968 25.3059 38.8753 24.5279C38.7085 23.0778 38.486 21.6339 38.2018 20.2024C38.0102 19.2502 37.7136 18.3166 37.3799 17.4017C37.2254 16.9785 36.9102 16.5988 36.6013 16.2628C36.2738 15.8956 35.8165 16.0138 35.7052 16.493C35.5693 17.0719 35.5322 17.6818 35.4148 18.2668C35.1305 19.6609 34.4199 21.1422 33.3199 22.2625C33.3323 22.082 33.3508 21.9388 33.357 21.7894C33.4744 19.8103 33.4435 17.8436 32.8627 15.9329C32.6402 15.211 32.4054 14.4828 31.8307 13.9413C31.7627 13.8791 31.7071 13.8044 31.6329 13.7421C31.3487 13.4994 31.188 13.5492 31.0953 13.904C30.6689 15.5906 30.1004 17.2399 29.3898 18.8269C29.0561 19.5738 28.5308 20.1962 27.7522 20.5385C27.6781 20.5696 27.5977 20.6007 27.5174 20.6194C27.4432 20.6318 27.3691 20.6443 27.2949 20.6505C27.5112 20.2024 27.6966 19.7854 27.9067 19.3809C28.3393 18.5531 28.4196 17.6569 28.4011 16.7544C28.3887 16.0325 28.2836 15.3105 27.9623 14.6384C27.6781 14.0471 27.2331 13.7733 26.7202 13.9351C26.5843 13.9787 26.4607 14.0533 26.3556 14.1529C25.7748 14.8064 25.2062 15.4661 24.6501 16.1258C24.5759 16.213 24.5636 16.3686 24.5636 16.493C24.5698 17.1652 24.6007 17.8374 24.5883 18.5095C24.5821 18.7709 24.4894 19.0323 24.4338 19.3186C25.8984 18.6278 26.8253 17.4204 27.6719 16.0885C28.0983 17.9121 26.6646 21.0426 24.8849 21.5218C25.095 21.9575 25.4781 22.2749 25.9354 22.4056C27.1899 22.7977 28.4999 21.833 28.9572 20.7625C29.0314 20.5945 29.087 20.4202 29.155 20.2522L29.2415 20.2584C29.2785 20.5758 29.3342 20.8932 29.3527 21.2169C29.4454 22.8039 29.1055 24.3287 28.6359 25.8287C28.1168 27.4904 27.2949 28.9903 26.2753 30.3782C25.818 31.0006 25.2989 31.5856 24.8108 32.1769C24.7304 32.2702 24.6316 32.3449 24.5265 32.3947C25.0579 31.4985 25.3113 30.5214 25.4843 29.5193C25.7562 27.9821 25.7006 26.4635 25.0641 25.0071C24.7984 24.4034 24.4029 23.9055 23.9333 23.4325C23.3586 22.8475 22.8766 22.1629 22.3575 21.5218C22.2833 21.4285 22.2215 21.3227 22.1041 21.1484C21.9929 21.3849 21.8569 21.5529 21.8261 21.7397C21.6839 22.6981 21.6283 23.6628 21.9496 24.5964C22.0671 24.9387 22.3081 25.2436 22.5305 25.5299C22.6788 25.7229 22.6974 25.866 22.6232 26.115C22.4193 26.756 22.2586 27.4095 22.135 28.0692C21.5109 31.486 20.8929 34.9029 20.2874 38.3259C20.2132 38.7554 20.1699 39.191 20.1081 39.6205C20.0896 39.7512 20.0525 39.8819 20.0216 40.0126L19.966 40.0001Z" fill="black"/>
</g>
<defs>
<clipPath id="clip0_283_163">
<rect width="40" height="40" fill="white"/>
</clipPath>
</defs>
</svg>
