<svg width="40" height="40" viewBox="0 0 40 40" fill="none" xmlns="http://www.w3.org/2000/svg">
<g clip-path="url(#clip0_283_185)">
<path d="M11.8319 18.0786C11.5382 17.8712 11.2859 17.6492 10.9882 17.4964C10.6904 17.3435 10.3472 17.2562 9.99976 17.1288C10.1652 16.8741 10.3223 16.6266 10.4878 16.3865C10.9013 15.786 11.3232 15.1892 11.7285 14.5815C11.8484 14.4214 11.8608 14.2176 11.7615 14.0502C11.4348 13.4352 11.1329 12.813 10.831 12.1907C10.7318 11.9869 10.6573 11.7686 10.5622 11.5611C9.93359 10.1892 9.30497 8.82096 8.67222 7.44905L8.63086 7.33988C8.71357 7.37263 8.79215 7.40902 8.87073 7.44905C9.89223 8.0786 10.9096 8.71179 11.9394 9.33406C12.2206 9.50146 12.5184 9.65429 12.8244 9.78894C13.0105 9.87991 13.238 9.84352 13.3786 9.70888C13.7094 9.41048 14.0403 9.10844 14.3422 8.78821C15.161 7.91485 15.8393 6.95779 16.501 5.99345C16.9187 5.38937 17.295 4.75982 17.6797 4.13755C18.3166 3.0968 18.9576 2.05968 19.5738 1.01164C19.7392 0.727802 19.8385 0.414847 19.9667 0.112809C19.9791 0.0873362 19.9915 0.0618632 20.0204 0C20.0535 0.0909752 20.0825 0.156477 20.1032 0.218341C20.3389 0.902474 20.7442 1.51747 21.1247 2.13974C21.7491 3.16594 22.3488 4.20306 23.0022 5.21106C23.573 6.08806 24.1768 6.95415 24.8137 7.79476C25.2438 8.36244 25.74 8.89374 26.2529 9.41048C26.7781 9.94541 26.989 10.0509 27.8037 9.56696C28.8046 8.96652 29.7806 8.32969 30.769 7.71106C30.9551 7.59461 31.1577 7.49636 31.3521 7.39083L31.3935 7.42358C31.3314 7.54731 31.2611 7.67103 31.2032 7.79476C30.7276 8.84279 30.2644 9.89083 29.7847 10.9352C29.4084 11.754 29.0113 12.5655 28.6226 13.3806C28.4944 13.6499 28.3662 13.9156 28.2338 14.1812C28.1429 14.3559 28.238 14.5087 28.329 14.6434C28.7342 15.2475 29.1561 15.8442 29.5697 16.4447C29.7144 16.6557 29.8467 16.8741 29.9915 17.0997C29.3174 17.3253 28.6391 17.5218 28.0643 17.9148C27.8575 17.6383 27.659 17.3654 27.4522 17.0961C27.1255 16.6776 26.7988 16.2591 26.4555 15.8479C26.166 15.5022 25.8021 15.2365 25.2686 15.3785C25.0742 15.4367 24.8964 15.5277 24.7433 15.6514C24.0692 16.1608 23.5027 16.7649 23.1056 17.46C22.7086 18.155 22.4729 18.8974 22.4977 19.6834C22.5101 20.0837 22.5184 20.484 22.5928 20.877C22.7086 21.4847 22.9443 22.0597 23.4199 22.5364C23.6515 22.7693 23.8914 22.9949 24.1313 23.2205C24.1809 23.2678 24.2512 23.3188 24.3174 23.3261C24.855 23.3916 25.3802 23.3734 25.8145 23.0349C26.0254 22.8712 26.228 22.6965 26.4348 22.5291C26.4927 22.4818 26.5548 22.4345 26.6375 22.3726C26.807 22.893 27.1462 23.3588 27.6094 23.7118C27.3323 23.9665 27.0593 24.2176 26.7822 24.4687C25.8724 25.2802 24.9625 26.0881 24.0527 26.8996C23.6309 27.278 23.2297 27.6819 22.7913 28.0459C22.4853 28.2969 22.1131 28.4716 21.7078 28.5553C21.7533 28.4862 21.7988 28.417 21.8401 28.3442C22.0965 27.8894 22.3778 27.4418 22.5928 26.9687C22.6921 26.7431 22.6673 26.4738 22.6838 26.2227C22.6962 26.0408 22.6962 25.8588 22.6797 25.6805C22.6714 25.5932 22.6548 25.4803 22.5887 25.4221C22.1792 25.0437 21.7574 24.6798 21.3438 24.3086C21.0006 24.0029 20.6656 23.69 20.3306 23.377C20.0577 23.1259 19.9543 23.1295 19.6772 23.377C19.0279 23.9629 18.3744 24.5415 17.721 25.1237C17.6466 25.1892 17.5804 25.2584 17.506 25.3202C17.3819 25.4221 17.3405 25.5349 17.3654 25.695C17.3902 25.877 17.386 26.059 17.3529 26.2373C17.2826 26.6921 17.5018 27.0779 17.721 27.4636C17.9195 27.813 18.1222 28.1623 18.3041 28.5553C18.1387 28.4862 17.965 28.4279 17.8037 28.3479C17.539 28.2169 17.2702 28.0895 17.0345 27.9258C16.836 27.7911 16.6788 27.6055 16.4969 27.4491C15.9137 26.9541 15.3058 26.4738 14.7392 25.9607C13.9907 25.2838 13.2711 24.5779 12.5432 23.8865C12.4936 23.8392 12.4481 23.7846 12.4026 23.7409C12.8947 23.3479 13.2008 22.8748 13.3786 22.2999C13.5399 22.4381 13.6929 22.5582 13.8376 22.6856C14.0982 22.9221 14.3753 23.1587 14.7392 23.2424C15.037 23.3115 15.3637 23.3115 15.678 23.2897C15.8103 23.2824 15.9551 23.1587 16.0544 23.0604C16.3687 22.7475 16.7078 22.4418 16.9476 22.0888C17.171 21.7613 17.3281 21.401 17.415 21.0262C17.63 20.0764 17.6135 19.1303 17.2868 18.1878C17.1007 17.6492 16.7988 17.1761 16.439 16.7213C16.0626 16.2409 15.6036 15.8151 15.0783 15.4585C14.7227 15.2183 14.152 15.2547 13.8707 15.5604C13.4282 16.0444 13.0064 16.5466 12.5928 17.0524C12.3529 17.3472 12.1462 17.6638 11.927 17.9694C11.8939 18.0131 11.8608 18.0422 11.8319 18.0786ZM20.008 7.77293C19.9253 7.89301 19.8633 7.98035 19.8054 8.06769C18.8252 9.66885 17.8492 11.27 16.8732 12.8712C16.7781 13.0313 16.7905 13.1914 16.9146 13.3515C17.3033 13.861 17.7003 14.3632 18.0601 14.8872C18.6764 15.786 19.2677 16.6958 19.8674 17.6019C19.9915 17.7911 20.0659 17.7948 20.1776 17.6237C20.6615 16.8923 21.1371 16.1499 21.6375 15.4258C22.1007 14.7525 22.5887 14.0902 23.085 13.4352C23.238 13.2314 23.2586 13.0531 23.1222 12.8457C22.9195 12.5437 22.7169 12.238 22.5308 11.9287C21.807 10.7351 21.0916 9.53421 20.3678 8.33333C20.2603 8.15138 20.1404 7.97671 20.008 7.77293Z" fill="black"/>
<path d="M7.54297 25.0838C7.60914 25.0729 7.67117 25.062 7.73734 25.0547C8.5562 25.0256 9.30889 24.5416 9.60252 23.8684C9.83412 23.3371 9.99954 22.7949 9.95819 22.2199C9.94992 22.1071 9.99127 22.0525 10.1195 22.0125C10.6819 21.8487 10.9838 21.3975 10.8267 20.8989C10.6199 20.2439 10.1898 19.7163 9.51567 19.3706C9.00699 19.1085 8.50658 19.134 8.03098 19.4542C8.0103 19.4688 7.98548 19.4797 7.93172 19.5088C7.85314 19.3815 7.76216 19.2687 7.71667 19.1413C7.67117 19.0248 7.71667 18.8938 7.82419 18.8174C8.28739 18.4572 8.83743 18.3625 9.4371 18.3735C9.97059 18.3807 10.4669 18.4863 10.8928 18.7701C11.4553 19.1449 11.9847 19.5634 12.3072 20.1238C12.667 20.7534 12.7373 21.4157 12.4644 22.0962C12.2535 22.6457 11.8027 23.1042 11.2154 23.3698C11.0996 23.4244 11.0748 23.6064 11.1947 23.7556C11.4305 24.0503 11.6621 24.356 11.9474 24.6144C13.1054 25.677 14.2923 26.7177 15.4545 27.7767C15.8515 28.1369 16.2113 28.5336 16.6083 28.8975C17.1459 29.3887 17.7084 29.8655 18.2543 30.3531C18.7423 30.7898 19.222 31.2337 19.7018 31.674C19.7638 31.7286 19.8217 31.7869 19.9334 31.8887C20.136 31.685 20.3221 31.4885 20.5206 31.3101C21.0955 30.797 21.6828 30.2912 22.2535 29.7745C22.9152 29.1777 23.5686 28.5663 24.2303 27.9659C24.9747 27.2927 25.7233 26.6195 26.4718 25.9499C27.0963 25.3931 27.7373 24.8509 28.337 24.2723C28.5562 24.0612 28.6761 23.7701 28.8209 23.5081C28.8705 23.4171 28.7878 23.3625 28.6885 23.3007C28.4652 23.1624 28.2419 23.0132 28.0723 22.8313C27.8655 22.6129 27.6919 22.3691 27.5554 22.1144C27.088 21.2301 27.3238 20.1529 28.1096 19.4579C28.3329 19.2614 28.5562 19.0612 28.7961 18.8829C29.2303 18.5554 29.7142 18.3225 30.3097 18.3371C30.5909 18.3443 30.8722 18.3444 31.1493 18.3662C31.5297 18.3953 31.8399 18.5554 32.1294 18.7628C32.2948 18.8829 32.3155 19.0212 32.2287 19.1813C32.1749 19.2759 32.1129 19.3669 32.0467 19.4688C32.0136 19.4579 31.9847 19.4433 31.9557 19.4251C31.4222 19.003 30.777 19.1013 30.2808 19.4033C29.7266 19.7417 29.3503 20.2112 29.1435 20.7752C28.9491 21.3065 29.2551 21.8196 29.8631 21.9834C30.045 22.0307 30.0823 22.1144 30.0781 22.2563C30.0574 22.7912 30.1732 23.3262 30.4214 23.8138C30.7067 24.3815 31.1658 24.8036 31.8606 24.9819C31.9888 25.0147 32.1335 24.9892 32.27 25.0074C32.3486 25.0183 32.4809 25.0583 32.4851 25.0911C32.4851 25.1711 32.452 25.2512 32.39 25.3094C32.1708 25.5168 31.9309 25.7097 31.7076 25.9099C30.4545 27.0307 29.2014 28.1551 27.9483 29.2796C27.2245 29.9273 26.4966 30.5678 25.7646 31.2083C24.6935 32.1362 23.6182 33.0569 22.5471 33.9848C22.5016 34.0212 22.4644 34.0649 22.4065 34.1195C22.6588 34.3487 22.911 34.5707 23.155 34.7963C24.0649 35.6333 24.9747 36.4703 25.8804 37.3072C26.1079 37.5183 26.3271 37.7403 26.5297 37.9659C26.5752 38.035 26.5835 38.1224 26.5463 38.1952C26.4388 38.3698 26.323 38.5518 26.1658 38.6864C25.8143 38.9921 25.4338 39.2723 25.0616 39.5598C24.9168 39.6726 24.7597 39.7708 24.6108 39.88C24.404 40.0329 24.2469 40.0292 24.0525 39.8582C23.399 39.2869 22.7456 38.7155 22.0922 38.1406C21.4346 37.562 20.7729 36.987 20.1153 36.4084C19.9375 36.2519 19.9127 36.2592 19.7307 36.412C18.8498 37.1726 17.9689 37.9295 17.0839 38.6901C16.7076 39.0176 16.3354 39.3487 15.9549 39.6726C15.7398 39.8545 15.6033 39.8473 15.38 39.6799C14.9003 39.316 14.4164 38.9593 13.9532 38.5772C13.7754 38.4317 13.6431 38.2388 13.5024 38.0605C13.3949 37.9222 13.4073 37.7985 13.5562 37.6602C14.2841 36.9906 14.9913 36.3029 15.715 35.6297C16.2361 35.1457 16.7779 34.6799 17.3072 34.2032C17.3486 34.1668 17.3858 34.1231 17.4313 34.0758C17.0384 33.7301 16.6579 33.388 16.2733 33.0496C15.2684 32.169 14.2551 31.2919 13.2543 30.4077C12.1873 29.4652 11.1244 28.5263 10.074 27.5729C9.68524 27.2199 9.33784 26.8342 8.96563 26.4703C8.5438 26.0554 8.11782 25.6406 7.69599 25.2294C7.65463 25.1966 7.61327 25.1529 7.54297 25.0838ZM26.112 28.9339C25.868 28.5954 25.8019 28.5845 25.5289 28.8138L25.4545 28.8793L20.0781 33.6646C20.0244 33.7119 19.9954 33.7774 19.9458 33.8429C19.8507 33.7665 19.8052 33.7337 19.7597 33.6937L18.002 32.1035C16.7903 31.0045 15.5744 29.9018 14.3627 28.7992C14.2386 28.6864 14.1269 28.6609 14.0029 28.7956C13.9656 28.8393 13.9243 28.8756 13.8664 28.9339C15.777 30.6515 17.6794 32.3655 19.6191 34.1122C19.5446 34.1559 19.4702 34.2068 19.3999 34.2577C18.3329 35.1966 17.2742 36.1427 16.2072 37.0816C16.0872 37.1871 16.0955 37.2527 16.2113 37.3473C16.3188 37.431 16.385 37.4965 16.5256 37.3691C17.5554 36.4412 18.5976 35.5205 19.6315 34.5962C19.7142 34.5234 19.7762 34.4324 19.8755 34.316C20.0244 34.4615 20.1195 34.5634 20.2229 34.658L23.3742 37.5183C23.5107 37.6457 23.6182 37.6129 23.7423 37.5147C23.8788 37.4091 23.7837 37.3363 23.701 37.2599C23.0268 36.6522 22.3569 36.0445 21.6828 35.4331C21.1947 34.9892 20.7026 34.5525 20.1815 34.0831L26.112 28.9339Z" fill="black"/>
<path d="M35.3143 22.9294C35.5046 23.0131 35.6907 23.0713 35.8478 23.1695C36.2407 23.4097 36.4185 23.7554 36.4144 24.1775C36.3979 24.8253 35.9057 25.3893 35.2026 25.5676C35.0289 25.6113 34.8511 25.6513 34.6154 25.7059C34.665 25.5968 34.6816 25.5385 34.7146 25.4912C34.9049 25.2438 34.9876 24.9454 34.9462 24.647C34.9132 24.3522 34.6816 24.1157 34.3466 24.1375C34.1067 24.1521 33.8751 24.2067 33.66 24.3013C33.2589 24.4905 32.8619 24.4905 32.4442 24.3741C32.3904 24.3559 32.3408 24.3377 32.2911 24.3158C31.2696 23.8864 30.8189 23.1331 30.9926 22.1433C31.0298 21.9286 31.0835 21.7139 31.1332 21.5029C31.1373 21.4774 31.1497 21.4556 31.1621 21.4374C31.4516 21.0917 31.7452 20.746 32.0306 20.4003C32.2539 20.1237 32.5103 19.8617 32.6758 19.5596C33.1472 18.7081 33.5649 17.8348 33.7717 16.9032C33.962 16.0589 33.9661 15.2147 33.5443 14.4104C33.292 13.9265 32.8825 13.5989 32.2911 13.457C31.9603 13.377 31.6212 13.326 31.2903 13.2387C31.1373 13.1986 30.976 13.1259 30.8768 13.024C30.4342 12.5837 30.1944 12.0087 30.2151 11.4228C30.2192 11.2372 30.2978 11.0407 30.3846 10.866C30.8065 10.0436 31.5302 9.57783 32.56 9.53053C33.0521 9.50142 33.5484 9.51233 34.0405 9.56328C34.5409 9.61786 34.9628 9.8544 35.335 10.1637C35.8271 10.5713 36.2242 11.0262 36.5178 11.5684C36.799 12.0851 37.1671 12.5655 37.4855 13.0676C37.7295 13.4534 37.9901 13.8355 38.1803 14.243C38.3333 14.5669 38.4285 14.909 38.4657 15.2583C38.5649 16.2991 38.3375 17.3107 37.9735 18.2969C37.7089 19.0101 37.469 19.738 37.1175 20.4184C36.8362 20.9643 36.4103 21.4519 36.038 21.965C35.8147 22.2816 35.5625 22.6055 35.3143 22.9294ZM33.0066 21.3646C32.2332 21.3318 31.7618 22.0269 31.7742 22.5218C31.7949 23.2387 32.2994 23.5262 33.0438 23.5735C33.6187 23.6099 34.2225 22.9694 34.2018 22.4163C34.1811 21.7576 33.7841 21.4192 33.0066 21.3646ZM5.38462 25.655C5.04136 25.5713 4.67742 25.5385 4.38379 25.3275C3.83375 24.9381 3.56493 24.4541 3.70141 23.8136C3.77998 23.4534 4.18528 23.0567 4.59884 22.9839C4.65261 22.9694 4.70637 22.9548 4.76013 22.933C4.42928 22.4963 4.11911 22.0706 3.78825 21.6521C3.2713 21.0043 2.82051 20.3275 2.55997 19.5633C2.31183 18.8391 2.04715 18.115 1.82382 17.3872C1.60877 16.6885 1.54673 15.9643 1.6005 15.2401C1.63772 14.7416 1.84036 14.2904 2.11745 13.8537C2.70058 12.933 3.24648 11.9941 3.83375 11.0771C4.18528 10.524 4.65674 10.0655 5.34326 9.80709C5.74028 9.65789 6.15385 9.6215 6.57568 9.61059C6.90653 9.60331 7.24152 9.58875 7.56824 9.62514C8.2134 9.69792 8.76344 9.95265 9.17287 10.4003C9.30935 10.5495 9.41274 10.7241 9.52026 10.8952C9.8139 11.3537 9.7684 11.8231 9.52026 12.2743C9.2928 12.6965 9.0488 13.1186 8.54839 13.3515C8.46154 13.3988 8.36642 13.4243 8.26303 13.4352C7.10091 13.4716 6.44334 14.1339 6.21588 15.0509C5.97188 16.0407 6.17039 16.9941 6.54673 17.9221C6.76592 18.4643 7.00165 19.0029 7.29529 19.516C7.51861 19.909 7.83292 20.2583 8.11828 20.6222C8.33747 20.9024 8.58974 21.1608 8.78825 21.4519C8.88337 21.5902 8.91232 21.7722 8.94954 21.9359C9.09843 22.5909 9.03226 23.2096 8.58147 23.7773C8.20513 24.2503 7.22912 24.5706 6.60877 24.385C6.41026 24.3231 6.22829 24.2212 6.02978 24.1521C5.78991 24.0684 5.54591 24.072 5.34739 24.2249C5.23987 24.3049 5.16543 24.4141 5.13234 24.5342C5.0579 24.8398 5.12821 25.1601 5.32672 25.4184C5.36394 25.4803 5.39702 25.5422 5.42184 25.6077L5.38462 25.655ZM8.23821 22.5473C8.23821 21.9978 7.80397 21.4956 7.24152 21.3973C6.81969 21.3246 6.41026 21.4155 6.14144 21.6848C5.68238 22.1433 5.74855 22.7911 6.24897 23.2314C6.39785 23.366 6.59222 23.5152 6.79074 23.5444C7.48139 23.6462 8.23821 23.3151 8.23821 22.5473ZM28.4822 30.1856C28.8131 30.3566 29.1274 30.5313 29.4541 30.6768C29.5864 30.735 29.756 30.7387 29.909 30.7496C30.0372 30.7605 30.1737 30.7387 30.3019 30.7532C30.914 30.8187 31.2572 30.5094 31.4888 30.08C31.6873 29.7125 31.8238 29.3267 31.7907 28.9046C31.7535 28.3988 31.7328 27.8893 31.7122 27.3799C31.708 27.318 31.7246 27.2416 31.7659 27.2016C32.2994 26.7103 32.8412 26.2263 33.3788 25.7423C33.3995 25.7278 33.4243 25.7168 33.4491 25.7059C33.4822 25.7605 33.5112 25.8115 33.5443 25.8624C33.9413 26.5138 34.3342 27.1615 34.727 27.8129C34.8098 27.9512 34.9007 28.0858 34.9835 28.2278C35.0827 28.4061 35.2481 28.4716 35.4591 28.4388C36.1621 28.3369 36.8652 28.2423 37.5641 28.1186C38.292 27.9912 39.0116 27.8311 39.7353 27.6856C39.8139 27.6746 39.8925 27.6674 39.9711 27.6637C39.9793 27.6783 39.9917 27.6928 40 27.7074C39.8759 27.8311 39.7519 27.9585 39.6237 28.0786C39.0529 28.6281 38.4988 29.1921 37.8991 29.7161C37.1629 30.3602 36.6915 31.1353 36.3069 31.965C36.249 32.0924 36.2448 32.2343 36.2076 32.4017C36.1497 32.3617 36.1042 32.3326 36.0629 32.2998C35.8064 32.1069 35.5542 31.9141 35.2978 31.7212C35.0331 31.5174 34.7064 31.4738 34.3714 31.4628C34.1439 31.4519 33.9165 31.4592 33.689 31.4738C33.2341 31.5065 32.7957 31.6557 32.44 31.9068C32.0554 32.1761 31.6543 32.4345 31.2531 32.6892C31.0008 32.8529 30.9181 33.0931 30.8892 33.3369C30.8561 33.5735 30.8478 33.8246 30.9016 34.0575C31.0587 34.7452 31.2407 35.433 31.4351 36.1135C31.5302 36.441 31.6832 36.7576 31.8031 37.0778C31.8197 37.1397 31.8321 37.1979 31.8362 37.2598L31.7783 37.2925C31.6584 37.1943 31.5261 37.1033 31.4185 36.9941C31.1704 36.7467 30.9388 36.481 30.6865 36.2336C30.3515 35.9024 30.0124 35.5786 29.665 35.262C29.5864 35.1892 29.4665 35.1528 29.3631 35.1055C28.8296 34.8617 28.2837 34.7161 27.6634 34.7416C27.1588 34.7598 26.6584 34.7561 26.1745 34.8872C25.8189 34.9818 25.4715 35.08 25.1199 35.1856C24.9917 35.2256 24.9214 35.1928 24.8387 35.1055C24.5906 34.8471 24.33 34.5997 24.0695 34.3522C23.962 34.2467 23.9909 34.1703 24.0984 34.0757C24.4955 33.7227 24.8925 33.366 25.2812 33.0058C25.6162 32.6928 25.9305 32.3653 26.2696 32.056C26.6088 31.7467 26.9768 31.4483 27.3325 31.1462C27.7295 30.8151 28.1141 30.4912 28.4822 30.1856ZM8.17618 37.2052C8.2134 37.0742 8.23821 36.9359 8.29611 36.8085C8.72622 35.8879 8.89165 34.909 9.14392 33.9483C9.23491 33.588 9.18114 33.2132 8.99917 32.8821C8.92473 32.7401 8.77585 32.62 8.62696 32.5254C8.13896 32.2088 7.64268 31.9032 7.134 31.6157C6.97684 31.5283 6.77419 31.4847 6.58395 31.4701C6.21588 31.4337 5.84367 31.4228 5.47146 31.4265C5.03722 31.4374 4.68983 31.6484 4.38792 31.8995C4.21009 32.0487 4.06121 32.227 3.89165 32.3944C3.82548 32.3326 3.80066 32.3216 3.80066 32.3071C3.60629 31.4337 3.13069 30.6805 2.48139 30.0182C1.73697 29.2612 0.942928 28.5371 0.169562 27.7984C0.124069 27.7583 0.082713 27.711 0 27.6237C0.124069 27.631 0.202647 27.6273 0.277088 27.6419C1.11663 27.8056 1.94789 27.9876 2.79156 28.1404C3.3871 28.2496 3.99504 28.3187 4.59884 28.3988C4.80149 28.4243 4.95037 28.3515 5.05376 28.1841C5.56245 27.3289 6.0794 26.4738 6.59222 25.6186C6.59636 25.6077 6.6129 25.604 6.62945 25.5895C6.64599 25.5931 6.66667 25.5968 6.67907 25.604C7.18362 26.0698 7.68404 26.5356 8.19272 26.9978C8.31266 27.1069 8.33747 27.2161 8.3292 27.369C8.29611 28.0276 8.24235 28.6899 8.29611 29.3449C8.33333 29.7925 8.54012 30.2365 8.98263 30.5276C9.13151 30.6186 9.30107 30.6805 9.48304 30.6987C9.72705 30.7278 9.97932 30.7132 10.2275 30.7096C10.5583 30.7059 10.8313 30.5567 11.0959 30.4075C11.2324 30.3238 11.3606 30.2329 11.4888 30.1346C13.0397 31.4337 14.5823 32.7292 16.1208 34.0211C15.6989 34.4141 15.3722 34.727 15.0289 35.0254C14.9462 35.0837 14.8387 35.1091 14.7312 35.0946C14.512 35.0545 14.3052 34.9599 14.086 34.9163C13.6683 34.8326 13.2423 34.738 12.8164 34.7016C12.4318 34.6652 12.0471 34.6761 11.6625 34.7307C11.129 34.818 10.6286 35.0072 10.2068 35.3311C9.75186 35.6768 9.42101 36.1099 9.05707 36.5174C8.84615 36.754 8.58974 36.9577 8.34988 37.1761C8.32093 37.2016 8.26716 37.2125 8.22994 37.2307L8.17618 37.2052Z" fill="black"/>
</g>
<defs>
<clipPath id="clip0_283_185">
<rect width="40" height="40" fill="white"/>
</clipPath>
</defs>
</svg>
