<svg width="40" height="40" viewBox="0 0 40 40" fill="none" xmlns="http://www.w3.org/2000/svg">
<path d="M20.1654 0C20.8139 0.0510856 21.4623 0.106473 22.1113 0.151643C23.169 0.224777 24.219 0.337703 25.242 0.632386C25.9306 0.830813 26.6399 0.971164 27.3117 1.21369C28.5406 1.65679 29.7624 2.11871 30.8924 2.79411C32.3257 3.65074 33.71 4.57243 34.9585 5.67749C36.1505 6.73254 37.1821 7.93171 38.0174 9.28413C38.4534 9.98965 38.8789 10.7075 39.2322 11.4555C39.5024 12.0282 39.6545 12.6563 39.8518 13.2618C39.9225 13.478 39.9725 13.7006 40.0002 13.9329C39.1833 12.3369 38.2381 10.8371 36.938 9.57505C37.0114 9.72347 37.0717 9.87887 37.1592 10.0181C37.8636 11.1372 38.1441 12.4192 38.5968 13.6355C39.0724 14.9143 39.3605 16.2328 39.4784 17.5847C39.6132 19.1307 39.6589 20.6837 39.5094 22.2298C39.3583 23.7924 38.9692 25.3056 38.4251 26.7844C37.9772 28.0024 37.3669 29.1365 36.7282 30.2593C35.7591 31.9629 34.4846 33.4148 32.967 34.6602C32.6078 34.9549 32.23 35.227 31.8365 35.5281C32.0153 35.6007 32.2175 35.7104 32.4349 35.7664C33.4203 36.0202 34.4041 36.1836 35.439 36.0035C36.4842 35.8217 37.5353 35.9546 38.5642 36.1992C39.3366 36.3826 39.7274 36.9365 39.598 37.7469C39.5317 38.1625 39.3866 38.5809 39.198 38.9595C38.8876 39.5827 38.2604 39.7736 37.631 39.8978C36.5766 40.1059 35.5406 39.9876 34.5297 39.6429C33.4361 39.2697 32.3338 38.9191 31.2577 38.5008C30.6038 38.2464 29.9913 37.8861 29.3635 37.5662C29.1124 37.4382 28.9129 37.3801 28.5993 37.5124C27.7672 37.8641 26.8828 38.0679 25.979 38.1819C25.5583 38.2351 25.1452 38.347 24.7272 38.4223C24.5289 38.4578 24.3261 38.4707 24.1256 38.4938C24.1103 38.461 24.0957 38.4282 24.0804 38.3948C24.1609 38.3346 24.2332 38.2561 24.3234 38.2168C25.324 37.7829 26.2208 37.1742 27.1318 36.5902C27.2052 36.5434 27.2693 36.4821 27.3628 36.4079C26.81 36.0099 26.2382 35.6712 25.7572 35.234C25.1077 34.643 24.4908 34.0069 23.9315 33.3325C23.5587 32.8824 23.3059 32.3339 23.0092 31.8242C22.9472 31.7182 22.9086 31.5908 22.8907 31.4687C22.7135 30.2276 22.1167 29.1489 21.5411 28.0126C23.0217 27.7459 24.4952 27.4346 25.8654 26.579C25.8654 27.0356 25.9002 27.4362 25.8578 27.8287C25.7893 28.4622 25.6556 29.0838 25.3311 29.6517C25.28 29.7409 25.2843 29.9087 25.3354 30.0007C25.5664 30.4147 25.798 30.8326 26.0752 31.2165C26.8508 32.2882 27.7753 33.2158 28.8944 33.9423C28.9928 34.0058 29.1075 34.0499 29.1923 34.1268C29.5842 34.4795 29.9614 34.4204 30.344 34.1133C31.1381 33.4761 32.0153 32.9174 32.7072 32.1866C33.4182 31.4354 34.028 30.5621 34.5438 29.664C35.7743 27.5201 36.5565 25.2062 36.9538 22.768C37.1723 21.4269 37.0614 20.0912 36.9511 18.7495C36.8244 17.2088 36.588 15.6881 36.1803 14.1969C35.9368 13.3059 35.6374 12.4326 35.1477 11.6341C34.9085 11.2437 34.7422 10.8059 34.4753 10.4376C33.9073 9.65302 33.2953 8.89911 32.7002 8.13336C31.9604 7.18048 30.9979 6.49486 29.9951 5.83666C29.1167 5.2602 28.1873 4.80204 27.1948 4.49445C25.4724 3.96048 23.7701 3.33454 21.9324 3.25227C20.3155 3.17967 18.7278 3.33293 17.1799 3.79109C16.2711 4.05996 15.3379 4.31377 14.503 4.74128C13.6269 5.18976 12.8067 5.78127 12.0485 6.41205C10.8859 7.37891 9.74395 8.37803 8.85149 9.61914C7.97207 10.8414 7.16167 12.103 6.59587 13.4984C6.39205 14.0012 6.28878 14.5454 6.15996 15.0756C5.80232 16.5506 5.83167 18.0423 6.03984 19.5287C6.23116 20.8935 6.66 22.1824 7.54703 23.281C8.08675 23.9495 8.76344 24.4426 9.59557 24.67C9.94234 24.7647 10.332 24.7152 10.7016 24.7168C12.1947 24.7233 13.6285 25.0368 15.0308 25.5213C15.3553 25.6331 15.6841 25.7337 16.0129 25.8332C17.2995 26.2236 18.3256 26.9968 19.223 27.9616C19.4735 28.231 19.735 28.4907 19.9747 28.7687C20.7775 29.7001 21.0911 30.8197 21.2106 32.0059C21.2634 32.5313 21.2704 33.0615 21.3112 33.5885C21.4047 34.7957 20.9139 35.8002 20.1524 36.6784C19.4382 37.5011 18.6061 38.198 17.5223 38.5105C17.0641 38.6427 16.5923 38.7852 16.1211 38.8084C14.9629 38.8643 13.7981 38.8557 12.6741 38.5083C11.4359 38.126 10.2494 37.6194 9.08411 37.0532C7.57964 36.3224 6.31378 35.3023 5.21586 34.0682C4.44624 33.2035 3.67498 32.3372 2.95916 31.4295C2.27432 30.5615 1.81776 29.5533 1.41392 28.5332C1.12042 27.7922 0.867139 27.0302 0.667123 26.2596C0.49537 25.5987 0.414929 24.9131 0.310572 24.2361C0.220891 23.6558 0.156755 23.0713 0.0757706 22.4895C0.0654437 22.4131 0.0246795 22.3411 -0.00195312 22.2674V18.7715C0.0306582 18.6446 0.0768576 18.5188 0.0937068 18.3897C0.130666 18.1074 0.145885 17.8224 0.181757 17.5401C0.262199 16.905 0.320356 16.2646 0.444822 15.6376C0.543743 15.1391 0.710061 14.6513 0.877466 14.1695C1.42262 12.6036 2.00038 11.0415 3.01568 9.7068C3.7152 8.78726 4.50928 7.93547 5.29576 7.08422C6.63772 5.63178 8.16121 4.38744 9.83852 3.32863C11.1968 2.47093 12.5768 1.66109 14.1128 1.13733C15.3151 0.727566 16.5195 0.33824 17.787 0.179606C18.2729 0.118303 18.7572 0.0596895 19.2415 0H20.1654ZM16.2293 31.2633C16.2347 30.112 15.2596 29.136 14.0905 29.1231C12.9149 29.1096 11.9164 30.0856 11.9131 31.2515C11.9099 32.4151 12.904 33.3992 14.0785 33.3949C15.2433 33.3906 16.2238 32.4184 16.2298 31.2638L16.2293 31.2633Z" fill="black"/>
<path d="M24.2787 6.62502C23.4238 6.45455 22.7161 6.81699 22.0324 7.23374C21.3497 7.64996 21.0067 8.54368 21.1372 9.3589C21.2943 10.3414 21.8198 11.1254 22.4607 11.8417C23.0765 12.53 23.8292 13.0613 24.6092 13.5581C25.8185 14.3287 26.8257 15.2993 27.4393 16.6045C27.6426 17.0368 27.7883 17.5159 27.8551 17.9881C28.047 19.341 27.9758 20.6585 27.2844 21.9055C26.9116 22.5782 26.4403 23.1439 25.8941 23.6752C25.3625 24.192 24.8511 24.7271 24.1559 25.0298C23.3721 25.3713 22.6101 25.7778 21.7247 25.8273C21.4285 25.8439 21.1339 25.9101 20.8415 25.9666C19.474 26.2306 18.2239 25.8552 17.0059 25.2911C15.8955 24.7771 15.0764 23.9226 14.2681 23.0445C13.3306 22.026 12.8713 20.7962 12.5984 19.4835C12.4033 18.5452 12.2745 17.5955 12.2881 16.6313C12.3039 15.5128 12.5012 14.4298 12.8066 13.3516C13.2648 11.7314 14.1355 10.3349 15.1302 9.01045C15.9031 7.98067 16.9091 7.17889 17.994 6.47983C19.0723 5.78506 20.2659 5.42478 21.541 5.33766C22.3786 5.28066 23.1151 5.63073 23.8206 6.02006C24.026 6.13352 24.1624 6.37013 24.3298 6.55027C24.313 6.57501 24.2961 6.59921 24.2793 6.62394L24.2787 6.62502ZM18.9566 7.56069C18.7957 7.67469 18.6565 7.75159 18.5435 7.85591C17.8902 8.46087 17.1988 9.03411 16.6026 9.69015C15.347 11.0722 14.4307 12.6042 14.3029 14.5497C14.21 15.9694 14.4355 17.325 14.8204 18.6565C15.1079 19.6502 15.8009 20.4493 16.5232 21.1806C16.883 21.5447 17.3271 21.848 17.7793 22.098C18.7294 22.6229 19.7849 22.7777 20.8578 22.8799C22.0682 22.995 23.1411 22.6879 24.1543 22.0496C24.8956 21.5823 25.3152 20.8757 25.6843 20.139C26.2583 18.9931 26.2881 17.8547 25.5158 16.7582C24.9652 15.9764 24.4222 15.1934 23.5597 14.7046C23.0803 14.433 22.6009 14.162 22.121 13.891C21.6432 13.6211 21.1301 13.5124 20.5812 13.5544C20.0616 13.5936 19.5311 14.0314 19.5327 14.5132C19.5349 15.2795 19.6447 16.0242 20.1507 16.6663C20.817 17.5122 21.7144 18.0042 22.7221 18.2768C23.3656 18.4511 23.9967 18.3236 24.2804 17.6579C24.4086 17.3573 24.4364 17.0147 24.501 16.7281C24.5527 16.8115 24.6483 16.9599 24.7386 17.111C24.9462 17.4589 24.8788 18.0402 24.6195 18.3483C23.9423 19.1528 23.0286 19.4099 22.0541 19.2426C20.891 19.0431 19.799 18.6043 18.8832 17.8106C17.8967 16.9556 17.2852 15.8909 17.0629 14.6256C17.001 14.2733 17.0292 13.8431 17.182 13.528C17.6342 12.5967 18.9832 11.5862 20.3301 12.2713C20.4572 12.3358 20.5991 12.3719 20.7344 12.4213L20.7855 12.3676C19.4322 11.0625 19.0001 9.41698 18.9577 7.5623L18.9566 7.56069ZM34.4649 16.726C34.4649 18.2166 33.3295 19.3362 31.819 19.3356C30.3928 19.3351 29.2145 18.1499 29.2156 16.7168C29.2161 15.2886 30.4075 14.1367 31.8832 14.1378C33.3273 14.1384 34.4654 15.2795 34.4654 16.7265L34.4649 16.726Z" fill="black"/>
</svg>
