<svg width="40" height="40" viewBox="0 0 40 40" fill="none" xmlns="http://www.w3.org/2000/svg">
<g clip-path="url(#clip0_283_83)">
<path d="M40.0005 16.1494C39.8617 16.2308 39.7091 16.2974 39.5981 16.4084C39.057 16.941 38.5229 17.4884 37.9887 18.0359C37.8777 18.1542 37.7528 18.2578 37.5378 18.4502V5.85167L40.0005 8.15979V16.1494ZM8.5957 12.1324L11.1347 10.6529C11.218 10.024 11.2943 9.41002 11.3983 8.79601C11.44 8.55928 11.4261 8.37433 11.2735 8.18199C10.8087 7.60496 10.3439 7.02053 9.89296 6.4287C9.69178 6.16978 9.51142 5.89606 9.26168 5.54836C9.81665 5.57795 10.2814 5.57795 10.7393 5.62974C11.3498 5.70372 11.9464 5.82208 12.5569 5.89606C12.6609 5.91086 12.7927 5.82208 12.8829 5.74071C13.4171 5.24505 13.424 4.69022 13.1465 4.01701C12.7858 3.15147 12.5222 2.24154 12.2169 1.3538C12.1753 1.23544 12.1337 1.10967 12.099 0.98391L12.1614 0.909932C12.4875 1.06529 12.8205 1.22064 13.1396 1.38339C13.7639 1.7089 14.3813 2.0418 14.9988 2.3821C15.1722 2.47827 15.2832 2.45608 15.4219 2.30812C15.9422 1.76808 16.5874 1.3686 17.288 1.15406C17.5308 1.08008 17.6141 1.13926 17.7112 1.3464C17.8569 1.66451 18.0026 1.99001 18.176 2.29332C18.3841 2.66321 18.6339 2.7002 18.8628 2.35251C19.175 1.87165 19.4247 1.3464 19.6814 0.828556C19.7993 0.584428 19.8687 0.310708 19.9797 0C20.0976 0.281117 20.1809 0.517847 20.2849 0.74718C20.5347 1.27242 20.7566 1.81247 21.048 2.30072C21.3186 2.75199 21.5891 2.715 21.8389 2.25633L22.4424 1.12447C23.1916 1.31681 23.8784 1.62752 24.4195 2.20455C24.6762 2.47827 24.8912 2.49306 25.1965 2.32291C25.9526 1.90124 26.7227 1.50176 27.4858 1.09488C27.5967 1.03569 27.7077 0.991308 27.9159 0.902534C27.8534 1.11707 27.8187 1.24283 27.784 1.3538C27.4025 2.47827 27.0279 3.61014 26.6394 4.72721C26.5631 4.94174 26.5839 5.0971 26.7365 5.25245C26.8128 5.32643 26.8753 5.4152 26.9169 5.51877C27.0903 5.94785 27.4025 5.99963 27.784 5.92565C28.2974 5.82208 28.8038 5.70372 29.3172 5.65193C29.7473 5.60755 30.1843 5.64454 30.663 5.64454C30.4826 5.90346 30.3161 6.16978 30.1288 6.41391C29.664 7.01313 29.1992 7.60496 28.7206 8.19678C28.568 8.38913 28.5333 8.58147 28.5818 8.84039C28.6859 9.37304 28.7553 9.90568 28.8038 10.4457C28.8177 10.6233 28.8524 10.7194 29.0119 10.8008C29.7057 11.1707 30.3855 11.548 31.0654 11.9401C31.1902 12.0141 31.2804 12.1398 31.4192 12.2656C30.8017 12.4949 30.2329 12.7021 29.664 12.9092C29.5253 12.9684 29.3796 13.0202 29.2339 13.0498C28.7553 13.1163 28.568 13.464 28.4292 13.8931C28.2488 14.4775 28.0407 15.0546 27.8604 15.639C27.8187 15.7721 27.7771 15.9423 27.8257 16.0533C28.1587 16.8226 28.5055 17.5846 28.8593 18.3392C28.9287 18.4945 29.0674 18.6129 29.2409 18.8422C28.8593 18.7535 28.5888 18.6795 28.3113 18.6203C27.7702 18.4871 27.236 18.354 26.6949 18.2356C26.4313 18.1764 26.1746 18.1986 25.9596 18.428C25.8278 18.5611 25.6751 18.6795 25.5156 18.7831C25.3352 18.9014 25.1548 18.9384 25.0161 18.6869C24.5582 17.8509 24.0934 17.015 23.6148 16.1568C23.7813 15.9941 23.9686 15.7943 24.1628 15.6094C25.5503 14.3222 26.1746 12.6873 26.1261 10.7416C26.1191 10.5567 26.1261 10.3717 26.1052 10.1868C26.0359 9.60237 26.0359 9.60977 25.4878 9.57278C25.3768 9.56538 25.2728 9.52099 25.1895 9.43222C24.4472 8.4853 23.7188 7.52358 22.9904 6.58406C22.8725 6.4361 22.8239 6.30294 22.9557 6.12539C23.1777 5.82948 23.3928 5.52617 23.6148 5.23026C23.8645 4.91215 24.1212 4.60144 24.4264 4.21676C23.6148 4.0614 22.7823 4.12058 21.9984 4.37951C22.0539 4.62364 22.1233 4.80858 22.1302 4.99353C22.1649 5.83688 21.5614 6.49528 20.7705 6.48789C20.271 6.48789 19.7785 6.45829 19.279 6.46569C18.3009 6.47309 17.4753 5.50398 18.0026 4.37211C17.2256 4.09099 16.4417 4.03181 15.5399 4.19456L16.6845 5.58535C16.74 5.65193 16.8024 5.70372 16.851 5.7777C17.1701 6.22156 17.1909 6.29554 16.8649 6.73201C16.1781 7.64195 15.4774 8.54448 14.7629 9.43222C14.6866 9.52839 14.4854 9.57278 14.3605 9.55058C14.0761 9.4988 13.9651 9.60237 13.9235 9.89828C13.7084 11.4 13.9096 12.8204 14.6519 14.1224C15.0543 14.84 15.5815 15.4688 16.2197 15.9645C16.3654 16.0755 16.3931 16.1716 16.2821 16.3566C15.8451 17.0816 15.4289 17.8139 15.0126 18.5463C14.8253 18.8792 14.645 18.9606 14.3883 18.6795C13.9027 18.1321 13.3408 18.1616 12.7442 18.3022C12.2377 18.4206 11.7383 18.5685 11.2318 18.7017C11.107 18.7313 10.9752 18.7461 10.7948 18.7757C11.3359 17.9693 11.7729 17.089 12.0921 16.1568C12.1476 15.9645 12.1476 15.7574 12.0921 15.5724C11.9325 15.0102 11.7175 14.4627 11.551 13.9005C11.4122 13.4344 11.2041 13.1237 10.7185 12.9906C10.0109 12.7982 9.32411 12.5023 8.62345 12.2582L8.5957 12.1324ZM14.8392 5.34122C14.5964 5.61494 14.3675 5.82948 14.1871 6.07361C13.7639 6.65804 13.8333 6.59885 14.2495 7.05752C14.3675 7.19068 14.4785 7.33863 14.6241 7.4422C14.7005 7.49399 14.8878 7.50139 14.9363 7.4496C15.2138 7.13889 15.4635 6.80599 15.748 6.4435L14.8392 5.34122ZM25.1687 5.45219C24.912 5.7555 24.6623 6.03662 24.4403 6.34733C24.3848 6.46569 24.3848 6.60625 24.4472 6.71722C24.6415 7.00573 24.8565 7.27945 25.0924 7.53098C25.1479 7.59016 25.3352 7.59756 25.3976 7.54577C26.2717 6.769 26.2787 6.58406 25.4948 5.74071C25.3907 5.62974 25.2866 5.53357 25.1687 5.45219Z" fill="black"/>
<path d="M7.23572 1.50169C7.7907 1.50169 8.34568 1.58307 8.87291 1.4795C9.46257 1.36853 9.74699 1.66444 10.0592 2.09352C10.6974 2.96646 11.3772 3.80241 12.0363 4.64577C11.96 4.95647 11.7796 5.02305 11.516 4.97127C10.7529 4.82331 9.9898 4.71235 9.23364 4.55699C8.99778 4.5126 8.85903 4.5348 8.78966 4.80852C8.67173 5.28198 8.53298 5.74804 8.42892 6.2215C8.41505 6.33247 8.44973 6.44343 8.51217 6.52481C8.96309 7.05745 9.42094 7.5827 9.8788 8.09315C10.08 8.31508 10.1979 8.55181 10.1424 8.88471C10.0869 9.21762 10.0869 9.57271 10.0384 9.91301C10.0245 10.0314 9.96205 10.1349 9.8788 10.2089C9.2267 10.6454 8.56767 11.0597 7.91557 11.5035C7.79764 11.5923 7.71439 11.7329 7.68664 11.8882C7.65195 12.2063 7.69358 12.5318 7.67277 12.8499C7.65195 13.1089 7.77682 13.1902 7.97107 13.2568C8.67866 13.4862 9.37932 13.7155 10.08 13.967C10.191 14.0262 10.2742 14.1224 10.3228 14.2407C10.524 14.7734 10.7182 15.3134 10.8916 15.8609C10.9263 15.957 10.8847 16.0976 10.85 16.2012C10.5725 16.9483 10.302 17.6881 10.0037 18.4279C9.90655 18.6646 9.89961 18.8422 10.0453 19.0715C10.4823 19.7299 10.5448 19.7669 11.3148 19.5302C11.6686 19.4192 12.0224 19.3156 12.3831 19.2121C12.4248 19.2047 12.4664 19.2047 12.5149 19.2121C12.1542 19.7225 11.8073 20.2182 11.4466 20.7064C11.0581 21.2317 10.6627 21.7421 10.2673 22.2526C10.1979 22.3413 10.0869 22.4375 9.99673 22.4449C9.08796 22.4597 8.17225 22.4523 7.22878 22.4523L7.23572 1.50169ZM27.4924 19.1973C27.8601 19.3082 28.2208 19.4192 28.5885 19.5154C28.859 19.582 29.1296 19.6337 29.4001 19.6707C29.4556 19.6781 29.525 19.6263 29.5805 19.5894C29.6083 19.5746 29.6221 19.5302 29.6499 19.508C30.0384 19.0567 30.1216 18.6128 29.8233 18.0284C29.5181 17.4292 29.3308 16.756 29.0949 16.1124C29.0671 16.0384 29.0602 15.957 29.0741 15.8757C29.2614 15.3356 29.4418 14.7882 29.6568 14.2629C29.7262 14.1224 29.8511 14.0114 29.9967 13.9522C30.6835 13.7007 31.3842 13.4862 32.071 13.2346C32.175 13.1976 32.2791 13.0275 32.293 12.9017C32.3207 12.5836 32.2791 12.2581 32.3068 11.94C32.3346 11.6515 32.175 11.5701 31.9877 11.4518C31.3356 11.0449 30.6905 10.6084 30.0522 10.1793C29.9967 10.1423 29.9759 10.0388 29.9412 9.9648C29.9274 9.9352 29.9412 9.89082 29.9343 9.85383C29.6637 8.84033 29.962 8.04876 30.739 7.41255C30.9541 7.235 31.0928 6.95388 31.3079 6.76894C31.6547 6.46563 31.6131 6.09574 31.516 5.71845C31.4258 5.37815 31.3009 5.04525 31.1553 4.71974C31.1136 4.63097 30.9124 4.56439 30.7945 4.57918C30.0037 4.69755 29.2198 4.83071 28.4359 4.97867C28.1792 5.03045 28.0474 4.94168 27.9572 4.66056C28.0474 4.5422 28.1514 4.40164 28.2624 4.26108C28.9284 3.41033 29.5944 2.55958 30.2465 1.69404C30.3991 1.49429 30.5517 1.45731 30.7806 1.4721C31.3217 1.50909 31.8628 1.49429 32.4109 1.50169H32.7647V22.4227C32.6468 22.4301 32.5219 22.4449 32.4039 22.4449C31.6547 22.4449 30.8986 22.4375 30.1494 22.4523C29.9551 22.4671 29.7678 22.3635 29.6568 22.1934C29.0602 21.3648 28.4636 20.5363 27.8531 19.7151C27.7352 19.5524 27.5895 19.4118 27.4577 19.2565L27.4924 19.1973ZM6.49344 1.98995C6.49344 3.09222 6.50038 4.1871 6.47956 5.27458C6.47956 5.43733 6.36857 5.62967 6.25757 5.74804C5.8344 6.18451 5.41123 6.62098 4.95338 7.02046C4.39146 7.50872 3.79486 7.94519 3.13583 8.47044V5.56309C2.65022 5.91079 2.40742 6.24369 2.41435 6.85771C2.44904 10.5344 2.42823 14.2037 2.42129 17.8805V18.4279C1.72757 17.7325 1.11016 17.0815 0.458059 16.4823C0.111198 16.1642 -0.0136719 15.8313 -0.0136719 15.343C0.014077 13.0719 0.000202562 10.8081 -0.00673466 8.53702C-0.0206091 8.27809 0.076512 8.03397 0.263817 7.87121C2.27561 5.97737 4.28047 4.08353 6.27839 2.17489C6.36163 2.10092 6.431 2.04173 6.49344 1.98995ZM17.3849 23.0071C17.6554 22.5633 17.9745 22.4005 18.4601 22.4153C19.6117 22.4671 20.7702 22.4153 21.9218 22.4671C22.1646 22.4745 22.3935 22.7704 22.6572 22.9628C22.3172 23.2513 22.1022 23.5398 21.6859 23.5546C21.4223 23.562 21.2142 23.8209 21.2073 24.139C21.1657 25.9811 21.131 27.8305 21.1032 29.6726C21.1102 29.8945 21.131 30.1091 21.1587 30.331H18.8556C18.8556 29.5542 18.8625 28.7996 18.8556 28.0451C18.8348 26.743 18.8001 25.441 18.7723 24.139C18.7654 23.8061 18.5573 23.5472 18.3075 23.5324C17.8982 23.5102 17.6762 23.2365 17.3849 23.0071Z" fill="black"/>
<path d="M6.47195 7.93044V16.2012C5.70192 15.4688 4.9527 14.766 4.20348 14.0632C3.90518 13.7747 3.59994 13.4862 3.31552 13.1829C3.23227 13.0941 3.18371 12.9684 3.16984 12.8426C3.1629 12.1398 3.16984 11.437 3.18371 10.7342C3.18371 10.6232 3.22533 10.4753 3.30164 10.4161C4.34916 9.58755 5.39668 8.77379 6.47195 7.93044ZM19.9857 11.2225C20.0828 11.4148 20.1452 11.5776 20.2285 11.7181C20.4504 12.1176 20.7002 12.4505 21.1303 12.6724C22.1917 13.2273 22.7189 14.2186 22.7814 15.4614C22.8507 16.8374 22.3582 17.9471 21.2205 18.6499C19.8608 19.4932 18.1542 18.6795 17.5021 17.1629C16.739 15.3726 17.4397 13.1607 19.1532 12.4653C19.3752 12.3765 19.5209 12.051 19.6804 11.8217C19.7914 11.6589 19.8677 11.4592 19.9857 11.2225ZM21.8865 15.6908L21.8518 15.6834C21.8448 15.5576 21.8379 15.4392 21.8171 15.3135C21.6783 14.4701 21.2482 13.8635 20.4851 13.5824C19.7845 13.3234 19.1879 13.5528 18.6884 14.1002C17.9669 14.8918 17.9322 16.2974 18.6051 17.1481C19.5486 18.3466 21.1789 18.0507 21.6922 16.5859C21.7893 16.2974 21.824 15.9867 21.8865 15.6908ZM1.83789 32.1657L7.61659 28.2522C8.20626 29.0734 8.80286 29.902 9.39252 30.7305C9.52433 30.9155 9.47577 31.0486 9.30234 31.1892C8.92773 31.4703 8.57393 31.7884 8.19238 32.0695C8.0467 32.1879 7.87327 32.2545 7.6929 32.2693C5.78517 32.2767 3.87743 32.2619 1.97663 32.2545C1.94195 32.2545 1.90726 32.2471 1.87258 32.2471L1.83789 32.1657ZM38.1126 32.2767H34.2694C33.6104 32.2767 32.9513 32.3062 32.2923 32.2915C32.098 32.2693 31.9177 32.1953 31.7651 32.0769C31.4043 31.818 31.0713 31.4999 30.7106 31.241C30.4817 31.0782 30.447 30.9303 30.6135 30.7083C31.0783 30.0869 31.5431 29.4581 32.0079 28.8293L32.3963 28.3114L38.1334 32.1953L38.1126 32.2767ZM28.782 33.3863C28.0953 32.8167 27.4362 32.3284 26.8674 31.7514C26.7148 31.5961 26.7425 31.1152 26.8396 30.8489C27.0824 30.2053 27.353 29.5543 27.7207 28.9846C28.3311 28.0451 29.0248 27.1648 29.6839 26.2622C29.7047 26.24 29.7255 26.2252 29.7533 26.2104C30.336 26.6839 30.9048 27.15 31.4945 27.6308C30.2874 29.3249 29.011 30.9894 28.782 33.3863ZM8.48375 27.6086L10.2319 26.1883C10.6065 26.6691 10.995 27.1648 11.3696 27.6752C12.0634 28.6295 12.7779 29.5617 13.1317 30.7379C13.3259 31.3519 13.2566 31.6626 12.7709 32.0695C12.2784 32.4838 11.772 32.8907 11.2101 33.3493C10.9881 30.982 9.69776 29.3101 8.48375 27.6086ZM4.09942 22.7409C4.49485 23.0812 4.85558 23.3993 5.23019 23.6952C5.34119 23.7914 5.47993 23.8431 5.62561 23.8579C6.2014 23.8875 6.77719 23.8801 7.35298 23.9023C7.51254 23.9097 7.66515 23.9467 7.91489 23.9837C7.54028 24.4646 7.22117 24.8714 6.90206 25.2857C6.86737 25.3301 6.81881 25.3671 6.77719 25.4189C6.41645 25.8627 6.41645 25.8627 6.69394 26.3584C6.88125 26.6913 7.06162 27.0316 7.27667 27.4163L4.09942 29.6948V22.7409ZM32.1119 24.0207C32.2645 23.9763 32.4241 23.9467 32.5767 23.9319C32.8056 23.9023 33.0415 23.9023 33.2704 23.9319C34.2486 24.1095 35.0047 23.6804 35.6568 22.9554C35.7123 22.8962 35.7748 22.8444 35.8719 22.7631V29.717L32.6808 27.4385C32.9513 26.9946 33.2219 26.5803 33.4577 26.1439C33.5063 26.0551 33.4785 25.8553 33.4161 25.7666C33.0692 25.2931 32.7016 24.8418 32.3408 24.3758C32.2715 24.2796 32.209 24.176 32.1119 24.0207ZM18.2097 30.8193H21.7755C21.824 31.7218 21.8934 32.6244 22.5039 33.4011C22.1986 33.734 21.9142 34.0669 21.609 34.3776C21.5535 34.4368 21.4355 34.4368 21.3454 34.4368C20.4366 34.4368 19.5209 34.4294 18.6121 34.4146C18.5219 34.422 18.4317 34.3924 18.3554 34.3406C18.0571 34.0373 17.7727 33.7118 17.4813 33.3863C18.071 32.617 18.1681 31.7366 18.2097 30.8193ZM33.9156 15.8313V8.30033C34.755 8.94394 35.5666 9.55796 36.3714 10.1868C36.4338 10.2386 36.4685 10.3717 36.4685 10.4679C36.4754 11.3778 36.4754 12.2952 36.4685 13.2051C36.4685 13.3087 36.4477 13.4418 36.3783 13.501C35.5805 14.2778 34.7619 15.0323 33.9156 15.8313ZM33.9295 38.2467C33.9087 38.2467 33.8878 38.2393 33.867 38.2319C32.5143 37.2036 31.1268 36.2197 29.9406 34.9695C29.8643 34.8955 29.8157 34.7993 29.8018 34.6957C29.7324 33.7118 29.8851 32.7205 30.2527 31.8106C30.884 32.3136 31.5014 32.7945 32.1188 33.2902C32.4449 33.5491 32.7848 33.7858 33.0692 34.0891C33.2219 34.2519 33.2912 34.533 33.3329 34.7697C33.541 35.9164 33.7283 37.0778 33.9295 38.2467ZM9.72551 31.7662C10.0932 32.6835 10.2458 33.6822 10.1764 34.6735C10.1556 34.7771 10.1071 34.8733 10.0377 34.9473C8.84448 36.1975 7.46397 37.1888 6.10428 38.2097C6.07653 38.2245 6.05572 38.2319 6.02797 38.2319C6.11815 37.7658 6.2014 37.3072 6.29158 36.8485L6.77025 34.3185C6.78413 34.2223 6.81881 34.1409 6.88125 34.0669C7.81084 33.305 8.7543 32.5504 9.72551 31.7662ZM26.8466 33.2162C27.5958 33.8968 28.3103 34.607 29.0803 35.2358C29.5035 35.5835 29.6908 35.9904 29.8365 36.523C30.0932 37.4403 30.4678 38.3207 30.7869 39.2158C30.8701 39.4525 30.9534 39.6893 31.0644 40C30.3013 39.4821 29.6423 38.9643 28.9139 38.5574C27.8733 37.9804 27.4362 36.8707 26.7356 35.9904C26.3471 35.4947 26.2014 35.0286 26.465 34.4072C26.6523 34.0299 26.7356 33.6009 26.8466 33.2162ZM13.1317 33.194C13.319 33.8154 13.5132 34.4516 13.6936 35.0878C13.7075 35.1692 13.6936 35.2506 13.652 35.3172C13.0831 36.1679 12.5281 37.0408 11.9177 37.8546C11.7026 38.1357 11.3488 38.3059 11.0575 38.513C10.3707 38.9865 9.67695 39.4525 8.90692 39.9778C9.01791 39.6671 9.10116 39.4377 9.17747 39.201C9.5382 38.1283 9.87813 37.0408 10.2805 35.983C10.3845 35.7092 10.6343 35.4873 10.8493 35.2876C11.5986 34.5774 12.3617 33.8894 13.1317 33.194ZM6.45808 22.3636C6.32627 22.2378 6.20834 22.1342 6.09041 22.0159C5.20244 21.1355 4.3006 20.2626 3.42651 19.3675C3.28777 19.2121 3.20452 19.0124 3.19065 18.8052C3.16984 17.7473 3.17677 16.6895 3.17677 15.6316C3.17677 15.5724 3.18371 15.5206 3.19065 15.4392C3.23227 15.454 3.26696 15.4688 3.30164 15.491C4.26592 16.4453 5.23019 17.407 6.2014 18.3466C6.40258 18.5315 6.51358 18.8052 6.49276 19.0863C6.47889 20.1294 6.4997 21.1799 6.4997 22.223C6.50664 22.26 6.48583 22.2896 6.45808 22.3636ZM20.7418 7.07229C21.2205 7.07229 21.6228 7.06489 22.0252 7.07969C22.1293 7.08709 22.2194 7.13148 22.2888 7.21285C22.8854 8.04141 23.482 8.86996 24.0509 9.72071C24.1133 9.81688 24.0856 10.0684 24.0023 10.172C23.5444 10.786 23.0658 11.3852 22.6079 11.9622L20.5337 10.9931C20.8528 10.6158 21.1927 10.209 21.5327 9.81688C21.7616 9.55796 21.7338 9.35822 21.4772 9.10669C20.9569 8.58145 20.7973 7.87126 20.7418 7.07229ZM19.2226 7.0501C19.1948 7.82687 19.0214 8.50747 18.5219 9.05491C18.182 9.4248 18.1612 9.43959 18.4733 9.83908C18.7855 10.2386 19.1324 10.6232 19.4376 10.9783L17.3564 11.9401C16.8917 11.3482 16.3852 10.7046 15.8927 10.0388C15.8372 9.96484 15.8649 9.7577 15.9274 9.66893C16.4893 8.84777 17.0651 8.03401 17.6478 7.22765C17.7311 7.13147 17.8421 7.07229 17.9669 7.06489C18.3762 7.0353 18.7786 7.0501 19.2226 7.0501ZM33.8948 22.0307C33.8948 20.7509 33.8948 19.5746 33.9017 18.3984C33.9087 18.3022 33.9503 18.2134 34.0196 18.1468C34.8244 17.3701 35.6291 16.6081 36.4754 15.7943V16.6821C36.4754 17.518 36.4824 18.3614 36.4685 19.1973C36.4685 19.3305 36.4338 19.508 36.3506 19.5968C35.5666 20.3958 34.7619 21.1799 33.8948 22.0307ZM16.8223 33.7266C17.1622 34.1409 17.4674 34.5404 17.8004 34.9103C17.9184 35.0212 18.071 35.0878 18.2236 35.0952C19.4029 35.1174 20.5753 35.1248 21.7546 35.1248C21.9211 35.1174 22.0807 35.0434 22.1986 34.9177C22.5316 34.5478 22.8369 34.1483 23.1698 33.7414C23.4404 33.919 23.6971 34.0595 23.9191 34.2519C23.9815 34.3037 23.9884 34.5478 23.926 34.6292C23.5861 35.0952 23.2253 35.5465 22.8577 35.983C22.7952 36.0569 22.6495 36.0939 22.5455 36.0939C21.4633 36.1013 20.3741 36.1087 19.2919 36.1013C18.6815 36.1013 18.071 36.0865 17.4605 36.0569C17.3356 36.0495 17.1691 36.02 17.0859 35.9238C16.7321 35.5169 16.413 35.0804 16.0731 34.6661C15.9274 34.4886 15.9551 34.3702 16.1216 34.2445C16.3506 34.0891 16.5656 33.919 16.8223 33.7266ZM36.4754 8.21895C35.6985 7.58274 34.9909 7.01311 34.2902 6.42868C34.0127 6.22154 33.8601 5.87385 33.8809 5.51875C33.9156 4.51265 33.8878 3.50654 33.8878 2.45605C33.9364 2.47825 33.985 2.50044 34.0335 2.53003C34.7966 3.24762 35.5528 3.97261 36.3089 4.6902C36.3783 4.75678 36.4615 4.86774 36.4615 4.95652C36.4754 6.0144 36.4754 7.07229 36.4754 8.21895ZM21.7963 21.6016H18.1959V19.3009C19.4029 19.8039 20.5684 19.8927 21.7963 19.3083V21.6016ZM17.6686 36.5156H22.3304L20.0065 39.2232L17.6686 36.5156ZM16.8431 15.2691C15.6083 13.8857 14.8452 12.3691 14.8868 10.4605C15.1851 10.3273 15.3863 10.3939 15.6013 10.6676C16.1286 11.3186 16.6905 11.9401 17.2524 12.5615C17.405 12.739 17.4536 12.887 17.3356 13.1089C17.072 13.6342 16.9333 14.2186 16.9263 14.8104C16.9055 14.9658 16.8778 15.1211 16.8431 15.2691ZM23.1213 15.2469C23.0866 15.1063 23.0658 14.9584 23.0519 14.8104C23.045 14.2186 22.9062 13.6342 22.6426 13.1163C22.5455 12.9314 22.5524 12.7982 22.705 12.6281C23.3155 11.9401 23.8982 11.2299 24.5226 10.5493C24.6336 10.4309 24.8625 10.4383 25.0359 10.3865C25.3342 11.7181 24.2451 14.4553 23.1213 15.2469ZM27.5195 38.698C26.354 39.0235 25.2996 39.5413 24.0925 39.5487L25.473 35.9904L27.5195 38.698ZM14.5122 35.9608L15.8788 39.4821C15.3932 39.6893 13.4785 39.0161 12.5004 38.6462L14.5122 35.9608Z" fill="black"/>
<path d="M20.9983 15.7052C20.9983 15.0468 20.5197 14.4697 19.9577 14.4475C19.4652 14.4327 18.9796 15.032 18.9727 15.6682C18.9727 16.3488 19.4652 16.9258 20.0479 16.911C20.5543 16.911 20.9983 16.334 20.9983 15.7052Z" fill="black"/>
<path d="M20.9992 15.7059C20.9992 16.3347 20.5483 16.9043 20.0557 16.9191C19.473 16.9265 18.9805 16.3495 18.9805 15.6763C18.9805 15.0401 19.4661 14.4335 19.9656 14.4557C20.5275 14.4705 20.9992 15.0475 20.9992 15.7059Z" fill="black"/>
</g>
<defs>
<clipPath id="clip0_283_83">
<rect width="40" height="40" fill="white"/>
</clipPath>
</defs>
</svg>
