<svg width="40" height="40" viewBox="0 0 40 40" fill="none" xmlns="http://www.w3.org/2000/svg">
<g clip-path="url(#clip0_283_89)">
<path d="M34.0132 20.0129C34.0306 19.8687 34.0393 19.7218 34.0654 19.5775C34.2247 18.6779 34.2739 17.7703 34.2247 16.8628C34.1725 15.9001 33.99 14.9585 33.5643 14.0641C33.3673 13.6497 33.1153 13.2641 32.7735 12.931C32.4144 12.5847 31.9654 12.7316 31.8119 13.1513C31.6642 13.5579 31.5512 13.9749 31.4325 14.3867C31.2297 15.0897 31.0328 15.7926 30.691 16.451C30.3347 17.1356 29.8539 17.7467 29.2196 18.2477C29.0487 18.3815 28.8778 18.5126 28.6808 18.6254C28.7243 18.5546 28.7677 18.4864 28.8141 18.4156C29.1211 17.9487 29.3615 17.4556 29.4165 16.9126C29.4513 16.5559 29.4079 16.1887 29.3876 15.8293C29.3731 15.6169 29.3326 15.4044 29.3036 15.192C29.2457 14.7749 28.9995 14.4497 28.6287 14.2267C28.4375 14.1113 28.1827 14.051 27.948 14.03C27.4556 13.988 26.9661 14.0431 26.4882 14.1533C25.9118 14.2844 25.3789 14.5126 24.8691 14.7723C24.3593 15.032 23.9423 15.4018 23.6092 15.8477C23.3398 16.207 23.1805 16.6083 22.9806 16.9939C22.9024 17.1434 22.8155 17.2877 22.7026 17.432C22.6997 17.3979 22.6939 17.3638 22.6939 17.3297C22.6852 16.6162 22.7837 15.9211 23.0791 15.2523C23.502 14.2897 24.0958 13.4346 24.9415 12.729C25.1153 12.5847 25.3036 12.4536 25.4976 12.3329C25.9147 12.0733 26.1957 11.7139 26.3984 11.31C26.5346 11.0398 26.5114 10.7277 26.3984 10.4628C26.2218 10.0457 26.0016 9.6313 25.7554 9.24048C25.5295 8.88375 25.153 8.6608 24.7417 8.49293C24.6461 8.45359 24.5505 8.41687 24.4549 8.38015C24.4578 8.36441 24.4578 8.34867 24.4607 8.33556C24.5679 8.33556 24.6722 8.32769 24.7793 8.33818C25.1761 8.37752 25.5498 8.48769 25.9089 8.64507C26.2044 8.77359 26.4998 8.89949 26.7953 9.02802C26.8648 9.05949 26.9285 9.09884 26.9951 9.13293C27.3572 9.31129 27.7163 9.50015 28.0871 9.66277C28.313 9.76244 28.5621 9.76769 28.8112 9.72834C28.8257 9.72572 28.8402 9.72048 28.8546 9.7231C29.3818 9.7572 29.767 9.47129 30.1812 9.24834C30.6099 9.01752 30.9053 8.68179 31.1805 8.31982C31.2906 8.17556 31.4151 8.04179 31.5223 7.89752C31.6236 7.76113 31.7279 7.62211 31.8032 7.47523C31.977 7.14211 32.1479 6.80375 32.3014 6.46277C32.4404 6.15588 32.4231 5.83064 32.3999 5.50802C32.3622 5.02277 32.0929 4.62408 31.8235 4.22539C31.6816 4.01818 31.5454 3.80834 31.3079 3.67195C31.1515 3.58015 31.0907 3.56441 30.9314 3.65884C30.8995 3.6772 30.8648 3.69031 30.8097 3.71654C30.8039 3.65359 30.7953 3.609 30.7953 3.56441C30.8097 2.78802 30.5606 2.09031 30.0567 1.45556C29.8018 1.13556 29.5353 0.828672 29.2167 0.561131C29.0458 0.416868 28.8459 0.296213 28.6606 0.165065C28.6229 0.138835 28.5882 0.104737 28.5592 0.060147C28.7851 0.0444093 28.9995 0.0811307 29.1906 0.180803C29.683 0.437852 30.1696 0.705393 30.5983 1.05162C30.746 1.16966 30.9082 1.27457 31.0762 1.369C31.5715 1.65228 31.9654 2.03785 32.3767 2.40507C32.9705 2.9349 33.5614 3.46998 34.1233 4.02343C34.4853 4.38015 34.7982 4.77621 35.1312 5.15392C35.2471 5.28769 35.3717 5.41621 35.4788 5.55523C35.6671 5.80179 35.8525 6.05359 36.0262 6.30802C36.2551 6.64638 36.4607 6.99785 36.6982 7.33097C37.0719 7.85293 37.3934 8.39589 37.6917 8.95457C38.1349 9.78343 38.4738 10.6438 38.7547 11.5251C39.0154 12.3382 39.2819 13.1487 39.5252 13.9644C39.615 14.2634 39.6555 14.5729 39.699 14.8798C39.8003 15.5775 39.9394 16.2726 39.9683 16.9729C40.0147 18.1244 39.9886 19.2785 39.9857 20.43C39.9828 21.4792 39.7482 22.5021 39.5252 23.5277C39.4788 23.7375 39.4412 23.9474 39.3948 24.1598C39.3832 24.2123 39.3601 24.2621 39.3427 24.312C39.3282 24.3093 39.3137 24.3093 39.3021 24.3067C39.2963 24.2595 39.2906 24.2097 39.2877 24.1624C39.2761 23.6903 39.2848 23.2182 39.25 22.7487C39.1544 21.4765 39.0183 20.2123 38.6968 18.9664C38.4332 17.9539 38.1378 16.952 37.8018 15.9579C37.6454 15.4988 37.4223 15.0739 37.0748 14.7015C36.9155 14.531 36.7156 14.4575 36.4984 14.4024C36.4462 14.3893 36.3709 14.4418 36.3101 14.4706C36.0436 14.5913 35.9683 14.8011 35.9538 15.0529C35.922 15.6379 35.8554 16.2201 35.7018 16.792C35.4991 17.5474 35.1805 18.2634 34.775 18.9454C34.5664 19.2995 34.326 19.6352 34.1001 19.9815L34.0654 20.0365C34.0422 20.026 34.0277 20.0208 34.0132 20.0129Z" fill="black"/>
<path d="M20.2048 6.27107C20.1555 6.32878 20.115 6.38124 20.0657 6.42845C19.7935 6.69599 19.6892 7.02124 19.6834 7.37796C19.666 8.25927 19.8659 9.10124 20.2337 9.91173C20.2975 10.056 20.3873 10.1898 20.4452 10.3524C20.3583 10.3157 20.2685 10.2842 20.1845 10.2422C20.1034 10.2029 20.0513 10.2212 20.002 10.2842C19.9064 10.4022 19.8717 10.5307 19.9441 10.6645C19.9789 10.7327 19.9789 10.7773 19.918 10.8245C19.8138 10.9032 19.7848 11.0055 19.7848 11.1262C19.7848 11.4016 19.7732 11.677 19.7616 11.9498C19.7529 12.1439 19.8051 12.3222 19.9238 12.4848C19.9644 12.5399 20.0194 12.6107 20.1063 12.5347C20.6045 12.1071 21.1925 11.8029 21.7775 11.4855C21.9021 11.4173 22.018 11.336 22.1512 11.2862C22.5104 11.1498 22.8753 11.0265 23.2374 10.9032C23.3822 10.8534 23.5299 10.8114 23.6718 10.7642C24.0049 10.6488 24.3554 10.6566 24.7001 10.6094C23.9731 10.9452 23.4923 11.4934 23.0723 12.094C22.6552 12.6921 22.2931 13.3189 22.0411 13.993C21.8065 14.6252 21.653 15.2704 21.7196 15.9471C21.7254 16.0127 21.7051 16.0862 21.6762 16.1491C21.3691 16.8022 21.2852 17.4999 21.2243 18.1976C21.1722 18.8009 21.1548 19.4121 21.1867 20.0153C21.2243 20.658 21.4503 21.2639 21.8471 21.8094C21.9745 21.9852 22.1686 22.0822 22.3655 22.1766C22.7594 22.3655 23.1823 22.355 23.6081 22.3235C23.9441 22.2999 24.2743 22.2448 24.5726 22.0822C24.5842 22.0875 24.5987 22.0953 24.6103 22.1006C24.5987 22.1478 24.5987 22.2029 24.5726 22.2422C24.1816 22.8324 23.8804 23.4593 23.6516 24.115C23.3822 24.8967 23.0752 25.6704 22.8319 26.4599C22.577 27.2835 22.3655 28.1176 22.1599 28.9517C22.0904 29.2429 22.0904 29.5498 22.0817 29.8488C22.0788 29.9616 22.1396 30.0744 22.1715 30.195C22.0093 30.3183 21.8355 30.4573 21.6559 30.5885C20.9723 31.0816 20.4539 31.7006 19.9702 32.3537C19.6805 32.7445 19.3445 33.1065 19.0259 33.4816C18.5567 34.0298 18.0933 34.5832 17.6096 35.1235C17.039 35.7583 16.3902 36.3248 15.7269 36.8809C14.5886 37.833 13.4821 38.814 12.4828 39.8868C12.3728 40.0048 12.367 39.9996 12.1758 39.9734C12.2106 39.9288 12.2366 39.8921 12.2656 39.8553C12.9028 39.0711 13.3981 38.2186 13.8355 37.3268C14.6378 35.698 15.2779 34.0193 15.9296 32.3458C16.2627 31.4934 16.5234 30.6225 16.7261 29.7386C16.9086 28.9439 17.0245 28.1412 17.065 27.3281C17.0998 26.6094 17.1722 25.8907 17.1983 25.1721C17.2185 24.6107 17.1954 24.0468 16.981 23.5039C16.8941 23.2835 16.7406 23.1419 16.506 23.0632C16.3322 23.0055 16.1555 22.9504 15.9615 22.8875C16.0889 22.7694 16.2135 22.6462 16.3467 22.5307C16.7435 22.1924 17.1432 21.8593 17.54 21.5183C17.6617 21.4134 17.7804 21.3032 17.8818 21.1826C17.9658 21.0855 18.0469 21.0934 18.1425 21.1458C18.38 21.2717 18.5364 21.4632 18.661 21.6783C18.8637 22.0298 18.9419 22.4101 18.9767 22.7983C19.0375 23.5065 19.1157 24.2147 19.1621 24.9255C19.1968 25.4658 19.22 26.0088 19.191 26.5491C19.1534 27.2678 19.1736 27.9891 19.0114 28.6999C18.829 29.5026 18.6928 30.3157 18.3742 31.0868C18.296 31.2783 18.2091 31.4671 18.1135 31.6507C17.7747 32.2881 17.4387 32.9255 17.0853 33.555C16.6769 34.2763 16.2888 35.0107 15.7935 35.6875C15.6342 35.9052 15.472 36.1229 15.33 36.3589C15.3648 36.3301 15.4083 36.3065 15.4343 36.2724C15.7819 35.8396 16.1411 35.4121 16.4713 34.9662C16.8652 34.4285 17.2388 33.8776 17.6125 33.3268C17.9311 32.8573 18.2497 32.3904 18.5422 31.9104C18.7392 31.5826 19.0346 31.4671 19.4198 31.4724H19.5444C19.472 31.336 19.3996 31.2075 19.33 31.0789C19.1505 30.7353 19.1331 30.3681 19.3185 30.0429C19.5067 29.7098 19.7558 29.3845 20.2598 29.395C20.506 29.4003 20.7493 29.4003 20.9955 29.4003C21.0621 29.4003 21.1287 29.4003 21.2069 29.3714C21.0998 29.3058 20.9926 29.2403 20.8825 29.1773C20.3728 28.8757 19.9875 28.4848 19.8688 27.9288C19.7732 27.4724 20.0947 26.9924 20.5639 26.8088C20.9579 26.654 21.372 26.5622 21.7862 26.4809C21.8731 26.4625 21.9629 26.4652 22.0527 26.4573L22.0614 26.418C21.9977 26.3917 21.9311 26.3655 21.8673 26.3366C21.5951 26.216 21.3199 26.1032 21.0563 25.9694C20.7899 25.8304 20.5321 25.6757 20.283 25.513C20.1324 25.416 19.9962 25.2953 19.8601 25.1799C19.834 25.1589 19.834 25.1091 19.8311 25.0698C19.7877 24.3904 19.7587 23.7085 19.695 23.0291C19.6545 22.6173 19.582 22.2055 19.4807 21.8042C19.4025 21.4921 19.2692 21.1904 19.1447 20.8888C19.0056 20.553 18.7479 20.3065 18.38 20.1307C17.4618 21.1222 16.3959 21.9668 15.2084 22.6934C15.2345 22.6619 15.2576 22.6278 15.2866 22.5989C15.8572 22.0088 16.2656 21.3242 16.6479 20.6265C16.9086 20.1491 16.9115 19.6403 16.7841 19.1314C16.7667 19.0606 16.7696 19.0239 16.842 18.9845C17.8673 18.4521 18.6204 17.6704 19.2837 16.8075C19.4662 16.5714 19.6689 16.3432 19.8109 16.0888C20.1005 15.5616 20.3467 15.016 20.4684 14.4337C20.4799 14.3839 20.4799 14.3314 20.4857 14.2501C20.2598 14.3891 20.0281 14.4311 19.779 14.4416C19.2229 14.4652 18.7537 14.2816 18.3568 13.9563C18.0788 13.7281 17.85 13.4475 17.5719 13.1642C17.9079 13.0671 18.2265 13.0488 18.4582 12.7917C18.3916 12.734 18.3308 12.6816 18.2584 12.6212C18.2757 12.6003 18.3018 12.5583 18.3366 12.5242C18.5944 12.2724 18.5915 11.9603 18.5886 11.6481C18.5857 11.4514 18.5625 11.2573 18.5393 11.0632C18.5335 11.0134 18.5104 10.9583 18.4785 10.9163C18.4003 10.8114 18.3539 10.7248 18.4235 10.5806C18.4814 10.4625 18.3916 10.3262 18.2757 10.2344C18.2497 10.216 18.186 10.2239 18.1483 10.237C18.0585 10.2685 17.9716 10.3104 17.85 10.3603C17.8702 10.3052 17.876 10.2816 17.8876 10.2606C18.2178 9.74386 18.3858 9.17993 18.5132 8.59763C18.6175 8.1255 18.6407 7.65599 18.6233 7.17862C18.6117 6.86648 18.5104 6.60419 18.2178 6.42321C18.1657 6.39173 18.1077 6.36812 18.0527 6.33927C18.0643 6.31829 18.0788 6.29468 18.0904 6.2737C18.1831 6.23173 18.2728 6.18714 18.3655 6.14517C18.6812 6.00353 18.7044 5.74911 18.4235 5.5655C18.2671 5.46583 18.128 5.3373 17.9224 5.32157C17.8934 5.31894 17.8673 5.29271 17.8297 5.27173C17.9282 5.16681 18.0151 5.06452 18.1135 4.97271C18.1367 4.95173 18.1946 4.94911 18.2352 4.95435C18.8377 5.00681 19.4401 5.00157 20.0397 4.94648C20.1526 4.93599 20.2424 4.95173 20.3177 5.04353C20.3786 5.1196 20.4626 5.18255 20.5552 5.26911C20.4365 5.30845 20.3293 5.35042 20.2164 5.38189C20.0223 5.43698 19.8688 5.53927 19.7877 5.70714C19.6979 5.89075 19.7645 6.04812 19.9615 6.1478C20.0397 6.19501 20.1179 6.22911 20.2048 6.27107ZM14.9883 17.4317C14.5654 17.4291 14.1483 17.4501 13.7312 17.3347C12.7696 17.0619 11.8949 16.6422 11.0781 16.115C10.8087 15.9419 10.5451 15.753 10.3105 15.5432C10.0093 15.2704 9.7399 14.9688 9.45894 14.6803C9.0824 14.2894 8.76089 13.8619 8.48863 13.4055C8.04257 12.6632 7.72686 11.8737 7.44591 11.0711C7.2055 10.3891 6.8753 9.74124 6.42635 9.14583C6.02085 8.60812 5.58059 8.09927 5.03316 7.67435C4.56973 7.31501 4.08602 6.97665 3.60521 6.63566C3.2866 6.41271 2.9593 6.19763 2.62621 5.99042C1.62114 5.36878 0.56104 4.84157 -0.580163 4.45337C-0.837947 4.36419 -1.09573 4.27239 -1.35352 4.18058C-1.35062 4.17009 -1.34483 4.15698 -1.34193 4.14648C-1.22317 4.17796 -1.10152 4.20419 -0.982769 4.23829C-0.0616976 4.51107 0.856477 4.78386 1.77755 5.06189C3.34743 5.53403 4.90282 6.04288 6.35684 6.76419C6.97958 7.0737 7.59652 7.39894 8.17871 7.76878C8.79565 8.16222 9.40101 8.57927 9.90789 9.09337C9.99478 9.17993 10.0904 9.26386 10.1628 9.35829C10.3018 9.54189 10.5161 9.58124 10.7305 9.6337C11.0636 9.71763 11.3938 9.80943 11.724 9.90648C11.8109 9.93271 11.8833 9.9878 11.9817 10.0376C11.9441 10.0534 11.9325 10.0612 11.9267 10.0612C11.4401 9.92485 11.0172 10.0953 10.6088 10.3025C10.3134 10.4547 10.1338 10.8245 10.2526 11.1078C10.3221 11.273 10.4669 11.4357 10.6262 11.5432C11.2866 11.9839 12.0252 12.0048 12.7899 11.8265C12.8159 11.8212 12.8449 11.816 12.871 11.8107C12.8854 11.8239 12.8999 11.8396 12.9144 11.8527C12.8796 11.8685 12.8362 11.8789 12.8072 11.9026C12.2888 12.3196 11.9383 12.8416 11.7645 13.4422C11.6284 13.9091 11.7182 14.3812 11.8978 14.8324C11.9846 15.0501 12.0773 15.2678 12.2077 15.4645C12.477 15.8737 12.8565 16.1963 13.2707 16.4875C13.7747 16.8389 14.3076 17.138 14.9072 17.3373C14.9419 17.3504 14.9738 17.374 15.0056 17.3924L14.9883 17.4317Z" fill="black"/>
<path d="M19.1086 14.7598C18.9261 15.3421 18.7842 15.9218 18.4337 16.428C18.0398 16.9972 17.6459 17.569 17.2172 18.1172C17.0028 18.3926 16.7132 18.6208 16.4525 18.8673C16.4265 18.8909 16.3801 18.8936 16.3425 18.9067C16.3425 18.8804 16.3309 18.849 16.3425 18.828C16.6292 18.3244 16.7045 17.7893 16.6958 17.2306C16.6842 16.5224 16.4554 15.8903 15.9572 15.3447C15.4677 14.8096 14.7813 14.6155 14.0687 14.9014C13.8167 15.0037 13.7038 15.2162 13.6082 15.4339C13.5763 15.51 13.5445 15.5834 13.4866 15.6568C13.3852 15.4811 13.3359 15.2975 13.3359 15.1086C13.3417 14.6916 13.4199 14.2824 13.6082 13.8968C13.7704 13.5611 13.921 13.2175 14.1296 12.9054C14.3236 12.6168 14.5843 12.3677 14.8247 12.1054C14.9232 11.9978 15.0391 11.906 15.152 11.809C15.4185 11.5782 15.6792 11.3342 16.0615 11.2582C15.8877 12.1237 16.0876 12.9421 16.69 13.6214C17.2896 14.2955 18.0745 14.7467 19.1086 14.7598ZM19.2505 0.763729L19.4417 1.45619L19.8848 3.13225C19.937 3.32635 19.9804 3.52307 20.0383 3.71455C20.0615 3.79061 20.1194 3.85619 20.1658 3.94012C19.9312 4.07127 19.7921 4.30996 19.6068 4.5093C19.5488 4.57225 19.433 4.59324 19.3374 4.65094C19.6097 4.55914 19.8008 4.66143 19.9659 4.85553C19.4619 4.90012 18.9666 4.92111 18.4569 4.84242C18.5959 4.65356 18.7552 4.5434 19.0101 4.66406C19.0101 4.62996 19.013 4.61684 19.0101 4.61684C18.7986 4.55389 18.7031 4.37815 18.5698 4.23914C18.4656 4.12897 18.3555 4.02406 18.2657 3.9375C18.3207 3.80111 18.3931 3.66734 18.4308 3.52307C18.6538 2.70209 18.8711 1.88111 19.0912 1.06012C19.1202 0.955204 19.1665 0.855532 19.207 0.755859L19.2505 0.763729Z" fill="black"/>
</g>
<defs>
<clipPath id="clip0_283_89">
<rect width="40" height="40" fill="white"/>
</clipPath>
</defs>
</svg>
