<svg width="40" height="40" viewBox="0 0 40 40" fill="none" xmlns="http://www.w3.org/2000/svg">
<g clip-path="url(#clip0_283_93)">
<path d="M21.636 35.7333C21.8601 35.5901 22.0194 35.4864 22.1787 35.3827C22.9101 34.8839 23.8068 35.2049 24.1312 35.916C24.4497 36.6172 24.0781 37.1456 23.5354 37.5753C22.5916 38.3259 21.577 39.0222 20.5919 39.7432C20.5211 39.7975 20.4326 39.8419 20.3559 39.8913C20.1259 40.0395 19.8781 40.0543 19.654 39.8963C18.6453 39.1851 17.6366 38.479 16.6515 37.7481C16.3919 37.5555 16.1914 37.2987 15.9908 37.0568C15.4835 36.4493 15.8256 35.595 16.5217 35.2493C16.8992 35.0617 17.3416 35.0913 17.7251 35.3185C17.9256 35.437 18.1085 35.5654 18.3503 35.7234C18.3267 35.6197 18.2972 35.516 18.256 35.4172C18.0613 35.0419 17.8784 34.6617 17.6484 34.2963C17.377 33.8666 16.9169 33.5456 16.3683 33.3926C15.5071 33.1358 14.6459 32.8987 13.7728 32.6765C12.1566 32.2617 10.5403 31.8617 8.924 31.4568C8.51108 31.3531 8.09816 31.2543 7.67934 31.1654C5.81531 30.7654 4.20493 29.9605 2.72432 28.9629C1.48557 28.1234 0.683325 27.0271 0.3058 25.7382C-0.195601 24.0543 -0.0835233 22.2814 0.636135 20.6469C1.48557 18.6765 2.8364 16.9679 4.44678 15.3876C5.61475 14.2419 6.78862 13.1012 7.96249 11.9605C8.65855 11.2889 9.37821 10.637 10.0566 9.95552C10.7231 9.27404 11.2304 8.48885 11.5372 7.64441C11.5726 7.58515 11.6375 7.54071 11.7141 7.52589C12.1153 7.51601 12.5164 7.52095 12.8998 7.52095C13.0709 7.7975 13.006 8.05922 12.9883 8.33083C12.9352 9.17527 12.5459 9.93083 12.1448 10.6765C11.667 11.5703 11.083 12.4 10.1922 13.0814C8.51698 14.3654 7.06587 15.8123 6.12795 17.5703C5.96868 17.8716 5.8802 18.2074 5.77992 18.5333C5.66784 18.8839 5.58526 19.2345 5.52037 19.595C5.43779 20.1481 5.41419 20.7061 5.31981 21.2592C5.17234 22.1284 5.3552 22.9827 5.52037 23.8271C5.57346 24.1086 5.76222 24.3802 5.91559 24.6419C6.23413 25.1703 6.55267 25.7135 7.17204 26.0444C7.43749 26.1876 7.75603 26.2666 8.05687 26.3555C8.17485 26.4 8.31052 26.3605 8.36361 26.2617C8.37541 26.237 8.3813 26.2172 8.3872 26.1926C8.43439 25.9358 8.51108 25.6691 8.46979 25.4172C8.19844 23.8172 8.85321 22.5432 10.3456 21.5506C10.7349 21.2889 11.1479 21.0518 11.5726 20.8296C12.8998 20.1432 15.1178 20.558 16.1383 21.4271C16.504 21.7382 16.7577 22.1333 16.8697 22.558C17.088 23.3284 17.3062 24.0987 16.9818 24.879C16.7046 25.5456 16.3801 26.2024 15.454 26.4197C14.3686 26.6716 13.472 26.3851 12.6285 25.7926C11.8911 25.279 11.7141 23.8469 12.2509 23.2493C12.6049 22.8543 13.0827 22.6765 13.6608 22.7555C14.0619 22.8098 14.3922 22.9876 14.5397 23.3333C14.6518 23.5901 14.5692 23.8074 14.3155 23.9654C14.0088 24.153 13.7787 24.1728 13.5487 24.0098C13.4661 23.9506 13.4366 23.8518 13.3835 23.7679C13.3422 23.7037 13.2832 23.5802 13.2537 23.5851C13.1417 23.6 12.9942 23.6345 12.9352 23.7037C12.6875 23.9802 12.8644 24.3851 13.2773 24.5679C13.8023 24.795 15.0293 24.637 15.4363 24.2716C15.5366 24.1777 15.6015 24.0543 15.6133 23.9259C15.6487 23.437 15.5071 22.953 15.2063 22.5333C14.9231 22.1333 14.4335 21.9703 13.9321 21.8864C13.3363 21.7876 12.7287 21.8172 12.1684 22.0296C11.8852 22.1382 11.6316 22.2963 11.4192 22.4889C10.6406 23.1901 10.499 24.0444 10.6465 24.9531C10.7054 25.3284 10.7349 25.7135 10.8883 26.0642C11.3071 27.0271 12.0445 27.8271 12.9883 28.4592C14.3686 29.3827 15.8079 30.2419 17.2237 31.1358C17.9433 31.5901 18.5863 32.0987 19.1172 32.7358C19.0287 32.4 18.952 32.0592 18.8399 31.7284C18.722 31.3926 18.5627 31.0617 18.4093 30.7308C18.256 30.3901 18.1026 30.0543 17.9374 29.7185C17.7782 29.3926 17.6248 29.0617 17.436 28.7456C17.2473 28.4296 17.0172 28.1284 16.7989 27.8271C16.5807 27.5259 16.3447 27.2345 16.1324 26.958C16.4509 26.6814 16.7694 26.4395 17.0408 26.158C17.5009 25.6938 17.6956 25.1407 17.7074 24.5382C17.731 23.4814 17.4891 22.4691 16.8402 21.5555C16.5276 21.116 16.1206 20.721 15.7431 20.3111C15.5484 20.1037 15.3301 19.916 15.0706 19.674H24.9157C24.7152 19.8765 24.5618 20.0592 24.373 20.2172C22.857 21.4864 22.1846 23.0321 22.3144 24.8C22.3733 25.5506 22.8276 26.1876 23.5472 26.6666C23.6593 26.7407 23.7714 26.8296 23.907 26.9284C22.3792 28.6666 21.5062 30.6419 20.8632 32.7012L20.9458 32.7407C20.993 32.6716 21.0402 32.6024 21.0933 32.5382C21.1523 32.4642 21.2172 32.3901 21.2821 32.316C21.9368 31.6098 22.804 31.1111 23.6534 30.5926C24.8685 29.8518 26.1014 29.121 27.2222 28.2913C28.0539 27.674 28.809 26.9382 29.1157 26.0098C29.3989 25.1605 29.564 24.2716 29.2219 23.4123C29.0685 23.0271 28.7441 22.6765 28.4432 22.3506C28.1188 21.995 27.5938 21.916 27.0983 21.8568C26.5143 21.7876 25.9303 21.8074 25.4112 22.074C25.1576 22.2024 24.9334 22.3753 24.7624 22.5827C24.4792 22.9382 24.4025 23.3531 24.3671 23.7827C24.3377 24.1432 24.5441 24.3506 24.9275 24.479C25.4348 24.6518 25.9834 24.6963 26.5202 24.6123C26.9567 24.5481 27.234 24.2172 27.1455 23.8765C27.1101 23.758 27.0275 23.6543 26.9154 23.5851C26.7975 23.516 26.65 23.5259 26.6146 23.6987C26.5556 23.9605 26.3374 24.1382 26.1132 24.1185C25.7947 24.0938 25.4466 23.8321 25.4112 23.595C25.3405 23.1407 25.9126 22.7802 26.3787 22.7358C27.2812 22.6568 27.9065 23.1703 28.0244 23.8666C28.2781 25.3382 27.1868 26.316 25.4702 26.4987C24.6267 26.5876 23.6298 26.1679 23.27 25.4271C23.0222 24.9135 22.7804 24.4098 22.8452 23.8568C22.916 23.2148 23.0104 22.5629 23.3584 21.9753C23.6416 21.5061 24.1017 21.1358 24.668 20.9135C26.2725 20.2765 27.8062 20.2765 29.2455 21.2642C29.7823 21.6247 30.2719 22.0247 30.7143 22.4691C31.5283 23.3135 31.6168 24.2963 31.5342 25.3185C31.5165 25.5456 31.4988 25.7827 31.5401 26.0049C31.605 26.3506 31.7289 26.4098 32.13 26.316C32.8025 26.1629 33.2744 25.7876 33.6283 25.3037C33.8761 24.958 34.0943 24.6024 34.3067 24.2419C34.3893 24.1135 34.4483 23.9703 34.4777 23.8271C34.5721 23.1654 34.7078 22.5086 34.7078 21.8469C34.7078 21.1111 34.6016 20.3703 34.4895 19.6444C34.407 19.1012 34.3008 18.5481 34.0884 18.0345C33.7109 17.1111 33.0974 16.2814 32.4191 15.4913C31.605 14.5382 30.6199 13.7135 29.5935 12.9234C28.8857 12.3753 28.4196 11.679 28.0185 10.9728C27.641 10.3111 27.3461 9.62466 27.1219 8.91355C27.0039 8.52836 26.8624 8.10861 27.0157 7.68392C27.0629 7.55552 27.116 7.50614 27.2694 7.51108C27.5938 7.51601 27.9182 7.50614 28.2427 7.52095C28.3371 7.53577 28.4196 7.58515 28.4609 7.65429C28.9269 8.87404 29.7823 9.88639 30.791 10.8197C31.7348 11.6889 32.6904 12.5531 33.5929 13.4568C34.8612 14.7308 36.0999 16.0296 37.3269 17.3333C38.1409 18.1926 38.6128 19.2098 39.126 20.2074C39.4446 20.8345 39.6864 21.4864 39.8398 22.1531C40.0404 23.0271 40.0227 23.9061 39.8988 24.7802C39.6333 26.6716 38.5892 28.1777 36.7547 29.3086C35.6811 29.9703 34.5131 30.4938 33.2921 30.9284C32.7612 31.116 32.1831 31.2 31.6286 31.3382C30.5255 31.6148 29.4342 31.9012 28.3312 32.1679C27.4817 32.3753 26.6205 32.5382 25.777 32.7605C24.9806 32.9679 24.1961 33.2049 23.4233 33.4716C22.568 33.7629 22.2023 34.4197 21.8778 35.0765C21.7894 35.2691 21.7304 35.4765 21.636 35.7333Z" fill="black"/>
<path d="M22.0611 6.84406V19.1157H21.2589V6.85394H18.7637V19.1157H17.9437V6.86381H16.1741V19.0613H15.307V6.83418H13.3603C12.9002 6.83418 12.4342 6.83418 11.9741 6.82925C11.691 6.82925 11.4314 6.82431 11.166 6.97739C10.7708 7.20456 10.2281 6.83912 10.2104 6.50826C10.1868 6.09838 10.4699 5.77739 10.7943 5.72801C11.0008 5.69838 11.1778 5.70826 11.3311 5.84653C11.396 5.90579 11.5081 5.96999 11.5966 5.96999C12.7882 5.97493 13.9738 5.96999 15.1654 5.96011C15.2126 5.95517 15.2657 5.9453 15.3129 5.93048V2.90332H16.1564V5.95023H17.926V2.90826H18.746V5.96505H21.2471V2.90826H22.0611V5.96011H23.8249V2.90826H24.692V5.95517C24.8336 5.96011 24.9339 5.96505 25.04 5.96505C26.1431 5.96999 27.2403 5.96999 28.3434 5.96999C28.4378 5.97493 28.5321 5.95517 28.6147 5.91073C29.0807 5.60455 29.5114 5.66381 29.7355 6.11814C29.9479 6.5527 29.706 7.04653 29.1043 7.03665C29.004 7.03665 28.8979 6.99221 28.7976 6.96752C28.6265 6.92307 28.4555 6.83912 28.2844 6.83418C27.1754 6.82431 26.0605 6.82925 24.9516 6.82925C24.8867 6.82925 24.8159 6.83418 24.7097 6.83912V19.0663H23.8308V18.7601L23.8426 7.15517C23.8426 6.83912 23.8426 6.83912 23.4532 6.83912L22.0611 6.84406Z" fill="black"/>
<path d="M29.7358 3.26906C29.895 3.3777 30.0071 3.45672 30.1192 3.53573C30.42 3.74807 30.7504 3.80733 31.1043 3.66412C31.4582 3.52091 31.4051 3.21968 31.4169 2.96783C31.4346 2.58264 31.2046 2.27153 30.886 2.01474C30.5026 1.70363 29.8537 1.73326 29.4113 2.074C28.8981 2.45919 28.6032 2.95301 28.4144 3.50116C28.1844 4.18758 28.2198 4.87894 28.2846 5.60486H26.7156C26.6861 5.46659 26.6271 5.31351 26.6153 5.16042C26.5327 3.96042 26.6507 2.77523 27.1816 1.64437C27.6358 0.676469 28.4734 0.108568 29.7299 0.0394322C30.2254 0.0196791 30.7209 0.0443705 31.2164 0.108568C31.4346 0.133259 31.6647 0.251778 31.8298 0.385111C32.5554 0.957951 33.163 1.59993 33.1571 2.49869C33.1512 3.05672 32.7914 3.49128 32.4138 3.91598C31.8947 4.50857 31.1633 4.53326 30.3964 4.44931C30.0838 4.41474 29.7771 4.12832 29.7299 3.82709C29.7181 3.66412 29.7358 3.49128 29.7358 3.26906ZM11.762 5.62956C11.762 5.17523 11.7915 4.76042 11.7561 4.34561C11.6853 3.52585 11.414 2.76042 10.6943 2.15795C10.364 1.87647 9.96287 1.72832 9.49096 1.8419C8.99546 1.96536 8.7713 2.31104 8.63563 2.68635C8.57664 2.84931 8.58844 3.04684 8.61793 3.21968C8.69462 3.69375 9.20192 3.89128 9.70332 3.63943C9.89208 3.5456 10.0572 3.41721 10.2401 3.30363C10.423 3.85672 10.1221 4.46906 9.23731 4.48882C8.264 4.51351 7.69772 4.13326 7.22581 3.48141C6.60643 2.62709 6.7834 1.85672 7.42047 1.09622C7.7921 0.651778 8.17552 0.202395 8.84799 0.0838766C10.4938 -0.202543 12.169 0.182642 12.8297 1.674C13.3547 2.85425 13.4845 4.06906 13.3606 5.31351C13.337 5.55548 13.2308 5.65425 12.9241 5.63449C12.523 5.6098 12.1218 5.62956 11.762 5.62956ZM21.3535 1.12091C21.3535 1.73326 20.7695 2.22709 20.0381 2.23202C19.3066 2.23202 18.7167 1.74314 18.7108 1.13079C18.7108 0.518444 19.2948 0.0246174 20.0263 0.0196791H20.0381C20.7636 0.0246174 21.3476 0.513506 21.3535 1.12091ZM16.6521 2.04437C16.0977 2.03943 15.6493 1.65425 15.6552 1.19005C15.6611 0.725852 16.1213 0.350543 16.6757 0.355482C17.2302 0.36042 17.6785 0.740667 17.6726 1.2098C17.6667 1.674 17.2066 2.04931 16.6521 2.04437ZM23.3532 2.04437C22.7987 2.04931 22.3386 1.66906 22.3386 1.20486C22.3327 0.740667 22.7869 0.355482 23.3414 0.355482C23.8959 0.350543 24.3501 0.725852 24.356 1.19005C24.356 1.65919 23.9077 2.03943 23.3532 2.04437Z" fill="black"/>
</g>
<defs>
<clipPath id="clip0_283_93">
<rect width="40" height="40" fill="white"/>
</clipPath>
</defs>
</svg>
