<svg width="40" height="40" viewBox="0 0 40 40" fill="none" xmlns="http://www.w3.org/2000/svg">
<g clip-path="url(#clip0_283_97)">
<rect width="40" height="40" fill="white"/>
<path d="M-0.000516782 19.3685C0.0529092 19.1136 0.133048 18.8587 0.165104 18.5984C0.336067 17.292 0.993206 16.1821 1.62897 15.0668C1.645 15.0403 1.67706 15.019 1.72514 14.9766C1.8961 15.7254 2.15789 16.4051 2.63338 16.9999C3.09284 17.5735 3.53628 18.1523 4.02246 18.779C3.96903 18.8002 3.86752 18.8852 3.76067 18.8905C3.1623 18.8958 2.56927 18.8905 1.9709 18.8746C1.83199 18.8693 1.61295 18.9118 1.60226 18.6781C1.59158 18.3913 1.76788 18.2055 2.00296 18.2001C2.08844 18.1948 2.17392 18.1842 2.28077 18.1736L1.63966 17.292C1.58623 17.3717 1.53815 17.4513 1.50075 17.5416C1.32979 18.0408 1.15348 18.5453 1.00389 19.0499C0.918409 19.3419 1.00389 19.4375 1.31376 19.4375C2.10447 19.4428 2.90051 19.4375 3.69122 19.4428C3.84081 19.4428 3.99574 19.4482 4.14534 19.4641C4.50329 19.5013 4.76508 19.6924 4.8185 20.0429C4.87193 20.3722 4.87193 20.7121 4.82919 21.0414C4.77576 21.4343 4.48726 21.6521 4.07588 21.6574C3.17833 21.6733 2.27543 21.668 1.37787 21.6733C0.98252 21.6733 0.902382 21.7583 1.01458 22.13C1.15883 22.6133 1.32979 23.086 1.49541 23.5639C1.53281 23.6542 1.58089 23.7445 1.63432 23.8295L2.27009 22.9585C2.19529 22.9426 2.13118 22.9107 2.06707 22.9213C1.81062 22.9638 1.70377 22.8364 1.63966 22.6027C1.57021 22.3265 1.58089 22.2575 1.86939 22.2469C2.5105 22.2256 3.15161 22.2203 3.79272 22.2256C3.88355 22.2256 3.97437 22.3159 4.05451 22.3637C3.03408 23.4949 2.0457 24.5836 1.71446 26.1502C1.62363 26.0121 1.54349 25.9112 1.47938 25.7944C1.01992 24.9394 0.496344 24.1056 0.293326 23.1391C0.207844 22.7461 0.138391 22.3531 0.0635943 21.9601C0.0475666 21.8751 0.0208536 21.7902 -0.00585938 21.7052V21.0679C0.0903073 21.036 0.186474 20.9829 0.282641 20.9829C1.40459 20.9776 2.52653 20.9829 3.64847 20.9829C3.953 20.9829 4.09191 20.8555 4.09725 20.5581C4.10259 20.2607 3.953 20.112 3.63779 20.1173C2.51584 20.1226 1.3939 20.1226 0.271955 20.1173C0.181131 20.1173 0.0849647 20.0801 -0.00585938 20.0589L-0.000516782 19.3685Z" fill="black"/>
<path d="M37.4577 26.4315C35.9084 26.0119 34.4766 25.5871 33.5416 24.201C31.9602 28.9806 28.8294 32.1405 24.0425 33.7655C25.3194 34.663 25.6453 36.0491 26.0887 37.4777C25.7201 37.3768 25.4209 37.3184 25.1377 37.2175C24.0051 36.8085 23.0648 36.1022 22.1939 35.2897C21.5101 34.6577 20.7354 34.2382 19.7684 34.3444C19.0472 34.424 18.4328 34.7533 17.9092 35.2472C17.0437 36.0597 16.1087 36.7714 14.9814 37.1909C14.6716 37.2971 14.351 37.3768 14.0251 37.4246C14.4205 36.081 14.7036 34.7161 15.9645 33.8133C11.1882 32.2573 8.0147 29.1559 6.36919 24.4187C5.46094 25.7623 4.02913 26.1341 2.5332 26.5696C2.63471 26.2084 2.69348 25.9004 2.80033 25.6083C3.2224 24.4665 3.94899 23.5212 4.78244 22.6503C5.59451 21.8006 5.90972 20.7969 5.55711 19.6763C5.4182 19.2302 5.09765 18.816 4.77709 18.4602C3.9757 17.568 3.23308 16.6545 2.81102 15.518C2.70417 15.2153 2.62937 14.902 2.58129 14.5887C3.94899 14.9604 5.32738 15.2738 6.24096 16.5377C7.85977 11.466 11.1882 8.19462 16.269 6.64922C15.708 6.07566 15.0135 5.61895 14.6769 4.86483C14.3617 4.13727 14.1053 3.38846 13.8221 2.64497L13.9022 2.55469C14.2014 2.63435 14.5113 2.69808 14.8051 2.80429C15.9485 3.21852 16.8888 3.94077 17.7649 4.75862C18.6091 5.5446 19.5921 5.92166 20.7194 5.54991C21.1842 5.3959 21.6276 5.09319 21.9963 4.76393C22.8885 3.97795 23.8021 3.23976 24.9347 2.82553C25.2499 2.71401 25.5705 2.63435 25.9017 2.59186C25.688 3.38315 25.4743 4.1532 25.1163 4.87545C24.7531 5.60833 24.0906 6.07566 23.5296 6.64391C28.6371 8.17869 31.9816 11.4607 33.595 16.5324C34.156 15.9004 34.7384 15.3162 35.5397 15.0295C36.1381 14.817 36.7472 14.6205 37.3509 14.4134L37.431 14.4665C37.3509 14.7639 37.2921 15.0719 37.1853 15.364C36.7685 16.5005 36.0419 17.4352 35.2245 18.3061C34.6796 18.885 34.3109 19.5382 34.3056 20.3561C34.2949 21.2058 34.6315 21.9174 35.2085 22.5228C36.0259 23.3832 36.7472 24.3072 37.1692 25.4331C37.2814 25.7305 37.3509 26.0491 37.4577 26.4315ZM7.2988 20.2021C7.28811 27.175 12.9673 32.8362 19.9607 32.868C26.7031 32.8999 32.7349 27.6051 32.7456 20.218C32.7563 13.2345 27.2106 7.57327 20.0409 7.56796C12.6147 7.56265 7.29345 13.5265 7.2988 20.2021Z" fill="black"/>
<path d="M4.74897 28.6989C4.85047 28.906 4.9039 29.06 4.98938 29.1875C5.43282 29.8725 5.87091 30.5576 6.33572 31.2268C6.47997 31.4339 6.44791 31.5507 6.27695 31.6888C6.14872 31.795 6.01516 31.9012 5.87625 32.0128C5.33131 31.5454 4.93596 30.9878 4.59403 30.3824C4.54595 30.2974 4.39635 30.1753 4.35896 30.1912C4.22005 30.2655 4.01703 30.3346 4.16128 30.5789C4.58869 31.2958 5.04281 31.9915 5.68392 32.5438C5.73735 32.5863 5.89762 32.581 5.95639 32.5332C6.309 32.2252 6.64024 31.8959 6.99285 31.5773C7.12642 31.4604 7.0356 31.3755 6.97148 31.2852C6.58148 30.7276 6.16475 30.1806 5.80146 29.607C5.53433 29.1822 5.32062 28.7201 5.10158 28.2687C5.01609 28.0935 4.93596 28.051 4.75965 28.1413C4.0384 28.5183 3.31181 28.8848 2.5585 29.2724C2.50508 29.1822 2.44096 29.0813 2.39288 28.9697C2.28069 28.7308 2.17918 28.4865 2.07233 28.2422C1.99753 28.0722 2.00821 27.9554 2.20589 27.8598C3.2477 27.3553 4.28416 26.8402 5.32597 26.3356C5.48624 26.256 5.65721 26.1976 5.82817 26.1285C6.51736 28.0351 7.56451 29.6654 8.87345 31.179C8.64906 31.4498 8.43536 31.7525 8.17357 32.0181C7.60191 32.5969 7.00888 33.1599 6.4212 33.7228C6.15407 33.9777 6.08461 33.9671 5.78009 33.7493C4.81842 33.0483 4.14525 32.103 3.53085 31.1152C3.34921 30.8232 3.16756 30.5258 2.99659 30.2284C2.88974 30.0425 2.91646 29.8779 3.11413 29.7557C3.64839 29.4105 4.17731 29.0653 4.74897 28.6989ZM2.44631 11.5242C3.22633 11.9278 3.95292 12.2995 4.67417 12.6713C4.78636 12.7297 4.9039 12.7881 4.97335 12.6075C5.42213 11.4445 6.21818 10.4886 6.91272 9.47425C6.93943 9.43708 6.9608 9.3999 7.01423 9.31493C6.62422 8.9538 6.22886 8.58737 5.82283 8.23686C5.78009 8.19969 5.63049 8.22624 5.57172 8.27404C4.95198 8.79979 4.52992 9.47425 4.10251 10.1487C4.0384 10.2496 3.91552 10.3877 4.12388 10.5311C4.33224 10.6745 4.4017 10.6426 4.51389 10.4249C4.81842 9.80882 5.24048 9.25651 5.75872 8.80511C5.79077 8.81573 5.82283 8.82635 5.85488 8.84228C6.45325 9.28838 6.45325 9.28838 6.0205 9.8991C5.55035 10.5576 5.04815 11.1896 4.74897 11.949C4.71691 12.0021 4.67951 12.0499 4.63677 12.0924C4.07046 11.7207 3.4988 11.3542 2.93783 10.9719C2.8844 10.9347 2.87906 10.8019 2.87371 10.7116C2.87906 10.6479 2.90043 10.5895 2.93783 10.5417C3.7125 9.25651 4.47115 7.96071 5.71597 7.04727C5.89762 6.91451 6.07393 6.8136 6.25558 7.0101C7.06765 7.87043 8.03466 8.58737 8.72386 9.56984C8.74523 9.5964 8.76125 9.62826 8.77194 9.64419C7.47903 11.1418 6.43188 12.7722 5.74803 14.6628C5.63049 14.6362 5.51296 14.5937 5.39542 14.5513C4.40704 14.0627 3.424 13.5582 2.43028 13.0643C1.92808 12.8094 1.91739 12.8147 2.12575 12.2783C2.22192 12.0234 2.33946 11.7791 2.44631 11.5242ZM35.5704 30.085C35.2018 30.7913 34.7797 31.4392 34.1867 31.949C34.1546 31.9437 34.1332 31.9437 34.1225 31.9384C33.4921 31.4764 33.4975 31.4817 33.9302 30.8497C34.4004 30.1646 34.8491 29.4689 35.33 28.7414C35.4422 28.7998 35.6185 28.8741 35.7788 28.975C36.1634 29.214 36.5374 29.4689 36.9221 29.7079C37.1091 29.8248 37.1358 29.9841 37.0343 30.1646C36.8954 30.4142 36.7564 30.6585 36.6069 30.8975C35.9978 31.8534 35.3834 32.8094 34.4698 33.5263C33.9302 33.9511 33.9142 33.9883 33.4227 33.4997C32.6854 32.7722 31.9855 32.0074 31.2749 31.2586C31.2375 31.2108 31.2055 31.163 31.1788 31.1099C32.4717 29.6123 33.5188 27.9873 34.2027 26.0913C34.3309 26.1232 34.4538 26.1657 34.5713 26.2188C35.5544 26.7074 36.5321 27.2066 37.5097 27.7005C37.5365 27.7111 37.5578 27.7217 37.5845 27.7323C38.028 27.9235 38.0333 27.9235 37.8517 28.4015C37.7448 28.683 37.6219 28.9644 37.5044 29.2406L35.2605 28.0882C35.1537 28.0351 35.0468 27.9713 34.9827 28.1413C34.5232 29.3309 33.7058 30.3027 33.0006 31.3383C32.9792 31.3755 32.9632 31.418 32.9472 31.4551C33.3265 31.8003 33.7112 32.1668 34.1119 32.512C34.1599 32.5544 34.3256 32.5279 34.379 32.4748C34.6782 32.1615 34.972 31.8428 35.2445 31.5082C35.4368 31.2693 35.5971 30.9984 35.7681 30.7382C35.9978 30.3718 35.9925 30.3399 35.5704 30.085ZM35.1857 12.1508C35.0842 11.9331 35.0308 11.7844 34.9453 11.6516C34.5019 10.9665 34.0638 10.2815 33.599 9.61233C33.4761 9.43177 33.4761 9.32024 33.6364 9.18747L34.0584 8.84228C34.4805 9.16092 34.7797 9.57515 35.0682 10C35.175 10.1434 35.2605 10.2974 35.33 10.462C35.4208 10.701 35.5383 10.7541 35.7307 10.5682C35.7734 10.5364 35.8108 10.5045 35.8589 10.478C35.8161 10.3718 35.8001 10.2496 35.736 10.1646C35.2659 9.55391 34.7904 8.9538 34.3149 8.34839C34.2027 8.21031 34.0905 8.205 33.9569 8.33246C33.599 8.67234 33.2303 9.00691 32.851 9.35211C33.5776 10.4939 34.4965 11.4976 34.9453 12.8306L37.4029 11.5773C37.483 11.7419 37.5739 11.9172 37.6593 12.0977C37.7395 12.2677 37.8196 12.4323 37.8837 12.6075C37.9425 12.7562 37.9639 12.8996 37.7769 12.9899C37.0503 13.3351 36.3237 13.6803 35.6024 14.0361C35.2124 14.2273 34.8331 14.4291 34.4431 14.6203C34.3416 14.6628 34.2294 14.6946 34.1225 14.7212C33.428 12.8465 32.4129 11.2055 31.0773 9.68668C31.3017 9.41052 31.5207 9.1025 31.7825 8.83697C32.3488 8.26342 32.9311 7.7058 33.5188 7.14818C33.7966 6.88264 33.8661 6.88795 34.176 7.12693C34.9987 7.74297 35.6452 8.51833 36.1794 9.38397C36.4252 9.78227 36.6923 10.1699 36.9221 10.5789C37.093 10.8816 37.0663 10.9559 36.7778 11.1471C36.2596 11.4817 35.736 11.8003 35.1857 12.1508ZM25.6919 6.2135C26.0606 5.39565 26.4185 4.59905 26.7818 3.80776C26.9528 3.42539 27.1344 3.04302 27.3054 2.65534C27.3909 2.46416 27.5244 2.40574 27.7114 2.4854C27.9572 2.59162 28.1976 2.70845 28.4273 2.83591C28.4808 2.86777 28.5289 3.01647 28.4968 3.0802C28.2136 3.74403 27.9251 4.39725 27.6206 5.04515C27.5298 5.24164 27.5565 5.34786 27.7649 5.42752C28.7532 5.82582 29.5386 6.53745 30.4148 7.10569C30.527 7.17473 30.6285 7.2597 30.7834 7.36591C31.1147 6.95699 31.4352 6.55869 31.7451 6.15508C31.7771 6.11259 31.7611 5.96921 31.713 5.92672C31.0826 5.33724 30.3667 4.86459 29.6241 4.40256C29.5813 4.4716 29.5386 4.53532 29.4905 4.59374C29.3409 4.75306 29.4104 4.82741 29.5707 4.93893C30.0675 5.27351 30.5537 5.63463 31.0452 5.98514C31.1788 6.08073 31.1948 6.16039 31.0933 6.30909C30.7514 6.79236 30.7621 6.78705 30.2705 6.4631C29.6294 6.03824 28.9776 5.62401 28.3205 5.21509C28.1869 5.13012 28.1549 5.04515 28.2243 4.91238C28.4915 4.4238 28.7532 3.92991 29.015 3.44132C29.1005 3.282 29.218 3.25014 29.3676 3.34042C29.6882 3.53161 30.0087 3.72279 30.324 3.91929C31.2322 4.48222 32.1084 5.08763 32.8083 5.90548C33.0968 6.24005 33.1128 6.31971 32.8296 6.64897C32.0817 7.52523 31.3284 8.39087 30.543 9.299C29.1112 8.01382 27.4603 7.04727 25.6919 6.2135ZM10.3213 36.4578C10.3587 36.3887 10.4014 36.3197 10.4495 36.256C10.5884 36.0967 10.5297 36.017 10.364 35.9108C9.8084 35.5497 9.2688 35.1673 8.71851 34.7955L8.76125 34.7318C8.76125 34.7053 8.7666 34.6787 8.77728 34.6575C9.2688 33.9405 9.11921 34.0521 9.76032 34.4663C10.3694 34.8593 10.9838 35.2523 11.5982 35.6346C11.7371 35.7196 11.7905 35.7993 11.7104 35.9533C11.4486 36.4312 11.1868 36.9145 10.9303 37.4031C10.8342 37.589 10.7006 37.6049 10.535 37.504C9.27948 36.7499 8.00795 36.017 7.04628 34.8699C6.8486 34.6309 6.84326 34.5194 7.05697 34.2645C7.66602 33.5475 8.28042 32.8359 8.88948 32.1243C9.03907 31.949 9.18866 31.7791 9.38099 31.5507C10.8235 32.8359 12.4637 33.8078 14.2534 34.6468C14.0397 35.0983 13.826 35.5337 13.6284 35.9692C13.2918 36.7127 12.9552 37.4562 12.6239 38.2103C12.5385 38.4068 12.3942 38.4334 12.2339 38.3696C11.9775 38.2687 11.7371 38.136 11.4913 38.0191C11.3631 37.9554 11.3738 37.881 11.4272 37.7589C11.7371 37.0844 12.0309 36.4047 12.3408 35.7302C12.4049 35.5868 12.3675 35.5178 12.2393 35.4647C11.1921 35.0292 10.3373 34.2963 9.41305 33.6644C9.23674 33.5422 9.11921 33.5157 8.9803 33.7015C8.73988 34.0202 8.47275 34.3123 8.23234 34.6309C8.18425 34.6946 8.17357 34.8699 8.22165 34.9177C8.85208 35.5178 9.57333 35.9798 10.3213 36.4578ZM8.617 6.03824C9.14058 5.67181 9.6321 5.30537 10.1503 4.96549C10.4976 4.73182 10.5136 4.75306 10.2144 4.36007C9.85648 4.59374 9.49319 4.8221 9.14592 5.07701C8.81468 5.31599 8.51015 5.58684 8.18425 5.83644C8.05069 5.93734 8.02398 6.03824 8.13617 6.17101C8.41398 6.50558 8.6918 6.83485 8.96427 7.17473C9.06044 7.29156 9.14058 7.28094 9.25277 7.19597C9.56798 6.96761 9.90457 6.7605 10.2144 6.52683C10.8021 6.07542 11.4165 5.67181 12.1004 5.37972C12.2981 5.29475 12.3194 5.19385 12.2339 5.01328C11.9348 4.36538 11.6409 3.71217 11.3578 3.05365C11.331 2.98461 11.3578 2.83591 11.4112 2.80404C11.6463 2.66597 11.8974 2.54913 12.1485 2.44292C12.2927 2.3845 12.4476 2.39512 12.5278 2.57568C13.046 3.7281 13.5696 4.88583 14.0932 6.03824C14.1038 6.07542 14.1145 6.10728 14.1252 6.14446C13.2811 6.6118 12.4209 7.04196 11.6195 7.54648C10.8182 8.05099 10.0595 8.64579 9.25277 9.22465C8.89482 8.79979 8.51549 8.35901 8.14151 7.91822C7.76753 7.47744 7.37218 7.03134 6.9982 6.58524C6.74175 6.27722 6.75778 6.18694 7.01957 5.87892C7.69273 5.09826 8.51549 4.49815 9.38634 3.95646C9.73361 3.74403 10.0862 3.53161 10.4335 3.31918C10.6098 3.21297 10.7487 3.2289 10.8502 3.42539C11.1013 3.90335 11.3578 4.376 11.6142 4.84865C11.6783 4.9708 11.689 5.06639 11.5447 5.15667C10.8182 5.61339 10.0916 6.07542 9.37565 6.55338C9.15661 6.70208 9.03373 6.67553 8.9055 6.46841C8.83071 6.35157 8.75057 6.24005 8.617 6.03824ZM29.7149 36.4153C30.0889 36.1657 30.4522 35.9427 30.8048 35.6877C31.136 35.4488 31.4513 35.1885 31.7558 34.9177C31.8145 34.8646 31.8573 34.6946 31.8199 34.6415C31.5207 34.2379 31.2001 33.8556 30.8689 33.4466C30.34 33.8184 29.8645 34.1742 29.3676 34.4928C28.8708 34.8115 28.3525 35.1089 27.8343 35.3903C27.6687 35.4806 27.6153 35.5497 27.7007 35.7302C28.0053 36.3887 28.2884 37.0526 28.593 37.7111C28.6464 37.8279 28.6571 37.9076 28.5288 37.9713C28.2831 38.0882 28.0373 38.2156 27.7809 38.3218C27.6153 38.3909 27.4817 38.3537 27.3962 38.1625C27.065 37.4084 26.7284 36.6543 26.3811 35.9002C26.1835 35.47 25.9751 35.0451 25.7828 34.6362C26.6589 34.153 27.5191 33.7228 28.3312 33.213C29.1432 32.7031 29.8859 32.1083 30.6819 31.5348C31.2055 32.1668 31.7397 32.8147 32.2847 33.4573C32.4984 33.7069 32.7335 33.9352 32.9418 34.1848C33.1822 34.4716 33.1716 34.5672 32.9365 34.8487C32.258 35.6559 31.4192 36.256 30.5323 36.8083C30.1904 37.0207 29.8485 37.2278 29.5119 37.435C29.3302 37.5465 29.186 37.5305 29.0738 37.3234C28.8227 36.8455 28.5662 36.3728 28.3098 35.8949C28.2404 35.7674 28.251 35.6771 28.3899 35.5921C29.1272 35.1301 29.8592 34.6628 30.5804 34.1795C30.7674 34.0574 30.8689 34.0733 30.9971 34.2432C31.3123 34.6575 31.3284 34.6681 30.9277 34.9867C30.5644 35.2735 30.1797 35.5284 29.795 35.7833C29.4531 36.017 29.4478 36.0064 29.7149 36.4153ZM35.9177 22.2199C36.0085 22.1721 36.0993 22.0871 36.1955 22.0871C36.8206 22.0818 37.4403 22.0924 38.0654 22.103C38.1722 22.103 38.2844 22.1561 38.3913 22.188C38.3592 22.6182 38.2203 22.8996 37.67 22.7616L38.3539 23.6962C38.6691 23.0855 38.8988 22.4695 39.0057 21.8109C39.0431 21.6038 38.8881 21.5401 38.7012 21.5401C38.1509 21.5454 37.5952 21.5454 37.0449 21.5454C36.6603 21.5454 36.281 21.5401 35.8963 21.5189C35.4635 21.4976 35.1911 21.2693 35.1323 20.8444C35.0949 20.5629 35.0949 20.2815 35.1323 20C35.1964 19.5645 35.4796 19.3309 35.923 19.3256C36.8206 19.3149 37.7235 19.3149 38.621 19.3096C38.9843 19.3096 39.0698 19.214 38.9683 18.8795C38.792 18.3006 38.5943 17.727 38.3859 17.0898L37.6914 18.0404C38.1348 17.9873 38.3806 18.1625 38.3699 18.6776C37.6487 18.8051 36.89 18.752 36.1367 18.7573C36.0619 18.7573 35.9871 18.6617 35.923 18.6139C36.9488 17.4881 37.9372 16.3887 38.2684 14.8115C38.3966 15.0239 38.5035 15.1885 38.605 15.3585C39.3102 16.5428 39.775 17.812 39.946 19.1875C40.0421 19.9788 40.0528 19.9947 39.2621 19.9947C38.2737 19.9947 37.2854 19.9894 36.297 19.9841C36.0138 19.9841 35.8803 20.1168 35.8749 20.4089C35.8696 20.7116 36.0085 20.855 36.3023 20.855C37.4243 20.855 38.5462 20.8603 39.6682 20.8444C39.9139 20.8391 39.9887 20.9347 39.9673 21.1524C39.8872 22.188 39.7162 23.2077 39.2782 24.1583C39.0164 24.7212 38.7012 25.2523 38.4073 25.7993C38.3646 25.8736 38.3165 25.9427 38.2631 26.0064C37.9425 24.4663 36.9648 23.367 35.9177 22.2199ZM14.4458 38.3059C15.9738 37.9607 17.069 36.9782 18.223 35.9533C18.2711 36.0489 18.3619 36.1498 18.3619 36.256C18.3672 36.8667 18.3512 37.4774 18.3352 38.0882C18.3298 38.1944 18.2818 38.3059 18.255 38.4068C17.7475 38.3378 17.7475 38.3378 17.6139 37.7323L16.7003 38.3962C17.2239 38.5821 17.6994 38.752 18.1802 38.9219C18.2978 38.9591 18.4207 38.991 18.5435 39.0122C18.8053 39.0653 18.9068 38.9857 18.9122 38.7148C18.9175 37.9182 18.9122 37.1216 18.9175 36.325C18.9175 36.1816 18.9175 36.0436 18.9282 35.9002C18.9549 35.539 19.1526 35.2629 19.5159 35.2045C19.8418 35.1514 20.1677 35.146 20.4936 35.1885C20.905 35.2416 21.1294 35.5231 21.14 35.948C21.1561 36.8402 21.1561 37.7324 21.1614 38.6299C21.1614 39.0282 21.2416 39.1025 21.6209 38.991C22.0964 38.8476 22.5665 38.6883 23.0367 38.5236C23.1382 38.4812 23.2343 38.4334 23.3252 38.3749L22.4543 37.743C22.4383 37.8014 22.4009 37.8598 22.4116 37.9129C22.465 38.2103 22.294 38.3006 22.0429 38.3856C21.7918 38.4705 21.7491 38.3378 21.7384 38.1678C21.717 37.8067 21.7117 37.4403 21.7064 37.0791C21.701 36.8136 21.6903 36.5481 21.7064 36.2825C21.7117 36.171 21.7865 36.0648 21.8292 35.948C22.9832 36.9835 24.0892 37.9713 25.6812 38.3006C25.4836 38.4227 25.334 38.5236 25.1737 38.6033C24.3616 39.0175 23.5816 39.5167 22.668 39.692C22.059 39.8088 21.4446 39.9203 20.8302 39.9947C20.4936 40.0372 20.4669 39.9841 20.4669 39.6442C20.4669 38.5449 20.4669 37.4509 20.4722 36.3516C20.4722 36.0542 20.3333 35.9108 20.0341 35.9161C19.7349 35.9214 19.6014 36.0595 19.6014 36.3569C19.6014 37.4615 19.596 38.5714 19.6121 39.6761C19.6174 39.9522 19.4892 40.0372 19.2648 40C18.4527 39.8566 17.63 39.7451 16.8393 39.522C15.9684 39.2671 15.2151 38.7573 14.4458 38.3059ZM25.5584 1.71536C23.9609 2.04462 22.855 3.0324 21.7064 4.05736C21.6636 3.96177 21.5781 3.86618 21.5728 3.76528C21.5674 3.15455 21.5675 2.54382 21.5942 1.93309C21.5995 1.81626 21.6957 1.62507 21.7705 1.61445C22.0216 1.57197 22.262 1.78439 22.2673 1.99151C22.2727 2.07648 22.278 2.16145 22.2887 2.29953C22.4597 2.17207 22.5879 2.06055 22.7268 1.96496C22.8657 1.86936 23.0206 1.76846 23.245 1.61976L21.7438 1.0887L21.6155 1.05683C21.0332 0.924065 21.0172 0.939997 21.0172 1.54541C21.0118 2.3845 21.0172 3.22359 21.0011 4.06798C20.9958 4.49284 20.7767 4.76899 20.36 4.82741C20.0448 4.8699 19.7243 4.8699 19.409 4.8221C19.0137 4.75837 18.8053 4.49284 18.7946 4.09454C18.7786 3.19172 18.7786 2.28891 18.7733 1.38609C18.7679 0.993104 18.6931 0.918754 18.3085 1.03559C17.7422 1.20553 17.1812 1.39672 16.5454 1.59852L17.5178 2.29953C17.4376 1.82157 17.6567 1.61976 18.1482 1.60383C18.2818 2.34733 18.2176 3.11206 18.2176 3.87149C18.2176 3.92991 18.1108 3.99363 18.0734 4.03612C16.9354 3.02709 15.8348 2.04462 14.2267 1.71536C14.6915 1.46044 15.1029 1.25864 15.4983 1.02497C16.5401 0.40893 17.7048 0.196503 18.8801 0.0318717C19.4358 -0.0477884 19.4678 -0.00530295 19.4678 0.547007C19.4678 1.58259 19.4678 2.61817 19.4625 3.65375C19.4625 3.96177 19.6067 4.11047 19.9166 4.09985C20.2158 4.08923 20.3387 3.95115 20.3387 3.64844C20.3333 2.54913 20.344 1.45513 20.3226 0.355823C20.3173 0.0690464 20.4455 -0.0159243 20.6859 0.0212504C21.2736 0.106221 21.8666 0.191192 22.449 0.308027C23.5335 0.525764 24.4525 1.11525 25.4034 1.63038C25.4355 1.64632 25.4729 1.66756 25.5584 1.71536ZM23.0367 20.0744C23.0206 19.8779 22.9993 19.6814 22.9565 19.4849C22.9191 19.3202 22.9726 19.23 23.0954 19.1556C23.3145 19.0175 23.5442 18.9485 23.8007 19.0282C24.1212 19.1291 24.3777 19.0813 24.6288 18.8157C24.9707 18.4493 25.3874 18.1997 25.9484 18.2634C26.5093 18.3271 26.7605 18.7254 27.0383 19.1131C27.0703 19.1609 27.0116 19.3149 26.9474 19.3787C26.5681 19.7557 26.1674 20.1062 25.7988 20.4886C25.5904 20.701 25.4301 20.9559 25.2485 21.1949C25.1149 21.3702 25.0027 21.5667 24.8638 21.7313C24.4685 22.1986 24.0624 22.6553 23.6671 23.1227C23.3519 23.4944 22.9886 23.8131 22.5238 23.9671C21.5568 24.2804 20.5737 24.5459 19.5426 24.4185C18.9709 24.3388 18.4046 24.2273 17.8437 24.0786C17.2934 23.9405 16.8019 23.6325 16.4439 23.2023C15.9631 22.6341 15.4769 22.0712 15.0067 21.4923C14.8304 21.2746 14.7343 20.9878 14.5473 20.786C14.1573 20.3664 13.7299 19.9788 13.3131 19.5752C13.2704 19.5327 13.217 19.5008 13.1689 19.4583C12.9231 19.2353 12.9178 19.1981 13.1262 18.9379C13.3666 18.6405 13.5963 18.3537 14.0237 18.2793C14.6381 18.1731 15.0815 18.4599 15.4609 18.8635C15.6799 19.0972 15.9043 19.1025 16.1768 19.06C16.3317 19.0335 16.4973 19.0016 16.6469 19.0335C17.0583 19.1237 17.1171 19.2512 17.0743 19.6548C17.0423 19.9628 17.0262 20.2709 17.0316 20.5789C17.0423 21.2321 17.4857 21.556 18.0253 21.7525C18.3245 21.8641 18.6611 21.9012 18.987 21.9384C19.3449 21.9756 19.6495 21.8322 19.8792 21.5507C19.954 21.4604 20.0288 21.3808 20.1303 21.5135C20.4936 21.9915 21.0065 22.0181 21.5087 21.8959C21.888 21.8003 22.246 21.6463 22.5719 21.4339C23.042 21.1524 23.026 20.6585 23.0367 20.0744Z" fill="black"/>
<path d="M21.2788 19.9841C21.0705 19.7452 20.8728 19.7027 20.6164 19.8514C20.5095 19.9151 20.4133 19.9948 20.3279 20.0797C20.0554 20.3293 20.0233 20.3293 19.7455 20.0744C19.6654 19.9948 19.5746 19.9204 19.4784 19.862C19.2273 19.7133 19.0296 19.7452 18.8319 19.9363C19.0082 20.0372 19.238 20.1063 19.3609 20.2603C19.4837 20.4143 19.5318 20.6427 19.5478 20.8445C19.5799 21.1472 19.3128 21.4711 19.0136 21.5295C18.5167 21.6251 18.0786 21.503 17.742 21.1047C17.4215 20.7276 17.3841 20.3028 17.5711 19.862C17.6993 19.5593 17.8222 19.246 18.0145 18.9857C18.4686 18.3644 18.4793 17.6899 18.3618 16.9836C18.2763 16.4632 18.0466 16.0489 17.5978 15.7675C17.304 15.571 16.9994 15.3957 16.6842 15.2364C16.4705 15.1355 16.4812 15.0293 16.5774 14.8753C16.8765 14.392 17.2986 14.084 17.8756 14.0787C18.4473 14.0787 18.7945 13.76 19.0937 13.3405C19.1685 13.2396 19.2326 13.1334 19.3128 13.0378C19.7081 12.5386 20.3813 12.5439 20.7766 13.0431C20.969 13.2874 21.1613 13.5317 21.3643 13.76C21.5353 13.9565 21.765 14.0309 22.0268 14.0574C22.2833 14.084 22.5344 14.1318 22.7855 14.2061C23.1274 14.3017 23.5334 14.7956 23.5655 15.0877C23.1648 15.3426 22.7694 15.5763 22.3901 15.8312C22.0375 16.0649 21.8024 16.4419 21.749 16.8615C21.7063 17.1323 21.6742 17.4031 21.6582 17.6793C21.6315 18.0457 21.7223 18.4069 21.92 18.7149C22.123 19.0548 22.3046 19.4159 22.4756 19.7717C22.6839 20.1966 22.6946 20.6267 22.4008 21.025C22.0963 21.4446 21.6742 21.6039 21.1667 21.5455C20.814 21.503 20.5416 21.2109 20.5255 20.8604C20.5149 20.3293 20.7499 20.0532 21.2788 19.9841Z" fill="black"/>
<path d="M14.4994 13.8607C14.1308 13.234 13.9385 12.6233 14.2216 11.9117C14.6009 10.961 15.3168 10.5096 16.3052 10.4353C16.583 10.414 16.6204 10.2547 16.6792 10.0529C16.8715 9.38908 17.2669 8.9005 17.9614 8.72525C18.1591 8.68276 18.3675 8.68276 18.5598 8.73587C18.8056 8.79429 19.0353 8.79429 19.2116 8.63497C19.4574 8.41192 19.6604 8.15169 19.8848 7.9074C19.9275 7.85961 20.0023 7.80119 20.045 7.81181C20.1038 7.82774 20.1572 7.89678 20.1946 7.96051C20.4457 8.34819 20.7342 8.68276 21.2258 8.76773C21.2792 8.77835 21.3326 8.77835 21.386 8.76773C22.3317 8.58186 23.117 9.04389 23.3735 9.95201C23.3842 9.98388 23.3948 10.0211 23.4002 10.0529C23.4269 10.3291 23.5658 10.43 23.8543 10.4459C25.1098 10.5203 26.0555 11.5346 25.9807 12.772C25.9593 13.1437 25.7563 13.4995 25.612 13.9244C23.9451 12.5542 22.1554 11.8001 20.029 11.8214C17.9347 11.832 16.1396 12.5596 14.4994 13.8607ZM26.3867 25.8097C27.7491 24.1634 28.513 22.3896 28.4917 20.2813C28.4703 18.1942 27.7437 16.4098 26.4294 14.7688C26.7874 14.5776 27.14 14.3705 27.5514 14.3546C28.465 14.328 29.4213 14.8644 29.7258 15.8362C29.806 16.0593 29.854 16.293 29.8701 16.5319C29.8808 16.7709 29.9983 16.8506 30.2013 16.9302C30.5112 17.0524 30.8317 17.1852 31.0828 17.3923C31.553 17.7799 31.756 18.2791 31.5744 18.9058C31.5316 19.0545 31.569 19.2882 31.6652 19.405C31.8842 19.6705 32.162 19.8883 32.4185 20.1273C32.4666 20.1697 32.5307 20.2441 32.52 20.2866C32.504 20.345 32.4345 20.4034 32.3757 20.4406C31.9804 20.6849 31.6438 20.9717 31.5637 21.4602C31.5476 21.5187 31.553 21.5824 31.569 21.6408C31.927 22.5171 31.0722 23.404 30.3509 23.6058C29.9075 23.7279 29.9342 23.7279 29.8701 24.174C29.6938 25.4804 28.6894 26.2664 27.4552 26.1867C27.1133 26.1549 26.7767 25.9478 26.3867 25.8097ZM14.5368 26.5638C17.3043 28.943 22.0325 29.6705 25.6281 26.585C25.9646 27.1427 26.1783 27.7056 25.9646 28.3641C25.6334 29.3891 24.9015 29.9201 23.8436 30.0051C23.5765 30.0264 23.5124 30.1591 23.4536 30.3716C23.272 31.0513 22.8659 31.5399 22.1607 31.7205C21.9737 31.7683 21.776 31.7683 21.5837 31.7152C21.3059 31.6355 21.0601 31.662 20.8625 31.8373C20.6434 32.0338 20.4564 32.2675 20.2481 32.4852C20.2 32.5383 20.1359 32.6339 20.0931 32.6233C20.029 32.6073 19.9596 32.5383 19.9168 32.4746C19.6657 32.0869 19.3772 31.7523 18.8857 31.6727C18.8162 31.6621 18.7468 31.6674 18.6773 31.6886C18.1538 31.8798 17.7103 31.678 17.3257 31.3593C17.0051 31.0991 16.7754 30.7592 16.7059 30.3344C16.6685 30.1007 16.5403 30.0157 16.2892 29.9945C15.0016 29.8989 14.1522 28.9961 14.1201 27.7481C14.1201 27.3232 14.3605 26.9727 14.5368 26.5638ZM13.5271 25.7725C12.9768 26.1018 12.4212 26.3301 11.7854 26.1283C10.8077 25.8203 10.2307 25.2839 10.0918 24.0306C10.0597 23.7598 9.94754 23.6801 9.7178 23.6164C9.04464 23.4358 8.55846 23.0481 8.37147 22.3577C8.31805 22.1719 8.3127 21.9754 8.36079 21.7895C8.45695 21.4815 8.41421 21.2213 8.21119 20.9982C8.01886 20.7858 7.77844 20.6212 7.56474 20.4247C7.51666 20.3822 7.45789 20.3184 7.46323 20.2653C7.46857 20.2122 7.52734 20.1591 7.57542 20.1113C7.82653 19.867 8.099 19.6493 8.31805 19.3785C8.40887 19.2616 8.43558 19.028 8.3875 18.8793C8.23791 18.4066 8.36079 17.9977 8.6386 17.6312C8.91642 17.2648 9.26903 17.0046 9.73383 16.9196C9.97425 16.8771 10.0811 16.7709 10.1025 16.5001C10.1986 15.2149 11.1069 14.3758 12.3624 14.3439C12.8005 14.3333 13.1531 14.5723 13.5698 14.7529C12.2288 16.3726 11.4648 18.1464 11.4809 20.2547C11.4915 22.3524 12.2128 24.1315 13.5271 25.7725Z" fill="black"/>
<path d="M26.4458 21.901C26.0398 22.5011 25.8314 23.2127 25.8474 23.9403C25.8634 24.9759 25.3078 25.714 24.4904 26.2876C24.2393 26.4629 23.9775 26.6381 23.6944 26.7602C23.502 26.8399 23.2616 26.8452 23.0479 26.8399C22.8609 26.8399 22.6793 26.7709 22.4976 26.7549C21.7283 26.6753 21.2154 26.1814 20.7292 25.6662C20.6544 25.576 20.5956 25.4751 20.5582 25.3689C20.4674 25.1458 20.5422 25.0449 20.7773 25.0661C21.5894 25.1246 22.2999 24.8803 22.9304 24.3758C23.6302 23.8128 24.3194 23.2499 24.8858 22.5436C25.2544 22.0709 25.7993 21.885 26.4458 21.901ZM13.6289 21.901C14.3074 21.8904 14.8577 22.1081 15.2637 22.6126C15.9262 23.4358 16.733 24.0996 17.6145 24.6785C18.1167 25.0077 18.6937 25.1139 19.3027 25.0555C19.5271 25.0343 19.6019 25.1246 19.5325 25.337C19.5111 25.4113 19.479 25.4857 19.431 25.5494C19.0036 26.0539 18.5548 26.5319 17.8709 26.6912C17.6198 26.7496 17.3634 26.7815 17.1123 26.8346C16.8131 26.8983 16.5032 26.8505 16.2307 26.7071C15.3385 26.2504 14.6547 25.5919 14.3021 24.6413C14.2219 24.4182 14.2219 24.1527 14.2273 23.9084C14.2433 23.1915 14.0456 22.5383 13.6289 21.901ZM17.1764 18.1994C16.8398 18.2791 16.4925 18.3216 16.1773 18.449C15.9209 18.5499 15.7018 18.5234 15.5416 18.3588C15.3172 18.141 15.1248 17.8861 14.9752 17.6046C14.7241 17.1054 14.473 16.6328 13.9014 16.4257C13.8533 16.4097 13.8212 16.2292 13.8533 16.1495C14.1151 15.406 15.2317 15.013 15.9369 15.4857C16.188 15.6503 16.3964 15.8681 16.6368 16.0539C16.7169 16.123 16.8184 16.1655 16.9253 16.1761C17.4061 16.2026 17.9617 16.4522 18.0098 17.1001C18.0259 17.3072 18.0739 17.5356 18.0098 17.7215C17.8602 18.1463 17.6572 18.2525 17.1764 18.1994ZM22.0168 17.4241C22.0595 16.6487 22.3213 16.2664 22.9678 16.2026C23.2509 16.1761 23.4272 16.0646 23.6089 15.8734C23.7691 15.7194 23.9455 15.5813 24.1324 15.4698C24.8377 15.0183 25.9329 15.4007 26.2107 16.1283C26.2695 16.2823 26.2962 16.3779 26.0771 16.4629C25.5643 16.6647 25.2918 17.1001 25.0941 17.5887C24.9392 17.9711 24.7041 18.2844 24.3194 18.4544C24.2126 18.5022 24.0683 18.4756 23.9455 18.4544C23.5608 18.3906 23.1868 18.2791 22.8021 18.2525C22.348 18.2313 21.9954 17.8967 22.0168 17.4241Z" fill="black"/>
</g>
<defs>
<clipPath id="clip0_283_97">
<rect width="40" height="40" fill="white"/>
</clipPath>
</defs>
</svg>
