<svg width="40" height="40" viewBox="0 0 40 40" fill="none" xmlns="http://www.w3.org/2000/svg">
<g clip-path="url(#clip0_283_104)">
<rect width="40" height="40" fill="white"/>
<path d="M25.6216 31.9973C25.312 31.7848 25.0297 31.5688 24.7201 31.3833C24.1691 31.0526 23.5681 30.7827 22.8715 30.6444C22.6028 30.5938 22.4617 30.6208 22.3524 30.8063C22.102 31.2179 22.0155 31.6262 22.4571 32.004C22.4844 32.031 22.5118 32.058 22.5345 32.0884C22.5391 32.0951 22.5391 32.1019 22.5391 32.1086C22.3615 32.2503 22.1839 32.3785 22.0246 32.5202C21.7468 32.7699 21.5738 33.0736 21.5283 33.3974C21.5055 33.5661 21.4099 33.6235 21.1959 33.5999C21.082 33.5897 20.9728 33.5796 20.8407 33.5695C20.8316 33.6134 20.8225 33.6538 20.8225 33.6977C20.8225 34.4737 20.8134 35.2497 20.8225 36.0256C20.8271 36.3968 20.9409 36.7476 21.2095 37.0682C21.4326 37.3313 21.3325 37.8138 20.9955 38.0128C20.6313 38.2287 20.4355 38.5121 20.3262 38.8327C20.226 39.1262 20.1714 39.4265 20.0986 39.7267C20.0758 39.8144 20.0576 39.9022 20.0394 39.9899L19.9802 39.9966C19.9574 39.8988 19.9255 39.8009 19.9073 39.7031C19.8208 39.2341 19.7571 38.7618 19.4247 38.3435C19.3336 38.2287 19.2198 38.1242 19.0832 38.0331C18.6597 37.7699 18.5596 37.3178 18.8464 36.9703C19.065 36.6903 19.1788 36.3731 19.1788 36.0493C19.1925 35.2395 19.1834 34.4298 19.1834 33.6201C19.1788 33.5931 19.1742 33.5661 19.1651 33.5391C19.0058 33.5459 18.8555 33.5493 18.7098 33.5628C18.5641 33.5762 18.5095 33.5256 18.4913 33.4211C18.4321 33.0398 18.2181 32.6788 17.8766 32.3853C17.7491 32.274 17.6307 32.1559 17.5123 32.0412L17.4486 32.0749C17.4759 32.0378 17.5123 32.0007 17.5442 31.9636C17.9813 31.5891 17.8902 31.1842 17.6489 30.7794C17.5351 30.5837 17.3894 30.5499 17.1162 30.6107C16.0826 30.8401 15.2357 31.2753 14.5345 31.8725C14.4935 31.9062 14.4708 31.9467 14.4116 31.9771C14.2568 31.4305 14.2886 30.8266 13.3416 30.6073C13.4099 30.415 13.4827 30.2058 13.5556 29.9966C13.6239 29.8009 13.592 29.747 13.3188 29.7233C12.8589 29.6862 12.4127 29.5816 12.0075 29.413C11.3473 29.1329 10.8783 28.4514 11.2016 27.8441C11.2835 27.6923 11.2425 27.5742 11.1014 27.4595C10.8191 27.2267 10.5368 26.9906 10.0496 27.058C9.96765 27.0648 9.88569 27.085 9.81739 27.1154C9.17539 27.4595 8.72007 27.888 8.71096 28.5088C8.71096 28.6876 8.71096 28.8698 8.72462 29.0486C8.73373 29.3252 8.86122 29.5951 9.08888 29.8144C9.16628 29.8887 9.20726 29.9865 9.27556 30.0877C8.64722 29.9426 7.559 29.1093 7.30402 28.1815C7.08091 27.365 7.09912 26.552 7.67738 25.7625C7.31312 25.7591 6.95342 25.8198 6.62559 25.9413C6.32052 26.056 6.03822 26.2045 5.69218 26.3664C5.56014 26.0628 5.37345 25.7591 5.30971 25.442C5.24141 25.1012 5.29605 24.7503 5.28239 24.4028C5.27328 24.2848 5.2323 24.17 5.16856 24.0621C4.99098 23.7416 4.79975 23.4244 4.61307 23.1073C4.37175 22.7058 3.93008 22.4224 3.49753 22.1424C2.92382 21.7746 2.3228 21.4339 1.72177 21.0931C1.56697 21.0054 1.37573 20.9514 1.19815 20.8806L1.21181 20.8232L2.55046 20.9177C2.55957 20.9177 2.56412 20.9211 2.57323 20.9244C3.15604 21.0965 3.83902 21.0425 4.35353 21.3833C4.82707 21.6903 5.34158 21.9602 5.82422 22.2605C6.03367 22.392 6.23401 22.4359 6.48899 22.3583C6.73487 22.2841 6.82138 22.1525 6.68933 21.9838C6.53908 21.8084 6.37516 21.6397 6.19759 21.4777C6.12018 21.4035 6.08376 21.3462 6.16116 21.2551C6.2158 21.1943 6.23856 21.1201 6.23401 21.0459C6.16116 20.4926 6.12473 19.9359 5.98814 19.3927C5.81056 18.6808 5.54192 17.9825 5.33247 17.2773C5.26418 17.0412 5.2232 16.8016 5.20954 16.5621C5.17311 15.9514 5.21409 15.3374 5.34158 14.7301C5.44631 14.2476 5.66486 13.7821 5.98814 13.357C6.03367 13.2996 6.07465 13.2389 6.11563 13.1781C6.40248 12.6991 6.87146 12.3279 7.41329 12.004C7.47704 11.9737 7.54078 11.9501 7.60453 11.9265C7.57721 11.9939 7.54534 12.0614 7.50891 12.1255C7.40874 12.2672 7.29491 12.4055 7.19929 12.5472C6.5755 13.4683 6.4981 14.4568 6.5755 15.4555C6.60737 15.8806 6.69389 16.3023 6.95797 16.697C7.24027 17.1086 7.42695 17.5607 7.7821 17.9318C8.35581 18.5324 9.12986 18.9879 10.0405 19.305C10.1771 19.3522 10.3228 19.3792 10.423 19.2611C10.5869 19.0655 10.7599 18.8731 10.8828 18.6606C10.9329 18.5729 10.9102 18.4379 10.851 18.3468C10.6461 18.0162 10.4184 17.6923 10.1953 17.365C9.58973 16.4845 8.98415 15.6039 8.37858 14.7267C8.36036 14.6896 8.34215 14.6525 8.32849 14.612L8.37858 14.5816C8.54704 14.6795 8.72917 14.7672 8.88398 14.8718C9.58518 15.3509 10.2727 15.8468 10.9876 16.3124C11.2881 16.5047 11.6569 16.6363 11.9847 16.805C12.6859 17.1592 13.4873 17.3212 14.2978 17.4764C14.3524 17.4865 14.3979 17.5169 14.5072 17.5607C14.3478 17.608 14.2431 17.6484 14.1338 17.6721C13.3006 17.8711 13.205 18.2321 13.5875 18.8124C13.888 19.2645 14.3296 19.6694 14.744 20.0776C14.8715 20.1991 15.1173 20.253 15.3177 20.3441C14.9762 20.4251 14.6119 20.5162 14.2477 20.5938C13.7514 20.6984 13.2505 20.7861 12.7588 20.8907C12.1851 21.0155 11.7206 21.2719 11.279 21.5621C10.8783 21.8219 10.5869 22.166 10.4412 22.5472C11.0923 22.7868 11.7343 22.9521 12.4491 22.6721C12.8954 22.5 13.3234 22.3111 13.6876 22.0547C13.8652 21.9265 14.0109 21.7746 14.1748 21.6329C14.2295 21.5857 14.2841 21.5418 14.3342 21.498L14.3979 21.5081C14.3797 21.6599 14.3752 21.8117 14.3387 21.9602C14.1748 22.5911 13.8106 23.1613 13.1321 23.5628C12.654 23.8462 12.0803 24.0418 11.534 24.2611C11.3837 24.3219 11.2926 24.3893 11.2608 24.5074C11.2562 24.5175 11.2562 24.531 11.2517 24.5412C11.156 24.9325 11.2334 25.1248 11.5431 25.2564C11.9529 25.4285 12.5448 25.3981 12.868 25.1856C13.2869 24.9089 13.5192 24.558 13.6284 24.1532C13.8698 23.2692 14.5482 22.5641 15.3086 21.8927C15.3495 21.8556 15.4224 21.832 15.4998 21.7915C15.5271 22.1188 15.5226 22.4157 15.5909 22.7058C15.6728 23.0634 15.7958 23.4177 15.9597 23.7584C16.028 23.9035 16.2238 24.0283 16.3968 24.1296C16.547 24.2173 16.7747 24.224 16.8976 24.1127C16.9796 24.0385 17.0115 23.8799 16.9659 23.7888C16.8749 23.6167 16.711 23.4615 16.5789 23.2996C16.5197 23.2254 16.4241 23.1579 16.4013 23.0769C16.3285 22.8171 16.3421 22.5843 16.6199 22.365C17.2801 21.8421 17.4167 21.029 16.9796 20.4015C16.9159 20.3104 16.7975 20.2362 16.6791 20.1788C16.5425 20.1113 16.5243 20.0337 16.5835 19.9359C16.975 19.2746 17.139 18.5695 17.2118 17.8576C17.3666 16.3225 17.5305 14.7841 17.5988 13.2456C17.6535 11.9433 17.5943 10.641 17.5533 9.33873C17.5442 8.9946 17.4304 8.65047 17.3484 8.30634C17.2847 8.04656 16.9933 7.85425 16.629 7.81377C16.2647 7.77328 16.2374 7.74966 16.3239 7.48988C16.5106 6.94669 16.6882 6.40013 16.9159 5.86707C17.2938 4.98988 17.699 4.11943 18.127 3.25574C18.4321 2.63833 18.7963 2.03779 19.1333 1.4305C19.3974 0.951417 19.6614 0.475709 19.9255 0H20.0303C20.267 0.398111 20.5083 0.796221 20.7314 1.19771C21.1048 1.86572 21.4691 2.54049 21.8333 3.21188C21.979 3.48178 22.1247 3.75506 22.2522 4.03171C22.5755 4.74022 22.8988 5.44534 23.1947 6.16059C23.386 6.62618 23.5317 7.10526 23.6865 7.5776C23.7502 7.77328 23.7184 7.7969 23.4497 7.83738C22.9124 7.91161 22.7258 8.0803 22.621 8.46154C22.3251 9.53441 22.3342 10.6174 22.3615 11.7004C22.3934 12.9757 22.4344 14.251 22.5345 15.5263C22.6165 16.5621 22.7531 17.6012 22.9261 18.6302C23.0035 19.0823 23.2448 19.5142 23.3996 19.9595C23.4224 20.027 23.4133 20.1552 23.3587 20.1788C22.8806 20.3947 22.8305 20.7557 22.7849 21.1066C22.7121 21.6363 22.9671 22.0884 23.4543 22.473C23.7275 22.6856 23.6774 23.1275 23.4178 23.3468C23.2312 23.5054 23.0946 23.6943 23.0126 23.8968C22.9215 24.1397 23.1856 24.2915 23.5044 24.1937C23.6819 24.1329 23.8322 24.0418 23.946 23.9238C24.2739 23.5762 24.3421 23.1613 24.4104 22.7564C24.4605 22.4629 24.4651 22.166 24.497 21.8387C24.5744 21.8758 24.6518 21.8961 24.6973 21.9366C25.4622 22.6113 26.1452 23.3232 26.382 24.2173C26.4913 24.6323 26.7508 24.9899 27.1925 25.2632C27.5385 25.4791 28.3171 25.442 28.6313 25.2024C28.9318 24.9696 28.7906 24.4163 28.39 24.2848C27.6068 24.0283 26.8783 23.7179 26.3501 23.1916C25.8902 22.7328 25.6808 22.2166 25.6034 21.6599C25.6034 21.6161 25.6125 21.5688 25.6216 21.525C25.6899 21.5655 25.7445 21.5891 25.7719 21.6228C26.1816 22.112 26.8054 22.4089 27.4702 22.6856C28.2033 22.9892 28.868 22.8408 29.5465 22.5911C29.4418 22.2571 29.205 21.9534 28.8726 21.7173C28.4719 21.4339 28.0576 21.1538 27.5248 21.0155C27.1105 20.9076 26.6871 20.8232 26.2682 20.7321C25.7309 20.6174 25.1936 20.5061 24.6563 20.3779C25.3029 20.2665 25.5396 19.8482 25.8857 19.5209C26.0951 19.3286 26.2682 19.1127 26.3956 18.8866C26.5095 18.6741 26.5732 18.448 26.5823 18.2186C26.5914 18.0229 26.4002 17.8846 26.1452 17.807C25.9358 17.7497 25.7309 17.6721 25.5442 17.581C25.6216 17.5574 25.6945 17.527 25.7719 17.5101C26.2499 17.3988 26.7417 17.3178 27.197 17.1727C27.9984 16.913 28.7406 16.5789 29.3826 16.1336C29.979 15.7186 30.5664 15.2935 31.1674 14.8819C31.304 14.7874 31.4725 14.7166 31.6273 14.6323L31.6728 14.6626C31.6592 14.7031 31.641 14.7402 31.6182 14.7773C31.1264 15.4892 30.6347 16.1977 30.1475 16.9062C29.8151 17.392 29.4964 17.8846 29.1503 18.3637C29.0365 18.5256 29.0547 18.664 29.1595 18.809C29.2642 18.9541 29.3917 19.0992 29.5055 19.2443C29.6193 19.3893 29.7741 19.413 29.9836 19.3421C30.6301 19.1127 31.1629 18.7821 31.6956 18.4312C32.3148 18.0196 32.5835 17.4663 32.9341 16.9366C33.5624 15.9818 33.4713 14.973 33.3712 13.9609C33.3256 13.4717 33.0069 13.0499 32.7975 12.6012C32.7246 12.446 32.5835 12.3077 32.4787 12.1626C32.4514 12.1154 32.4241 12.0648 32.4059 12.0175L32.4605 11.9838C32.6062 12.0682 32.761 12.139 32.8885 12.2335C33.8083 12.9082 34.3638 13.7348 34.6233 14.666C34.8191 15.3846 34.8646 16.1201 34.7645 16.8489C34.6916 17.3752 34.4639 17.888 34.3046 18.4076C34.0724 19.1532 33.8037 19.892 33.7992 20.6646C33.7992 20.9042 33.6626 21.1572 33.8902 21.3866C33.9085 21.4035 33.8584 21.4676 33.8265 21.5013C33.6853 21.6397 33.5305 21.7746 33.3985 21.9163C33.2209 22.1086 33.2164 22.2402 33.3666 22.3414C33.5761 22.473 33.8811 22.4764 34.0997 22.3549C34.6597 22.0209 35.2198 21.6835 35.7889 21.3563C35.9255 21.2787 36.0803 21.2213 36.2488 21.191C36.8589 21.0864 37.4736 20.9885 38.0929 20.9076C38.3205 20.8772 38.5573 20.9042 38.7986 20.9042C38.7895 20.9211 38.7895 20.9413 38.7758 20.948C37.6466 21.3765 36.736 22.0108 35.8572 22.6687C35.4565 22.969 35.2471 23.3536 35.0149 23.7314C34.7554 24.1532 34.7235 24.5783 34.7554 25.027C34.7872 25.4757 34.5186 26.1437 34.2408 26.4204C33.7263 26.0459 33.1071 25.8468 32.3649 25.8063C33.0479 27.0715 33.0388 28.276 31.9415 29.3995C31.6 29.7436 31.0172 30.1012 30.7258 30.1484C30.7986 30.0405 30.8396 29.9426 30.917 29.8617C31.0991 29.6694 31.2357 29.4669 31.2585 29.2274C31.2995 28.7348 31.3951 28.2254 30.9853 27.7868C30.7622 27.554 30.4935 27.3482 30.1885 27.1761C29.9517 27.0412 29.6375 27.0614 29.3735 27.1862C29.2551 27.247 29.1412 27.3144 29.0411 27.3887C28.8043 27.5506 28.6996 27.7193 28.8225 27.9825C29.0866 28.556 28.6586 29.2274 27.8572 29.5108C27.5294 29.6289 27.1606 29.6964 26.8009 29.7503C26.3956 29.8111 26.3592 29.8279 26.4639 30.1147C26.5322 30.2969 26.5914 30.4825 26.6597 30.6646C26.0633 30.7524 25.8538 31.0729 25.7354 31.4406C25.6808 31.6161 25.658 31.8084 25.6216 31.9973ZM19.8937 19.332C19.8846 19.3792 19.8754 19.3995 19.8754 19.4197C19.8254 20.5027 19.7707 21.5857 19.7206 22.6687C19.6706 23.6977 19.6296 24.7233 19.3791 25.7389C19.2471 26.2686 19.0968 26.7848 18.6097 27.2099C18.5186 27.2908 18.5414 27.3684 18.6051 27.4561C18.8783 27.8273 19.1469 28.1984 19.4065 28.5729C19.625 28.8866 19.8254 29.2072 20.0211 29.504C20.094 29.3792 20.1714 29.2274 20.2716 29.0823C20.6358 28.5594 21.0046 28.0364 21.3826 27.5169C21.4736 27.392 21.46 27.3077 21.3507 27.1964C21.205 27.0547 21.082 26.8995 20.9819 26.7375C20.5949 26.0796 20.4856 25.3677 20.4309 24.666C20.2943 22.9487 20.226 21.2314 20.1259 19.5142C20.1259 19.4703 20.1168 19.4265 20.1122 19.386L19.8937 19.332ZM17.4213 27.4393C17.1435 27.6923 16.8202 27.78 16.4423 27.7767C16.0325 27.7699 15.6227 27.7699 15.213 27.7699C14.9079 27.7699 14.8532 27.8003 14.7622 28.0196C14.744 28.0668 14.7258 28.1174 14.7121 28.168C14.6028 28.5324 14.6757 28.6066 15.1811 28.583C15.5271 28.5661 15.8777 28.5459 16.2192 28.5054C16.6518 28.4548 17.0342 28.529 17.353 28.7483C17.7536 29.025 18.1407 29.305 18.5322 29.585C18.5687 29.612 18.6097 29.6356 18.6506 29.6626C18.4093 28.8765 17.954 28.1646 17.4213 27.4393ZM21.3097 29.6761L21.3643 29.6964C21.4509 29.6255 21.5328 29.5547 21.6239 29.4872C21.9608 29.2476 22.3023 29.0081 22.6484 28.7753C22.9671 28.5628 23.3359 28.4852 23.7639 28.5358C24.0872 28.5729 24.4104 28.5897 24.7337 28.61C24.8703 28.6134 25.0069 28.61 25.139 28.5965C25.2847 28.5864 25.3575 28.5155 25.3348 28.4109C25.3029 28.2726 25.2619 28.1377 25.2118 28.0027C25.1572 27.861 25.0342 27.7969 24.8248 27.8036C24.4104 27.8138 23.9916 27.8036 23.5727 27.8138C23.1811 27.8205 22.8487 27.7294 22.5755 27.4764C22.0519 28.2051 21.5875 28.9103 21.3097 29.6761ZM24.0007 39.973C23.6273 39.4298 22.9853 39.025 23.1355 38.357C23.2676 37.7699 23.6501 37.3212 24.3057 36.9906C24.6199 36.832 24.9659 36.7341 25.353 36.7409C25.5169 36.7443 25.5806 36.7004 25.6034 36.5823C25.658 36.2551 25.7901 35.9413 26.086 35.6883C26.2864 35.5229 26.5186 35.3745 26.769 35.253C27.6979 34.7841 28.5994 34.2881 29.3507 33.6606C29.5692 33.4784 29.7423 33.2625 29.9153 33.0499C30.0428 32.8914 29.8606 32.7767 29.7195 32.7193C29.4509 32.6147 29.4782 32.4798 29.5647 32.3178C29.6193 32.2065 29.6603 32.0918 29.7149 31.9804C29.7923 31.8151 29.9198 31.7915 30.1156 31.8792C30.5482 32.0715 30.9853 32.2605 31.4224 32.446C31.477 32.4663 31.5362 32.4764 31.5954 32.4798C32.119 32.5202 32.6427 32.4933 33.1526 32.3954C33.4987 32.3313 33.6899 32.1694 33.7354 31.9197C33.7673 31.7645 33.7582 31.6059 33.7628 31.4507C33.7673 31.336 33.6899 31.2922 33.5351 31.2989C32.9614 31.3192 32.3831 31.3327 31.8094 31.3495C31.6865 31.3529 31.5636 31.3495 31.4361 31.3495L31.4133 31.2989C31.4543 31.2686 31.5044 31.2416 31.5544 31.2179C32.2192 31.0155 32.6791 30.6275 33.1845 30.2665C33.5988 29.9663 33.5988 29.666 33.4531 29.305C33.4258 29.2139 33.4304 29.1228 33.4713 29.0351C33.6125 28.7146 33.7719 28.3974 33.9312 28.0837C33.9631 28.0229 34.0359 27.9723 34.0906 27.915C34.1634 27.9723 34.2727 28.0196 34.3091 28.087C34.5414 28.5425 34.7599 29.0047 34.9921 29.4838C35.962 29.2038 36.9591 28.9642 37.8971 28.4852C37.8652 28.6032 37.8652 28.691 37.8197 28.7618C37.2596 29.5648 36.5402 30.2733 35.6114 30.8603C35.4793 30.9447 35.4383 31.0223 35.4611 31.1505C35.5112 31.4609 35.5294 31.778 35.5795 32.0918C35.5931 32.1829 35.6432 32.2942 35.7297 32.3549C36.3399 32.8003 37.0957 33.0769 37.888 33.2996C38.5892 33.4987 39.2995 33.6707 40.0098 33.8833C39.9733 33.89 39.9324 33.8934 39.8959 33.8934C38.3706 33.9339 36.8498 33.9744 35.3245 34.0148C35.1879 34.0182 35.1059 34.0486 35.0422 34.1464C34.423 35.135 33.5442 35.9683 32.3649 36.6194C32.2465 36.6835 32.2192 36.7476 32.2693 36.8455C32.5744 37.3954 32.8658 37.9487 33.1845 38.4953C33.3803 38.836 33.6171 39.1633 33.8265 39.5007C33.8629 39.5614 33.8538 39.6356 33.8629 39.7065L33.7901 39.7267C33.3894 39.4467 33.0024 39.1599 32.588 38.8934C31.8595 38.4312 31.172 37.9184 30.234 37.6822C30.0974 37.6518 29.9517 37.635 29.8106 37.635C29.6148 37.6282 29.4144 37.6484 29.2186 37.6316C28.2898 37.5472 27.4657 37.8036 26.6779 38.1039C25.7536 38.4582 24.9432 38.9305 24.3558 39.5816C24.242 39.7031 24.1418 39.8178 24.0007 39.973ZM29.9517 34.5547L30.0109 34.5783C29.979 34.8246 30.1521 35.0236 30.3023 35.2227C30.4116 35.3644 30.6802 35.388 30.8578 35.2935C31.5408 34.946 32.1236 34.5007 32.5744 33.9845C32.6882 33.8529 32.67 33.7821 32.4833 33.7314C32.1509 33.6404 31.814 33.5594 31.4816 33.4615C31.3268 33.4143 31.2084 33.4244 31.0946 33.5121C30.7941 33.7483 30.4844 33.9777 30.193 34.224C30.0929 34.3185 30.0337 34.4433 29.9517 34.5547ZM26.6005 36.6127C27.156 36.5621 27.6523 36.5385 28.1304 36.4676C28.5311 36.4103 28.9181 36.3158 29.2824 36.191C29.6148 36.0729 29.6831 35.8063 29.5146 35.587C29.2232 35.1991 28.4765 35.1687 28.1668 35.4082C28.0576 35.4926 27.9073 35.5432 27.7889 35.6208C27.4839 35.8198 27.1742 36.0155 26.8965 36.2314C26.769 36.3293 26.7098 36.471 26.6005 36.6127ZM2.1179 28.4615C3.03765 28.9305 4.03481 29.17 5.0092 29.4534C5.2323 28.9912 5.44631 28.5493 5.66031 28.1073C5.68307 28.0466 5.7195 27.9926 5.76958 27.942C5.86065 27.8644 5.96537 27.8509 6.02912 27.969C6.22035 28.3468 6.41159 28.7281 6.59372 29.1093C6.61193 29.1464 6.58461 29.197 6.57095 29.2409C6.52997 29.4028 6.47078 29.5614 6.45257 29.72C6.44346 29.8009 6.46623 29.9123 6.53452 29.9696C6.98529 30.3543 7.41785 30.7591 8.02343 31.0256C8.21011 31.1066 8.40134 31.1741 8.59258 31.2483L8.58347 31.309C8.46509 31.3124 8.35126 31.3259 8.23287 31.3225C7.65917 31.309 7.08091 31.2922 6.5072 31.2719C6.32052 31.2652 6.24312 31.3192 6.25222 31.4541C6.26588 31.6869 6.19759 31.9332 6.41614 32.1356C6.50265 32.22 6.62559 32.3043 6.75763 32.3381C7.30857 32.4798 7.90504 32.5506 8.46053 32.4393C8.91586 32.3482 9.3302 32.1356 9.73999 31.9467C10.1816 31.7375 10.1999 31.7308 10.3683 32.0985C10.3911 32.1458 10.4093 32.193 10.4366 32.2402C10.5322 32.4258 10.596 32.581 10.2773 32.7159C10.0268 32.8205 10.0132 32.9318 10.1771 33.1073C10.423 33.3704 10.6871 33.6201 10.9739 33.8596C11.6159 34.3893 12.3945 34.8077 13.2004 35.1889C13.8834 35.5128 14.3069 35.9379 14.4207 36.5351C14.4389 36.6194 14.4298 36.7173 14.6165 36.7105C15.5681 36.67 16.6745 37.3752 16.8612 38.2422C16.9523 38.6572 16.8476 39.0351 16.497 39.3725C16.3695 39.4906 16.2784 39.6289 16.1691 39.7571C16.1236 39.8111 16.069 39.8617 16.0007 39.9359C15.946 39.8718 15.9096 39.8313 15.8732 39.7908C15.3587 39.2139 14.7485 38.7146 13.9381 38.3435C13.378 38.0938 12.7906 37.888 12.1805 37.7193C11.9665 37.6619 11.7434 37.6282 11.5203 37.6181C11.1287 37.6012 10.7326 37.6181 10.3365 37.608C9.92212 37.5978 9.51688 37.6856 9.17539 37.861C8.51517 38.1984 7.86406 38.5425 7.29946 38.9744C6.96708 39.2274 6.59372 39.4501 6.17482 39.7335C6.18393 39.6221 6.16116 39.5412 6.19759 39.4838C6.3615 39.2105 6.54818 38.9474 6.70755 38.6741C7.03082 38.1309 7.35866 37.5843 7.66372 37.0344C7.84585 36.7072 7.83219 36.7004 7.46338 36.4845C6.38882 35.857 5.5829 35.0709 5.00009 34.1565C4.93635 34.0587 4.88171 33.9946 4.70413 33.9879C3.36093 33.9541 2.02229 33.9103 0.679088 33.8698C0.460534 33.863 0.24198 33.8698 0.00976562 33.836C0.474194 33.7078 0.924962 33.5661 1.3985 33.4582C2.26361 33.2659 3.08774 32.9825 3.84357 32.6147C3.89366 32.5911 3.94374 32.5641 3.98928 32.5371C4.28068 32.3718 4.49468 32.193 4.46736 31.8792C4.4446 31.6194 4.53566 31.3529 4.54932 31.0897C4.54932 31.0054 4.50834 30.9244 4.43549 30.8603C3.94374 30.4555 3.41102 30.0776 2.95114 29.6525C2.64152 29.3657 2.42297 29.025 2.17254 28.7045C2.12246 28.6471 2.13612 28.5628 2.1179 28.4615ZM9.99041 34.5445L10.0496 34.5209C9.96765 34.4096 9.91301 34.2814 9.80373 34.1903C9.49867 33.9339 9.17084 33.6943 8.84756 33.4514C8.80658 33.4211 8.72007 33.3873 8.66998 33.3974C8.28296 33.4919 7.90049 33.5965 7.51802 33.6977C7.33134 33.7483 7.31312 33.8225 7.42695 33.9507C7.87772 34.4636 8.46053 34.9089 9.14352 35.2598C9.32564 35.3543 9.59428 35.3306 9.69901 35.1889C9.85382 34.9899 10.0223 34.7908 9.99041 34.5445ZM13.3279 36.5924L13.4008 36.5452C13.2596 36.3866 13.1458 36.2011 12.9637 36.0729C12.6085 35.8232 12.1987 35.6208 11.839 35.3745C11.5613 35.1856 11.0422 35.1822 10.7645 35.334C10.3046 35.5837 10.2591 35.9784 10.7781 36.191C10.9602 36.2686 11.1606 36.3225 11.37 36.3529C12.0166 36.444 12.6723 36.5148 13.3279 36.5924Z" fill="black"/>
<path d="M20.0118 28.7789C20.1439 28.6035 20.2759 28.4382 20.4034 28.2661C20.5309 28.094 20.6493 27.9186 20.7767 27.7465C20.8542 27.6386 21.0044 27.5239 20.9953 27.4226C20.9862 27.3214 20.8177 27.2168 20.713 27.1224C20.2531 26.7108 20.1575 26.2114 20.0664 25.7054L20.0209 25.4658L19.9617 25.4726C19.9526 25.5333 19.9481 25.594 19.939 25.6548C19.8479 26.262 19.6931 26.8457 19.0511 27.2877C19.0101 27.3147 19.0147 27.4125 19.0465 27.4597C19.2287 27.7297 19.429 27.9962 19.6202 28.2627C19.7477 28.4382 19.8843 28.6102 20.0118 28.7789Z" fill="black"/>
<path d="M20.0118 28.7789C19.8798 28.6102 19.7477 28.4348 19.6202 28.2627C19.4244 27.9962 19.2287 27.7297 19.0465 27.4597C19.0147 27.4125 19.0101 27.318 19.0511 27.2877C19.6931 26.8457 19.8524 26.2587 19.939 25.6548C19.9481 25.594 19.9526 25.5333 19.9617 25.4726L20.0209 25.4658L20.0664 25.7054C20.1575 26.2081 20.2531 26.7108 20.713 27.1224C20.8223 27.2168 20.9862 27.318 20.9953 27.4226C21.0044 27.5272 20.8542 27.6386 20.7767 27.7465C20.6538 27.9186 20.5309 28.094 20.4034 28.2661C20.2759 28.4382 20.1439 28.6068 20.0118 28.7789Z" fill="black"/>
</g>
<defs>
<clipPath id="clip0_283_104">
<rect width="40" height="40" fill="white"/>
</clipPath>
</defs>
</svg>
