<svg width="40" height="40" viewBox="0 0 40 40" fill="none" xmlns="http://www.w3.org/2000/svg">
<g clip-path="url(#clip0_283_108)">
<path d="M0.0175781 19.6532C0.0175781 16.8267 0.017578 14.0168 0.0349693 11.1904C0.0349693 11.0086 0.139317 10.7606 0.278448 10.6284L11.7567 0.363927C12.0002 0.149051 12.2263 0.0664062 12.5567 0.0664062C17.4958 0.0829352 22.4524 0.0829352 27.3915 0.0664062C27.7045 0.0664062 27.9654 0.149051 28.1915 0.347398C32.0524 3.85153 35.9132 7.33913 39.7741 10.8433C39.8784 10.9424 39.9306 11.1573 39.9306 11.3226V26.5788C39.9306 27.1573 40.0697 27.8019 39.8611 28.2978C39.6524 28.7771 39.0611 29.1077 38.6263 29.4879C35.4263 32.3639 32.2437 35.2565 29.0437 38.1325C28.9045 38.2648 28.7132 38.3639 28.5915 38.5292C28.1219 39.1904 27.4437 39.24 26.6784 39.24C21.9306 39.2069 17.2002 39.2234 12.4524 39.2234C12.2437 39.2234 11.9828 39.1243 11.8089 38.9755C7.94801 35.554 4.08714 32.116 0.243665 28.678C0.104535 28.5623 0.0175781 28.3309 0.0175781 28.1491V19.6532ZM6.40019 19.5705C6.40019 21.3391 6.40019 23.0912 6.41758 24.8598C6.41758 25.1243 6.48714 25.4548 6.66106 25.6201C9.18279 28.0664 11.7393 30.4796 14.2958 32.8929C14.4524 33.0416 14.7132 33.1573 14.9219 33.1573C18.2611 33.1738 21.6176 33.1738 24.9567 33.1738C25.235 33.1738 25.4263 33.0912 25.635 32.8929C28.1393 30.5127 30.6611 28.1325 33.1828 25.7524C33.4089 25.5375 33.5132 25.3061 33.5132 25.0086C33.5132 21.4383 33.5132 17.8846 33.4958 14.3143C33.4958 14.116 33.3915 13.8846 33.2524 13.7524C30.6784 11.2895 28.1045 8.84327 25.5132 6.41351C25.3567 6.26475 25.0958 6.16558 24.8871 6.16558C21.5828 6.14905 18.2784 6.14905 14.9741 6.14905C14.6958 6.14905 14.5045 6.2317 14.2958 6.41351C11.7393 8.82674 9.20019 11.2234 6.66106 13.6367C6.52192 13.7689 6.41758 14.0003 6.41758 14.1986C6.38279 15.9838 6.40019 17.7854 6.40019 19.5705ZM3.47845 25.7193C4.03497 25.4714 4.48714 25.273 4.92193 25.0416C5.04366 24.9755 5.1654 24.7772 5.1828 24.6284C5.21758 24.2482 5.20019 23.8515 5.20019 23.4714C5.20019 20.5292 5.20019 17.6036 5.1828 14.6614C5.1828 14.5127 5.13062 14.2648 5.00888 14.2152C4.53932 13.9838 4.03497 13.8019 3.47845 13.5705V18.3474H2.1741V13.5375C2.1741 12.8929 2.1741 12.8929 1.44366 12.6945V26.678C2.12193 26.43 2.12193 26.43 2.12193 25.8185V20.7937H3.46106C3.47845 22.43 3.47845 24.0333 3.47845 25.7193ZM36.4002 13.6201C35.9306 13.8185 35.5132 13.9672 35.1132 14.1656C35.0089 14.2152 34.9045 14.3639 34.9045 14.4796C34.8871 17.9507 34.8871 21.4053 34.9045 24.8763C34.9045 24.9755 34.9567 25.1243 35.0437 25.1573C35.4784 25.3557 35.9132 25.521 36.4176 25.7358V20.8929H37.7567V25.9342C37.7567 26.4962 37.8437 26.5788 38.4697 26.711V12.6284C37.7915 12.8267 37.7567 12.8598 37.7567 13.4714V18.397H36.4002V13.6201ZM3.86106 12.4135C4.29584 12.6119 4.69584 12.7606 5.07845 12.9755C5.35671 13.1243 5.51323 13.0747 5.73932 12.8598C8.3654 10.3805 10.9915 7.88459 13.635 5.40525L13.9306 5.12426C13.6871 4.72756 13.4611 4.3474 13.2002 3.93418C11.7393 5.25649 10.3306 6.54575 8.86975 7.88459C8.55671 7.48789 8.26106 7.14079 7.94801 6.76062C8.08714 6.62839 8.19149 6.52922 8.31323 6.43004L12.0176 3.00855C12.4871 2.56227 12.4871 2.56227 12.035 2.04988C8.66106 5.14079 5.28714 8.24822 1.87845 11.3722C2.15671 11.521 2.3654 11.6201 2.53932 11.7193C3.86106 10.4962 5.14801 9.30608 6.46975 8.08294C6.73062 8.33087 7.00888 8.59533 7.25236 8.87632C7.30453 8.94244 7.26975 9.14079 7.21758 9.22343C6.85236 9.6036 6.45236 9.9507 6.06975 10.3143C5.33932 10.992 4.62627 11.6862 3.86106 12.4135ZM3.75671 26.959C3.9654 27.1077 4.10453 27.1738 4.20888 27.273C5.20019 28.1986 6.19149 29.1408 7.18279 30.0829C7.26975 30.1656 7.32193 30.397 7.28714 30.4466C7.02627 30.7276 6.71323 30.9755 6.45236 31.2234C5.1654 30.0168 3.86106 28.8267 2.55671 27.6201C2.3828 27.7028 2.19149 27.8019 1.94801 27.9342C5.35671 31.0912 8.71323 34.1986 12.0698 37.3226C12.4698 36.7276 12.4698 36.7276 12.0002 36.2813L8.29584 32.8598C8.19149 32.7606 8.10453 32.6614 7.98279 32.5457C8.29584 32.1656 8.59149 31.835 8.88714 31.4714C10.348 32.8102 11.7741 34.0995 13.2176 35.4053C13.4784 34.9755 13.7045 34.6119 13.9828 34.1656C13.8611 34.0829 13.7393 34.0003 13.635 33.9011C12.5393 32.8763 11.4611 31.8515 10.3828 30.8267C8.81758 29.3391 7.25236 27.8681 5.68714 26.397C5.58279 26.2978 5.35671 26.1986 5.26975 26.2482C4.7654 26.43 4.34801 26.6614 3.75671 26.959ZM26.0871 5.00855C26.9219 5.88459 27.6697 6.74409 28.5045 7.52095C30.4176 9.3226 32.348 11.0747 34.2958 12.8433C34.4002 12.9259 34.5915 13.0416 34.6958 12.992C35.148 12.8267 35.5654 12.5953 36.035 12.3805C34.6958 11.0912 33.3915 9.85153 32.0524 8.56227C32.4002 8.26475 32.7306 7.96723 33.0437 7.70277C34.4697 9.00856 35.9132 10.3474 37.3741 11.6862C37.548 11.6036 37.7393 11.4879 38.0002 11.3557C34.5741 8.19864 31.2176 5.0912 27.8437 1.98376C27.4437 2.56227 27.4263 2.5788 27.9132 3.02508C28.748 3.80194 29.6002 4.54575 30.4524 5.30608C30.8176 5.63665 31.1654 5.9507 31.548 6.29781C31.2176 6.67798 30.9219 7.04161 30.6089 7.42178C29.3045 6.2317 28.0524 5.0912 26.7654 3.91765C26.4697 4.38046 26.2263 4.79368 26.0871 5.00855ZM35.9828 26.9424C35.5306 26.6614 35.0958 26.3805 34.6611 26.116C31.7219 28.8102 28.8176 31.4879 25.8958 34.1656C26.1741 34.5953 26.4176 34.992 26.6958 35.4218C28.0002 34.2317 29.2697 33.0747 30.5741 31.9011C30.9045 32.2978 31.2002 32.6449 31.4958 33.0251C30.1219 34.2648 28.7828 35.4879 27.4089 36.711C27.5306 36.9259 27.635 37.1077 27.7567 37.3226C31.148 34.1821 34.5219 31.0747 37.9132 27.9342C37.6698 27.8185 37.4784 27.7028 37.3219 27.6201C35.8437 28.9755 34.4002 30.2978 33.0611 31.521C32.7306 31.273 32.3654 31.0086 32.0176 30.7441C33.3741 29.4714 34.6611 28.2152 35.9828 26.9424ZM25.4089 35.7689C25.2002 35.3391 25.0437 34.9755 24.8524 34.6284C24.8002 34.5457 24.6437 34.4962 24.5219 34.4962H15.4263C15.3219 34.4962 15.1654 34.5127 15.1306 34.5623C14.9045 34.9424 14.7132 35.3391 14.4698 35.7854H19.0611C19.0263 36.1325 18.9915 36.4466 18.9741 36.7771C18.9741 37.0581 18.8524 37.1408 18.5567 37.1408C17.1132 37.1243 15.6524 37.1408 14.2089 37.1408C13.7045 37.1408 13.635 37.1904 13.5828 37.6862H26.435C26.2089 37.0581 26.2089 37.0581 25.5828 37.0581C24.3306 37.0747 23.0958 37.0747 21.8437 37.0912H20.9045C20.9045 36.7771 20.9219 36.5127 20.9045 36.2482C20.8698 35.8846 20.9915 35.7524 21.3915 35.7689C22.7132 35.7854 24.0176 35.7689 25.4089 35.7689ZM19.0611 3.57054H14.4698C14.6958 4.00029 14.8698 4.36393 15.0958 4.72756C15.1306 4.79368 15.2871 4.84327 15.3915 4.84327H24.4871C24.5915 4.84327 24.748 4.79368 24.7828 4.71103C24.9915 4.36393 25.1828 3.98376 25.4089 3.57054H24.9393C23.7219 3.57054 22.5045 3.57054 21.2871 3.55401C21.1654 3.55401 20.9393 3.43831 20.9393 3.37219C20.9045 3.00855 20.9219 2.64492 20.9219 2.28128H25.5306C26.0871 2.28128 26.2437 2.16558 26.3306 1.63665H13.4611C13.635 2.24822 13.635 2.24822 14.2437 2.24822H18.4698C18.6089 2.24822 18.748 2.26475 18.9219 2.26475C18.9741 2.71103 19.0089 3.10773 19.0611 3.57054Z" fill="black"/>
<path d="M22.6269 17.8845C21.4791 16.7935 20.453 15.8018 19.3573 14.777C18.8182 15.934 18.2965 17.025 17.7573 18.182C16.6617 17.2068 15.6356 16.3142 14.5921 15.3721C14.4878 16.0828 14.3834 16.6944 14.2791 17.3059C14.2617 17.4216 14.2269 17.5374 14.1921 17.6365C14.0878 17.9175 13.966 18.0002 13.6356 17.8018C12.8182 17.3059 11.966 16.8431 11.0791 16.3473C11.0965 16.6944 11.1313 16.9423 11.4269 17.1241C12.0356 17.5043 12.6269 17.901 13.2356 18.2812C13.5834 18.496 13.9487 18.6944 14.3313 18.9258C14.6617 18.3307 14.9921 17.7522 15.3226 17.1407C16.1226 17.7357 16.9226 18.3473 17.7921 19.0084C18.5226 18.0497 19.253 17.0911 19.6182 15.8183C20.8008 16.6944 21.566 17.8514 22.5921 18.7274C23.4443 18.1159 23.8617 17.2068 24.4182 16.3142C25.4269 17.1902 26.1052 18.2646 27.0095 19.2894C27.8443 18.1655 28.6617 17.058 29.5313 15.901C29.566 16.1655 29.6008 16.3638 29.6356 16.5787C29.6704 16.7109 29.6704 16.8927 29.7573 16.9754C30.1052 17.2729 29.9487 17.5539 29.7747 17.8514C29.2704 18.744 29.1487 19.7357 28.9747 20.7109C28.8878 21.2398 29.0791 21.6861 29.3921 22.1159C29.5139 22.2812 29.5834 22.5291 29.5487 22.7109C29.4269 23.2398 29.7921 23.5539 30.0704 23.901C30.1226 23.9671 30.3313 23.9506 30.4356 23.901C30.7487 23.7688 31.0269 23.62 31.4095 23.4216C31.4095 23.9175 31.4443 24.3969 31.2356 24.8431C30.8008 25.8679 29.966 26.6117 29.1139 27.2894C28.4356 27.8349 27.6878 28.2977 26.9573 28.7935C26.853 28.8597 26.7139 28.8762 26.5747 28.8762C25.1487 28.8762 23.7226 28.8431 22.3834 28.3142C21.9834 28.1655 21.6356 27.8845 21.2704 27.62C21.2008 27.5704 21.2008 27.3886 21.2008 27.2894C21.2008 27.1407 21.253 26.9919 21.2878 26.8431H20.0356C19.566 26.8597 19.1313 26.7936 18.8182 26.3803C18.7487 26.2977 18.5052 26.2812 18.366 26.2977C17.7747 26.3803 17.2008 26.496 16.6095 26.5621C16.453 26.5787 16.2617 26.4464 16.0878 26.3638C15.9834 26.3142 15.9139 26.1985 15.8269 26.1159C15.566 25.8845 15.3226 25.8018 14.9226 25.8349C14.0704 25.9175 13.2008 25.901 12.3313 25.8514C11.8617 25.8349 11.566 25.4878 11.4095 25.0745C11.3052 24.7605 11.2356 24.4299 11.2008 24.0993C11.166 23.8183 11.0443 23.6531 10.7834 23.5374C9.63561 22.9754 9.18343 22.0497 9.253 20.8762C9.32256 19.9671 9.51387 19.058 9.58343 18.1489C9.63561 17.5374 9.61822 16.9093 9.54865 16.3142C9.49648 15.7853 9.63561 15.339 9.82691 14.8597C10.14 14.0497 10.4182 13.2398 10.7139 12.4299C10.853 12.0663 10.9747 11.7026 11.1313 11.2729C11.4443 11.5208 11.6878 11.7357 11.966 11.934C13.0269 12.6613 14.54 12.3307 15.1313 11.2233C15.5139 10.496 15.8443 9.76876 16.1921 9.07454C16.7487 9.57041 17.34 10.1159 17.9313 10.6448C18.0878 10.7936 18.2965 10.9258 18.5052 10.9919C19.3226 11.2564 20.1226 10.9919 20.6095 10.2481C20.8704 9.8514 21.0617 9.40512 21.3052 8.92578C21.4269 9.04148 21.5834 9.14066 21.7052 9.28942C22.14 9.81834 22.5921 10.3307 23.0095 10.8762C23.2704 11.2233 23.6182 11.2729 23.966 11.1902C24.453 11.058 24.9747 10.9258 25.3921 10.6613C25.6878 10.4795 25.8269 10.0993 26.0356 9.80181C26.1052 9.70264 26.1573 9.58694 26.2443 9.42165C26.4008 9.63653 26.5226 9.81834 26.6443 10.0002C27.6356 11.4712 28.5226 12.9754 28.9921 14.6778C29.0791 14.9754 29.0791 15.2233 28.8878 15.4712C28.2269 16.3307 27.5834 17.2068 26.8878 18.1324C26.0008 17.1241 25.3921 15.9671 24.2617 15.2729C23.7226 16.1655 23.1834 17.025 22.6269 17.8845ZM24.3313 18.1655C23.8269 18.777 23.2704 19.4382 22.7313 20.0993C22.1052 19.5208 21.5313 18.9754 20.9052 18.3969C20.7487 19.4878 21.2182 20.2812 21.9139 20.9919C21.8791 21.0084 21.8617 21.0415 21.8269 21.058C21.566 20.9754 21.2878 20.8927 21.0269 20.7936C21.0095 20.8266 20.9747 20.8431 20.9573 20.8762C21.3226 21.2398 21.6704 21.62 22.1052 22.0497C21.7226 21.9836 21.4095 21.934 21.0443 21.8679C21.1313 22.1159 21.2008 22.3142 21.2704 22.5291C21.3747 22.8266 21.3573 23.0745 21.0443 23.2729C20.9573 23.3225 20.9052 23.5374 20.94 23.6035C21.0617 23.7853 21.2182 24.0002 21.4095 24.0993C21.8617 24.3473 22.3487 24.5456 22.8356 24.7274C22.9573 24.777 23.1487 24.777 23.2356 24.7109C24.2269 24.0497 24.6617 23.0911 24.8356 21.9671C24.1747 22.0663 24.0704 21.9671 24.1052 21.3886C24.1921 20.2977 24.2791 19.2068 24.3313 18.1655ZM16.5573 21.901C16.9573 22.5787 16.6965 23.1076 16.2443 23.6035C16.2095 23.6531 16.2269 23.8183 16.2791 23.8679C16.6965 24.2316 17.0791 24.6448 17.5487 24.9423C18.2443 25.3721 18.3139 25.3555 18.853 24.7935C19.3226 24.2977 19.7052 23.7192 20.0878 23.1407C20.1747 23.0084 20.3313 22.6778 19.8791 22.6613C19.8443 22.6613 19.7747 22.5456 19.7573 22.4795C19.6878 22.1324 19.566 21.7688 19.5834 21.4216C19.653 20.496 19.7747 19.5869 19.8965 18.6613L19.9487 18.1159C19.9139 18.0993 19.8791 18.0993 19.8443 18.0828C19.2704 18.9588 18.6965 19.8514 18.14 20.7274C17.4443 20.1985 16.766 19.6861 16.053 19.1241C16.1573 20.0663 16.7139 20.6117 17.3921 21.1076C17.1139 21.058 16.8182 20.9919 16.453 20.9093C16.7487 21.3059 16.9921 21.62 17.2878 22.0167C17.0269 21.9836 16.8356 21.9506 16.5573 21.901ZM25.7226 22.5126C25.6182 22.9093 25.4965 23.2729 25.4095 23.6531C25.3921 23.7192 25.4095 23.8514 25.4617 23.8845C25.9139 24.182 26.366 24.4795 26.8356 24.7274C26.94 24.777 27.2008 24.7109 27.2878 24.6117C27.7226 24.1324 28.14 23.6531 28.5226 23.1241C28.6965 22.8927 28.7487 22.5787 28.8704 22.2812C28.1052 22.1489 27.9313 21.9175 28.053 21.2564C28.1747 20.496 28.3313 19.7357 28.4878 18.9093C27.9487 19.4878 27.6182 20.1324 26.9052 20.4464C26.4182 19.9506 25.9487 19.4712 25.4965 18.9919C25.4617 19.0084 25.4269 19.025 25.4095 19.058C25.4443 19.5374 25.3747 20.0663 25.5313 20.496C25.6878 20.9093 26.1052 21.2398 26.4356 21.62C26.1921 21.6035 25.9487 21.5704 25.6008 21.5374C25.9139 21.934 26.1747 22.2646 26.5052 22.6778C26.1747 22.6117 25.9487 22.5621 25.7226 22.5126ZM12.6443 21.6696C12.5921 21.8679 12.6095 22.0828 12.4878 22.215C12.2791 22.4464 12.366 22.6283 12.5052 22.8101C12.6443 22.9919 12.8008 23.1902 13.0095 23.3059C13.4965 23.5869 14.0008 23.8349 14.5052 24.0828C14.5747 24.1159 14.766 24.0663 14.8356 24.0002C15.253 23.5539 15.5313 23.025 15.6704 22.4464C15.7226 22.215 15.7747 22.0332 15.566 21.8183C15.3921 21.6365 15.3052 21.339 15.253 21.0745C15.1487 20.5456 15.1139 20.0167 15.0443 19.4878C15.0095 19.4712 14.9747 19.4382 14.9573 19.4216C14.94 19.4712 14.94 19.5374 14.9052 19.5704C14.4704 20.0332 14.4704 20.0332 13.8965 19.7522C13.2704 19.4547 12.6617 19.1407 12.0182 18.8101C12.1052 19.9175 13.1313 20.1489 13.9313 20.7605C13.4269 20.7109 13.0443 20.6778 12.6617 20.6283C12.6269 20.6613 12.5921 20.7109 12.5747 20.744L13.566 21.5374C13.5487 21.5704 13.5313 21.6035 13.5139 21.62C13.2008 21.6365 12.9226 21.6531 12.6443 21.6696ZM21.5139 10.1159C21.8965 12.2481 22.2617 14.3473 22.6443 16.496C23.1487 15.7026 23.6008 14.9258 23.8791 14.0663C23.9139 13.9836 23.8617 13.8679 23.8443 13.7688C23.3747 12.3803 22.5226 11.2233 21.5139 10.1159ZM17.5834 16.4299C17.5834 16.4299 17.6356 16.4134 17.6356 16.3803C18.0008 15.5704 18.3487 14.777 18.6965 13.9506C18.766 13.8018 18.766 13.5869 18.7139 13.4382C18.3139 12.2316 17.4617 11.3059 16.6791 10.3142C16.9747 12.3803 17.2878 14.4134 17.5834 16.4299ZM26.853 16.8101C27.3226 16.2316 27.7573 15.7026 28.1747 15.1572C28.2443 15.058 28.2269 14.8597 28.1921 14.7274C27.9139 13.9506 27.653 13.1737 27.3226 12.4134C27.166 12.0332 26.8704 11.7026 26.6443 11.3555C26.5921 11.3721 26.5573 11.3886 26.5052 11.4051C26.6095 13.1737 26.7313 14.9423 26.853 16.8101ZM25.5313 24.9423C24.8704 25.0415 24.1573 24.9423 23.566 25.3721C22.9052 25.8349 22.5747 26.5126 22.2269 27.1737C22.1052 27.4051 22.2269 27.5208 22.4356 27.5704C23.3226 27.8018 24.1921 28.0332 25.0791 28.2481C25.1834 28.2812 25.3052 28.215 25.4269 28.1985C25.4269 28.182 25.4269 28.1654 25.4095 28.1324C24.7139 27.9175 24.0182 27.6861 23.2704 27.4547C23.8617 26.4464 24.6791 25.7026 25.5313 24.9423ZM13.6356 16.8762C13.7573 16.1489 13.8617 15.5208 13.966 14.8927C13.966 14.8431 13.9313 14.7936 13.9139 14.744C13.34 13.7853 12.4704 13.1241 11.5139 12.5456C12.1921 13.9671 12.8878 15.3721 13.6356 16.8762ZM24.453 13.2564C24.6443 12.8266 24.7834 12.4795 24.94 12.1159C24.5573 12.1489 24.2617 12.182 23.9313 12.215C24.1052 12.5291 24.2617 12.8597 24.453 13.2564ZM14.8182 13.3225C14.453 13.4382 14.1747 13.5374 13.8443 13.6531C14.053 13.8845 14.2095 14.0663 14.4182 14.3142C14.5747 13.934 14.6791 13.6531 14.8182 13.3225ZM28.8704 23.8349C28.6269 24.0993 28.4182 24.3307 28.2269 24.5621C28.2617 24.5952 28.2791 24.6283 28.3139 24.6613C28.5921 24.5787 28.8704 24.496 29.1834 24.3969C29.0617 24.1985 28.9747 24.0497 28.8704 23.8349ZM19.253 12.9423C19.3747 12.6448 19.4617 12.4299 19.5834 12.1655C19.3226 12.1985 19.1139 12.2316 18.8704 12.2481C19.0095 12.4795 19.1139 12.6778 19.253 12.9423Z" fill="black"/>
</g>
<defs>
<clipPath id="clip0_283_108">
<rect width="40" height="40" fill="white"/>
</clipPath>
</defs>
</svg>
