<svg width="40" height="40" viewBox="0 0 40 40" fill="none" xmlns="http://www.w3.org/2000/svg">
<g clip-path="url(#clip0_283_115)">
<rect width="40" height="40" fill="white"/>
<path d="M14.9929 25.0097C15.2268 24.9058 15.482 24.8668 15.6521 24.6979C15.9658 24.3925 15.8541 23.9441 15.7265 23.5867C15.4501 22.807 15.1364 22.0403 14.8068 21.293C14.3868 20.3314 13.8233 19.4997 13.196 18.7329C12.7973 18.2456 12.3879 17.7778 11.9892 17.3099C11.3459 17.8622 11.0163 18.9279 11.314 19.8311C11.8669 21.5205 12.6218 23.0669 13.701 24.3405C13.9934 24.6784 14.2805 25.0227 14.5942 25.3866C14.0998 25.4711 13.6266 25.4451 13.1907 25.2437C12.5633 24.9513 11.9785 24.5744 11.4575 24.0156C10.9312 23.4438 10.2826 23.1384 9.54898 23.2359C9.36823 23.2619 9.19279 23.3463 8.9695 23.4178C9.02798 23.1774 9.07583 22.9565 9.13962 22.742C9.35228 22.0273 9.15026 21.4295 8.73027 20.9552C8.40065 20.5848 8.06041 20.1754 7.52878 20.2534C7.12474 20.3119 6.74728 20.7472 6.7207 21.2411C6.71006 21.4815 6.69412 21.7284 6.67285 22.0143C6.60374 21.9688 6.53463 21.9103 6.47615 21.8519C5.77439 21.0201 5.04606 20.2144 4.38683 19.3307C3.89241 18.668 3.57343 17.8622 3.33952 16.9851C2.98332 15.627 2.67498 14.2625 2.54738 12.833C2.45169 11.7479 2.22309 10.6628 1.68082 9.77258C1.30868 9.16179 0.81958 8.66147 0.373009 8.11566C0.250734 7.97921 0.123142 7.85575 -0.00976562 7.73879L0.0114997 7.65432C0.117826 7.65432 0.224152 7.62833 0.325163 7.65432C1.27678 7.91423 2.10081 8.46004 2.78662 9.32424C3.12686 9.75309 3.49901 10.143 3.8552 10.5588C4.00406 10.7277 4.04127 10.9097 4.02532 11.1826C3.94026 12.2092 4.13696 13.2424 4.57822 14.1261C4.93441 14.8408 5.33314 15.5231 5.74249 16.1988C6.02958 16.6797 6.48678 16.7836 6.93335 16.8876C7.25764 16.9591 7.59257 17.011 7.93282 16.8486C7.31612 15.4386 7.27359 13.9311 7.29486 12.4107C7.30018 12.1962 7.35866 11.9818 7.39587 11.7739L7.48625 11.7804C7.5022 11.8389 7.51283 11.9038 7.51814 11.9688C7.52878 13.0539 7.88497 13.9311 8.58141 14.5874C9.15557 15.1267 10.0593 14.8343 10.373 14.0351C10.3996 13.9701 10.3943 13.8402 10.3624 13.8012C10.171 13.5932 10.1976 13.3333 10.2348 13.0799C10.2773 12.807 10.2614 12.6316 9.97429 12.6641C9.84669 12.6771 9.7191 12.6446 9.55961 12.6251C9.60746 12.4172 9.64999 12.2222 9.6872 12.0273C9.84138 11.2281 9.58619 10.5393 9.27785 9.87654C8.75153 8.74594 8.07636 7.74529 7.4065 6.73814C7.06094 6.21183 6.63564 6.04289 6.11464 6.20533C6.05084 6.21832 5.98173 6.23132 5.91262 6.23132C6.02426 5.49708 6.05084 4.76933 5.86477 4.08057C5.72123 3.56725 5.53516 3.07342 5.31187 2.60559C5.00353 1.94932 4.85467 1.21507 4.69518 0.487329C4.66328 0.357375 4.68986 0.20143 4.68986 0.0584795L4.76961 0C5.11517 0.324886 5.48731 0.617284 5.80097 0.981157C6.13059 1.36452 6.40172 1.81936 6.71006 2.22872C7.07157 2.71605 7.4065 3.24886 7.92219 3.49578C8.188 3.62573 8.4804 3.67771 8.81001 3.78168C8.79938 3.84665 8.80469 3.98311 8.75685 4.06758C8.39002 4.67836 8.40065 5.28265 8.72495 5.90643C9.21405 6.84211 9.67657 7.80377 10.2082 8.70695C10.5006 9.20728 10.8834 9.64262 11.2768 10.0325C11.4469 10.2079 11.734 10.2144 11.9679 10.2859C12.0689 10.3119 12.1752 10.3314 12.2763 10.3444C12.2178 10.5783 12.1646 10.7667 12.1114 10.9617C12.0636 11.1371 12.0795 11.2346 12.255 11.2736C12.4836 11.319 12.6856 11.4945 12.7973 11.7479C12.8238 11.8064 12.9142 11.8843 12.9514 11.8713C13.2013 11.7479 13.4777 11.6504 13.6904 11.4555C14.1795 11.0007 14.1848 10.4029 13.7542 9.77258C14.0998 9.53866 14.323 9.60364 14.5623 9.94802C15.179 10.8187 15.1045 11.7934 14.9185 12.82C14.844 13.2359 14.8919 13.6972 14.9291 14.1326C15.0567 15.5556 15.6309 16.7641 16.1837 17.9857C17.045 19.87 18.1508 21.5465 19.1768 23.2943C19.3523 23.5932 19.549 23.8661 19.7351 24.152C19.9211 24.4379 20.0115 24.4444 20.1869 24.1715C20.6441 23.4438 21.1067 22.7225 21.5479 21.9753C22.0955 21.0591 22.6484 20.1429 23.1481 19.1878C23.8286 17.8882 24.4932 16.5627 24.8387 15.0617C25.062 14.0936 25.1577 13.1059 24.9397 12.0988C24.7909 11.4165 24.8334 10.7212 25.179 10.1105C25.3969 9.73359 25.8276 9.46069 26.1784 9.76608C26.1359 9.83756 26.0827 9.90253 26.0455 9.98051C25.7265 10.5653 25.8648 11.2541 26.3698 11.5789C26.5453 11.6829 26.726 11.7739 26.9121 11.8389C26.9706 11.8648 27.0928 11.8259 27.1194 11.7674C27.2523 11.4815 27.4597 11.345 27.7042 11.2541C27.7733 11.2086 27.8212 11.1176 27.8212 11.0201C27.7893 10.8057 27.7202 10.5913 27.6564 10.3444C27.7521 10.3184 27.8478 10.3054 27.9435 10.2924C28.3528 10.2924 28.7303 10.13 28.9908 9.75958C29.4799 9.05133 29.9424 8.31059 30.3783 7.55686C30.6867 7.02404 30.9472 6.43925 31.2236 5.87394C31.5267 5.26966 31.532 4.67186 31.1811 4.09357C31.0376 3.85315 31.0801 3.73619 31.3246 3.7167C31.9573 3.67122 32.4304 3.26836 32.8504 2.72904C33.4618 1.94282 33.9403 1.00065 34.7111 0.402859C34.7909 0.337882 34.8653 0.259909 34.9504 0.194932C35.0248 0.136452 35.1045 0.0909682 35.2321 0.00649773C35.2321 0.220923 35.2587 0.396361 35.2268 0.558804C35.0567 1.47498 34.7696 2.35218 34.3762 3.15789C33.9881 3.97011 33.8233 4.87329 34.02 6.24431C33.8339 6.21832 33.6532 6.19883 33.4724 6.17284C33.196 6.12086 32.9142 6.25081 32.7281 6.51072C31.8456 7.7128 31.0269 8.96686 30.4368 10.4224C30.171 11.0786 30.1178 11.7609 30.3411 12.4626C30.3571 12.5211 30.3624 12.5796 30.3677 12.6446C30.1923 12.6641 30.0328 12.6901 29.868 12.6901C29.7191 12.6966 29.6606 12.768 29.6819 12.95C29.7138 13.2684 29.7935 13.5932 29.549 13.8596C29.5224 13.8921 29.5383 14.0351 29.5756 14.0936C30.1338 15.0682 30.8993 15.1462 31.5745 14.3665C32.1433 13.7362 32.4517 12.82 32.4145 11.8843C32.4145 11.8648 32.4251 11.8454 32.4623 11.7479C32.5155 11.8843 32.5687 11.9623 32.5846 12.0598C32.8132 13.4048 32.7866 14.7238 32.34 16.0039C32.239 16.2898 32.154 16.5822 32.0423 16.9266C32.2178 16.9526 32.3985 16.9591 32.574 16.9656C33.1162 16.9331 33.6638 16.8421 34.0732 16.3678C34.3656 16.0299 34.5942 15.614 34.8281 15.2112C35.0248 14.8668 35.2055 14.5029 35.365 14.1326C35.785 13.1709 36.003 12.1572 35.8967 11.0526C35.886 10.9422 35.9126 10.8317 35.9658 10.7407C36.625 9.75309 37.4171 8.91488 38.3103 8.25861C38.7196 7.95971 39.2141 7.84276 39.6713 7.65432C39.7404 7.62833 39.8361 7.67381 39.9796 7.69981C39.8307 7.86225 39.7351 7.98571 39.6234 8.07667C38.5282 9.01235 37.8159 10.2664 37.5341 11.8583C37.3852 12.6901 37.3533 13.5543 37.1832 14.3795C36.944 15.5426 36.6888 16.6992 36.3326 17.8168C36.0083 18.8304 35.4129 19.6556 34.759 20.4029C34.3443 20.8707 33.9349 21.345 33.5203 21.8129C33.4352 21.8973 33.3501 21.9688 33.2598 22.0403C33.2438 21.7739 33.2172 21.54 33.2119 21.3125C33.196 20.5198 32.4623 20.026 31.8935 20.3834C31.4363 20.6758 31.0003 21.0331 30.8089 21.6959C30.692 22.0598 30.692 22.4626 30.8089 22.8265C30.8674 23.0149 30.91 23.2099 30.9684 23.4438C30.7558 23.3723 30.575 23.2878 30.389 23.2619C29.6287 23.1644 28.9855 23.5153 28.4166 24.0936C27.5713 24.9513 26.641 25.5361 25.4979 25.4386C25.4554 25.4321 25.4129 25.4256 25.3491 25.4126C25.6681 25.0422 25.9711 24.6914 26.2741 24.334C27.3427 23.0539 28.1029 21.5335 28.6293 19.8376C28.927 18.8694 28.6293 18.0507 27.9966 17.3424C27.6457 17.7128 27.263 18.0442 26.944 18.46C26.4868 19.0578 26.0562 19.6881 25.6521 20.3444C25.0354 21.358 24.541 22.4821 24.1901 23.6712C24.0944 23.9961 23.9828 24.399 24.2486 24.6719C24.4294 24.8603 24.6899 24.9253 24.9291 25.0552C24.7696 25.2891 24.5729 25.6075 24.3549 25.8869C23.8924 26.4912 23.4139 27.0825 22.9461 27.6868C22.8876 27.7713 22.8664 27.8817 22.8823 27.9922C22.9302 28.1871 22.9993 28.3756 23.095 28.538C23.919 29.9025 24.7856 31.2216 25.7531 32.4431C26.7898 33.7622 27.8903 34.9838 29.1184 35.9974C30.8462 37.4269 32.6112 38.7914 34.6154 39.6036C34.7643 39.6621 34.9078 39.7531 35.0514 39.8311C35.0726 39.8441 35.0886 39.87 35.0992 39.974C34.5676 39.9805 34.0306 40.0065 33.499 39.9935C32.2709 39.961 31.0322 39.935 29.852 39.4672C28.592 38.9734 27.3108 38.5315 26.1944 37.6088C25.1045 36.7057 24.036 35.7765 23.0631 34.6719C22.1168 33.5932 21.1279 32.5601 20.1604 31.5075C20.0009 31.332 19.868 31.3905 19.7297 31.5465C18.9163 32.4366 18.0817 33.3073 17.2789 34.217C16.1306 35.5166 14.9131 36.7186 13.5734 37.7193C13.0631 38.1027 12.5208 38.4211 11.9573 38.681C11.096 39.0643 10.2242 39.4542 9.32569 39.6621C8.36876 39.883 7.37992 39.9155 6.40172 39.9935C5.8754 40.0325 5.34909 40 4.82277 40L4.80682 39.8765C4.93441 39.7921 5.06732 39.7141 5.20023 39.6491C6.93867 38.9279 8.50698 37.8038 10.0434 36.6017C11.3512 35.575 12.5687 34.3795 13.6798 33.0409C14.8334 31.6699 15.8807 30.1689 16.8058 28.564C16.8536 28.486 16.8961 28.4016 16.9387 28.3236C17.1301 27.9272 17.0875 27.8363 16.8217 27.5114C16.3379 26.9136 15.8807 26.2833 15.4129 25.6595C15.2693 25.4321 15.1258 25.2047 14.9929 25.0097Z" fill="black"/>
<path d="M18.5109 8.11583C18.479 8.92155 18.4311 9.72727 18.4205 10.533C18.4045 11.2542 18.6278 11.956 19.0372 12.4823C19.0797 12.5343 19.1222 12.5798 19.2179 12.6772C19.2339 10.7734 19.5954 9.00602 19.925 7.23214L20.0313 7.21914C20.1323 7.80394 20.2387 8.38874 20.3343 8.97353C20.4354 9.57132 20.5364 10.1756 20.6108 10.7799C20.6852 11.3842 20.7118 11.995 20.765 12.6447C21.1903 12.1899 21.4508 11.6441 21.4933 11.0008C21.5358 10.3056 21.4986 9.59731 21.4933 8.90206C21.488 8.65514 21.4667 8.40823 21.4508 8.16132L21.5199 8.10284C21.7272 8.45371 21.9452 8.79159 22.1313 9.15547C22.2482 9.37639 22.3439 9.70128 22.5778 9.60381C22.7745 9.51934 23.0085 9.26593 23.0563 9.03201C23.1733 8.47321 23.2105 7.88191 23.2371 7.30362C23.253 6.86177 23.2317 6.41993 23.1839 5.97808C23.0723 4.73701 22.6735 3.56093 22.0409 2.58627C21.9877 2.50829 21.9505 2.41733 21.908 2.33935L21.9611 2.26788C22.0249 2.29387 22.0887 2.33286 22.1419 2.38484C22.6576 2.91765 23.0829 3.56742 23.3965 4.30167C23.5933 4.763 23.8006 5.21135 23.9973 5.66619C24.396 6.58237 24.4545 7.60251 24.5821 8.60316C24.7363 9.80524 24.6565 10.9878 24.4492 12.1704C24.4385 12.2224 24.4226 12.2679 24.4013 12.3199C23.8697 12.2419 23.2796 11.9885 22.9074 12.6382C22.5353 13.288 22.4237 14.0288 22.8862 14.789C22.5885 14.698 22.2854 14.6006 21.9824 14.5291C21.5412 14.4186 21.2488 14.685 21.2328 15.2373C21.2222 15.6142 21.1956 16.0171 21.286 16.3614C21.5465 17.3426 21.8548 18.3043 22.1578 19.2724C22.1951 19.3959 22.2908 19.4998 22.3705 19.6233C22.1525 19.8117 21.9399 19.9872 21.7272 20.1756C21.1956 20.6369 20.9032 21.3192 20.6321 22.0145C20.4619 22.4628 20.3131 22.9306 20.1483 23.3855C20.1217 23.47 20.0526 23.5284 20.0047 23.5999C19.9463 23.5284 19.8665 23.4765 19.8293 23.392C19.5635 22.7227 19.303 22.047 19.0531 21.3712C18.7873 20.6629 18.3248 20.1951 17.7878 19.8117C17.7187 19.7663 17.6549 19.7078 17.6018 19.6623C18.1334 18.6097 18.5002 17.4466 18.6916 16.2315C18.7395 15.9196 18.7288 15.5882 18.7235 15.2633C18.7076 14.6915 18.4205 14.4186 17.9686 14.5291C17.6709 14.6071 17.3732 14.7045 16.9957 14.815C17.5486 14.0028 17.4263 13.223 16.9957 12.5603C16.6661 12.0535 16.1451 12.2094 15.64 12.3069C14.8958 9.44137 15.3476 6.75781 16.5332 4.1977C16.8894 3.43097 17.32 2.70323 17.9686 2.25488L18.0536 2.35235C17.9367 2.55378 17.8091 2.74871 17.6975 2.95664C16.9532 4.36015 16.597 5.88711 16.7192 7.56352C16.7458 7.94039 16.7511 8.32376 16.8203 8.68763C16.8734 8.96703 16.9798 9.22694 17.1286 9.44787C17.3306 9.75326 17.5805 9.68178 17.7506 9.3439C17.9739 8.91505 18.2131 8.4927 18.4471 8.07035L18.5109 8.11583ZM19.9941 20.2796C20.0792 20.1106 20.1589 19.8572 20.3024 19.7078C20.5842 19.4154 20.6214 19.1165 20.5204 18.7006C20.3237 17.8884 20.1695 17.0567 19.9941 16.212C19.9622 16.2575 19.9463 16.2705 19.9409 16.29C19.7442 17.2386 19.5422 18.1938 19.3455 19.1425C19.3296 19.2139 19.3721 19.3244 19.4146 19.3894C19.606 19.6883 19.7974 19.9807 19.9941 20.2796Z" fill="black"/>
</g>
<defs>
<clipPath id="clip0_283_115">
<rect width="40" height="40" fill="white"/>
</clipPath>
</defs>
</svg>
