<svg width="40" height="40" viewBox="0 0 40 40" fill="none" xmlns="http://www.w3.org/2000/svg">
<g clip-path="url(#clip0_283_111)">
<rect width="40" height="40" fill="white"/>
<path d="M18.0612 39.9996C17.9608 39.3673 17.8604 38.7349 17.7696 38.0972C17.7122 37.7047 17.6788 37.3068 17.6358 36.9088C17.6214 36.7453 17.5497 36.6744 17.4063 36.6635C17.2007 36.6472 16.9999 36.609 16.7609 36.5709V37.9336C16.431 37.9336 16.1298 37.9445 15.8287 37.9227C15.7665 37.9173 15.69 37.8246 15.6566 37.7483C14.9394 36.2165 14.2462 34.6739 13.51 33.1585C13.1945 32.5098 12.8025 31.9047 12.4487 31.2833C12.4057 31.2125 12.3674 31.1361 12.3053 31.0217H13.8973C13.8973 30.7219 13.9068 30.4438 13.8877 30.1658C13.8829 30.1004 13.7825 30.0187 13.7108 29.9914C12.6113 29.5553 11.722 28.7431 10.8376 27.9254C10.8185 27.9036 10.8042 27.8764 10.7946 27.8491C10.8137 27.8001 10.8376 27.7565 10.8663 27.7129C11.1101 27.3258 11.1531 27.2495 10.8854 26.9006C10.5078 26.4155 10.0631 26.0012 9.62333 25.5324L8.7389 26.3828C8.27517 25.9086 7.88794 25.3471 7.58675 24.7202C7.56285 24.6712 7.61066 24.5349 7.65846 24.4913C7.84013 24.3168 8.04092 24.1642 8.23215 24.0007C8.37557 23.8753 8.43772 23.7499 8.28951 23.5482C8.16044 23.3738 8.07438 23.1503 7.95965 22.9268C7.66803 23.1122 7.39075 23.2648 7.12781 23.4501C6.97005 23.5591 6.88877 23.5319 6.81228 23.352C6.65452 22.9759 6.48241 22.6107 6.32943 22.2291C6.30553 22.1691 6.35334 22.0165 6.40592 21.9838C6.62106 21.8475 6.84575 21.7276 7.07522 21.624C7.28557 21.5313 7.35728 21.3787 7.29513 21.1334C7.24733 20.9535 7.19952 20.7736 7.14215 20.5447C6.85531 20.6592 6.58759 20.7573 6.32465 20.8772C6.15733 20.9535 6.0665 20.9426 6.00913 20.7191C5.92307 20.3703 5.8179 20.0268 5.69838 19.6943C5.63145 19.4926 5.72229 19.4054 5.85136 19.3346C5.92308 19.3018 5.99957 19.2691 6.07606 19.2473C6.75969 18.9966 7.43855 18.7458 8.12219 18.506C8.39469 18.4079 8.45684 18.4569 8.50943 18.784C8.67197 19.8252 8.911 20.8336 9.32214 21.7875C10.0823 23.5428 11.1388 24.9928 12.6208 26.023C13.6869 26.7698 14.8534 27.1732 16.1012 27.3749C16.0725 28.705 16.0438 30.0459 16.0151 31.4087H23.9654C23.9367 30.0732 23.908 28.7268 23.8793 27.4185C24.4435 27.2604 24.998 27.1241 25.543 26.9497C26.4896 26.639 27.3501 26.1157 28.1294 25.4234C29.3819 24.3114 30.2759 22.8941 30.8639 21.237C31.1412 20.4629 31.2703 19.6235 31.4567 18.8113C31.538 18.4569 31.5715 18.4079 31.8774 18.5169C32.6089 18.7731 33.3355 19.0402 34.0622 19.3127C34.2534 19.3836 34.3538 19.5035 34.263 19.7597C34.1435 20.1032 34.0479 20.4575 33.9427 20.8118C33.8996 20.9481 33.8279 20.959 33.718 20.9154C33.4359 20.7954 33.1539 20.681 32.8288 20.5501C32.7666 20.8172 32.7093 21.0462 32.6615 21.286C32.628 21.4605 32.7332 21.5477 32.8575 21.6077C33.0869 21.7276 33.3164 21.853 33.5459 21.9729C33.6654 22.0383 33.7084 22.1092 33.6319 22.2672C33.4646 22.6161 33.3116 22.9759 33.1682 23.3356C33.0822 23.5537 32.9865 23.5537 32.8192 23.4338C32.6136 23.2811 32.3842 23.1667 32.1738 23.0195C32.0447 22.9323 31.9778 22.9595 31.9109 23.1067C31.8487 23.2648 31.7722 23.412 31.6766 23.5482C31.5236 23.7445 31.5954 23.8753 31.7388 24.0007C31.93 24.1642 32.1212 24.3277 32.3172 24.4858C32.4224 24.5676 32.4415 24.6548 32.365 24.7802C32.0113 25.3253 31.6623 25.8704 31.2942 26.4373L30.3333 25.5379C30.2998 25.5433 30.2807 25.5379 30.2711 25.5488C29.8695 26.0121 29.4393 26.4482 29.0712 26.9443C28.8226 27.2768 28.8608 27.3585 29.0903 27.7074C29.1237 27.7565 29.1476 27.811 29.2098 27.9254C28.6218 28.3997 28.0529 28.8957 27.4505 29.3373C27.0776 29.6098 26.6569 29.7952 26.2506 30.0023C26.1215 30.0677 26.0593 30.1277 26.0689 30.2967C26.0832 30.5365 26.0737 30.7818 26.0737 31.0326H27.6417C27.6274 31.0925 27.6035 31.1579 27.5796 31.2124C27.3166 31.6758 27.0298 32.1282 26.7955 32.6079C26.0545 34.107 25.3279 35.6224 24.5964 37.1323C24.5343 37.2577 24.4578 37.3831 24.4291 37.5248C24.3383 37.9282 24.104 37.999 23.7885 37.9554C23.6116 37.9336 23.4252 37.95 23.2244 37.95V36.5763C22.9567 36.6145 22.7176 36.6363 22.4786 36.6908C22.4212 36.7017 22.3591 36.8271 22.3447 36.9088C22.2874 37.3122 22.2587 37.721 22.2013 38.1244C22.1153 38.7513 22.0101 39.3727 21.9145 39.9996H20.5759V36.2274H19.3807V39.9996H18.0612Z" fill="black"/>
<path d="M16.7128 3.48828H23.2815V3.79899C23.2815 6.34465 23.2815 8.88485 23.2767 11.4305C23.2767 11.6376 23.3245 11.7521 23.4871 11.8557C24.6727 12.6188 25.6432 13.6545 26.3316 14.9901C26.6328 15.5679 26.8431 16.2111 27.0678 16.838C27.1395 17.0342 27.2112 17.1214 27.3929 17.0887C27.7706 17.0288 28.1482 16.9742 28.5307 16.9143C28.6406 16.8979 28.7267 16.8707 28.7793 17.0288C29.0757 17.9718 29.1283 18.9203 28.8988 19.8906C28.8462 20.1141 28.7363 20.1631 28.545 20.125C28.2295 20.065 27.914 20.0378 27.5985 19.9887C27.4646 19.9669 27.412 20.0214 27.3881 20.1686C27.3021 20.6864 27.2064 21.1988 27.13 21.7167C27.1252 21.8093 27.1634 21.8966 27.2256 21.9511C27.455 22.1092 27.6989 22.2509 27.9427 22.3817C28.2247 22.5398 28.2678 22.5834 28.1291 22.8941C27.7945 23.6355 27.4359 24.3605 27.0821 25.0909C26.9961 25.2708 26.8766 25.3144 26.714 25.1672C26.4607 24.9383 26.1882 24.7257 25.9109 24.4967C25.777 24.6766 25.6479 24.851 25.5189 25.02C24.9595 25.7178 24.3046 26.3065 23.5827 26.7698C23.1907 27.0151 22.813 27.2713 22.3732 27.3913C22.2106 27.4349 22.1819 27.5384 22.2154 27.7129C22.3493 28.3942 22.4736 29.0811 22.6026 29.7625C22.617 29.8497 22.6313 29.9369 22.6504 30.0568H17.3391C17.4347 29.5608 17.5256 29.0756 17.6212 28.5905C17.6785 28.2907 17.7311 27.9854 17.7885 27.6856C17.8172 27.533 17.7837 27.4512 17.6451 27.4022C16.23 26.8843 15.097 25.9086 14.1695 24.6058C14.1456 24.5676 14.1265 24.5294 14.1074 24.4913C13.8205 24.7311 13.5576 24.9383 13.3042 25.1672C13.1417 25.3144 13.0126 25.3035 12.9122 25.1018C12.5536 24.3659 12.2047 23.6191 11.8557 22.8778C11.7361 22.627 11.8461 22.5016 12.0421 22.3981C12.2955 22.2672 12.5393 22.1146 12.7783 21.9511C12.8357 21.9129 12.8739 21.7712 12.8644 21.6894C12.7927 21.1988 12.6971 20.7082 12.6254 20.2176C12.6014 20.0377 12.5489 19.9669 12.3815 19.9941C12.0756 20.0487 11.7648 20.0705 11.4589 20.1304C11.2676 20.1686 11.1577 20.1086 11.1051 19.8851C10.8852 18.9366 10.9282 17.9391 11.2294 17.0233C11.282 16.8598 11.3728 16.8979 11.478 16.9143C11.8557 16.9742 12.2333 17.0288 12.611 17.0887C12.7783 17.116 12.8644 17.0506 12.9218 16.8543C13.4094 15.1209 14.2795 13.6872 15.5607 12.5916C15.8762 12.319 16.2013 12.0683 16.5407 11.8393C16.6889 11.7358 16.7272 11.6322 16.7272 11.4523C16.7224 8.90665 16.7224 6.36645 16.7224 3.8208L16.7128 3.48828ZM13.3472 19.4545C13.4715 23.9462 16.4738 27.1187 20.5278 26.8898C23.9795 26.6935 26.6949 23.3138 26.628 19.3128C26.5515 14.7666 23.3962 11.6158 19.6816 11.8175C16.0292 12.0138 13.395 15.279 13.3472 19.4545Z" fill="black"/>
<path d="M24.5345 9.27753C24.4532 8.92866 24.6301 8.80329 24.8882 8.71062C26.3033 8.22547 27.7184 7.72942 29.1335 7.23337C30.2044 6.85725 31.2848 6.51383 32.3461 6.09955C33.5556 5.62531 34.7412 5.0693 35.9508 4.58415C37.0981 4.12081 38.2598 3.70108 39.412 3.26499C39.5411 3.21593 39.6654 3.14507 39.7944 3.10691C39.8566 3.09056 39.9283 3.11236 39.9952 3.11781C39.9904 3.19413 40.0048 3.28134 39.9713 3.34676C39.6414 4.04995 39.3164 4.75859 38.9674 5.44542C38.5658 6.24128 38.1451 7.02078 37.7148 7.79484C37.6097 7.95837 37.4615 8.08374 37.2894 8.1437C35.5826 8.72697 33.8712 9.28843 32.1597 9.86079C31.0075 10.2424 29.8554 10.6294 28.7032 11.011C28.4116 11.1091 28.12 11.1963 27.8284 11.2944C27.4698 11.4144 27.1161 11.5452 26.7575 11.6542C26.6906 11.676 26.5758 11.6487 26.5376 11.5997C26.0165 10.8856 25.3807 10.3296 24.7257 9.79538C24.5536 9.6591 24.4628 9.51738 24.5345 9.27753ZM15.4703 9.33749C15.5372 9.53373 15.4321 9.66456 15.2743 9.79538C14.6146 10.335 13.9644 10.891 13.4481 11.6215C13.4146 11.6706 13.3046 11.6815 13.2425 11.6596C12.4537 11.398 11.6697 11.1309 10.8856 10.8692C10.1733 10.6348 9.46098 10.4059 8.75344 10.1715C6.75033 9.50647 4.74722 8.83599 2.74411 8.17096C2.49074 8.08374 2.31863 7.92021 2.17999 7.64221C1.72583 6.74823 1.23342 5.87606 0.774471 4.98208C0.501972 4.45878 0.267718 3.90822 0.0286841 3.36856C-0.00478068 3.2977 0.00956137 3.19958 0 3.11781C0.076491 3.11781 0.157763 3.09601 0.224692 3.12326C1.19039 3.49939 2.15131 3.87551 3.11701 4.26254C4.4556 4.79674 5.78941 5.34185 7.128 5.85425C8.12717 6.24128 9.13589 6.60105 10.1494 6.95537C11.4258 7.40236 12.7118 7.83299 13.9883 8.27453C14.3516 8.39991 14.715 8.55254 15.0735 8.69972C15.5277 8.89595 15.4416 8.80874 15.4703 9.33749ZM10.5892 29.67C11.139 30.7384 11.6744 31.7796 12.2003 32.8262C12.2338 32.9134 12.2481 33.0115 12.2433 33.1096C12.2242 34.1344 12.2003 35.1592 12.1812 36.184C12.186 36.2876 12.2003 36.3966 12.2194 36.5002L12.1621 36.5547C12.1143 36.4893 12.0473 36.4348 12.0186 36.3585C11.6888 35.5245 11.1964 34.8322 10.5892 34.2489C10.2068 33.8782 9.73348 33.8837 9.29365 34.0418C8.22278 34.4233 7.16625 34.8485 6.10494 35.2574C5.98542 35.301 5.88024 35.4045 5.76073 35.4427C5.63643 35.4863 5.50257 35.4972 5.37349 35.4754C4.752 35.3391 4.13051 35.1919 3.50902 35.0393C3.45644 35.0284 3.38473 34.9848 3.37038 34.9412C3.35604 34.903 3.40385 34.8104 3.44687 34.7831C3.92016 34.467 4.38867 34.1453 4.87152 33.8564C5.60296 33.4203 6.34875 33.0115 7.08976 32.5918C7.75905 32.2102 8.42835 31.8286 9.10243 31.458C9.28409 31.3598 9.31278 31.2399 9.24585 31.0491C9.2076 30.951 9.1837 30.842 9.15023 30.7384C9.03072 30.3514 9.02593 30.3459 9.37014 30.1879C9.76694 30.0025 10.1829 29.839 10.5892 29.67ZM27.7806 36.5111C27.7949 36.4184 27.8093 36.3258 27.8093 36.2331C27.7949 35.2083 27.7758 34.1835 27.7567 33.1587C27.7567 33.0551 27.7375 32.9297 27.7806 32.848C28.3112 31.7959 28.8514 30.7439 29.4012 29.6646C29.8602 29.8662 30.3287 30.0788 30.802 30.286C30.9263 30.3405 30.9406 30.4332 30.8976 30.5694C30.8354 30.7493 30.7876 30.9292 30.7302 31.1091C30.6824 31.2617 30.7063 31.3598 30.8498 31.4362C31.9541 32.0467 33.0584 32.6463 34.1532 33.2786C34.8225 33.6711 35.4679 34.1235 36.1276 34.5433C36.2615 34.625 36.4001 34.6904 36.534 34.7722C36.5818 34.7995 36.6105 34.8703 36.644 34.9194C36.5914 34.963 36.5483 35.0284 36.491 35.0448C35.879 35.1919 35.2671 35.3446 34.6504 35.47C34.4974 35.5027 34.3444 35.4809 34.201 35.4154C33.0298 34.8049 31.8107 34.3634 30.5677 33.9982C29.8076 33.7801 29.2865 34.2326 28.861 34.8431C28.5216 35.3282 28.1296 35.7807 27.9622 36.4021C27.9479 36.462 27.881 36.5002 27.8332 36.5493L27.7806 36.5111ZM36.6583 9.69726C36.4432 10.0843 36.2328 10.4822 36.0129 10.8638C35.793 11.2454 35.5683 11.616 35.334 11.9867C35.2719 12.0848 35.1811 12.1611 35.0759 12.1993C33.9716 12.5373 32.8624 12.8698 31.7533 13.1969C30.7302 13.4967 29.7024 13.7856 28.6746 14.0745C28.5742 14.1072 28.4738 14.1235 28.3686 14.1344C28.3112 14.1344 28.2539 14.1072 28.2108 14.0581C27.9144 13.5566 27.6228 13.0497 27.2977 12.4882C30.3621 11.3871 33.4696 10.4223 36.6153 9.59369L36.6583 9.69726ZM3.33214 9.58279C6.52086 10.4223 9.62352 11.3871 12.731 12.4991C12.4872 12.8752 12.272 13.2023 12.0617 13.5294C12.0043 13.6166 11.9469 13.7038 11.8991 13.7965C11.6983 14.1671 11.6983 14.1835 11.3207 14.0745C9.58528 13.573 7.84989 13.066 6.11928 12.5591C5.7177 12.4446 5.31612 12.3301 4.91933 12.1993C4.82849 12.1721 4.74722 12.1121 4.68985 12.0303C4.24047 11.2781 3.80543 10.5204 3.37038 9.75722C3.35604 9.74087 3.35604 9.70816 3.33214 9.58279ZM16.0822 2.87251C16.2974 2.61631 16.4742 2.40917 16.6416 2.19658C17.1627 1.5261 17.6838 0.850164 18.2144 0.185132C18.2957 0.0870131 18.4056 0.0216002 18.5252 0.00524693C19.5052 -0.00565523 20.4852 -0.00565523 21.4653 0.00524693C21.5705 0.010698 21.6756 0.0543066 21.7521 0.141524C22.4071 0.959185 23.0572 1.7823 23.7026 2.60541C23.76 2.67627 23.8126 2.75804 23.8986 2.88342C23.7552 2.92702 23.6548 2.97608 23.5544 2.98153C23.1194 3.00879 22.6796 3.0415 22.2445 3.0415C20.7147 3.04695 19.1849 3.04695 17.6599 3.0415C17.2487 3.0415 16.8328 3.00879 16.4217 2.98153C16.3213 2.97063 16.2304 2.92157 16.0822 2.87251ZM11.2585 14.9957C11.0912 15.4318 10.9478 15.8406 10.7709 16.2331C10.7374 16.3094 10.5701 16.3585 10.4697 16.3421C9.83865 16.2495 9.2076 16.1241 8.58133 16.026C7.87857 15.9115 7.17581 15.8079 6.47305 15.7043C6.32485 15.6825 6.22923 15.6389 6.15752 15.47C5.93761 14.9466 5.70336 14.4342 5.47867 13.9109C5.4452 13.8346 5.44998 13.742 5.43564 13.6602C5.50257 13.6493 5.5695 13.6111 5.63165 13.6275C7.128 13.9709 8.62914 14.3198 10.1207 14.6741C10.5079 14.7613 10.8808 14.8867 11.2585 14.9957ZM28.7176 14.9903C29.2721 14.8376 29.8028 14.6795 30.3382 14.5487C31.6481 14.238 32.958 13.9437 34.2727 13.6438C34.3636 13.622 34.464 13.6547 34.5596 13.6656C34.5452 13.7692 34.5213 13.8673 34.4879 13.9655C34.2775 14.4615 34.0624 14.963 33.8329 15.4481C33.7803 15.5572 33.6608 15.6716 33.5604 15.688C32.3652 15.8842 31.1605 16.0696 29.9653 16.2549C29.7454 16.2876 29.4825 16.4184 29.3199 16.3203C29.1574 16.2222 29.1048 15.906 29.0092 15.6771C28.9088 15.47 28.8275 15.2574 28.7176 14.9903ZM24.7831 21.8859C24.5393 21.8368 24.2954 21.7987 24.0612 21.7278C23.9369 21.6951 23.8747 21.7223 23.8126 21.8423C23.7218 22.033 23.6166 22.2129 23.4971 22.3874C23.411 22.5127 23.4206 22.6 23.4971 22.7199C23.6357 22.9379 23.7552 23.1778 23.8939 23.4013C24.0229 23.6084 23.999 23.7937 23.8413 23.9518C23.607 24.1862 23.368 24.4097 23.1242 24.6278C22.9616 24.7749 22.7991 24.7586 22.6509 24.5842C22.4931 24.4043 22.3401 24.2189 22.1919 24.0336C22.0772 23.8919 21.9673 23.8701 21.8095 23.9464C21.5848 24.0608 21.3505 24.1535 21.1115 24.2244C20.9394 24.2734 20.8773 24.3661 20.8773 24.5623C20.8725 24.7913 20.8581 25.0148 20.8294 25.2383C20.8008 25.489 20.6669 25.6417 20.4518 25.6526C20.1506 25.6689 19.8494 25.6689 19.5482 25.6526C19.3188 25.6417 19.1801 25.489 19.1562 25.2219C19.1323 24.9875 19.1132 24.7531 19.1084 24.5187C19.1084 24.3552 19.0463 24.2789 18.9124 24.2298C18.6638 24.1426 18.4104 24.0499 18.1714 23.9355C18.0232 23.8646 17.918 23.8919 17.8128 24.0227C17.6646 24.2135 17.5069 24.3934 17.3491 24.5732C17.1913 24.7531 17.0288 24.764 16.8615 24.606C16.6368 24.3988 16.4121 24.1971 16.197 23.9845C15.9818 23.7719 15.9723 23.6357 16.1205 23.3686C16.2496 23.1396 16.393 22.9216 16.5029 22.6817C16.5412 22.6054 16.5268 22.4691 16.4934 22.3819C16.4408 22.2511 16.326 22.153 16.283 22.0221C16.1778 21.6951 15.9914 21.6624 15.7285 21.755C15.5564 21.815 15.3699 21.8259 15.1882 21.8477C14.954 21.8804 14.8345 21.7387 14.7771 21.4988C14.7102 21.2099 14.6385 20.921 14.5715 20.6321C14.5046 20.3432 14.5715 20.1688 14.8201 20.0489C15.0209 19.9562 15.2169 19.8472 15.4225 19.7872C15.7332 19.6945 15.5898 19.4165 15.6233 19.2094C15.6567 19.0241 15.542 18.9804 15.4225 18.9314C15.2217 18.8496 15.0209 18.7569 14.8249 18.6588C14.5668 18.5335 14.4998 18.3645 14.5763 18.0538C14.648 17.7649 14.7102 17.4759 14.7819 17.187C14.8584 16.8818 15.04 16.7728 15.303 16.8709C15.4321 16.9199 15.5611 16.9581 15.695 16.9908C16.0057 17.0726 16.0631 16.9854 16.2687 16.7291C16.6129 16.304 16.5364 15.9714 16.2543 15.5517C15.9006 15.0284 15.9388 14.9575 16.3882 14.5433C16.5412 14.4015 16.6942 14.2544 16.8519 14.1126C17.0384 13.9436 17.1866 13.9491 17.3587 14.1399C17.5308 14.3307 17.6838 14.5433 17.8606 14.7232C17.9371 14.794 18.0327 14.8213 18.1284 14.7995C18.4009 14.7068 18.6638 14.5705 18.9363 14.4724C19.0654 14.4233 19.1132 14.3525 19.118 14.1999C19.1275 13.9491 19.1419 13.6929 19.1753 13.4422C19.204 13.2132 19.3331 13.0987 19.5434 13.0987H20.4757C20.686 13.0987 20.8103 13.2132 20.839 13.4422C20.8677 13.6929 20.8677 13.9491 20.9059 14.1999C20.9251 14.3034 20.9824 14.3961 21.0589 14.4506C21.3266 14.5869 21.6039 14.7068 21.886 14.7995C21.9816 14.8213 22.082 14.794 22.1585 14.7232C22.3354 14.5433 22.4931 14.3361 22.6557 14.1344C22.8087 13.9491 22.976 13.9382 23.1433 14.0908C23.3823 14.3034 23.6118 14.5324 23.8413 14.7559C24.0134 14.9248 24.0421 15.1047 23.8986 15.3282C23.7552 15.5517 23.6548 15.7752 23.5162 15.9824C23.4206 16.1295 23.4254 16.2277 23.5305 16.3585C23.6309 16.4784 23.7122 16.6147 23.7696 16.7673C23.8652 17.029 24.0469 17.0399 24.2429 17.0072C24.4054 16.9744 24.5679 16.9254 24.7257 16.8654C24.9647 16.7837 25.1368 16.8654 25.2086 17.1325C25.3042 17.4814 25.3854 17.8303 25.4572 18.1791C25.5097 18.419 25.3759 18.5553 25.2086 18.6425C24.9982 18.7515 24.7831 18.8442 24.5632 18.9314C24.4293 18.9804 24.3767 19.0513 24.3815 19.2257C24.3958 19.6891 24.3863 19.6891 24.7592 19.8581C24.9074 19.9235 25.0604 19.978 25.2038 20.0543C25.438 20.1742 25.505 20.3487 25.4332 20.6212C25.3615 20.8938 25.2898 21.1772 25.2325 21.4607C25.1655 21.7496 25.0508 21.9131 24.7831 21.8859ZM19.988 22.5782C20.1984 22.5345 20.4087 22.5018 20.6143 22.4473C22.1967 22.033 23.1481 20.316 22.7035 18.5553C22.2111 16.6038 20.7673 15.9769 19.2518 16.3421C17.8606 16.6801 17.0049 18.2009 17.2153 19.8744C17.4113 21.368 18.5252 22.4909 19.988 22.5782Z" fill="black"/>
</g>
<defs>
<clipPath id="clip0_283_111">
<rect width="40" height="40" fill="white"/>
</clipPath>
</defs>
</svg>
