<svg width="40" height="40" viewBox="0 0 40 40" fill="none" xmlns="http://www.w3.org/2000/svg">
<g clip-path="url(#clip0_283_118)">
<rect width="40" height="40" fill="white"/>
<path d="M17.8166 22.1379C17.4656 22.265 17.1276 22.4222 16.7701 22.5069C14.9437 22.9182 13.3122 22.3497 12.1422 20.9585C11.7977 20.5532 11.6937 20.0512 11.6677 19.537C11.6612 19.3918 11.5767 19.2406 11.4987 19.1136C11.1802 18.5874 10.7773 18.0974 10.5563 17.5409C10.4133 17.1841 10.4978 16.7304 10.5628 16.3312C10.6148 15.9985 10.7383 15.6779 10.5108 15.3755C10.4068 15.2364 10.2768 15.1215 10.1208 15.0368C9.83478 14.8856 9.78278 14.7343 10.0233 14.5287C10.1533 14.4077 10.3158 14.3291 10.4913 14.2928C11.4727 14.1658 12.4542 14.1537 13.4227 14.3835C14.4302 14.6194 15.2881 15.1336 16.1396 15.6417C16.6986 15.9864 17.2381 16.3554 17.7581 16.7546C18.2716 17.1357 18.7591 17.547 19.2725 17.9583C19.279 17.8736 19.2725 17.795 19.2595 17.7103C19.1165 17.1841 18.8566 16.6881 18.4991 16.2586C18.4536 16.2042 18.3366 16.1921 18.2521 16.1679C18.0181 16.1014 17.7646 16.0772 17.5631 15.9683C17.1731 15.7505 17.0821 15.315 17.3226 15.0307C17.5826 14.7283 18.2131 14.6497 18.4861 14.9461C18.8306 15.3271 19.188 15.7263 19.409 16.1739C19.6625 16.6881 19.773 17.2627 19.942 17.8131C19.955 17.8555 19.9745 17.8978 20.007 18.0067C20.1175 17.5954 20.202 17.2506 20.2995 16.9058C20.5075 16.2163 20.8845 15.5751 21.4045 15.0489C21.658 14.7827 21.9505 14.7102 22.308 14.813C22.828 14.9582 22.9905 15.4602 22.6265 15.8352C22.399 16.0651 22.1195 16.2042 21.762 16.1739C21.6905 16.1679 21.5865 16.1739 21.554 16.2102C21.125 16.7304 20.7935 17.299 20.709 18.0067C21.0795 17.6922 21.4045 17.4018 21.749 17.1357C22.958 16.1981 24.2189 15.3271 25.6489 14.6981C26.7799 14.196 27.9823 14.1355 29.2043 14.2565C29.4903 14.2867 29.7893 14.2746 30.0038 14.5166C30.2183 14.7585 30.1923 14.8977 29.8998 15.0307C29.5293 15.1941 29.3148 15.5691 29.3798 15.9441C29.4318 16.2223 29.5423 16.4885 29.5683 16.7667C29.6528 17.6982 29.0808 18.3817 28.5543 19.0894C28.4438 19.2285 28.3788 19.3918 28.3593 19.5673C28.3138 20.2447 28.0668 20.8254 27.5533 21.3274C26.7669 22.1259 25.6684 22.5976 24.5114 22.646C23.9134 22.6763 23.3024 22.6097 22.7435 22.3436C22.5745 22.265 22.3925 22.1984 22.2235 22.1259L22.165 22.2347C22.5745 22.4283 22.984 22.6279 23.3934 22.8215C24.1539 23.1783 24.9274 23.511 25.6814 23.8921C26.2469 24.1764 26.4939 24.6603 26.4874 25.247C26.4809 25.9547 26.2794 26.6503 25.9024 27.2672C25.6554 27.6786 25.6359 27.6906 25.9999 28.0112C26.4744 28.4467 26.9944 28.858 27.5078 29.2815C28.6713 30.2371 29.4903 31.4953 29.8673 32.8925C30.0688 33.6365 30.0168 34.3684 29.6073 35.064C29.2628 35.6507 28.4113 35.935 27.7938 35.6447C27.0269 35.2878 26.7084 34.5438 27.1503 33.9027C27.6118 33.2312 27.4883 32.6264 27.2153 31.955C26.8189 30.9872 26.3379 30.0738 25.5644 29.3117C25.4474 29.1968 25.3174 29.0818 25.1874 28.979C24.8949 28.7492 24.6479 28.7431 24.3359 28.9488C23.5299 29.475 23.1919 29.475 22.4705 28.8459C21.398 27.9084 20.54 26.8378 20.1955 25.4647C20.176 25.3921 20.085 25.3377 20.033 25.2712C19.981 25.3377 19.903 25.3921 19.8835 25.4647C19.5 26.8136 18.6616 27.9024 17.5891 28.8399C17.3876 29.0093 17.1601 29.1484 16.9131 29.2512C16.6076 29.4024 16.2306 29.3601 15.9771 29.1423C15.3791 28.6645 15.1191 28.6766 14.5862 29.2149C13.9037 29.9045 13.3577 30.6727 13.0197 31.5618C12.8702 31.961 12.7142 32.3602 12.5972 32.7655C12.5062 33.08 12.5907 33.3704 12.7727 33.6607C12.9157 33.9027 13.0522 34.1748 13.0847 34.441C13.1432 34.9854 12.6427 35.6205 12.0577 35.7112C11.3102 35.8322 10.7838 35.6265 10.4393 35.0398C9.97778 34.2474 10.0168 33.4369 10.2768 32.6082C10.7578 31.0961 11.7132 29.8984 13.0067 28.9064C13.3967 28.604 13.7477 28.2592 14.1377 27.9568C14.4042 27.7511 14.3132 27.5636 14.2027 27.3217C13.9882 26.8499 13.7802 26.372 13.6437 25.8821C13.5267 25.4587 13.5137 25.0111 13.7152 24.5756C13.9557 24.0614 14.4432 23.8195 14.9372 23.5957C15.8211 23.1904 16.7051 22.7912 17.5891 22.3859C17.6866 22.3315 17.7841 22.271 17.8751 22.2045L17.8166 22.1379ZM18.5706 22.8819C17.7191 23.2207 17.0041 23.753 16.3996 24.4062C16.0226 24.8175 16.0421 25.4587 16.3801 25.9002C16.6596 26.2632 16.9976 26.3539 17.4591 26.2087C18.1546 25.997 18.6161 25.5131 19.0126 24.9808C19.136 24.8175 19.2465 24.5635 19.1945 24.4002C19.032 23.88 18.7851 23.39 18.5706 22.8819ZM21.4695 22.8154C21.2225 23.39 21.008 23.8921 20.8 24.3941C20.7805 24.4727 20.787 24.5514 20.826 24.624C21.177 25.4103 21.775 25.9547 22.6395 26.2329C22.9125 26.3297 23.2179 26.2692 23.4259 26.0877C24.0044 25.6341 24.0369 24.7631 23.4909 24.261C23.3349 24.1219 23.1919 23.9647 23.023 23.8437C22.516 23.4989 21.996 23.1602 21.4695 22.8154ZM16.4126 19.8213L16.3931 19.7185C16.3346 19.7003 16.2696 19.6882 16.2111 19.6882C15.5156 19.6943 14.9177 19.4584 14.4172 19.0229C13.7607 18.4543 13.1107 17.8857 12.4802 17.2929C12.1812 17.0147 11.9342 16.682 11.6157 16.3131C11.5572 16.4703 11.4792 16.5792 11.4727 16.6941C11.4207 17.4321 11.6352 18.0974 12.1877 18.6297C13.0912 19.5007 14.2222 19.9362 15.5091 19.9967C15.8016 20.0028 16.1071 19.8818 16.4126 19.8213ZM23.6274 19.7064L23.6079 19.8273C23.9069 19.8878 24.2059 20.0088 24.4984 19.9967C25.7984 19.9423 26.9359 19.5007 27.8458 18.6116C28.3853 18.0853 28.5933 17.426 28.5478 16.7002C28.5413 16.5792 28.4503 16.4643 28.4243 16.3977C27.6638 17.1357 26.9619 17.8736 26.2014 18.5511C25.6619 19.035 25.0899 19.5189 24.2969 19.6398C24.0759 19.6701 23.8549 19.6822 23.6274 19.7064ZM12.8637 20.033L12.7922 20.0693C12.9287 20.2991 13.0457 20.5532 13.2147 20.7588C13.7737 21.4303 14.5797 21.6722 15.4376 21.8174C16.4581 21.9928 17.4071 21.7811 18.3171 21.3637C18.4211 21.3153 18.4926 21.2306 18.5316 21.1278C18.6161 20.8193 18.6681 20.4988 18.7266 20.1782C18.7656 19.9604 18.5576 19.6156 18.3431 19.5007C18.2651 20.2629 17.8036 20.7528 17.0496 21.0129C16.2176 21.2972 15.3921 21.2669 14.5927 20.904C14.0142 20.6258 13.4422 20.3173 12.8637 20.033ZM27.1958 19.9544C26.9359 20.1056 26.7604 20.2266 26.5719 20.3173C26.0259 20.5774 25.4864 20.8617 24.9144 21.0673C24.1474 21.3395 23.3674 21.2185 22.6525 20.8859C22.048 20.6076 21.697 20.1237 21.619 19.4644C21.476 19.6761 21.281 19.8878 21.2875 20.0995C21.3005 20.4867 21.424 20.8677 21.515 21.2488C21.528 21.3032 21.6255 21.3456 21.6905 21.3698C22.048 21.4968 22.4055 21.648 22.7825 21.7387C23.9719 22.0472 25.1029 21.8537 26.1559 21.2851C26.7019 21.0129 27.0853 20.5229 27.1958 19.9544ZM20.007 19.0894C19.11 20.0028 19.11 22.9424 20.0005 23.88C20.904 22.9848 20.904 20.0451 20.007 19.0894ZM13.2082 29.8621L13.2407 29.8863L12.6362 30.34C11.7197 31.0356 11.2322 31.9731 11.0178 33.0135C10.9138 33.5095 10.9853 34.0478 11.0502 34.5559C11.0827 34.8039 11.5182 34.9672 11.7262 34.8886C11.9147 34.8221 12.0057 34.5075 11.9147 34.2414C11.5182 33.0498 11.7002 31.9429 12.4542 30.9146C12.7142 30.5698 12.9547 30.213 13.2082 29.8621ZM26.8839 29.7956L26.7994 29.8561C27.0788 30.2432 27.3583 30.6303 27.6313 31.0235C28.3138 32.0215 28.4763 33.0861 28.1123 34.2232C28.0733 34.3382 28.0668 34.4591 28.0798 34.5801C28.1188 34.8644 28.2813 34.9491 28.5803 34.8825C28.9118 34.81 29.0353 34.568 29.0743 34.3079C29.1978 33.328 28.9573 32.3421 28.3918 31.5074C27.9758 30.8783 27.3908 30.3581 26.8839 29.7956ZM15.2361 18.17C14.9502 17.9885 14.6447 17.8555 14.4237 17.6498C13.9167 17.1599 13.4552 16.6215 12.9612 16.1135C12.6492 15.7989 12.3177 15.4965 11.9797 15.2001C11.8692 15.1033 11.7067 14.9521 11.5767 15.1396C11.5117 15.2303 11.5442 15.4299 11.6092 15.5328C12.1227 16.3675 12.9157 16.9784 13.6892 17.5893C14.1182 17.9341 14.6317 18.164 15.2361 18.17ZM24.7909 18.1942C25.0054 18.1458 25.2264 18.1156 25.4409 18.0551C26.1494 17.8494 26.6629 17.3655 27.1568 16.8998C27.6248 16.4582 28.0343 15.9622 28.4503 15.4723C28.5088 15.4058 28.4438 15.2424 28.4373 15.1275C28.3203 15.1396 28.1708 15.1094 28.0993 15.1638C27.7743 15.4118 27.4233 15.6538 27.1763 15.9622C26.4874 16.803 25.8179 17.6498 24.7909 18.1942ZM31.0308 10.349C30.8813 10.5063 30.7513 10.7059 30.5693 10.8208C29.9193 11.2261 29.5618 11.8007 29.3343 12.4721C29.1978 12.8834 29.1913 12.8532 28.7493 12.7504C27.2803 12.3996 25.7919 12.2544 24.3359 12.7262C23.8094 12.8955 23.3544 13.2585 22.8735 13.5367C22.763 13.6093 22.6655 13.694 22.568 13.7787C22.0025 12.956 21.359 12.1939 20.9365 11.341C20.514 10.4882 20.306 9.53247 19.981 8.57073C19.916 8.78849 19.8445 8.96995 19.8185 9.15746C19.6235 10.464 19.0645 11.6979 18.1936 12.7322C17.9661 12.9984 17.7841 13.3008 17.5826 13.5911C17.4981 13.7121 17.4136 13.7726 17.2771 13.6456C16.0421 12.4903 14.4952 12.3512 12.8702 12.4963C12.2722 12.5508 11.6807 12.6838 11.0892 12.8109C10.8878 12.8532 10.8098 12.8109 10.7513 12.6536C10.6798 12.4661 10.6018 12.2786 10.5303 12.085C10.3418 11.583 9.98428 11.2019 9.53579 10.8813C9.32779 10.7362 9.1653 10.5366 8.9638 10.343C9.63978 10.1192 10.5563 10.4579 10.9008 11.0023C10.9528 11.087 10.9853 11.1959 11.0567 11.2624C11.1542 11.3531 11.3492 11.4923 11.3882 11.4681C11.5182 11.3773 11.6872 11.2201 11.6807 11.093C11.6612 10.9055 11.5702 10.7301 11.4272 10.597C10.8553 10.095 10.1728 9.82281 9.37329 9.83491C9.1263 9.84096 8.8728 9.87725 8.63231 9.8591C8.50881 9.83491 8.40482 9.76233 8.35282 9.65345C8.07982 8.81268 8.11232 7.96586 8.54781 7.18558C9.49029 5.498 11.0632 4.66328 13.0457 4.63303C14.5667 4.60884 15.6716 5.29839 15.8861 6.85895C15.8991 6.97993 15.9121 7.1009 15.9381 7.21583C16.0486 7.88723 15.8926 8.45581 15.2426 8.84897C14.5472 9.26633 13.8192 9.35706 13.0522 9.03043C12.4022 8.76429 12.1097 8.05659 12.3957 7.45172C12.4672 7.30656 12.5647 7.17349 12.6882 7.06461C12.9352 6.82871 13.2992 6.73193 13.6437 6.79847C13.7672 6.82266 13.8907 6.99807 13.9492 7.1251C13.9752 7.19163 13.8322 7.30656 13.7867 7.40938C13.7282 7.53036 13.6112 7.68157 13.6437 7.7844C13.6957 7.95377 14.1442 8.01425 14.3067 7.88723C14.5212 7.72996 14.6382 7.47592 14.6057 7.21583C14.5277 6.25408 13.6307 5.53429 12.5972 5.60687C12.4932 5.61292 12.3957 5.63107 12.2982 5.64921C11.7262 5.77019 11.1347 5.89116 10.8293 6.43554C10.3288 7.3368 10.4718 8.44371 11.3752 9.14536C11.5897 9.31472 11.8237 9.45989 12.0512 9.61716C12.7922 10.1313 13.6177 10.1494 14.5017 10.0527C15.6586 9.92564 16.5881 9.39335 17.4006 8.68566C17.8946 8.2562 18.1221 7.65133 18.2001 7.03437C18.3301 5.98189 18.1611 4.97781 17.4981 4.08865C17.2316 3.72573 16.9261 3.3991 16.3866 3.39305C15.8666 3.387 15.5871 3.6229 15.5481 4.11285C15.5416 4.19148 15.5156 4.26406 15.4636 4.32455C15.3401 4.20963 15.1646 4.1189 15.0996 3.97978C14.5082 2.73375 15.4376 1.66918 16.6856 1.63288C16.8676 1.62683 17.0691 1.74781 17.2381 1.83854C17.3746 1.91112 17.4851 2.02605 17.6866 2.17727C17.7386 1.88693 17.8101 1.66918 17.8166 1.45142C17.8231 0.949381 17.9856 0.519924 18.4341 0.21144C18.7591 -0.0123613 19.1295 -0.0547021 19.5845 0.0178822C18.6486 0.665092 18.9411 1.43932 19.227 2.18331C19.4675 2.81238 19.786 3.41725 20.059 4.01607C20.059 4.02212 20.0785 3.97373 20.098 3.92534C20.3125 3.4112 20.501 2.88496 20.7415 2.38292C20.969 1.92322 21.086 1.42723 21.086 0.925186C21.0795 0.525972 20.8325 0.277976 20.501 0.0662717C21.2875 -0.218017 22.061 0.392901 22.178 0.973576C22.2235 1.22157 22.217 1.47562 22.2495 1.72361C22.269 1.85064 22.334 1.97161 22.412 2.17122C22.932 1.59659 23.5234 1.46352 24.1864 1.80829C24.6154 2.0321 24.9404 2.33453 25.0834 2.79423C25.2784 3.4112 25.0314 4.13704 24.5504 4.27011C24.5374 4.24592 24.5114 4.22172 24.5114 4.19753C24.5179 3.8709 24.4269 3.56846 24.0889 3.44144C23.7184 3.29627 23.2894 3.36886 22.9905 3.6229C22.542 3.98582 22.256 4.45157 22.0805 4.95966C21.7165 6.01818 21.6645 7.08275 22.243 8.09893C22.373 8.35298 22.555 8.58283 22.7695 8.77639C23.8484 9.67159 25.0964 10.1676 26.5589 10.0769C26.9489 10.0466 27.3193 9.94379 27.6638 9.77442C28.3138 9.44779 28.9378 9.07882 29.2758 8.41951C29.6463 7.68762 29.6008 6.96178 29.1393 6.29038C28.7428 5.70365 27.4103 5.42541 26.6174 5.7218C25.9089 5.98794 25.4604 6.57466 25.4474 7.24607C25.4409 7.73601 25.8309 8.0445 26.2339 7.86908C26.3249 7.82674 26.4354 7.72392 26.4419 7.64528C26.4354 7.53641 26.3704 7.44568 26.2729 7.39124C26.0779 7.3247 26.0584 7.22187 26.0974 7.06461C26.1429 6.8771 26.2469 6.76217 26.4679 6.75008C27.0269 6.71378 27.5468 7.03437 27.7158 7.53641C27.8783 8.0203 27.6248 8.67356 27.1763 8.92156C26.2599 9.42965 24.9664 9.21189 24.3489 8.40137C24.1864 8.16547 24.0954 7.89328 24.0954 7.61504C24.1019 7.17349 24.1604 6.73193 24.2839 6.30247C24.5439 5.41332 25.2069 4.88103 26.1689 4.70562C28.3463 4.3185 30.5368 5.32863 31.5182 7.17953C31.9277 7.94772 31.9602 8.77034 31.7197 9.59901C31.6612 9.79862 31.5637 9.86515 31.3232 9.83491C30.4458 9.71998 29.6138 9.84701 28.8923 10.3551C28.6843 10.5124 28.5153 10.7059 28.3853 10.9237C28.2683 11.1233 28.3593 11.3289 28.5868 11.4318C28.8338 11.5406 28.9378 11.3713 29.0223 11.1959C29.3148 10.6091 29.8348 10.3249 30.4978 10.2402C30.6668 10.2281 30.8293 10.2281 30.9983 10.2341C30.9983 10.2825 31.0178 10.3188 31.0308 10.349ZM20.033 6.94363C20.046 6.97388 20.0525 7.00412 20.059 7.04041C20.228 7.95982 20.4945 8.84897 21.1315 9.59901C21.6385 10.1918 22.152 10.7664 22.8735 11.1596C23.7509 11.6314 24.7129 11.8552 25.7009 11.9943C25.9609 12.0245 26.2144 12.0185 26.4744 11.9882C26.5784 11.9761 26.6694 11.8794 26.7669 11.8189C26.6629 11.7765 26.5589 11.704 26.4484 11.6919C25.9024 11.6374 25.3434 11.6314 24.7974 11.5467C23.9264 11.4197 23.1204 11.1233 22.4445 10.591C21.5345 9.8712 21.0275 8.92156 20.7935 7.85094C20.4295 6.18755 20.6245 4.62699 21.8205 3.25998C21.8985 3.1753 21.9245 3.04828 21.9765 2.94545L21.8335 2.87286C20.6895 3.56242 20.371 4.72981 19.9875 5.86092C19.942 5.80043 19.9095 5.72785 19.89 5.64921C19.76 4.82659 19.37 4.11285 18.8761 3.44144C18.6876 3.1874 18.4666 2.93335 18.0506 2.9273C18.0766 3.06642 18.1416 3.19949 18.2391 3.30837C18.6226 3.71968 18.9086 4.20358 19.0775 4.72981C19.474 5.99399 19.4805 7.24607 19.0191 8.5042C18.4731 9.98008 17.4591 11.0144 15.8146 11.4015C15.0736 11.5769 14.2937 11.589 13.5397 11.6858C13.4357 11.6979 13.3447 11.7644 13.2407 11.8068C13.3317 11.8673 13.4292 11.9822 13.5202 11.9822C13.9297 11.9882 14.3392 11.9701 14.7422 11.9217C16.8611 11.6495 18.4081 10.5849 19.3765 8.83688C19.695 8.2562 19.8185 7.57875 20.033 6.94363Z" fill="black"/>
<path d="M32.35 24.9387C32.5255 24.1644 32.636 23.4567 32.402 22.7732C32.168 22.0897 31.7716 21.4849 30.9851 21.2187C30.6211 21.0917 30.2831 21.1159 29.9776 21.3518C29.7306 21.5454 29.6981 21.8054 29.7956 22.0655C29.8281 22.1502 29.9906 22.1986 30.1076 22.253C30.1466 22.2712 30.2116 22.241 30.2636 22.2228C30.6406 22.0958 31.0046 21.993 31.3621 22.2772C31.8171 22.6341 32.1875 22.997 32.233 23.6201C32.285 24.4366 31.9925 25.0657 31.3166 25.5375C30.5106 26.1061 29.6656 26.6263 28.8401 27.1706L28.7621 27.092C28.8921 26.9045 29.0286 26.723 29.1586 26.5295C29.3471 26.2452 29.5161 25.9548 29.7046 25.6766C29.8346 25.477 29.9841 25.2774 30.1401 25.0899C30.3351 24.8661 30.3676 24.4971 30.1986 24.3036C30.0036 24.1039 29.6851 24.0556 29.4251 24.1826C29.1846 24.3217 29.0351 24.6907 29.2041 24.9326C29.4641 25.2955 29.3016 25.5919 29.1391 25.9186C28.8271 26.5416 28.3136 27.0194 27.8522 27.5336C27.5597 27.8541 27.2997 28.1989 27.0072 28.5497C26.8902 28.4651 26.7212 28.3864 26.6367 28.2594C26.5782 28.1687 26.5847 27.9751 26.6497 27.8965C27.0072 27.4791 27.3907 27.086 27.7677 26.6867C27.9302 26.5113 28.1576 26.3722 28.2681 26.1786C28.3916 25.9609 28.4631 25.725 28.4761 25.477C28.4826 25.3076 28.4046 25.1262 28.1056 25.2048C27.8847 25.2592 27.7872 25.108 27.9042 24.9205C28.2551 24.3701 28.7101 23.8983 29.3081 23.5717C29.7696 23.3237 30.2311 23.3418 30.5821 23.614C31.0566 23.983 31.2191 24.4366 31.0111 24.9266C30.8941 25.1988 30.7251 25.4589 30.5821 25.7189C31.3296 25.3621 32.1095 24.0677 31.2581 23.0636C31.0111 22.7732 30.7641 22.749 30.4261 22.9547C29.7371 23.3781 28.9896 23.4204 28.2161 23.2269C28.0341 23.1785 27.8587 23.112 27.6767 23.0575L27.5857 22.9245C27.6897 22.8761 27.8067 22.8337 27.9042 22.7732C28.4306 22.4708 28.6841 22.0051 28.8726 21.4667C28.9831 21.1461 29.1716 20.8014 29.4446 20.5897C30.0686 20.1118 30.7641 20.3296 31.4076 20.6018C32.116 20.8981 32.74 21.3095 33.234 21.878C33.442 22.12 33.7475 22.1563 34.0335 22.0353C34.3065 21.9143 34.586 21.7692 34.781 21.5756C36.1589 20.2146 36.8089 18.6117 36.4319 16.7366C36.2174 15.6902 35.496 15.043 34.3715 14.789C33.5915 14.6136 32.2265 15.1579 32.0965 16.1439C32.0185 16.7245 31.8951 17.2992 32.3045 17.8315C32.714 18.3637 33.26 18.515 33.9295 18.4121C34.443 18.3335 34.859 17.6681 34.5405 17.1601C34.5145 17.1782 34.4885 17.1963 34.469 17.2205C34.2935 17.4746 34.0595 17.6016 33.728 17.529C33.3965 17.4564 33.273 17.2145 33.2015 16.9362C33.1235 16.6641 33.234 16.3737 33.481 16.2165C33.897 15.914 34.456 15.8596 34.9305 16.0652C35.4245 16.2648 35.6195 16.7185 35.678 17.2024C35.8145 18.3274 35.2165 19.1561 34.3715 19.8638C34.0595 20.13 33.6565 20.2025 33.2275 20.2388C32.2915 20.3235 31.4596 20.015 30.6276 19.6945C30.4586 19.634 30.2896 19.5674 30.1271 19.4888C29.9646 19.4041 29.9386 19.2831 30.0491 19.1319C30.5561 18.4424 30.6406 17.6802 30.6536 16.8637C30.6731 15.6418 31.0436 14.5228 32.207 13.7607C32.857 13.3312 33.5655 13.2465 34.3065 13.3917C34.781 13.4824 35.2425 13.6337 35.678 13.8333C36.6529 14.2809 37.0559 15.1277 37.3029 16.0531C37.7774 17.8556 37.6604 19.6098 36.7049 21.2732C36.1329 22.2772 35.2425 23.0091 34.2675 23.6624C33.663 24.0737 33.0325 24.485 32.35 24.9387ZM5.47971 17.148C5.16772 17.65 5.57071 18.2912 6.0582 18.4C7.02018 18.6117 7.95615 17.9766 7.98865 17.0633C8.00815 16.4826 8.02765 15.8838 7.57266 15.4301C6.69518 14.5531 5.49271 14.5047 4.41374 15.3454C3.84826 15.787 3.60776 16.404 3.51676 17.0693C3.36727 18.1883 3.62076 19.2408 4.17975 20.2207C4.52424 20.8256 4.95323 21.3881 5.55771 21.8054C6.1167 22.1926 6.48719 22.1502 6.96168 21.6784C7.60516 21.0191 8.45014 20.5534 9.37962 20.3417C10.1531 20.1662 10.8421 20.4989 11.0826 21.2429C11.2906 21.9083 11.5831 22.4829 12.233 22.8519C12.2655 22.8761 12.2915 22.9124 12.311 22.9486C12.3175 22.9668 12.324 22.991 12.324 23.0091C11.5116 23.4325 10.3546 23.4446 9.58761 22.9486C9.23012 22.7188 8.95713 22.7793 8.70363 23.1301C8.12515 23.9285 8.39814 24.7088 8.97663 25.3742C9.10012 25.5133 9.26262 25.6282 9.40562 25.7492C9.23662 25.3621 9.01563 25.0113 8.93763 24.6302C8.78163 23.8983 9.69811 23.1845 10.4456 23.4507C11.2256 23.735 11.7391 24.3157 12.142 24.9689C12.2785 25.1927 12.051 25.2411 11.8886 25.1927C11.6676 25.1322 11.6091 25.2472 11.5636 25.3863C11.4206 25.7734 11.6156 26.0698 11.8886 26.342C12.2785 26.7291 12.6815 27.1101 13.078 27.4973C13.1235 27.5396 13.1625 27.588 13.2015 27.6364C13.598 28.1263 13.572 28.2352 13.026 28.5195C12.597 28.0356 12.1485 27.5698 11.7521 27.0739C11.4076 26.6384 11.0891 26.1847 10.7901 25.7189C10.6276 25.4951 10.6276 25.2048 10.7901 24.981C11.0436 24.5878 10.7641 24.0858 10.3221 24.116C10.1271 24.1281 9.8736 24.2552 9.77611 24.4064C9.62661 24.6302 9.71761 24.8903 9.9126 25.102C10.0556 25.2653 10.1791 25.4347 10.2961 25.6101C10.6146 26.1 10.9201 26.596 11.2646 27.1404C11.0826 27.0436 10.9331 26.9831 10.8096 26.8924C9.9906 26.3359 9.15212 25.8036 8.36564 25.2048C7.54666 24.5878 7.48166 22.8942 8.71013 22.2289C8.95713 22.0958 9.19762 22.0171 9.47711 22.1321C9.52261 22.1563 9.57461 22.1684 9.63311 22.1805C9.82161 22.2047 10.0491 22.368 10.1921 22.1381C10.3351 21.9143 10.3156 21.63 10.1336 21.4304C9.8931 21.1401 9.43812 21.0736 9.00263 21.2187C8.17065 21.4909 7.42317 22.6402 7.50766 23.6019C7.54666 24.0193 7.57916 24.4427 7.61816 24.8661C7.41667 24.7451 7.18267 24.6241 6.97468 24.479C6.0192 23.8197 5.00523 23.2269 4.18625 22.4043C3.18527 21.3941 2.65229 20.1965 2.48329 18.8537C2.35329 17.8073 2.47679 16.7669 2.76278 15.7447C3.37377 13.5913 5.78521 13.0106 7.22167 13.4643C7.84566 13.67 8.36564 14.0752 8.69063 14.6075C9.14562 15.3273 9.39912 16.1257 9.35362 16.9725C9.30812 17.7347 9.45762 18.4363 9.9191 19.0714C10.0946 19.3073 9.9971 19.4707 9.76961 19.5493C8.87913 19.8396 8.03415 20.257 7.03968 20.2388C6.2012 20.2267 5.59671 19.9304 5.09622 19.3376C4.60224 18.7569 4.25775 18.1339 4.33574 17.3778C4.36174 17.0814 4.44624 16.785 4.58274 16.5189C4.99223 15.7265 6.2012 15.8838 6.63019 16.2951C6.92918 16.5733 6.87718 17.1419 6.54569 17.4141C6.2402 17.656 5.85021 17.5835 5.54471 17.2266C5.52521 17.1842 5.50571 17.1661 5.47971 17.148Z" fill="black"/>
<path d="M9.2693 14.2686C9.06131 14.0387 8.82081 13.7544 8.55432 13.4883C7.47535 12.4298 6.16238 12.2423 4.74541 12.8713C3.28295 13.5125 2.58097 14.6617 2.28198 16.0469C1.99598 17.3836 1.98948 18.7446 2.35347 20.0693C2.60697 20.9947 3.15945 21.8052 3.88094 22.5008C4.99891 23.5775 6.29888 24.4485 7.63784 25.2711C8.88581 26.0333 10.1208 26.8075 11.3362 27.612C11.7522 27.8902 12.1032 28.2592 12.4672 28.5979C12.7662 28.8762 12.4217 28.9911 12.2722 29.1363C12.0837 29.3177 11.9992 29.1363 11.8952 29.0274C11.3427 28.4346 10.6018 28.0838 9.88679 27.7209C8.28783 26.9103 6.66287 26.1603 5.08341 25.3256C3.80944 24.6542 2.61347 23.8618 1.74249 22.7307C0.975508 21.7145 0.598518 20.5532 0.280026 19.3797C-0.109964 17.9341 -0.0774653 16.4763 0.267026 15.0368C0.572518 13.7665 1.3915 12.7624 2.39897 11.8854C3.27645 11.1232 4.26443 10.5305 5.4344 10.2583C6.46787 10.0163 7.42335 10.228 8.28133 10.8269C9.1133 11.4136 9.84129 12.0789 10.2118 13.0104C10.2443 13.0891 10.2508 13.2161 10.2053 13.2705C9.90629 13.6214 9.58129 13.948 9.2693 14.2686ZM30.7383 14.2625C30.4393 13.954 30.1273 13.6395 29.8283 13.3129C29.7698 13.2403 29.7503 13.1496 29.7698 13.0588C30.2053 11.964 31.0698 11.1958 32.0837 10.6031C32.9742 10.0889 33.9882 10.0042 34.9892 10.3732C37.0301 11.1232 38.5381 12.4237 39.4675 14.2807C39.799 14.94 39.8705 15.6537 39.942 16.3675C40.1435 18.4059 39.6235 20.3112 38.6551 22.1198C38.1351 23.0876 37.2901 23.8013 36.3606 24.4243C34.7877 25.4828 33.0652 26.3115 31.3492 27.1523C30.4523 27.5938 29.5618 28.0475 28.6843 28.5314C28.4503 28.6584 28.2618 28.8762 28.0733 29.0637C27.9693 29.1665 27.8783 29.2935 27.7418 29.1363C27.6183 28.9971 27.2479 28.9185 27.4948 28.6524C27.8198 28.3015 28.1643 27.9568 28.5608 27.6846C29.1913 27.243 29.8673 26.868 30.5238 26.4567C31.1413 26.0635 31.7587 25.6764 32.3632 25.2711C33.3317 24.6118 34.3067 23.9586 35.2492 23.269C36.2566 22.525 37.0561 21.6056 37.5046 20.4745C37.6801 20.033 37.7906 19.5672 37.8361 19.1015C37.9401 17.922 37.9856 16.7425 37.6216 15.5872C37.1081 13.9722 36.0291 12.8774 34.2092 12.5568C33.1887 12.3753 32.3047 12.708 31.5832 13.3794C31.2647 13.6637 30.9918 13.9903 30.7383 14.2625ZM12.2072 39.9634C13.6307 38.421 14.0792 36.6124 13.9427 34.6345C13.8907 33.8905 13.7412 33.1647 13.3967 32.4751C13.3187 32.3058 13.3057 32.1122 13.3577 31.9368C13.4552 31.6465 13.6307 31.3803 13.8127 31.0355C14.4757 32.0517 14.5407 33.1405 14.8332 34.1809C14.8202 33.8482 14.8592 33.5034 14.7747 33.1828C14.5667 32.3844 14.3067 31.5981 14.0662 30.8057C14.0467 30.7452 14.0207 30.6545 14.0532 30.6061C14.1962 30.346 14.3717 30.098 14.5667 29.8621C15.5351 31.9066 16.0031 33.9934 15.1712 36.1709C14.5862 37.6952 13.7997 39.1105 12.2072 39.9634ZM25.4929 29.85C25.6489 30.098 25.8114 30.3399 25.9544 30.6C25.9869 30.6545 25.9609 30.7573 25.9284 30.8238C25.4864 31.7795 25.2329 32.7957 25.1744 33.8361C25.1679 33.951 25.2004 34.072 25.2199 34.2716C25.4669 33.1465 25.5449 32.0638 26.1429 31.1202L26.2534 31.1021C26.4029 31.4348 26.5589 31.7674 26.6954 32.1122C26.7214 32.209 26.7084 32.3058 26.6629 32.3965C25.9154 33.9752 25.8829 35.5963 26.3054 37.2476C26.5329 38.1851 27.0074 39.0561 27.6898 39.782C27.7418 39.8364 27.7808 39.8908 27.8263 39.9453C27.8263 39.9513 27.8263 39.9574 27.8198 40.0118C27.6898 39.9392 27.5663 39.8848 27.4558 39.8122C26.6369 39.286 26.0519 38.5601 25.5839 37.7556C24.8819 36.5459 24.4074 35.2696 24.4074 33.8724C24.4074 32.4751 24.8039 31.1565 25.3759 29.8802L25.4929 29.85ZM15.9446 32.4691C17.2836 33.3099 17.9076 34.6103 18.5771 35.9168C18.5316 35.56 18.5121 35.197 18.4341 34.8462C18.2261 33.9813 17.8816 33.1465 17.4071 32.3784C16.9846 31.6949 16.5036 31.0658 15.5871 30.8964C15.5221 30.8722 15.4701 30.8238 15.4441 30.7634C15.3531 30.5516 15.2817 30.3278 15.1842 30.0496C16.0031 30.219 16.6661 30.5154 17.1861 31.0839C17.9141 31.8824 18.4016 32.8018 18.7136 33.7937C19.1361 35.1245 19.2661 36.5157 19.0841 37.8948C19.0126 38.4875 18.7981 39.044 18.2261 39.4856C18.2196 39.413 18.2196 39.3404 18.2261 39.2739C18.5056 37.3262 17.8361 35.6023 16.7701 33.9813C16.6791 33.8542 16.5816 33.7393 16.4646 33.6304C16.0161 33.1586 16.0031 33.1465 15.9446 32.4691ZM21.7815 39.4916C21.1965 39.0259 20.982 38.4573 20.917 37.8524C20.7155 35.8987 20.9755 34.0115 21.9765 32.2513C22.503 31.3259 23.1725 30.5154 24.3034 30.1706C24.3619 30.1464 24.4269 30.1282 24.4854 30.1161C24.5764 30.098 24.6739 30.0919 24.8104 30.0798C24.7194 30.3399 24.6414 30.5637 24.5569 30.7875C24.5374 30.8359 24.4854 30.8964 24.4334 30.9085C23.5624 31.0476 23.075 31.6283 22.672 32.2695C22.009 33.334 21.5475 34.4652 21.4435 35.7051C21.437 35.7535 21.437 35.808 21.437 35.8564C21.4435 35.9047 21.4565 35.9471 21.476 35.9894C22.0935 34.6285 22.711 33.3219 24.0434 32.4872C24.0564 32.9832 23.9329 33.2131 23.5949 33.5699C23.3219 33.8542 23.0555 34.1627 22.8735 34.4954C22.178 35.7535 21.7035 37.0782 21.684 38.5057C21.684 38.8081 21.749 39.1166 21.7815 39.4916Z" fill="black"/>
</g>
<defs>
<clipPath id="clip0_283_118">
<rect width="40" height="40" fill="white"/>
</clipPath>
</defs>
</svg>
