<svg width="40" height="40" viewBox="0 0 40 40" fill="none" xmlns="http://www.w3.org/2000/svg">
<g clip-path="url(#clip0_283_127)">
<path d="M39.8566 21.3665C38.7069 17.5086 37.5668 14.4048 34.3269 11.0714C31.087 7.7381 27.5145 6.80914 26.84 8.74357C26.0989 7.96761 24.2746 7.03865 22.2509 7.03865C20.2271 7.03865 17.5953 10.1425 20.7687 11.2244C20.1606 12.0769 19.239 12.3829 19.296 13.2463C19.353 14.0988 21.1107 16.7326 21.9183 18.6015C22.7259 20.4594 23.5335 22.9403 23.8091 23.4102C24.0751 23.8802 24.7497 22.055 24.5502 21.3774C24.3507 20.6999 24.1416 19.913 23.6761 19.6835C25.0252 19.9239 25.3578 19.3774 25.6333 19.0714C25.8993 18.7654 25.9659 18.219 26.1749 18.066C25.3008 17.443 23.2105 17.6835 22.6689 17.5195C22.802 15.8146 24.2841 14.0332 27.1155 13.4867C26.916 14.4922 25.8993 16.5141 27.7236 16.5141C27.7236 17.443 27.2485 18.8419 28.0561 18.9949C28.8637 19.1479 31.0205 17.5195 29.8803 14.0332C31.2295 14.9621 31.7046 15.8146 31.5621 18.8419C31.429 21.8692 30.8875 23.8037 29.2058 26.3611C30.0134 23.8802 30.4884 21.0059 29.8138 20.7764C28.9397 21.9348 27.391 22.7108 26.783 24.4266C26.1749 26.1315 25.6998 28.4594 26.1084 29.0059C26.4694 29.4867 28.1321 28.0004 28.5312 27.5305C27.7901 29.0824 27.1915 29.9457 25.6998 30.7982C24.2176 31.6507 23.8091 33.6616 25.2248 34.5141C25.0917 35.443 23.8756 36.1425 24.7497 36.372C25.6238 36.6015 27.0395 36.525 29.1297 32.9621C29.0632 37.6179 25.2153 42.1971 21.1773 38.7764C22.1179 37.7709 23.1345 36.678 22.5264 33.3447C21.4433 33.7272 20.1701 34.1971 21.1107 35.2791C19.8946 35.5086 15.9516 35.5086 12.8067 32.7217C9.66181 29.9348 5.6048 23.8692 6.21288 16.5031C7.08699 20.5359 8.71169 26.0441 11.4765 26.9731C14.2414 27.902 14.0419 27.596 14.0419 27.596C14.0419 27.596 13.4338 29.3774 13.7093 30.6998C14.992 29.0714 15.258 28.4485 15.467 27.9895C16.3411 28.066 17.8233 27.8365 18.7735 27.3665C17.9659 29.2244 17.5573 29.0714 17.8993 29.7709C18.2319 30.4703 20.7307 31.0933 21.6048 29.7709C22.4789 28.4485 22.821 25.2682 21.6713 22.6343C20.5217 20.0004 18.7069 16.1206 13.7188 13.4867C15.334 12.8638 16.1416 13.2572 16.6167 12.7108C17.0917 12.1643 17.3578 10.3064 16.2841 10.1534C15.201 10.0004 13.1868 10.7764 12.4362 11.7818C12.6357 10.2299 12.9112 8.37198 13.6523 7.97854C11.562 8.28455 9.40528 9.53045 7.182 11.7053C8.12262 9.07143 10.1464 6.35012 9.88034 5.42116C9.61431 4.4922 8.53117 3.09329 0.0371094 4.26269C2.26039 2.94029 4.82571 2.01132 7.85659 1.93482C10.8875 1.85832 13.9944 2.31734 14.5359 2.78728C13.5953 3.56324 13.2533 4.10969 13.4528 4.5687C14.6024 4.4157 18.5074 3.48673 23.9041 4.64521C21.3388 3.3993 18.5739 1.46488 10.6214 0.994932C14.3934 0.218976 23.8376 -1.10343 30.3744 2.39384C36.9112 5.89111 40.3982 14.8419 39.8566 21.3665Z" fill="black"/>
<path d="M26.7076 32.4806C26.7076 32.4806 28.1898 30.0762 29.5865 29.5298C31.7813 28.6664 33.1494 26.732 33.52 25.6609C32.8454 25.5844 32.0378 26.1309 31.7623 26.4369C32.6364 25.038 34.8597 23.5626 34.6601 19.6828C35.2682 20.3058 35.7433 23.8795 34.8027 27.814C33.653 32.6227 30.9547 34.8085 30.6791 35.1254C31.3537 33.5735 31.5532 31.6391 31.0117 31.6391C30.0711 31.6282 28.9024 31.5626 26.7076 32.4806ZM18.8217 19.6719C18.8217 19.6719 20.9784 22.9396 21.0449 23.7047C19.3632 23.6282 18.5461 23.3221 17.406 24.3276C16.2563 25.3331 14.6411 28.2074 14.3086 28.9068C14.7742 26.426 16.9974 21.5298 18.8217 19.6719Z" fill="black"/>
</g>
<defs>
<clipPath id="clip0_283_127">
<rect width="40" height="40" fill="white"/>
</clipPath>
</defs>
</svg>
