<svg width="40" height="40" viewBox="0 0 40 40" fill="none" xmlns="http://www.w3.org/2000/svg">
<g clip-path="url(#clip0_283_122)">
<path d="M10.6537 8.34613C11.0698 8.28437 11.6611 8.35495 11.9129 8.58433C12.1648 8.8137 12.3181 8.99897 12.6028 9.44008C12.8875 9.8812 13.2488 10.2253 13.5226 9.99588C13.8073 9.76651 14.3 9.34304 14.9241 9.4489C15.5483 9.55477 16.2381 9.81944 16.4571 9.97824C16.6761 10.137 16.8623 10.1988 17.0703 10.1635C17.0703 10.1635 17.1579 10.1547 17.2346 10.1194C17.4317 10.0488 17.5302 9.91648 17.5959 9.67828C17.6507 9.44008 18.012 8.90193 18.4391 8.51375C18.8661 8.13439 19.5779 8.23144 19.9721 8.28437C20.3662 8.3373 20.41 7.88737 20.3115 7.39333C20.2129 6.89928 20.202 6.6699 20.2348 6.36995C20.2677 6.06999 20.6947 5.72592 21.078 5.57595C21.4503 5.42597 21.1218 5.41715 21.1218 5.41715C19.7312 5.3201 19.0194 5.68181 18.7457 5.7965C18.4719 5.91119 18.0996 6.29937 18.2858 6.64344C18.4829 6.9875 18.3843 7.29628 17.9901 7.49919C17.5959 7.71093 17.2674 7.57859 17.2127 7.34921C17.147 7.12866 17.7054 6.88164 17.7054 6.88164C17.7054 6.88164 17.2455 6.33466 16.7418 5.97295C16.2272 5.61123 15.9206 4.77312 15.7892 4.46434C15.6578 4.15557 15.1869 3.32628 15.0008 3.0175C14.8256 2.70872 13.9715 1.70299 13.5335 0.803118C13.3145 0.344362 13.1941 0.150273 13.1174 0.0620509C13.0517 -0.0173492 13.0408 0.00911747 13.0408 0.00911747L13.0517 0.026762L13.0408 0.0355842C13.0408 0.0355842 13.0189 0.0267619 13.0189 0.0796953V0.123806C13.0298 0.220851 13.0736 0.441407 13.2269 0.917807C13.5445 1.84414 13.5883 3.07043 13.6759 3.39685C13.7635 3.7321 13.9825 4.62314 14.1139 4.94074C14.2452 5.24952 14.5956 6.06999 14.4533 6.60815C14.3109 7.1463 14.3438 7.79915 14.3438 7.79915C14.3438 7.79915 14.9679 7.72857 15.0884 7.9403C15.1979 8.15204 15.0336 8.40788 14.5628 8.43435C14.092 8.45199 13.7963 8.24908 13.6978 7.88737C13.5992 7.51684 13.0189 7.3845 12.7123 7.41979C12.4057 7.45508 11.5735 7.49919 10.5223 8.24908C10.5113 8.23144 10.2376 8.39906 10.6537 8.34613Z" fill="black"/>
<path d="M39.8905 13.419C39.1788 12.3603 36.6275 12.1839 33.4958 12.7044C32.4994 12.872 31.6672 13.022 30.9883 13.1632C30.5393 12.6162 29.6086 11.7163 27.8128 10.7988C24.933 9.3343 22.1517 9.14904 20.772 9.19315C20.772 9.19315 19.1186 10.4724 17.2023 10.8429C15.2861 11.2223 13.2385 10.9488 13.2385 10.9488C13.2385 10.9488 11.0704 12.0339 9.37315 14.063C8.07012 15.6157 7.51167 17.4066 7.42407 18.6859C6.72328 18.9946 5.58449 19.5063 4.0515 20.2915C1.34687 21.6678 -0.339411 23.2205 0.0657356 24.385C0.470882 25.5407 4.19385 25.7437 6.76708 25.629C9.32935 25.5143 8.80376 25.4172 8.80376 25.4172C6.88753 25.0467 4.89464 24.3056 3.8763 23.838C2.85796 23.3705 3.46021 22.1706 4.80704 21.2531C5.78159 20.5826 6.92038 19.9563 7.46787 19.6651V19.6916C7.46787 19.6916 9.13226 20.0621 9.6469 21.3855C10.1615 22.7 9.6031 23.7498 8.82566 24.4468C8.82566 24.4468 10.2053 26.4759 12.9319 27.8875C15.538 29.2461 19.2719 30.0842 23.4328 29.3255C23.4328 29.3255 23.4328 29.3343 23.4219 29.3343C22.9182 29.8813 21.8232 30.4194 21.21 30.4635C20.5968 30.4988 20.4545 30.5165 20.4545 30.5165C20.4545 30.5165 20.0931 30.49 20.0493 30.8253C20.0055 31.1605 20.0712 31.8663 18.5054 32.1221C18.5054 32.1221 19.4361 32.8279 20.7282 32.6338C22.0093 32.4309 22.294 32.1662 22.6663 32.1927C22.6663 32.1927 22.1188 31.5928 22.6992 31.2399C23.2795 30.887 23.8818 30.9576 24.0789 31.0193C24.276 31.0811 24.6592 31.4428 24.4731 31.7604C24.2979 32.0692 23.619 32.6779 23.1591 32.8985C23.1591 32.8985 23.8818 33.5866 24.4731 33.9042C25.0534 34.213 25.2286 34.2747 25.371 34.6453C25.5024 35.0158 25.6447 35.5275 26.7726 37.0449C27.8347 38.483 28.7216 38.9682 29.1925 39.7975L29.2582 39.9122C29.2582 39.921 29.2691 39.9298 29.2691 39.9474L29.2582 39.9298C29.2801 39.9474 29.4443 40.071 29.3896 39.868L29.4005 39.9033C29.072 38.9505 29.4881 38.1389 29.2801 36.3833C29.072 34.6188 28.8092 34.1424 28.645 33.7807C28.4807 33.419 28.5793 33.2867 28.8202 32.7573C29.0611 32.228 29.1377 31.3281 29.1377 31.3281C28.6012 31.3722 27.6157 31.2134 27.2434 31.0458C26.8711 30.8782 26.9149 30.4018 27.0244 30.2606C27.1229 30.1195 27.5719 29.7754 28.2946 29.7842C29.0173 29.7931 29.0173 30.5341 29.0173 30.5341C29.302 30.34 29.7181 30.4194 30.9007 29.9695C32.0833 29.5196 32.3132 28.4962 32.3132 28.4962C30.8569 29.0432 30.397 28.4344 30.1123 28.1874C29.8276 27.9404 29.5538 28.1345 29.5538 28.1345C29.5538 28.1345 29.4224 28.1874 28.9078 28.4521C28.3822 28.7167 27.101 28.7961 26.2908 28.6021C26.247 28.5932 26.2141 28.5756 26.1813 28.5668C29.4662 27.2434 31.8643 24.8261 32.5103 23.2293C33.2877 21.2972 33.7367 20.0445 33.5286 18.4918C33.5286 18.4918 31.6562 17.9889 31.2073 17.089C30.7693 16.2068 30.4846 15.1923 31.3387 14.0718C32.0285 13.9836 32.9154 13.8866 33.7805 13.8425C35.5434 13.7542 36.9998 14.2748 36.6713 15.1834C36.3428 16.0921 35.5544 17.7331 34.4922 19.074C34.4922 19.074 34.1966 19.4358 36.1457 18.086C38.0948 16.7097 40.6023 14.4777 39.8905 13.419ZM30.7583 17.5831C31.3825 19.4269 31.3606 22.4441 28.7216 24.8967C27.3638 26.1583 26.0937 26.8905 25.1848 27.3052C25.1958 27.1287 25.2834 26.9258 25.2834 26.9258C24.7359 26.8994 23.6956 25.9025 23.6956 25.9025C23.6956 25.9025 23.5095 25.5672 23.5642 25.9642C23.5423 26.1407 23.4328 27.2611 23.0386 27.5257C23.0386 27.5257 23.3562 27.711 23.4657 27.8698V27.8786C22.5897 28.0639 20.0055 28.4433 16.841 27.5522C12.9209 26.4494 10.709 23.5028 10.2163 21.3237C9.72355 19.1446 10.4134 15.6069 13.2604 13.6396C16.1183 11.6634 18.0564 10.7017 23.0277 11.5046C28.0208 12.2986 30.1342 15.7392 30.7583 17.5831Z" fill="black"/>
<path d="M14.235 17.6972C15.3847 17.6884 16.5345 18.0501 17.071 18.3854C17.071 18.3854 16.9068 19.1529 17.3229 19.4617C17.739 19.7793 18.385 20.141 18.385 20.141C18.385 20.141 17.9799 19.6381 18.0018 19.2058C18.0237 18.7735 18.0127 18.306 18.0127 18.306C18.0127 18.306 17.5857 17.8913 16.6111 17.5472C15.6256 17.2032 14.903 16.6915 12.2969 16.8326C12.2969 16.8326 12.3845 17.9884 13.2386 18.6941C13.2495 18.6941 13.0853 17.706 14.235 17.6972Z" fill="black"/>
<path d="M21.0572 23.6081C19.8308 23.6964 18.681 23.22 18.681 23.22C18.681 22.6906 19.1847 22.6024 19.1847 22.6024C20.3235 22.1966 20.3673 21.4643 20.3673 21.4643C19.3818 22.2231 18.3744 22.0907 18.3744 22.0907C18.2102 22.2231 17.7612 22.8759 17.7612 22.8759C17.0166 22.673 16.2502 21.9849 15.845 21.1291C15.4399 20.2733 15.7903 18.8883 15.7903 18.8883C14.3996 18.2707 13.3594 19.0206 13.3594 19.0206C13.6769 19.1176 13.9397 19.4088 14.3996 19.9116C14.8595 20.4057 14.6186 20.7939 15.1004 21.9143C15.5822 23.0347 17.2904 23.6523 17.2904 23.6523C17.2904 23.6523 16.8852 24.3669 16.7867 25.2403C16.6881 26.1225 17.0823 26.943 17.0823 26.943C17.3999 26.8194 19.119 25.355 19.119 25.355C19.119 25.355 18.6591 25.3108 18.2868 25.0638C17.9145 24.808 18.1664 23.9963 18.1664 23.9963C19.2833 24.3933 20.3673 24.2875 21.0024 24.6845C21.6375 25.0903 20.9148 25.752 20.9148 25.752C20.9148 25.752 22.4368 25.7431 23.718 24.6845C24.9991 23.6258 24.3421 22.3642 24.3421 22.3642C23.718 23.07 22.2835 23.5199 21.0572 23.6081ZM27.7037 21.3761C27.0906 21.579 26.3241 21.6584 25.8642 21.4643C25.8642 21.4643 26.8935 20.0351 26.6416 18.9677C26.3898 17.8913 25.7109 17.5032 25.8532 16.7356C25.9956 15.9681 26.1598 15.7652 26.1598 15.7652L24.8458 15.6681C24.8458 15.6681 24.4626 16.5768 24.156 16.8415C24.156 16.8415 25.2729 17.6531 25.5357 18.7206C25.7985 19.7881 25.5138 20.8291 25.0867 21.3055C25.0867 21.3055 24.375 21.1467 24.1888 21.0321C24.1888 21.0321 24.1779 19.7087 22.8748 19.4617C22.8748 19.4617 23.5866 20.4586 23.3676 21.2261C23.3676 21.2261 25.0648 22.0554 26.2365 22.2319C27.4191 22.4083 28.3388 22.4083 28.9411 22.2319C29.5433 22.0554 28.7002 20.7939 28.0322 20.4498C28.0322 20.441 28.3169 21.1732 27.7037 21.3761ZM19.0643 15.774C20.3016 15.6152 21.4295 15.6064 22.0208 15.8887C22.612 16.1798 22.5244 16.3563 22.3492 16.5945C22.174 16.8327 21.8456 16.7445 21.5171 17.0003C21.1886 17.2561 20.9696 17.6267 20.9477 17.7943C20.9477 17.7943 22.0645 17.1238 22.8091 17.2561C22.8091 17.2561 23.3457 16.2151 23.6961 15.8622C24.0465 15.5093 24.8787 14.0713 23.8932 12.7656L22.2069 13.939C22.2069 13.939 23.4223 14.6183 22.9296 15.4564C22.9296 15.4564 21.9989 14.7065 20.444 14.733C18.8891 14.7506 18.9438 14.1154 19.349 13.639C19.349 13.639 17.8488 13.9743 17.1261 14.8388C16.4034 15.7034 16.5129 16.5945 16.7976 17.0268C16.8086 17.0444 17.8379 15.9328 19.0643 15.774Z" fill="black"/>
</g>
<defs>
<clipPath id="clip0_283_122">
<rect width="40" height="40" fill="white"/>
</clipPath>
</defs>
</svg>
