<svg width="40" height="40" viewBox="0 0 40 40" fill="none" xmlns="http://www.w3.org/2000/svg">
<g clip-path="url(#clip0_283_130)">
<path d="M20.6851 7.85959C20.5908 8.44333 20.5038 9.00622 20.424 9.57606C20.395 9.77759 20.279 9.79149 20.105 9.79149C17.6907 9.78454 15.2183 9.89573 13.0215 10.9798C10.7956 12.0639 8.93229 13.5232 7.67799 15.6428C6.38018 17.6859 5.78565 19.451 5.96691 21.8624C6.13367 25.0799 7.20671 28.3182 9.94008 30.3891C11.3104 31.4315 12.7895 32.3766 14.5005 32.7797C14.7978 32.8492 15.1458 32.8353 15.4358 32.7588C16.5886 32.4739 17.7342 32.1542 18.8725 31.8207C19.1262 31.7442 19.2712 31.7998 19.4453 31.9805C21.9756 34.6699 24.506 37.2898 27.0291 39.993C24.7162 39.8262 22.4759 39.6456 20.1703 39.4718C17.8067 39.312 15.4141 39.2078 13.123 38.5476C12.2602 38.3043 11.4409 37.9082 10.6071 37.5816C9.2368 37.0535 8.026 36.2752 6.8877 35.3996C5.52464 34.3502 4.20508 33.2383 3.23354 31.8207C0.971442 28.6935 -0.116106 24.8714 0.0144 21.0771C0.0434013 20.3891 0.0651522 19.7012 0.101404 19.0132C0.101404 18.9298 0.144906 18.8533 0.166657 18.763C1.01494 18.9298 1.84148 19.0966 2.66802 19.2564C2.66802 19.6108 2.68977 19.9791 2.66077 20.3405C2.46501 22.4114 2.82752 24.4753 3.4438 26.4489C5.09687 31.8485 10.2663 35.7748 16.0449 36.5253C15.7186 36.0041 15.4286 35.5107 15.1096 35.0382C15.0588 34.9617 14.8993 34.934 14.7833 34.9131C10.5129 34.2043 7.09796 31.1952 5.31438 27.4913C4.31384 25.3787 3.85707 23.2036 4.00933 20.8756C4.16883 17.8526 5.01712 15.0799 7.17046 12.7866C8.27976 11.501 9.57032 10.41 11.0711 9.55522C13.6522 8.13756 17.7487 7.49128 20.6851 7.85959Z" fill="black"/>
<path d="M28.5014 26.9632C27.9793 27.818 27.4646 28.6519 26.9788 29.4928C26.87 29.6735 26.812 29.9028 26.8048 30.1182C26.783 30.7575 26.812 31.3899 26.7975 32.0293C26.7975 32.1335 26.696 32.2794 26.5945 32.335C26.1885 32.5505 25.768 32.7381 25.3475 32.9257C25.2315 32.9744 25.0937 33.0091 24.9632 33.0091C23.7669 32.9813 22.5706 32.9535 21.3816 32.9118C21.2801 32.9118 21.1423 32.884 21.077 32.8215C20.7073 32.4184 20.352 32.0015 19.9532 31.5498C22.0123 30.9799 24.0134 30.424 26.0653 29.8472C25.449 29.0619 24.8617 28.3114 24.2744 27.5539C24.1222 27.3593 23.9772 27.1578 23.8539 26.9493C23.8104 26.8729 23.8249 26.727 23.8757 26.6505C24.8037 25.2329 24.927 23.6901 24.5137 22.1196C24.2019 20.9313 23.3826 20.0626 22.3386 19.3677C19.7285 17.6234 15.8786 18.777 14.704 21.8277C12.7682 26.866 19.0035 30.8201 23.1361 27.2968C23.6509 27.9778 24.1439 28.6311 24.6805 29.3399C22.6214 29.9445 20.6348 30.5143 18.5829 31.1189C18.1044 31.2579 17.6694 31.2509 17.1981 31.0633C14.3125 29.9375 12.5362 27.8666 11.5429 25.1008C11.4486 24.8298 11.5356 24.6561 11.7894 24.5727C12.1664 24.4546 12.2172 24.1905 12.2462 23.8639C12.4709 20.2919 14.3342 17.0605 18.2494 16.3865C21.3018 15.8166 23.6292 17.0744 25.4707 19.3468C25.9348 19.0202 26.4278 18.7075 26.8845 18.3392C28.1389 17.3385 29.5527 16.6297 31.068 16.0668C33.1561 15.3024 35.2007 14.4268 37.2815 13.6484C37.3033 13.6762 37.325 13.6971 37.3468 13.7249C37.151 13.9264 36.9842 14.1488 36.7667 14.3295C33.8014 16.8382 30.8432 19.3538 27.8633 21.8347C27.5008 22.1335 27.4356 22.474 27.4138 22.8562C27.3558 23.8083 27.3051 24.7603 27.2688 25.7193C27.2616 25.8514 27.3486 26.0251 27.4501 26.1154C27.7763 26.3864 28.1244 26.6505 28.5014 26.9632Z" fill="black"/>
<path d="M7.74414 25.8445C8.04865 25.1982 8.38217 24.5936 8.63593 23.9543C9.35371 22.1405 9.85398 20.2225 10.6733 18.4504C13.0876 13.2246 17.0028 10.9452 22.9408 11.0495C23.4193 11.0634 23.8906 11.0773 24.3691 11.0703C24.4779 11.0703 24.6156 11.0147 24.6809 10.9383C25.0361 10.5422 25.3624 10.1322 25.7104 9.73606C25.8192 9.61097 25.9569 9.47893 26.1092 9.43029C29.2921 8.3601 32.446 7.24822 35.6506 6.21973C33.461 9.24961 31.2932 12.1961 29.1543 15.2329C29.0456 15.7194 28.6541 15.9557 28.2698 16.2128C27.407 16.7757 26.566 17.4011 25.6887 17.9431C25.1086 17.4636 24.5794 16.9633 23.9848 16.5394C21.5487 14.8438 17.9598 14.7951 15.4295 16.3101C12.3191 18.2211 11.8551 20.7646 11.1663 23.989C11.1445 24.0794 11.072 24.1905 10.9923 24.2322C9.95549 24.7743 8.90419 25.3024 7.86015 25.8306C7.83839 25.8445 7.80939 25.8375 7.74414 25.8445Z" fill="black"/>
<path d="M23.8165 23.8153C24.0195 25.8792 22.0474 27.686 19.9593 27.7902C16.7547 28.0752 14.4563 24.8924 15.8049 22.0988C16.4936 20.4866 17.8277 19.7499 19.5823 19.5832C21.8009 19.3747 24.0267 21.4873 23.8165 23.8153ZM19.7273 25.1565C20.5611 25.1565 21.2281 24.5241 21.2281 23.7249C21.1919 21.8139 18.2845 21.7791 18.212 23.6971C18.212 24.5171 18.8718 25.1565 19.7273 25.1565ZM20.1623 21.5012C20.1478 21.7861 20.1623 21.7652 20.5176 21.9529C20.8076 22.1057 21.0323 22.1266 21.2716 21.8764C21.5109 21.6054 22.4172 21.2996 21.7501 20.9661C21.3586 20.7506 20.9526 20.563 20.5466 20.3754C20.3508 20.285 20.2348 20.3337 20.2276 20.57C20.2131 20.841 20.1913 21.1189 20.1623 21.5012ZM27.9129 30.1391C30.3563 31.2023 32.8069 32.2656 35.2792 33.3358C33.9669 35.1565 32.6619 36.9633 31.3495 38.777C29.218 37.3316 27.1081 35.907 24.9403 34.4407C25.107 34.3573 25.2013 34.2948 25.31 34.2531C25.9988 33.9751 26.6876 33.6832 27.3836 33.4192C27.6736 33.308 27.7824 33.1551 27.7751 32.8493C27.7534 31.9737 27.7679 31.0911 27.7679 30.2155L27.9129 30.1391ZM27.3909 7.51922C28.2247 6.42819 28.9932 5.40665 29.7835 4.39205C29.8632 4.28781 30.0082 4.22527 30.1387 4.16968C33.4014 2.78677 36.6713 1.40387 39.9992 -0.00683594C39.1001 1.40387 38.0706 2.72423 37.1353 4.11408C36.9395 4.399 36.7075 4.59358 36.3595 4.69782C33.3579 5.62902 30.3998 6.62277 27.3909 7.51922ZM21.3151 4.00984C21.1701 4.92715 21.0251 5.78191 20.8873 6.65056H15.5221C15.3989 5.92784 15.2611 5.17037 15.1451 4.40595C15.1378 4.33646 15.2466 4.19747 15.3191 4.18357C15.6744 4.10713 16.0369 4.03764 16.3994 4.02374C17.5232 3.9612 18.647 3.91255 19.7708 3.8917C20.2566 3.87781 20.7496 3.9612 21.3151 4.00984ZM9.77986 6.02513C10.2366 6.8104 10.6571 7.52617 11.0994 8.28364C10.3454 8.7284 9.5841 9.1801 8.76481 9.6596C8.26454 9.13146 7.77152 8.54077 7.37275 7.92923C7.31475 7.83889 7.293 7.63736 7.351 7.58872C8.07603 6.94938 8.93882 6.52548 9.77986 6.02513ZM14.4418 6.97023C13.608 7.26905 12.8032 7.56092 11.9622 7.86669C11.5779 7.12312 11.1864 6.37259 10.7732 5.58038C11.6359 5.14257 12.564 4.88545 13.4848 4.58663C13.695 4.51714 13.8038 4.53799 13.8618 4.80206C14.0213 5.52478 14.2388 6.23361 14.4418 6.97023ZM3.73309 15.7263C3.50833 16.5046 3.28357 17.2482 3.07331 17.9918C3.01531 18.1933 2.92106 18.2836 2.6963 18.2281C1.99302 18.0474 1.28974 17.8736 0.593706 17.6791C0.528453 17.6582 0.448699 17.5053 0.47045 17.4358C0.745962 16.6089 1.02872 15.7889 1.32599 14.9758C1.34774 14.9132 1.53625 14.8438 1.6015 14.8646C2.31203 15.1356 3.00806 15.4275 3.73309 15.7263ZM6.1982 8.35314C6.2852 8.40873 6.37221 8.43653 6.43021 8.49212C6.94498 9.01332 7.45976 9.54146 7.97453 10.0627C8.10503 10.1947 8.08328 10.285 7.95278 10.4032C7.438 10.8827 6.94498 11.3761 6.42296 11.8486C6.35771 11.9112 6.1547 11.939 6.08945 11.8903C5.50942 11.4525 4.9439 10.9939 4.39287 10.5283C4.22611 10.3198 4.46537 10.014 4.61038 9.85418C5.0454 9.40943 5.49492 8.96467 5.94444 8.52687C6.02419 8.46432 6.10395 8.41568 6.1982 8.35314ZM4.11736 14.9549C3.46483 14.5936 2.8268 14.2114 2.15977 13.8778C1.88426 13.7388 1.86976 13.5929 2.00752 13.3844C2.29028 12.9536 2.58754 12.5366 2.88481 12.1127C3.02981 11.9042 3.18207 11.6888 3.36333 11.5081C3.43583 11.4386 3.63884 11.3969 3.71859 11.4456C4.25512 11.7791 4.77714 12.1405 5.30641 12.488C5.52392 12.6339 5.57467 12.7729 5.40792 13.0161C4.96565 13.6554 4.54513 14.3156 4.11736 14.9549Z" fill="black"/>
</g>
<defs>
<clipPath id="clip0_283_130">
<rect width="40" height="40" fill="white"/>
</clipPath>
</defs>
</svg>
