<svg width="40" height="40" viewBox="0 0 40 40" fill="none" xmlns="http://www.w3.org/2000/svg">
<g clip-path="url(#clip0_283_135)">
<path d="M19.9996 6.80591C27.2285 6.80591 33.0919 12.6169 33.0919 19.781C33.0919 26.9452 27.2285 32.7562 19.9996 32.7562C12.7707 32.7562 6.90721 26.9452 6.90721 19.781C6.90721 12.6169 12.8108 6.80591 19.9996 6.80591ZM19.9996 5.21387C11.8871 5.21387 5.30078 11.7412 5.30078 19.781C5.30078 27.8208 11.8871 34.3482 19.9996 34.3482C28.112 34.3482 34.6984 27.8208 34.6984 19.781C34.6984 11.7412 28.112 5.21387 19.9996 5.21387Z" fill="black"/>
<path d="M14.0569 2.70647C13.7757 2.50746 13.7356 2.46766 13.4143 2.54726C13.4143 2.54726 12.6914 2.66667 12.1693 2.86567C11.6874 3.06468 8.55484 4.2189 6.58697 6.24876C4.53878 8.199 3.25364 11.3433 3.05284 11.8209C2.85203 12.3383 2.81187 12.9751 2.81187 12.9751C2.81187 13.4129 2.77171 13.3731 2.97251 13.6119C3.093 13.8109 3.77573 14.4876 4.13717 14.806C4.53878 15.1642 4.65926 15.3234 4.8199 15.1642C4.86006 15.0846 4.94039 14.8856 5.02071 14.5672C5.22151 13.8109 5.98456 11.8209 7.43035 9.55224C7.43035 9.55224 7.63115 9.35323 7.39019 9.11443C7.18938 8.91542 6.8681 8.47761 6.82794 8.35821C6.98858 7.9602 7.39019 7.56219 7.39019 7.56219L7.67131 7.28358L7.95243 7.00497C7.95243 7.00497 8.35404 6.64677 8.79581 6.48756C8.87613 6.44776 9.47854 6.84577 9.67934 7.08458C9.79982 7.20398 9.96047 7.04478 9.96047 7.04478C12.2496 5.65174 14.338 4.93532 15.101 4.77612C15.4223 4.69652 15.6231 4.65672 15.7034 4.57711C15.8641 4.53731 15.5428 4.1791 15.342 3.9403C14.9002 3.50249 14.2175 2.82587 14.0569 2.70647ZM25.9846 2.70647C26.2657 2.50746 26.346 2.46766 26.6673 2.50746C26.6673 2.50746 27.3902 2.62687 27.9123 2.82587C28.3942 3.02488 31.5267 4.1791 33.4946 6.20895C35.5428 8.1592 36.8279 11.3035 37.0287 11.7811C37.2295 12.2985 37.2697 12.9353 37.2697 12.9353C37.2697 13.3731 37.3099 13.3333 37.1091 13.5721C36.9886 13.7711 36.3059 14.4478 35.9444 14.7662C35.5428 15.1244 35.4223 15.2836 35.2617 15.1244C35.2215 15.0448 35.1412 14.8458 35.0609 14.5274C34.8601 13.7711 34.097 11.7811 32.6512 9.51244C32.6512 9.51244 32.4504 9.31343 32.6914 9.07463C32.8922 8.87562 33.2135 8.43781 33.2536 8.31841C33.093 7.9204 32.6914 7.52239 32.6914 7.52239L32.4103 7.24378L32.1291 6.96517C32.1291 6.96517 31.7275 6.60696 31.2858 6.44776C31.2054 6.40796 30.603 6.80597 30.4022 7.04478C30.2818 7.16418 30.1211 7.00497 30.1211 7.00497C27.832 5.61194 25.7436 4.89552 24.9805 4.73632C24.6593 4.65672 24.4585 4.61692 24.3781 4.53731C24.2175 4.49751 24.5388 4.1393 24.7396 3.9005C25.1412 3.50249 25.8239 2.82587 25.9846 2.70647ZM25.9846 36.7363C26.2657 36.9353 26.346 36.9751 26.6673 36.9353C26.6673 36.9353 27.3902 36.8159 27.9123 36.6169C28.3942 36.4179 31.5267 35.2637 33.4946 33.2338C35.5428 31.2836 36.8279 28.1393 37.0287 27.6617C37.2295 27.1443 37.2697 26.5075 37.2697 26.5075C37.2697 26.0697 37.3099 26.1095 37.1091 25.8706C36.9886 25.6716 36.3059 24.995 35.9444 24.6766C35.5428 24.3184 35.4223 24.1592 35.2617 24.3184C35.2215 24.398 35.1412 24.597 35.0609 24.9154C34.8601 25.6716 34.097 27.6617 32.6512 29.9303C32.6512 29.9303 32.4504 30.1294 32.6914 30.3682C32.8922 30.5672 33.2135 31.005 33.2536 31.1244C33.093 31.5224 32.6914 31.9204 32.6914 31.9204L32.4103 32.199L32.1291 32.4776C32.1291 32.4776 31.7275 32.8358 31.2858 32.995C31.2054 33.0348 30.603 32.6368 30.4022 32.398C30.2818 32.2786 30.1211 32.4378 30.1211 32.4378C27.8721 33.8706 25.7838 34.5473 25.0207 34.7463C24.6994 34.8259 24.4986 34.8657 24.4183 34.9453C24.2577 34.9851 24.5789 35.3433 24.7797 35.5821C25.1412 35.9403 25.8239 36.6169 25.9846 36.7363ZM14.0569 36.7363C13.7757 36.9353 13.7356 36.9751 13.4143 36.8955C13.4143 36.8955 12.6914 36.7761 12.1693 36.5771C11.6874 36.3781 8.55484 35.2239 6.58697 33.194C4.53878 31.2438 3.25364 28.0995 3.05284 27.6219C2.85203 27.1045 2.81187 26.4677 2.81187 26.4677C2.81187 26.0299 2.77171 26.0697 2.97251 25.8308C3.093 25.6318 3.77573 24.9552 4.13717 24.6368C4.53878 24.2786 4.65926 24.1194 4.8199 24.2786C4.86006 24.3582 4.94039 24.5572 5.02071 24.8756C5.22151 25.6318 5.98456 27.6219 7.43035 29.8905C7.43035 29.8905 7.63115 30.0896 7.39019 30.3284C7.18938 30.5274 6.8681 30.9652 6.82794 31.0846C6.98858 31.4826 7.39019 31.8806 7.39019 31.8806L7.67131 32.1592L7.95243 32.4378C7.95243 32.4378 8.35404 32.796 8.79581 32.9552C8.87613 32.995 9.47854 32.597 9.67934 32.3582C9.79982 32.2388 9.96047 32.398 9.96047 32.398C12.2496 33.791 14.338 34.5075 15.101 34.6667C15.4223 34.7463 15.6231 34.7861 15.7034 34.8657C15.8641 34.9055 15.5428 35.2637 15.342 35.5025C14.9002 35.9403 14.2175 36.6169 14.0569 36.7363ZM25.0609 1.31343C24.9404 1.19403 24.8199 1.11443 24.8199 1.11443C23.1332 0.278607 21.4866 0 20.0809 0C18.6352 0 17.0287 0.238806 15.342 1.03483C15.342 1.03483 15.1813 1.11443 15.1412 1.27363C15.101 1.31343 15.101 1.35323 15.101 1.39303C15.101 1.51244 15.1813 1.71144 15.342 1.87065C15.4625 1.99005 15.8239 2.26866 16.2255 2.58706C16.4263 2.74627 16.6673 2.94527 16.9484 3.14428C17.35 3.46269 18.2737 4.29851 19.1171 4.1791C19.9605 4.0597 19.4384 3.58209 19.4384 3.58209C19.4384 3.58209 17.7115 2.34826 17.4303 1.87065C17.3902 1.83085 17.3902 1.79104 17.3902 1.75124C17.6713 1.59204 19.1171 1.27363 19.8801 1.27363H20.2014C20.9645 1.27363 22.5709 1.63184 22.852 1.79104C22.852 1.83085 22.852 1.87065 22.8119 1.91045C22.5307 2.38806 20.7235 3.58209 20.7235 3.58209C20.7235 3.58209 20.1613 4.0995 21.0046 4.21891C21.848 4.33831 22.7717 3.50249 23.1733 3.22388C23.4544 3.02488 23.6954 2.82587 23.8962 2.66667C24.2978 2.38806 24.6593 2.10945 24.7797 1.95025C24.9404 1.79104 25.0609 1.59204 25.0609 1.47264V1.31343ZM15.101 38.6866C15.1814 38.806 15.342 38.8856 15.342 38.8856C17.0287 39.6816 18.6753 39.9602 20.0809 39.9602C21.4866 39.9602 23.1332 39.6816 24.8199 38.8856C24.8199 38.8856 24.9805 38.806 25.0207 38.6468C25.0609 38.607 25.0609 38.5672 25.0609 38.5274C25.0609 38.408 24.9805 38.209 24.8199 38.0896C24.6994 37.9701 24.338 37.6915 23.9364 37.3731C23.7356 37.2139 23.4946 37.0149 23.2135 36.8159C22.8119 36.4975 21.8882 35.7015 21.0448 35.7811C20.2014 35.9005 20.7235 36.3781 20.7235 36.3781C20.7235 36.3781 22.4103 37.6119 22.6914 38.0896C22.7316 38.1294 22.7316 38.1692 22.7316 38.209C22.4504 38.3682 21.0046 38.6866 20.2416 38.6866H19.9203C19.1573 38.6866 17.5508 38.3284 17.2697 38.1692C17.2697 38.1294 17.2697 38.0896 17.3099 38.0498C17.591 37.5721 19.3581 36.3781 19.3581 36.3781C19.3581 36.3781 19.9203 35.8607 19.0368 35.7811C18.1934 35.6617 17.2697 36.4975 16.8681 36.8159C16.587 37.0149 16.346 37.2139 16.1452 37.3731C15.7436 37.6915 15.3822 37.9303 15.2617 38.0896C15.1412 38.2488 14.9805 38.408 14.9805 38.5274C15.101 38.5672 15.101 38.6468 15.101 38.6866ZM17.7115 18.3483C17.7115 18.3483 18.2336 17.9104 17.7115 17.6318C17.1894 17.3532 16.7476 17.2338 16.7476 17.6318C16.7878 18.0299 17.3099 18.4279 17.7115 18.3483ZM15.7034 17.6716C15.7034 17.6716 15.7838 18.3483 16.3058 18.3881C16.3058 18.3881 16.4263 18.6667 15.9444 18.7065C15.4625 18.7463 15.2215 18.4677 15.3018 18.0299C15.3822 17.5124 15.6633 17.4726 15.7034 17.6716ZM16.3058 22.9254C16.3058 22.9254 16.0649 24.0398 16.3058 24.5572C16.5468 25.0746 17.35 25.8706 17.35 25.8706C17.35 25.8706 17.5508 23.801 17.35 23.5224C17.1492 23.2438 16.3058 22.9254 16.3058 22.9254Z" fill="black"/>
<path d="M29.7198 23.0452C29.6797 22.5676 30.0411 21.2939 30.2419 20.7765C30.4427 20.2989 31.768 19.4631 31.768 19.4631C31.768 19.4631 31.1255 19.3437 30.3222 18.9457C29.519 18.5477 29.1174 17.672 28.6757 16.9556C27.752 15.483 28.9969 13.7317 28.9969 13.7317C28.9969 13.7317 29.9608 12.0203 29.519 11.8213C29.0773 11.6223 29.0773 11.6223 26.3062 12.2989C24.8202 12.6571 23.8564 12.2591 23.8564 12.2591C22.25 11.4233 21.4066 11.7019 20.5632 12.2193C20.4026 12.2989 20.2419 12.3785 20.0813 12.4183C19.9206 12.3785 19.76 12.3387 19.5994 12.2193C18.7961 11.7019 17.9126 11.4233 16.3062 12.2591C16.3062 12.2591 15.3022 12.6173 13.8564 12.2591C11.0853 11.5427 11.0853 11.5427 10.6435 11.7815C10.2018 11.9805 11.1656 13.6919 11.1656 13.6919C11.1656 13.6919 12.3704 15.4432 11.4869 16.9158C11.0451 17.6322 10.6435 18.5079 9.84031 18.9059C9.0371 19.3039 8.39453 19.4233 8.39453 19.4233C8.39453 19.4233 9.67967 20.2591 9.92064 20.7367C10.1214 21.2143 10.4829 22.5278 10.4427 23.0054C10.4026 23.483 10.2821 24.1198 9.2379 24.7964C9.2379 24.7964 10.5632 26.2293 12.5311 26.3089C15.4628 26.3885 15.262 28.4581 14.2178 28.9755C14.2178 28.9755 16.1455 29.2541 16.507 28.1795C17.0692 26.3885 15.7038 25.274 14.0572 24.7964C12.9327 24.478 11.5672 21.7317 11.5672 20.8163C11.5672 19.9009 11.7279 17.7516 14.017 15.5626C14.017 15.5626 13.013 14.8064 12.25 13.6521C11.5271 12.4979 12.6516 13.0153 13.5351 13.2541C14.7801 13.5725 16.5471 13.2541 17.1897 12.7765C17.752 12.4183 18.3945 12.4979 18.9969 12.7367C19.3985 12.9755 19.5994 13.2939 20.1214 13.2939C20.764 13.2939 20.8845 12.9357 21.2459 12.7367C21.8483 12.4979 22.4909 12.4183 23.0532 12.7765C23.7359 13.2541 25.503 13.5327 26.7078 13.2541C27.5913 13.0551 28.7158 12.5377 27.9929 13.6521C27.27 14.8064 26.2259 15.5626 26.2259 15.5626C28.515 17.7516 28.6757 19.8611 28.6757 20.8163C28.6757 21.7715 27.3102 24.478 26.1857 24.7964C24.5391 25.274 23.1335 26.3885 23.7359 28.1795C24.0973 29.2541 26.0251 28.9755 26.0251 28.9755C24.9407 28.4581 24.7399 26.3885 27.7118 26.3089C29.6797 26.2691 31.005 24.7964 31.005 24.7964C29.9206 24.1596 29.76 23.483 29.7198 23.0452Z" fill="black"/>
<path d="M22.4497 18.3481C22.4497 18.3481 21.9277 17.9103 22.4497 17.6317C22.9718 17.353 23.4136 17.2336 23.4136 17.6317C23.3734 18.0297 22.8514 18.4277 22.4497 18.3481ZM24.4578 17.6715C24.4578 17.6715 24.3775 18.3481 23.8554 18.3879C23.8554 18.3879 23.7349 18.6665 24.2168 18.7063C24.6987 18.7461 24.9397 18.4675 24.8594 18.0297C24.7791 17.5919 24.4979 17.4724 24.4578 17.6715ZM23.8554 22.9252C23.8554 22.9252 24.0963 24.0396 23.8554 24.557C23.6144 25.0744 22.8112 25.8705 22.8112 25.8705C22.8112 25.8705 22.6104 23.8008 22.8112 23.5222C23.012 23.2436 23.8554 22.9252 23.8554 22.9252ZM21.7269 23.9998C21.3654 23.8008 20.0803 23.8008 20.0803 23.8008H20C20 23.8008 18.7951 23.8406 18.4337 23.9998C18.0722 24.1988 18.755 25.6317 18.755 25.6317C18.755 25.6317 18.9156 24.7162 19.8795 24.6366H20.2008C21.2048 24.6764 21.4056 25.6317 21.4056 25.6317C21.4056 25.6317 22.0883 24.159 21.7269 23.9998ZM21.3253 26.8257C21.3253 26.6267 21.2851 26.4675 21.2048 26.3879C21.1244 26.3083 20.9638 26.2685 20.8032 26.2287C20.6024 26.1491 20.4417 26.1093 20.2811 26.1093H19.8795C19.7188 26.1093 19.5582 26.1491 19.3574 26.2287C19.1967 26.2685 19.0361 26.3083 18.9558 26.3879C18.8755 26.4675 18.8353 26.6267 18.8353 26.8257C18.7951 26.9849 18.8353 27.1839 18.9156 27.3829C19.1566 28.1391 19.6385 28.4973 20.0803 28.4973C20.5622 28.5371 21.004 28.1789 21.2449 27.3829C21.3253 27.1839 21.3654 26.9849 21.3253 26.8257Z" fill="black"/>
<path d="M22.6908 29.8111C22.5703 29.6917 22.4096 29.4927 22.4096 29.4927C22.4096 29.4927 22.1687 28.4181 22.6908 27.5027C22.6908 27.5027 21.9277 27.2241 21.3655 28.5375C21.1647 28.9753 21.0442 29.2937 21.004 29.3733H19.0763C19.0361 29.2937 18.9157 28.9753 18.7149 28.5375C18.1526 27.2639 17.3896 27.5027 17.3896 27.5027C17.9116 28.4181 17.6707 29.4927 17.6707 29.4927C17.6707 29.4927 17.4699 29.6519 17.3896 29.8111C17.1084 30.1693 17.8715 30.2887 19.0361 31.4032C19.3574 31.6818 19.7189 31.7216 20 31.642C20.2811 31.6818 20.6426 31.6818 20.9639 31.4032C22.249 30.2887 22.9719 30.1693 22.6908 29.8111ZM27.3092 18.6669C27.0683 18.1096 25.1807 15.5226 24.0964 14.4878C23.012 13.4927 21.1245 13.6519 21.1245 13.6519C20.6426 13.6519 20.3213 13.6519 20.0803 13.6917C19.8394 13.6519 19.5181 13.6519 19.0361 13.6519C19.0361 13.6519 17.1486 13.4927 16.0643 14.4878C14.9799 15.4828 13.3333 17.9902 13.0924 18.5475C12.8514 19.1047 12.4096 21.2141 13.3333 20.7763C14.2169 20.3385 14.4177 20.6967 14.4177 21.1345C14.4177 21.5723 14.3775 22.4878 15.1807 22.9256C15.1807 22.9256 15.0602 19.9405 15.9036 19.9007C16.7871 19.9007 17.3092 20.9355 17.51 21.3733C17.51 21.3733 17.1084 21.5723 16.2651 20.8957C16.2651 20.8957 16.0643 20.9753 16.2249 21.4131C16.3855 21.8509 15.9839 21.6519 17.9116 22.9654C17.9116 22.9654 18.2329 23.244 19.1566 23.2838C19.4779 23.3236 19.7992 23.3236 20.1205 23.3236C20.4418 23.3236 20.7631 23.3236 21.0843 23.2838C22.008 23.244 22.3293 22.9654 22.3293 22.9654C24.257 21.6519 23.8153 21.8907 24.0161 21.4529C24.1767 21.0151 23.9759 20.9355 23.9759 20.9355C23.1325 21.6121 22.7309 21.4131 22.7309 21.4131C22.9317 20.9753 23.4538 19.9405 24.3374 19.9405C25.2209 19.9405 25.0602 22.9654 25.0602 22.9654C25.8635 22.5276 25.8233 21.6121 25.8233 21.1743C25.8233 20.7365 26.0241 20.3783 26.9076 20.8161C27.751 21.2141 27.5502 19.2241 27.3092 18.6669ZM17.6305 14.5674C17.992 14.448 19.5582 14.4082 20.0803 14.3684C20.6024 14.3684 22.1687 14.448 22.5301 14.5674C22.9317 14.6868 22.3293 14.9654 21.6466 14.9654C20.9639 14.9654 21.0442 14.9654 20.6426 15.3236C20.4819 15.4828 20.2811 15.6022 20.0803 15.642C19.8795 15.5624 19.6787 15.443 19.5181 15.3236C19.1165 14.9256 19.1968 14.9654 18.5141 14.9654C17.8313 14.9654 17.1888 14.7266 17.6305 14.5674ZM24.7791 19.2639C24.2972 18.8659 23.9357 18.9455 23.2932 19.0251C22.6506 19.1047 22.2892 20.0599 21.8072 20.6967C21.4056 21.2539 20.6827 21.9703 20.0402 22.1693C19.4378 21.9703 18.7149 21.2539 18.2731 20.6967C17.7912 20.0599 17.4297 19.1047 16.7872 19.0251C16.1446 18.9455 15.7831 18.8659 15.3012 19.2639C14.8193 19.6619 14.2169 19.4629 14.3775 18.4679C14.5382 17.5126 15.1406 16.4778 15.6627 16.3584C16.2249 16.239 15.8233 16.7962 16.2249 16.8758C16.6265 16.9554 17.3494 16.6768 17.7912 17.0748C17.8313 17.1146 17.8715 17.1544 17.9518 17.1942C18.1125 17.3136 18.3133 17.433 18.4739 17.5126C19.0763 17.7116 19.1968 17.0748 19.1165 16.7564C18.996 16.0798 18.4337 16.1196 18.8353 15.8808C18.996 15.8808 19.1566 15.9206 19.2771 16.1196C19.6386 16.637 19.759 16.7166 19.4779 17.5126C19.1968 18.2689 19.0361 18.1494 18.755 18.4281C18.5141 18.6669 18.2731 19.4629 19.2369 20.3783C19.2771 20.4181 19.3173 20.4579 19.3976 20.4977C19.5984 20.7365 19.8394 20.8559 20.0803 20.8559C20.3213 20.8559 20.5623 20.7365 20.7631 20.4977C20.8032 20.4579 20.8434 20.4181 20.9237 20.3783C21.8876 19.4629 21.6466 18.6669 21.4056 18.4281C21.1647 18.1892 20.9639 18.2689 20.6827 17.5126C20.4016 16.7564 20.5221 16.637 20.8835 16.1196C21.004 15.9604 21.1647 15.8808 21.3253 15.8808C21.6867 16.1196 21.1647 16.0798 21.0442 16.7564C20.9639 17.0748 21.0843 17.7514 21.6867 17.5126C21.8474 17.433 22.0482 17.3136 22.2088 17.1942C22.249 17.1544 22.3293 17.1146 22.3695 17.0748C22.8112 16.6768 23.5341 16.9554 23.9357 16.8758C24.3374 16.7962 23.9357 16.239 24.4578 16.3584C24.9398 16.4778 25.5823 17.4728 25.743 18.4679C25.8635 19.4231 25.3012 19.6619 24.7791 19.2639ZM1.28514 14.4878C1.16466 14.5674 1.08434 14.7266 1.08434 14.7266C0.281125 16.5574 0 18.2689 0 19.7813C0 21.2937 0.281125 23.045 1.08434 24.836C1.08434 24.836 1.16466 24.9952 1.3253 25.0748C1.36546 25.1146 1.40562 25.1146 1.44578 25.1146C1.56627 25.1146 1.76707 24.9952 1.88755 24.8758C2.00803 24.7564 2.28916 24.3584 2.61044 23.9604C2.77108 23.7614 2.97189 23.4828 3.17269 23.2042C3.49398 22.7664 4.29719 21.7713 4.21687 20.8559C4.09639 19.9405 3.61446 20.5375 3.61446 20.5375C3.61446 20.5375 2.36948 22.3684 1.88755 22.647C1.84739 22.6868 1.80723 22.6868 1.76707 22.6868C1.60643 22.4082 1.28514 20.8161 1.28514 20.0201V19.7017C1.28514 18.9057 1.64659 17.1544 1.80723 16.8758C1.84739 16.8758 1.88755 16.8758 1.92771 16.9156C2.40964 17.234 3.61446 19.1047 3.61446 19.1047C3.61446 19.1047 4.13655 19.7017 4.21687 18.7863C4.33735 17.8708 3.49398 16.9156 3.17269 16.438C2.97189 16.1196 2.77108 15.8808 2.61044 15.6818C2.28916 15.244 2.04819 14.8858 1.88755 14.7664C1.72691 14.6072 1.56627 14.4878 1.44578 14.4878C1.40562 14.448 1.3253 14.448 1.28514 14.4878ZM38.7149 25.0748C38.8353 24.9952 38.9157 24.836 38.9157 24.836C39.7189 23.0052 40 21.2937 40 19.7813C40 18.2689 39.7189 16.5176 38.9157 14.7266C38.9157 14.7266 38.8353 14.5674 38.6747 14.4878C38.6345 14.448 38.5944 14.448 38.5542 14.448C38.4337 14.448 38.2329 14.5674 38.1125 14.6868C37.992 14.8062 37.7108 15.2042 37.3896 15.6022C37.2289 15.8012 37.0281 16.0798 36.8273 16.3584C36.506 16.7962 35.7028 17.7912 35.7831 18.7067C35.9036 19.6221 36.3855 19.0251 36.3855 19.0251C36.3855 19.0251 37.6305 17.1942 38.1125 16.9156C38.1526 16.8758 38.1928 16.8758 38.2329 16.8758C38.3936 17.1544 38.7149 18.7465 38.7149 19.5425V19.8609C38.7149 20.6569 38.3534 22.4082 38.1928 22.6868C38.1526 22.6868 38.1125 22.6868 38.0723 22.647C37.5904 22.3286 36.3855 20.4579 36.3855 20.4579C36.3855 20.4579 35.8635 19.8609 35.7831 20.7763C35.6627 21.6917 36.506 22.647 36.8273 23.1246C37.0281 23.443 37.2289 23.6818 37.3896 23.8808C37.7108 24.3186 37.9518 24.6768 38.1125 24.7962C38.2731 24.9554 38.4337 25.0748 38.5542 25.0748C38.5944 25.1146 38.6747 25.1146 38.7149 25.0748Z" fill="black"/>
</g>
<defs>
<clipPath id="clip0_283_135">
<rect width="40" height="40" fill="white"/>
</clipPath>
</defs>
</svg>
