<svg width="40" height="40" viewBox="0 0 40 40" fill="none" xmlns="http://www.w3.org/2000/svg">
<g clip-path="url(#clip0_283_141)">
<rect width="40" height="40" fill="white"/>
<path d="M11.6508 17.1457C11.191 17.1375 10.8267 17.0107 10.6117 16.7611C10.1937 16.27 10.0922 15.7381 10.3729 15.1897C10.4385 15.0588 10.5699 14.9892 10.7909 14.9687C11.3582 14.9155 11.9674 14.4368 11.9375 14.0439C11.9136 13.7575 11.8001 13.471 11.7345 13.1846C11.7165 13.1109 11.6927 13.0291 11.7285 12.9677C12.0569 12.3662 12.3794 11.7647 13.0841 11.3063C13.1319 11.2736 13.1856 11.2409 13.2692 11.1877C13.3469 11.2859 13.4245 11.3677 13.4842 11.4577C13.9381 12.1207 14.7144 12.5299 15.6819 12.7959C16.1597 12.9268 16.727 12.8531 17.0375 12.5749C17.8736 11.8301 18.435 11.0035 18.4887 10.0501C18.5365 9.30941 17.9393 8.76517 17.1928 8.2823C17.145 8.24956 17.0853 8.22092 16.9957 8.16772C17.1809 8.05724 17.354 7.95084 17.5332 7.85263C17.8019 7.70123 18.0946 7.57028 18.3454 7.40251C18.6619 7.18563 18.859 6.92373 18.859 6.60046C18.853 5.86389 18.9008 5.12731 18.8411 4.39074C18.8112 4.03473 18.6738 3.64598 18.417 3.33908C18.1005 2.95852 18.0647 2.59023 18.1841 2.20148C18.423 1.4158 18.9844 0.720153 19.7607 0.106342C19.9399 -0.0368804 20.1071 -0.0286962 20.2743 0.114526C21.194 0.883836 21.8927 1.71862 21.9106 2.74982C21.9106 2.8644 21.8688 2.99534 21.7792 3.09355C21.3552 3.58869 21.1582 4.11657 21.1761 4.69355C21.194 5.30737 21.2 5.92118 21.1761 6.53499C21.1582 6.9401 21.397 7.24701 21.827 7.50072C22.1555 7.69713 22.5078 7.87719 22.8482 8.06133C22.902 8.08997 22.9617 8.11862 23.0453 8.15954C22.8363 8.29867 22.6511 8.41325 22.4839 8.53192C21.5165 9.22348 21.3194 10.0296 21.7494 10.9176C22.0062 11.4496 22.3227 11.9611 22.8064 12.4235C23.2364 12.8368 23.8097 12.9677 24.4905 12.7631C25.3803 12.493 26.1089 12.1002 26.5329 11.4782C26.5926 11.3923 26.6703 11.3104 26.7359 11.2286C26.7419 11.2245 26.7539 11.2204 26.7897 11.2081C27.154 11.4414 27.4884 11.6951 27.7094 12.0102C27.8945 12.2721 28.0438 12.5503 28.2409 12.8081C28.4559 13.0905 28.1991 13.336 28.1394 13.5979C27.9781 14.2772 28.1812 14.5309 28.8918 14.8787C28.9695 14.9196 29.065 14.9442 29.1606 14.9647C29.5607 15.0424 29.7876 15.1774 29.7816 15.468C29.7697 15.8322 29.7219 16.2046 29.5905 16.5524C29.4472 16.9288 28.8799 17.1662 28.4021 17.1335C28.4379 17.023 28.4678 16.9125 28.5096 16.802C28.7903 16.1514 27.7691 15.7135 27.0405 15.7462C26.2044 15.7831 25.4998 16.0163 24.9742 16.4664C24.2397 17.1007 23.6664 17.8005 23.2722 18.5657C22.9915 19.1099 23.1707 19.5969 23.7679 19.8097C24.1322 19.9406 24.5741 19.9774 24.9862 20.0429C25.1056 20.0634 25.237 20.047 25.4221 20.047C25.237 20.5381 25.0996 21.0046 24.8906 21.4547C24.4248 22.4368 23.8455 23.4025 23.4394 24.3969C22.8482 25.8332 22.3585 27.29 22.3944 28.7999C22.4182 29.9907 22.7945 31.1242 23.5887 32.1882C23.6843 32.315 23.7858 32.446 23.9232 32.5483C24.1441 32.7202 24.1441 32.8961 24.0486 33.0966C23.5768 34.0583 23.1588 35.0322 22.6392 35.9815C22.0241 37.1191 21.3314 38.2363 20.6565 39.3575C20.549 39.5335 20.4057 39.6971 20.2504 39.8567C20.0892 40.0245 19.9459 40.0245 19.7906 39.8608C19.5995 39.6521 19.4144 39.4393 19.283 39.2143C18.2259 37.3647 17.0196 35.5478 16.2134 33.6327C16.1358 33.4485 16.076 33.2644 15.9865 33.0843C15.8849 32.8879 15.9327 32.7324 16.1059 32.5565C16.8823 31.7667 17.2764 30.8787 17.4974 29.9498C17.8796 28.3007 17.4197 26.7048 16.8763 25.113C16.4941 23.9877 15.9029 22.9115 15.3355 21.8271C15.0369 21.2583 14.8399 20.669 14.6129 20.1166C15.1325 20.0388 15.6043 19.9897 16.0522 19.8915C16.6135 19.7687 16.936 19.4209 16.8763 19.0199C16.8405 18.7866 16.7927 18.537 16.6374 18.3324C16.2134 17.7636 15.7715 17.1989 15.2758 16.6588C14.7921 16.1309 14.0635 15.824 13.1379 15.7585C11.9733 15.6726 11.2448 16.2946 11.621 17.0516C11.621 17.0721 11.6329 17.0966 11.6508 17.1457ZM19.5278 22.3263H19.5039C19.5039 22.7069 19.4562 23.0956 19.5159 23.4721C19.5875 23.8895 19.7607 24.2946 19.8921 24.7038C19.9041 24.7365 19.9638 24.7734 20.0056 24.7815C20.0354 24.7856 20.1131 24.7447 20.119 24.7161C20.2624 24.3069 20.5072 23.8976 20.5132 23.4884C20.549 21.1314 20.5132 18.7744 20.8357 16.4214C20.9432 15.6276 21.0447 14.8214 21.5523 14.0971C21.7912 13.7575 21.7613 13.5365 21.4806 13.2378C20.9014 12.624 20.4774 11.9529 20.1668 11.2531C20.1429 11.204 20.0653 11.1672 20.0116 11.1263C19.9578 11.1713 19.91 11.2163 19.8623 11.2613C19.8503 11.2736 19.8443 11.2859 19.8384 11.2982C19.4801 12.1207 18.9127 12.8736 18.2379 13.5938C18.1961 13.6388 18.2319 13.7288 18.2677 13.7861C18.435 14.0849 18.6738 14.3672 18.7754 14.6741C19.1635 15.7953 19.3188 16.9452 19.3726 18.0951C19.4442 19.5069 19.4801 20.9186 19.5278 22.3263Z" fill="black"/>
<path d="M25.8167 25.076C26.0675 24.6995 26.3123 24.3435 26.5393 23.9834C27.011 23.2427 27.2081 22.4447 27.441 21.6632C27.5246 21.3849 27.453 21.0862 27.453 20.7752C27.5127 20.7875 27.6202 20.7997 27.7038 20.8366C28.5219 21.2376 29.3341 21.6509 29.8477 22.2606C30.1642 22.633 30.3255 23.0381 30.3732 23.48C30.433 24.0284 30.9346 24.544 31.8841 24.5194C31.9259 24.5194 31.9618 24.5153 32.0036 24.5194C33.198 24.6176 33.8489 24.1102 34.3685 23.4882C34.5297 23.2959 34.6014 23.0627 34.4461 22.8294C34.2908 22.5962 34.1594 22.3588 34.0042 22.1256C33.8788 21.9414 34.1057 21.9087 34.249 21.876C34.4998 21.8187 34.7686 21.7982 35.0313 21.7614C35.4972 21.6918 35.8316 21.4995 36.0645 21.2212C36.3989 20.8243 36.3989 20.4069 36.1182 20.01C35.5449 19.2038 35.2583 18.369 35.4195 17.477C35.5449 16.769 35.8794 16.1225 36.7274 15.656C36.8707 15.5783 37.026 15.5087 37.223 15.4105C37.0857 15.7338 36.9663 16.0079 36.8528 16.2821C36.5841 16.9573 36.6915 17.5997 37.1633 18.2217C37.6053 18.811 38.0412 19.4002 38.4055 20.01C38.6921 20.4846 38.8832 20.988 39.0803 21.4872C39.2236 21.8514 38.9549 22.1706 38.7101 22.4693C38.3995 22.8499 37.9277 23.1813 37.7187 23.5783C37.4978 23.9997 37.4201 24.4785 37.4261 24.9327C37.4321 25.3174 37.9158 25.567 38.3876 25.7348C38.9012 25.9148 39.4566 26.0458 40.0179 26.2054C39.8985 26.2749 39.7492 26.3731 39.582 26.4468C38.4772 26.9215 37.229 27.1588 36.0048 27.433C34.5536 27.7563 33.0666 27.8504 31.5557 27.7603C31.2511 27.744 30.9525 27.658 30.648 27.654C29.5193 27.6499 28.4443 27.7931 27.4769 28.2391C26.5333 28.6729 26.0316 29.2417 26.0615 30.0314C26.0854 30.588 26.0496 31.1486 26.2466 31.6969C26.3721 32.0407 26.6109 32.3271 26.9692 32.5726C27.0528 32.6299 27.1245 32.6913 27.1962 32.7527C27.1842 32.7731 27.1663 32.7895 27.1544 32.81C27.029 32.7772 26.8797 32.7609 26.7841 32.7036C25.739 32.0529 24.8014 31.3327 24.5207 30.3588C24.246 29.4054 24.3476 28.456 25.1239 27.5967C25.2016 27.5107 25.3508 27.4453 25.4822 27.3921C26.1212 27.122 26.7184 26.8233 27.1185 26.3731C27.3455 26.1153 27.232 25.6202 26.9334 25.3992C26.6348 25.1864 26.2586 25.0719 25.8167 25.076ZM12.8337 32.7813C12.8695 32.7445 12.8994 32.6954 12.9471 32.6708C13.7295 32.2289 13.8788 31.6028 13.9504 30.9767C14.0042 30.5184 13.9624 30.0519 13.9086 29.5895C13.837 29.0248 13.3174 28.6442 12.6844 28.321C11.7229 27.8299 10.6181 27.6662 9.45357 27.6744C8.91012 27.6785 8.37265 27.7685 7.8292 27.7972C6.63482 27.8586 5.46432 27.7522 4.32368 27.5107C3.49955 27.3348 2.66348 27.1711 1.86324 26.946C1.26605 26.7783 0.716632 26.5286 0.149298 26.3077C0.083607 26.2831 0.0418035 26.234 0 26.2013C0.418035 26.099 0.842042 26.0171 1.23619 25.8944C1.83338 25.7102 2.3828 25.4811 2.59779 25.0105C2.60973 24.9777 2.63362 24.945 2.63362 24.9123C2.60376 24.3353 2.5739 23.7665 2.06629 23.255C1.68408 22.8703 1.38549 22.4447 1.04509 22.0396C0.859958 21.8187 0.919677 21.5895 0.991341 21.3644C1.22425 20.591 1.68408 19.8749 2.20364 19.1752C2.52613 18.7373 2.80681 18.2872 3.11138 17.8412C3.40997 17.4033 3.37414 16.9491 3.24873 16.499C3.14721 16.1552 2.99194 15.8197 2.84861 15.4473C2.98597 15.5087 3.12332 15.5578 3.24873 15.6233C4.09077 16.0775 4.467 16.6995 4.61033 17.4033C4.80143 18.3322 4.49089 19.1956 3.91162 20.0386C3.43983 20.7302 3.86384 21.6059 5.0642 21.7818C5.24933 21.8105 5.44043 21.8187 5.61362 21.8596C5.7868 21.8964 5.95402 21.966 6.05554 21.9987C5.85249 22.3547 5.6375 22.6494 5.52404 22.9644C5.47029 23.1199 5.55987 23.3164 5.64945 23.476C5.90027 23.9261 6.47357 24.1798 6.99313 24.4621C7.01105 24.4703 7.02896 24.4744 7.04688 24.4785C7.6381 24.5522 8.22932 24.6013 8.80263 24.4335C9.39385 24.2616 9.6387 23.8933 9.67453 23.5005C9.74022 22.6944 10.2299 22.0519 11.0958 21.5281C11.4303 21.3235 11.7707 21.1271 12.123 20.9389C12.2663 20.8611 12.4455 20.8161 12.5829 20.7629C12.559 22.3138 13.2099 23.7133 14.1893 25.0268C13.8967 25.1169 13.5742 25.1905 13.2935 25.3092C12.7322 25.5506 12.5351 26.2504 13.2039 26.6678C13.6578 26.9501 14.1654 27.1875 14.6491 27.4453C14.7328 27.4903 14.8403 27.5312 14.888 27.5885C15.2344 28.0141 15.539 28.4478 15.5688 28.9471C15.6047 29.5118 15.742 30.0887 15.4136 30.6248C15.1627 31.034 14.8343 31.4309 14.464 31.7951C14.1475 32.1102 13.7295 32.3844 13.3353 32.6627C13.2219 32.7445 13.0487 32.7813 12.8994 32.8386C12.8755 32.8182 12.8516 32.8018 12.8337 32.7813ZM8.67722 14.7476C8.48014 14.4693 8.34279 14.1788 8.09794 13.9414C7.6799 13.5404 7.05285 13.3563 6.34816 13.3317C5.57181 13.3072 4.79546 13.3235 4.01911 13.3194C3.82801 13.3194 3.63093 13.3072 3.42789 13.254C3.50552 13.2335 3.58316 13.2089 3.66079 13.1885C4.24007 13.0371 4.78949 12.8447 5.2135 12.5256C5.55987 12.2596 5.7868 11.9568 5.76889 11.5844C5.75694 11.3102 5.73903 11.0361 5.77486 10.766C5.80472 10.5532 5.92416 10.3445 6.00179 10.1317C6.03762 10.1317 6.07345 10.1358 6.10331 10.1358C6.19886 10.2176 6.29442 10.3036 6.39594 10.3813C6.99313 10.8274 7.73962 11.0483 8.59361 10.8765C9.3401 10.7291 9.66259 10.4182 9.63273 9.878C9.60287 9.33375 9.15497 8.97774 8.51597 8.72403C8.3189 8.64628 8.00239 8.61764 7.78143 8.66265C6.65273 8.90408 5.54792 8.82224 4.47895 8.53989C3.53538 8.29437 2.61571 7.99564 1.69006 7.71738C1.59451 7.68874 1.50493 7.64782 1.42132 7.57007C1.54076 7.57007 1.6602 7.55779 1.77366 7.57416C3.66677 7.84015 5.47029 7.58235 7.16632 7.02992C8.37862 6.63708 9.05345 5.88823 9.46551 5.02889C9.81188 4.31687 9.59092 3.69488 8.83249 3.17109C8.43834 2.89692 7.98447 2.65958 7.56047 2.40997C7.49477 2.37314 7.43506 2.33631 7.32159 2.27084C7.79934 2.21355 8.20543 2.24219 8.59958 2.33222C9.61481 2.55728 10.63 2.78235 11.484 3.24066C11.9021 3.46572 12.2962 3.72761 12.6247 4.01406C13.192 4.50102 13.3712 5.05754 13.0845 5.66726C12.6844 6.51841 12.3022 7.37365 12.1708 8.26163C12.123 8.59718 12.2365 8.9491 12.332 9.28465C12.4455 9.6693 12.6067 10.0499 12.768 10.4304C12.8397 10.5941 12.6963 10.6391 12.5411 10.6882C11.6811 10.9788 11.0361 11.4166 10.5942 11.9936C10.3255 12.3496 10.1702 12.7384 10.1941 13.1353C10.2239 13.6836 9.79397 14.0601 9.28635 14.412C9.1072 14.5471 8.85637 14.6494 8.67722 14.7476ZM32.6486 2.29539C32.3619 2.4468 32.0514 2.58183 31.7826 2.74961C31.0779 3.19155 30.4031 3.65396 30.3912 4.37007C30.3792 4.87339 30.6599 5.32761 31.0063 5.76137C31.5975 6.49795 32.4634 7.00536 33.6399 7.26726C35.0552 7.57825 36.4825 7.79104 37.9755 7.6069C38.1487 7.58644 38.3279 7.57007 38.507 7.5537C38.5309 7.54961 38.5608 7.56598 38.6085 7.58235C38.5787 7.6069 38.5608 7.63554 38.5369 7.64373C37.2708 7.99974 36.0227 8.39667 34.7328 8.69539C33.9982 8.86316 33.1801 8.88772 32.4156 8.6872C31.9498 8.56444 31.5736 8.65447 31.2033 8.85498C30.5166 9.22736 30.2239 9.79206 30.4688 10.3036C30.6599 10.7046 31.4601 11.032 32.2843 10.9092C32.983 10.8069 33.5145 10.5491 33.9206 10.1194C34.1535 10.3199 34.2669 10.5245 34.2729 10.7619C34.2789 11.0074 34.2908 11.2529 34.2729 11.4985C34.2371 12.0386 34.5775 12.4519 35.1986 12.7506C35.6226 12.9552 36.1063 13.1066 36.6079 13.299C36.4049 13.3072 36.2257 13.3235 36.0406 13.3276C35.2941 13.3317 34.5476 13.3194 33.8011 13.3358C32.5948 13.3603 31.6035 13.8841 31.4482 14.7762C31.0361 14.6084 30.6718 14.412 30.3852 14.1624C30.0627 13.88 29.8179 13.5854 29.8298 13.2008C29.8477 12.7547 29.6984 12.3169 29.37 11.924C28.928 11.4002 28.3249 10.9829 27.5246 10.7128C27.2738 10.6309 27.2141 10.5532 27.2917 10.3527C27.5246 9.74705 27.7934 9.13733 27.865 8.51943C27.9188 8.07339 27.7098 7.60281 27.5545 7.15268C27.3813 6.64117 27.1484 6.14194 26.9274 5.6427C26.6348 4.99206 26.9394 4.24322 27.6918 3.80946C27.7396 3.7849 27.7874 3.75626 27.8232 3.72761C28.8743 2.85191 30.3673 2.55728 31.8662 2.27084C32.1051 2.22582 32.3738 2.26265 32.6306 2.26265C32.6306 2.26674 32.6366 2.27902 32.6486 2.29539Z" fill="black"/>
</g>
<defs>
<clipPath id="clip0_283_141">
<rect width="40" height="40" fill="white"/>
</clipPath>
</defs>
</svg>
