<svg width="40" height="40" viewBox="0 0 40 40" fill="none" xmlns="http://www.w3.org/2000/svg">
<g clip-path="url(#clip0_283_144)">
<path d="M10.6939 36.7689C10.4622 36.7228 10.2199 36.6998 10.0039 36.6265C8.84256 36.237 8.28163 35.1983 8.85573 34.3376C9.13225 33.9229 9.59574 33.5607 10.054 33.2507C10.8414 32.7167 11.7842 32.3984 12.8033 32.2393C13.3959 32.1471 13.9884 32.0634 14.6863 31.9607C14.0516 31.6948 13.4749 31.4602 12.906 31.2131C12.5558 31.0624 12.1924 31.0163 11.7921 31.01C10.5912 30.9953 9.63524 31.4163 8.83993 32.0717C7.94718 32.8068 7.44418 33.7177 7.12816 34.7041C6.88588 35.4642 7.11499 36.1385 7.58902 36.7961C8.16049 37.5919 8.97687 38.1363 10.1014 38.3437C10.4964 38.417 10.923 38.4274 11.3259 38.4002C12.0475 38.3499 12.4583 37.8138 12.2977 37.1982C12.166 36.6914 12.0185 36.5783 11.3865 36.4966C11.4076 36.1595 11.5577 36.0317 11.9448 36.0213C12.8639 35.9982 13.5539 36.5741 13.646 37.3489C13.7909 38.5698 12.6163 39.464 11.5656 39.8095C10.9625 40.0085 10.2594 40.0336 9.59047 39.908C9.05324 39.8074 8.51601 39.7153 7.98668 39.5959C7.18873 39.4158 6.53563 39.0263 5.92203 38.6054C5.4164 38.2599 4.91867 37.8976 4.47624 37.5018C4.19446 37.2505 3.97851 36.9364 3.80997 36.6244C3.58349 36.2014 3.2148 35.8579 2.90405 35.4831C2.47743 34.9721 2.24305 34.4172 2.30625 33.791C2.33259 33.5313 2.28518 33.2675 2.30099 33.0078C2.34312 32.3 2.85928 31.7995 3.47552 31.3472C3.59403 31.2592 3.7178 31.1733 3.90214 31.0435C3.73097 31.0309 3.63616 31.0205 3.54136 31.0184C2.55117 31.0163 1.56361 31.0184 0.573419 31.0184C0.117826 31.0184 0.00195312 30.9262 0.00195312 30.5535V9.87184C0.00195312 9.43626 0.188931 9.28968 0.739329 9.28968H9.68791C9.43246 9.1389 9.26128 9.00069 9.05061 8.92111C8.3185 8.63631 7.92347 8.09602 7.54162 7.58505C7.24667 7.19136 7.39414 6.70971 7.56269 6.27622C7.63379 6.08984 7.75493 5.91394 7.86817 5.74222C8.46861 4.8208 9.79588 4.32449 11.081 4.54856C12.2003 4.74332 12.64 5.4993 12.5479 6.29926C12.4978 6.73693 12.2556 7.0678 11.6999 7.19764C11.563 7.22905 11.397 7.23324 11.2601 7.20602C10.7123 7.09503 10.6728 7.01964 10.894 6.60709C11.1574 6.11916 10.844 5.69405 10.1777 5.63751C10.0487 5.62704 9.91966 5.62076 9.79062 5.61866C9.29025 5.60819 8.94527 5.84692 8.88996 6.24272C8.87153 6.37255 8.8768 6.50658 8.84256 6.63432C8.71615 7.12434 9.03744 7.41124 9.53253 7.62065C10.104 7.86357 10.6913 8.02063 11.3681 7.9976C12.2608 7.96619 13.1588 7.96828 14.0174 7.75049C14.7811 7.55574 15.3578 7.15576 15.7581 6.605C16.0425 6.2134 16.1584 5.77991 16.3059 5.34433C16.5639 4.59045 17.0037 3.88682 17.9597 3.51616C18.1625 3.43658 18.4047 3.40307 18.6339 3.38841C19.5714 3.32768 20.3957 3.58317 21.1093 4.04388C21.6913 4.42082 22.2417 4.83127 22.779 5.248C23.0476 5.45532 23.2003 5.72128 23.0318 6.07728C22.8659 6.01027 22.6921 5.94535 22.5261 5.86996C22.0495 5.65426 21.5518 5.5705 21.0066 5.66055C19.7162 5.87415 18.9183 6.54427 18.381 7.44684C18.1546 7.82588 17.9781 8.22167 17.7964 8.61537C17.6437 8.94414 18.0071 9.30433 18.4416 9.25408C18.5338 9.2436 18.6128 9.14309 18.6944 9.08236C19.2106 8.69075 19.7004 8.27193 20.2508 7.91383C21.0567 7.3882 22.0495 7.26046 23.0528 7.18926C24.1036 7.11387 25.1359 7.17251 26.1446 7.45731C26.3921 7.52642 26.6818 7.52432 26.9504 7.51595C27.2006 7.50966 27.4192 7.41543 27.4218 7.18089C27.4271 6.84792 27.4613 6.50448 27.3876 6.17989C27.2058 5.38622 26.2394 5.08257 25.3993 5.25638C25.049 5.32967 24.6988 5.40716 24.3459 5.47208C24.2563 5.48883 24.1536 5.46579 24.0562 5.45951C24.0746 5.37993 24.0694 5.29198 24.1115 5.22078C24.6145 4.42292 25.315 3.75908 26.2394 3.24183C27.0742 2.77483 27.9143 2.31203 28.7096 1.80316C29.7972 1.10581 31.0534 0.753998 32.3964 0.557149C33.7474 0.358207 35.0958 0.144606 36.4573 0.0231459C37.1578 -0.039678 37.882 0.0859697 38.5957 0.125758L38.6115 0.245123C38.4324 0.291194 38.256 0.343548 38.0716 0.383336C37.7556 0.448254 37.4317 0.494325 37.1183 0.565526C35.5803 0.919434 34.5796 1.7508 33.887 2.8586C33.4209 3.60202 33.1707 4.40826 33.1944 5.21868C33.2207 6.15057 33.7975 7.10969 35.1616 7.43218C36.5178 7.75258 37.8346 8.17979 39.1724 8.55882C39.4542 8.6384 39.7412 8.70332 40.0178 8.82897C39.7728 8.82897 39.5306 8.82478 39.2856 8.82897C37.8899 8.85828 36.5178 8.99859 35.2564 9.51165C34.3926 9.86347 33.6026 10.299 33.2049 11.0571C32.9995 11.4487 33.1259 11.832 33.226 12.2131C33.4182 12.9397 33.7158 13.635 34.3215 14.2214C34.5664 14.458 34.8245 14.6883 35.0405 14.8894C34.2452 14.7114 33.3524 14.5271 32.4728 14.3114C31.5827 14.0936 30.8348 14.2632 30.1922 14.7784C29.784 15.1072 29.8367 15.5155 29.9473 15.9134C30.0605 16.3218 30.2791 16.6924 30.5767 17.0547C31.0323 17.6097 31.3036 18.2442 31.4063 18.9143C31.509 19.5719 31.6196 20.2273 31.7249 20.8828C31.7381 20.9645 31.7275 21.0482 31.7275 21.1613C31.6749 21.1278 31.6301 21.1131 31.6169 21.088C31.1561 20.175 30.2554 19.6179 29.1836 19.2033C28.6306 18.9897 28.0591 18.8347 27.4244 18.8745C26.9056 18.9059 26.4184 19.4357 26.587 19.8294C26.8451 20.4388 26.9372 21.0566 26.7608 21.6932C26.2288 21.2493 25.7206 20.7844 25.1544 20.3739C24.9095 20.1959 24.5513 20.0933 24.2195 20.0242C23.9061 19.9593 23.4716 20.3781 23.3952 20.755C23.3662 20.8995 23.4558 21.1425 23.1714 21.1236C23.0212 21.1131 22.8527 20.91 22.7658 20.7655C22.5551 20.42 22.6052 20.0703 22.7737 19.708C23.2925 18.6044 24.2379 17.7416 25.3176 16.9898C26.8161 15.9448 27.7088 14.6569 27.9617 13.1115C28.1144 12.1691 27.9222 11.233 27.1031 10.475C26.4922 9.90744 25.689 9.59961 24.7672 9.42161C24.0325 9.27921 23.3504 9.36297 22.6552 9.49281C21.8546 9.64149 21.1989 10.0226 20.7169 10.5106C19.7584 11.4843 19.4581 12.6089 19.9006 13.8172C20.0665 14.2674 20.5484 14.5292 21.0093 14.7637C21.8046 15.1679 22.7052 15.2244 23.619 15.1197C23.785 15.1009 23.964 15.0381 24.0983 14.9543C25.2176 14.2632 25.8048 13.3732 25.6337 12.2256C25.5573 11.7126 25.1912 11.4529 24.5381 11.4089C24.0009 11.3712 23.519 11.6372 23.3478 12.0832C23.2925 12.2319 23.2951 12.3953 23.2662 12.5879C23.44 12.5691 23.5163 12.5586 23.5953 12.5523C24.0325 12.5188 24.3643 12.7178 24.4012 13.0675C24.4354 13.4109 24.388 13.7397 23.9588 13.9428C23.4979 14.1627 22.9949 14.2381 22.5762 13.9512C21.4728 13.1973 21.1409 12.6612 21.5544 11.5828C21.7888 10.9692 23.116 10.1818 23.914 10.1043C25.0885 9.99121 26.0418 10.299 26.5264 11.1346C27.0347 12.0141 27.1848 12.9649 26.558 13.8905C26.2236 14.3826 25.9734 14.9208 25.5626 15.3668C25.0385 15.9364 24.3749 16.4223 23.8008 16.9647C23.2662 17.4673 22.6315 17.8777 22.0205 18.3112C21.0435 19.0044 20.9645 19.9195 21.1778 20.8451C21.2779 21.2765 21.7045 21.599 22.218 21.8503C22.8738 22.1728 23.5664 22.2105 24.2985 22.2586C25.8944 22.3633 26.9109 23.178 26.9267 24.5685C26.9346 25.2595 26.6739 25.9045 26.3526 26.5453C25.8127 27.6196 25.3413 28.7127 24.388 29.6237C23.5032 30.4697 22.5077 31.2152 21.4148 31.8854C19.9611 32.7775 18.3573 33.4455 16.6561 33.9774C16.1136 34.147 15.5606 34.1575 14.9654 34.08C13.3774 33.8685 11.8553 33.9962 10.4964 34.7815C10.1382 34.9889 9.79588 35.1585 9.75111 35.5668C9.69054 36.1176 10.054 36.4171 10.607 36.6369C10.6281 36.6453 10.6544 36.6453 10.6728 36.6558C10.6913 36.6642 10.7044 36.6809 10.7176 36.6935C10.7044 36.7207 10.6992 36.7458 10.6939 36.7689ZM9.30342 15.3459C9.20072 15.4548 9.14278 15.5113 9.09274 15.5721C7.96561 17.0086 6.84375 18.4473 5.71398 19.8818C5.59811 20.0284 5.59547 20.1394 5.71135 20.2881C6.66994 21.4985 7.61536 22.7131 8.56605 23.9277C8.79253 24.2166 9.02164 24.5056 9.26655 24.8177C9.34819 24.7444 9.40086 24.7088 9.43773 24.6627C10.578 23.201 11.7157 21.7393 12.8613 20.2818C12.9798 20.1331 12.9798 20.0305 12.8639 19.8818C11.9764 18.7572 11.1021 17.6264 10.2199 16.4977C9.93019 16.1249 9.63261 15.7584 9.30342 15.3459ZM16.1347 31.0184C16.1215 31.0477 16.1083 31.0791 16.0952 31.1084C16.4928 31.276 16.8773 31.4707 17.2908 31.6089C18.4021 31.9775 19.5108 31.8833 20.4931 31.3744C21.6202 30.788 22.5867 30.0467 23.2267 29.075C23.411 28.7944 23.6243 28.5243 23.8139 28.2458C24.6356 27.0563 25.1307 25.8124 24.8805 24.4323C24.783 23.8858 24.3274 23.5256 23.7507 23.6282C23.0186 23.7601 22.3418 23.6889 21.6624 23.4418C20.4668 23.0062 19.5161 22.3885 19.021 21.3833C18.8498 21.0336 18.6154 20.7027 18.3705 20.2985C18.3705 20.8242 18.4363 21.287 18.3547 21.7351C18.223 22.4785 18.6523 22.9853 19.3001 23.4334C19.3791 23.4879 19.4555 23.5486 19.5371 23.601C20.1744 24.0072 20.7591 24.4784 21.6413 24.5559C22.7632 24.6522 23.7007 25.7956 23.4531 26.5516C23.2899 27.05 22.9528 27.5107 22.6815 28.0091C22.5077 27.7159 22.3997 27.4688 22.2207 27.2594C22.0679 27.0814 21.9389 26.9202 21.9942 26.6982C22.1285 26.137 21.3542 25.5129 20.5905 25.6113C20.0849 25.6763 19.6504 25.5024 19.2422 25.2847C18.9657 25.1381 18.6865 24.9915 18.3968 24.8386V29.4059C19.071 29.5211 19.524 29.2593 19.948 28.9263C20.7775 28.273 20.551 27.3704 19.4687 27.027C19.4055 27.006 19.337 26.9516 19.3133 26.9013C19.2211 26.7024 19.3765 26.5684 19.7189 26.5244C20.2745 26.4511 20.6432 26.6856 21.0198 26.9662C21.7624 27.5233 21.8625 28.6436 21.32 29.2384C20.7354 29.8813 19.9611 30.3504 19.129 30.7545C18.7076 30.9597 18.2283 31.0519 17.7121 31.0247C17.1933 30.9974 16.664 31.0184 16.1347 31.0184ZM1.8928 24.6438C1.99023 24.5454 2.02184 24.5182 2.04554 24.4868C3.1437 23.0816 4.2445 21.6786 5.32686 20.2671C5.39796 20.175 5.39006 19.9886 5.31633 19.8944C4.49468 18.8138 3.6546 17.7437 2.81715 16.6715C2.53273 16.3071 2.24041 15.9448 1.95336 15.5804C1.9323 15.5867 1.91386 15.593 1.8928 15.5993V24.6438ZM9.29289 24.9601C8.06305 26.5307 6.88588 28.0321 5.67448 29.5818H12.8929C11.7131 28.0238 10.5096 26.5328 9.29289 24.9601ZM16.6482 24.6836V15.4841C15.4579 17.0003 14.3097 18.4578 13.1773 19.9216C13.1167 20.0012 13.1272 20.1603 13.1878 20.2441C13.4485 20.6085 13.7408 20.9603 14.02 21.3163C14.8811 22.4178 15.7397 23.5214 16.6482 24.6836ZM12.8692 10.6299H5.71661C6.91485 12.1586 8.08412 13.6497 9.29289 15.193C10.5043 13.6455 11.6762 12.1524 12.8692 10.6299ZM5.36636 29.5839C4.19973 28.0908 3.0726 26.6458 1.94546 25.203C1.87436 25.314 1.86383 25.4145 1.86383 25.515V28.5159C1.86383 29.1441 2.43529 29.609 3.22534 29.6153C3.82577 29.6216 4.42357 29.6174 5.02401 29.6153C5.11355 29.6132 5.20309 29.5986 5.36636 29.5839ZM16.6851 25.1716C16.6271 25.1946 16.6008 25.1967 16.5903 25.2093C15.5184 26.5725 14.4466 27.9337 13.3827 29.2991C13.3169 29.3829 13.3063 29.4939 13.2615 29.6153C13.991 29.6153 14.6626 29.6321 15.3315 29.6111C16.24 29.5818 16.6772 29.1923 16.6798 28.4552C16.6824 27.8479 16.6824 27.2385 16.6851 26.6312V25.1716ZM1.92176 14.9878C3.06996 13.5156 4.18656 12.0853 5.31896 10.6341C4.35774 10.6341 3.45708 10.6132 2.55643 10.6425C2.09557 10.6571 1.89543 10.8666 1.89016 11.2351C1.87436 12.3953 1.87173 13.5533 1.86646 14.7135C1.86646 14.791 1.89543 14.8684 1.92176 14.9878ZM16.6087 14.9773C16.6324 14.9731 16.6561 14.9711 16.6798 14.9669C16.6798 13.7146 16.6851 12.4602 16.6745 11.2079C16.6719 10.9294 16.3743 10.6571 15.9977 10.6467C15.0866 10.6194 14.1727 10.6383 13.2089 10.6383C14.3518 12.0958 15.4816 13.5366 16.6087 14.9773ZM18.3863 19.1593C18.6681 18.3615 19.1316 17.6348 19.6873 16.9395C20.0665 16.4642 19.9901 16.0788 19.4713 15.6977C19.0973 15.4234 18.7603 15.1197 18.3863 14.814V19.1593ZM4.46044 34.9512C4.96344 33.6884 5.62971 32.501 6.6831 31.4414C5.56387 31.2613 5.03981 31.9084 4.51311 32.4487C3.92848 33.0539 3.72043 34.302 4.46044 34.9512ZM33.6078 24.4742C33.6632 25.9443 33.1575 27.2741 32.694 28.5285C31.8092 28.562 30.9875 28.608 30.1632 28.6227C29.2363 28.6394 28.3093 28.6269 27.3349 28.6269C27.435 28.3756 27.5377 28.1243 27.6325 27.8688C27.7562 27.5379 27.8563 27.2008 28.0064 26.8804C28.0775 26.7296 28.2066 26.5474 28.3751 26.4804C30.1 25.804 31.8355 25.1506 33.6078 24.4742ZM31.8302 29.9546C31.1376 31.3576 29.842 32.323 28.4014 33.2088C27.169 32.7314 25.9102 32.2455 24.5961 31.7367C25.2439 31.1775 25.8443 30.654 26.4527 30.1347C26.508 30.0886 26.6028 30.0467 26.6818 30.0446C28.3014 30.0111 29.921 29.9839 31.5432 29.9546C31.6354 29.9525 31.7302 29.9546 31.8302 29.9546ZM26.6186 34.0947C25.6021 34.702 24.7277 35.3993 23.5427 35.7532C23.0502 35.8998 22.5946 36.1176 22.1153 36.2893C21.4938 36.5113 21.3727 36.4862 20.925 36.1008C20.4088 35.6548 19.8874 35.2108 19.3475 34.7459C20.5379 34.3648 21.5044 33.7533 22.4919 33.1711C22.7079 33.0434 22.9343 32.9282 23.174 32.834C23.253 32.8026 23.3978 32.834 23.49 32.8717C24.5144 33.2675 25.5336 33.6696 26.6186 34.0947Z" fill="black"/>
</g>
<defs>
<clipPath id="clip0_283_144">
<rect width="40" height="40" fill="white"/>
</clipPath>
</defs>
</svg>
