<svg width="40" height="40" viewBox="0 0 40 40" fill="none" xmlns="http://www.w3.org/2000/svg">
<g clip-path="url(#clip0_283_176)">
<rect width="40" height="40" fill="white"/>
<path d="M16.0837 18.6818C16.3715 18.4032 16.3715 18.0603 16.3676 17.7132C16.3676 17.4818 16.2315 17.3146 16.0331 17.2246C15.5197 16.9975 15.0101 16.7532 14.4967 16.5174C14.3762 16.4617 14.4228 16.3803 14.4423 16.2903C14.4928 16.0417 14.5745 15.7546 14.3256 15.6003C14.1856 15.5145 13.9833 15.5488 13.8083 15.5317C13.7811 15.5317 13.7538 15.536 13.7266 15.5488C13.4699 15.1631 13.2326 14.7859 12.972 14.4302C12.3069 13.5088 11.6379 12.5916 10.965 11.6787C10.5372 11.0958 10.1016 10.5258 9.6737 9.94292C9.62314 9.87006 9.59591 9.78005 9.59202 9.69005C9.57257 8.9786 9.55313 8.26286 9.54535 7.5514C9.54146 7.22568 9.5648 6.89566 9.59202 6.56994C9.60758 6.48851 9.65425 6.41993 9.71649 6.38136C10.3622 6.01706 10.9961 5.61848 11.6651 5.31846C12.7542 4.82988 13.8511 4.34986 14.9946 4.02413C15.4574 3.89127 15.9086 3.71126 16.3676 3.56126C16.8771 3.3984 17.3944 3.26125 17.9001 3.08553C18.5963 2.84123 19.2847 2.56265 19.9771 2.3055C20.0393 2.28836 20.1016 2.29264 20.1638 2.31407C21.2023 2.6398 22.2447 2.96124 23.2832 3.29554C24.6368 3.73269 25.9981 4.14842 27.3361 4.64558C28.3279 5.01417 29.3003 5.45561 30.2066 6.04706C30.2805 6.09421 30.331 6.23993 30.3388 6.34707C30.3738 6.92995 30.3972 7.51283 30.4166 8.09999C30.4322 8.59287 30.4477 9.08574 30.4438 9.57862C30.4399 9.71148 30.401 9.84006 30.3271 9.9472C29.9265 10.5087 29.5142 11.053 29.1019 11.6058C29.063 11.6615 29.0242 11.7173 28.9891 11.773L28.9386 11.743C28.9386 11.4344 28.9425 11.1258 28.9386 10.8172C28.923 9.77577 28.9075 8.7343 28.8841 7.69284C28.8763 7.4014 28.7752 7.19568 28.4952 7.07567C26.9238 6.3985 25.298 5.9142 23.6605 5.48561C22.7503 5.24561 21.8518 4.93702 20.9495 4.65844C20.825 4.61987 20.7044 4.57701 20.58 4.52987C20.3894 4.45701 20.3466 4.48272 20.3466 4.70559C20.3349 5.99992 20.3194 7.28996 20.3155 8.5843C20.3116 11.893 20.3116 15.1974 20.3155 18.5061C20.3155 18.6432 20.296 18.7375 20.1832 18.8275C20.0004 18.9732 19.9615 19.3247 20.0938 19.539C20.261 19.809 20.3194 20.0918 20.3194 20.4219C20.3077 22.7148 20.3077 25.0077 20.3194 27.3007C20.3233 27.665 20.191 27.935 19.9965 28.2221C19.8643 27.9993 19.7398 27.7936 19.6231 27.5878C19.2381 26.9107 18.853 26.2378 18.4641 25.5606C18.2812 25.2435 18.0868 24.9263 17.8962 24.6134C17.8262 24.4934 17.7445 24.3863 17.6511 24.2877C17.4567 24.0949 17.3711 23.8463 17.3166 23.5805C17.305 23.5163 17.3672 23.4091 17.4217 23.362C17.5889 23.2162 17.7678 23.0834 17.9506 22.9634C18.2696 22.7534 18.4718 22.4405 18.6469 22.0891C19.0708 21.2362 19.4948 20.3833 19.9187 19.5347C20.0315 19.3118 20.0043 18.9304 19.8176 18.8275C19.6932 18.7589 19.5181 18.7504 19.3703 18.7718C18.923 18.8489 18.4796 18.9475 18.0362 19.0547C17.6161 19.1575 17.2077 19.1832 16.7993 18.9818C16.5737 18.8661 16.3404 18.7847 16.0837 18.6818Z" fill="black"/>
<path d="M10.3694 18.6731C10.6883 18.3088 10.6416 18.0388 10.4122 17.6574C9.85207 16.7231 9.3581 15.7459 8.86413 14.7687C8.47518 13.9973 8.13679 13.1958 7.75561 12.4158C7.40944 11.7129 7.03605 11.0272 6.67432 10.3328C6.62376 10.2343 6.57708 10.1357 6.51874 10.0114C6.10256 10.44 5.71749 10.8686 5.72916 11.5415C5.74083 12.1458 5.80306 12.7415 5.97809 13.3244C6.13367 13.8387 6.25425 14.3616 6.39427 14.8802C6.2348 14.9402 6.12201 14.893 6.02477 14.7601C5.83418 14.5073 5.64748 14.2501 5.44912 14.0101C5.14573 13.6415 4.83457 13.2815 4.53118 12.9129C4.28614 12.6129 4.05277 12.2958 3.80773 11.9915C3.76106 11.9272 3.69882 11.8715 3.62881 11.8372C3.03371 11.5843 2.43861 11.3529 1.8474 11.0872C1.57903 10.9672 1.31843 10.8171 1.07728 10.6414C0.684433 10.3543 0.439392 9.92997 0.334374 9.42424C0.124339 8.39992 -0.0623586 7.36703 0.0232112 6.30842C0.0932229 5.45553 0.174903 4.60264 0.237136 3.74975C0.2877 3.05116 0.311037 2.35256 0.361601 1.65397C0.396607 1.1568 0.45495 0.66393 0.509403 0.166769C0.513293 0.123911 0.544409 0.0853377 0.614421 0.0424791C0.645537 0.171055 0.684433 0.303917 0.711659 0.432493C0.929473 1.43967 1.13951 2.44685 1.36121 3.44974C1.55569 4.3412 1.96409 5.11266 2.45806 5.83697C2.78867 6.32127 3.11539 6.80986 3.47712 7.26417C3.73772 7.58989 4.09556 7.76133 4.50007 7.81276C4.79178 7.85133 4.99015 7.66275 5.20796 7.52132C5.2313 7.49132 5.24297 7.45274 5.23908 7.40988C5.17685 7.02416 4.85402 6.77129 4.50396 6.86558C4.3756 6.89987 4.31337 6.86558 4.24336 6.76272C3.86218 6.17556 3.59381 5.51125 3.45378 4.80408C3.42656 4.69265 3.36821 4.59836 3.29042 4.5255C3.11928 4.37549 3.14262 4.04548 3.36432 3.8869C3.68716 3.65547 4.02166 3.4326 4.35227 3.20974C4.41839 3.16688 4.49229 3.13259 4.56619 3.11545C4.749 3.0683 4.84235 3.14545 4.89291 3.3426C4.91625 3.44974 4.96292 3.54832 5.02905 3.62546C5.37133 3.99405 5.72527 4.34978 6.07144 4.71407C6.14534 4.79122 6.1998 4.89408 6.26592 4.9798C6.40594 5.15552 6.46428 5.3141 6.32037 5.54553C6.15312 5.81983 6.28148 6.08555 6.44484 6.30842C6.81434 6.80558 7.20719 7.28131 7.5728 7.77847C8.07455 8.45992 8.55297 9.16281 9.05861 9.83997C9.8054 10.8429 10.5755 11.8243 11.3184 12.8315C11.828 13.5258 12.3064 14.2458 12.7926 14.9573C12.9676 15.2102 13.131 15.4716 13.2904 15.7373C13.411 15.9388 13.5588 16.0588 13.7922 15.9902C13.8855 15.9688 13.9828 15.9559 14.0761 15.9473C14.0333 16.0931 14.0022 16.2131 13.9633 16.3331C13.8855 16.5859 13.9244 16.7359 14.15 16.8474C14.6595 17.1088 15.1807 17.3531 15.6942 17.6017C15.7836 17.6445 15.9431 17.7003 15.9431 17.7474C15.9431 17.9103 15.9236 18.1074 15.8381 18.2274C15.6125 18.5403 15.3713 18.836 15.1107 19.1146C14.8229 19.4446 14.5195 19.7532 14.2006 20.0446C13.9866 20.2246 13.7494 20.3789 13.5005 20.4904C12.917 20.7732 12.3608 21.1418 11.7268 21.279C11.5712 21.3132 11.4001 21.2704 11.2367 21.2447C11.2056 21.2404 11.1667 21.1375 11.1667 21.0775C11.159 20.5161 11.1551 19.9546 11.1512 19.3889C11.1512 19.3589 11.1512 19.3332 11.1434 19.3032C11.0967 19.1274 11.0617 18.9389 10.9917 18.776C10.8945 18.5489 10.6844 18.7331 10.5366 18.656C10.5133 18.6689 10.4705 18.6817 10.3694 18.6731ZM39.467 0.00819212C39.4865 0.0939095 39.5059 0.179627 39.5137 0.265344C39.5954 1.38824 39.6732 2.51114 39.7548 3.63404C39.8287 4.60264 39.9182 5.56696 39.9843 6.53557C40.0543 7.53846 39.856 8.51135 39.642 9.47567C39.5176 10.0457 39.187 10.4657 38.7241 10.7486C38.4713 10.8986 38.2146 11.0314 37.9462 11.1429C37.4211 11.37 36.8844 11.5629 36.367 11.8072C36.2037 11.8843 36.0831 12.0858 35.9548 12.2443C35.6125 12.6729 35.2858 13.1144 34.9435 13.543C34.6168 13.9544 34.2784 14.353 33.9439 14.7601C33.8505 14.8759 33.7494 14.9444 33.6016 14.8244C33.7027 14.4601 33.8 14.0916 33.9089 13.7273C34.1306 12.9687 34.29 12.1929 34.2667 11.3915C34.255 10.9714 34.0606 10.6371 33.8155 10.3328C33.7183 10.2128 33.6249 10.0886 33.5121 9.93855C33.2904 10.3628 33.0921 10.7229 32.9015 11.0957C32.602 11.6786 32.3064 12.2658 32.0185 12.8572C31.7191 13.4787 31.4468 14.1173 31.1317 14.7344C30.7311 15.5187 30.3071 16.2816 29.8871 17.0531C29.7198 17.3574 29.5448 17.6574 29.3814 17.966C29.3503 18.0346 29.3503 18.1117 29.3737 18.1803C29.4281 18.3303 29.5059 18.4674 29.5876 18.6346C29.4514 18.6474 29.3309 18.6774 29.2142 18.6603C29.0664 18.6389 29.008 18.716 28.9575 18.8489C28.7863 19.3117 28.8019 19.8003 28.7863 20.2846C28.7786 20.5461 28.8175 20.8118 28.8175 21.0775C28.8175 21.1375 28.7552 21.2447 28.7085 21.249C28.5452 21.2704 28.374 21.2961 28.2185 21.2575C27.53 21.0861 26.9349 20.6618 26.2854 20.3875C25.9509 20.2461 25.7136 19.976 25.4686 19.7103C25.0446 19.2517 24.6245 18.7889 24.22 18.3046C24.1189 18.1846 24.0917 17.9917 24.0372 17.8288C24.0022 17.7174 24.0567 17.6703 24.15 17.6274C24.6984 17.3745 25.2469 17.1131 25.7914 16.8559C25.8342 16.8388 25.8731 16.8131 25.9081 16.7831C26.0209 16.6631 26.1376 16.5516 26.0364 16.3459C25.9781 16.2259 25.9548 16.0802 25.912 15.9216C26.017 15.9388 26.0987 15.9559 26.1803 15.9645C26.4954 16.0073 26.5965 15.9088 26.7482 15.6002C26.8727 15.3473 27.0594 15.1287 27.2189 14.8973C27.6545 14.2673 28.0784 13.6287 28.5296 13.0115C28.9614 12.4244 29.4281 11.8672 29.8637 11.2843C30.4199 10.5343 30.9567 9.76283 31.5129 9.0128C32.2014 8.07848 32.8976 7.15702 33.5899 6.23127C33.7766 5.98269 33.8116 5.73411 33.6483 5.45982C33.5471 5.29267 33.5666 5.16838 33.6716 5.04409C34.0139 4.6455 34.3523 4.24263 34.7023 3.8569C34.8735 3.66832 35.0913 3.53975 35.1457 3.23974C35.1768 3.05973 35.3441 3.03401 35.4802 3.10687C35.7175 3.23545 35.9431 3.38546 36.1726 3.53546C36.3126 3.62546 36.4448 3.72833 36.581 3.81833C36.8649 4.00262 36.8844 4.3112 36.6315 4.52978C36.581 4.5855 36.5499 4.65407 36.5421 4.73122C36.4448 5.38267 36.1803 5.96126 35.8809 6.52271C35.7836 6.70272 35.663 6.84844 35.4141 6.80558C35.1107 6.75415 34.784 7.0713 34.7529 7.39274C34.7568 7.43989 34.7762 7.48274 34.8112 7.51275C35.1807 7.8299 35.5658 7.84704 35.9898 7.63704C36.4915 7.38417 36.8105 6.92987 37.1177 6.45842C37.3589 6.08984 37.5884 5.7084 37.8295 5.33553C38.3896 4.47835 38.6463 3.47974 38.8758 2.47685C39.0353 1.77826 39.1481 1.07109 39.2842 0.363919C39.3075 0.243915 39.3425 0.123911 39.3698 0.00390625L39.467 0.00819212ZM18.4441 36.4895L17.8178 36.1638C16.9544 35.7138 16.0053 35.5852 15.0913 35.3237C14.9979 35.3023 14.9007 35.3195 14.8151 35.3666C14.1617 35.7138 13.5121 36.0652 12.8665 36.4252C12.3919 36.6909 11.9252 36.9695 11.4507 37.231C11.3651 37.2738 11.2718 37.2824 11.1823 37.2567C10.3227 36.8795 9.46312 36.4938 8.61131 36.0952C8.16012 35.8852 7.72449 35.6409 7.26164 35.4052C7.3122 35.3837 7.35499 35.3623 7.40166 35.3495C8.47518 35.0537 9.55258 34.7623 10.6222 34.4537C10.9645 34.3551 11.2951 34.2008 11.6335 34.0766C11.7463 34.0337 11.7774 33.9608 11.7774 33.8365C11.7774 32.3579 11.719 30.8836 11.544 29.4135C11.544 29.3535 11.5479 29.2978 11.5518 29.2378C11.6918 29.315 11.8085 29.3878 11.9291 29.4521C12.3569 29.6835 12.7887 29.915 13.2204 30.1421C13.5471 30.3136 13.8816 30.4679 14.2122 30.6393C14.2667 30.6736 14.3017 30.7293 14.3173 30.7979C14.5312 31.7322 14.7451 32.6665 14.9513 33.6051C15.0018 33.8323 15.1652 33.8923 15.3402 33.9351C15.6747 34.0208 16.0092 34.1066 16.3398 34.1966C16.5148 34.2437 16.6393 34.3294 16.7093 34.5523C16.8105 34.8866 17.0322 35.088 17.3861 35.0794C17.6623 35.0709 17.9462 35.1137 18.2224 35.088C18.7552 35.0366 19.2103 35.2766 19.6615 35.5252C19.9221 35.6709 20.1632 35.688 20.4161 35.5209C20.4316 35.5123 20.4511 35.5037 20.4666 35.4952C21.0851 35.0537 21.7852 35.0623 22.4736 35.0837C22.9287 35.0966 23.2204 34.9209 23.3488 34.4366C23.376 34.3723 23.4266 34.3294 23.4849 34.308C23.8739 34.1837 24.2667 34.0508 24.6634 33.9565C24.9124 33.8965 25.0874 33.8023 25.1496 33.498C25.3402 32.5936 25.5464 31.6936 25.7525 30.7936C25.7758 30.725 25.8225 30.665 25.8847 30.635C26.3865 30.3864 26.8999 30.1636 27.3978 29.9064C27.7478 29.7264 28.0823 29.5035 28.4246 29.3021C28.4518 29.2892 28.483 29.2764 28.5102 29.2635C28.5219 29.3107 28.5257 29.3621 28.5257 29.4135C28.3507 30.8879 28.2924 32.3708 28.2924 33.858C28.2924 33.9866 28.3429 34.0466 28.4441 34.0937C29.1831 34.4366 29.961 34.6166 30.735 34.818C31.404 34.9894 32.0652 35.1909 32.7303 35.3795C32.7614 35.3923 32.7887 35.4095 32.8159 35.4266C32.7576 35.4609 32.7225 35.4823 32.6837 35.5037C31.4234 36.0909 30.1671 36.6781 28.9069 37.2567C28.8136 37.2952 28.7124 37.291 28.6191 37.2481C27.5767 36.6909 26.5382 36.1209 25.4997 35.5509C25.4374 35.5166 25.3752 35.4737 25.3169 35.4266C25.1885 35.3195 25.0485 35.3023 24.8929 35.3452C24.3134 35.4995 23.7261 35.6195 23.1543 35.808C22.6409 35.9838 22.143 36.2323 21.6413 36.4509C21.6413 36.4766 21.6451 36.4981 21.6451 36.5238C21.8591 36.6738 22.0652 36.8581 22.2947 36.9738C22.7031 37.1838 23.022 37.5181 23.3838 37.7881C23.8 38.101 23.87 38.551 23.905 39.031C23.9244 39.271 23.835 39.4725 23.6405 39.6139C23.5199 39.7082 23.4071 39.8153 23.3099 39.9396C23.2282 40.0382 23.1698 40.0382 23.0921 39.9353C22.9287 39.7168 22.7576 39.5025 22.5903 39.2839C21.9874 38.5124 21.2406 37.9638 20.4044 37.5524C20.3266 37.5138 20.2566 37.4538 20.1788 37.4324C20.0893 37.411 19.9765 37.381 19.9026 37.4195C19.1481 37.7967 18.4091 38.2124 17.8217 38.881C17.53 39.2153 17.2539 39.5582 16.9777 39.9096C16.8805 40.0339 16.8221 40.0425 16.721 39.9139C16.6276 39.7982 16.5187 39.6953 16.4021 39.6096C16.2192 39.4767 16.1142 39.2882 16.1492 39.0653C16.1998 38.7224 16.297 38.3924 16.3787 38.0581C16.3865 38.0324 16.4059 38.0067 16.4254 37.9938C16.8688 37.6724 17.2266 37.2267 17.7284 36.9909C17.9734 36.8624 18.1835 36.6738 18.4441 36.4895Z" fill="black"/>
<path d="M18.7894 34.5785H17.4631C17.253 34.5785 17.1402 34.4757 17.0702 34.2485C16.9613 33.8928 16.8135 33.5499 16.6813 33.1985C16.654 33.1299 16.6229 33.0614 16.5957 32.9971C16.8524 32.9799 17.0975 32.9842 17.3347 32.9413C17.432 32.9242 17.5447 32.8256 17.6031 32.7271C17.9998 32.0756 18.381 31.4156 18.7738 30.7641C18.8633 30.6184 18.8983 30.4941 18.8477 30.3141C18.7622 30.0055 18.8244 29.9455 19.1006 29.937C19.2173 29.9284 19.3262 29.8769 19.4117 29.7912C19.6257 29.5469 19.8474 29.2984 20.0185 29.0155C20.8509 27.614 21.6715 26.1997 22.4922 24.7896C22.6906 24.4468 22.8929 24.1082 23.0796 23.7567C23.2585 23.4139 23.1574 23.1181 22.8501 22.9167C22.5817 22.7453 22.3211 22.5524 22.08 22.3381C21.9438 22.2095 21.8544 22.0124 21.761 21.8324C21.3254 20.9752 20.8975 20.1095 20.4658 19.248C20.458 19.2223 20.4541 19.1966 20.4502 19.1666C20.9209 19.2651 21.3837 19.3509 21.8388 19.4623C22.4572 19.6123 23.0835 19.6123 23.6358 19.2866C24.0519 19.038 24.2931 19.1366 24.5848 19.4709C24.9232 19.8609 25.3005 20.2166 25.67 20.5766C25.7672 20.6709 25.9034 20.7266 26.0239 20.7909C26.5374 21.0609 27.0508 21.3309 27.5681 21.6009C27.7626 21.7038 27.7237 21.8924 27.7276 22.0767C27.7353 22.4538 27.712 22.8438 27.8053 23.1996C27.9026 23.5682 28.1048 23.9067 28.2877 24.241C28.5171 24.661 28.77 25.0639 29.0267 25.4925C28.4121 25.4154 27.8209 25.3425 27.2297 25.2696C26.8446 25.2225 26.4557 25.1882 26.0706 25.1239C25.9073 25.0982 25.7478 25.0339 25.6039 24.9396C25.316 24.7511 25.0399 24.5368 24.7676 24.3182C24.6276 24.1939 24.4292 24.1853 24.2775 24.2968C24.0908 24.4253 23.8925 24.5796 23.7719 24.7768C22.9201 26.1568 22.0877 27.554 21.2515 28.9469C20.9987 29.3669 20.7458 29.7912 20.5125 30.2241C20.3841 30.4598 20.2752 30.7213 20.4502 31.0041C20.5125 31.107 20.4074 31.287 20.2713 31.287C20.0029 31.2827 19.8746 31.467 19.7423 31.677C19.3845 32.2427 19.0189 32.8042 18.6494 33.3614C18.4782 33.6185 18.4977 33.8799 18.5988 34.15C18.6494 34.2957 18.7194 34.4285 18.7894 34.5785Z" fill="black"/>
<path d="M19.5675 19.2051C19.0696 20.2123 18.5873 21.1852 18.0972 22.1581C18.0311 22.2738 17.9455 22.3724 17.8444 22.4452C17.6032 22.6338 17.3504 22.8095 17.1015 22.9895C16.9148 23.1224 16.8292 23.4995 16.9654 23.7824C17.1832 24.2324 17.4243 24.6696 17.6771 25.0982C18.1517 25.9082 18.6495 26.7011 19.1241 27.5068C19.3263 27.8497 19.5052 28.2097 19.688 28.5654C19.7075 28.604 19.723 28.6683 19.7036 28.7026C19.5402 28.9983 19.3691 29.2897 19.089 29.5083C18.739 28.9512 18.3967 28.4154 18.0661 27.8711C17.4593 26.8725 16.872 25.8568 16.2575 24.8582C16.1136 24.6396 15.9385 24.451 15.7324 24.3053C15.5146 24.1381 15.3162 24.3138 15.1334 24.4424C14.9778 24.5453 14.83 24.661 14.6861 24.7853C14.3672 25.0767 14.0015 25.1796 13.597 25.2182C12.7335 25.3039 11.8778 25.4239 10.9871 25.531C11.1427 25.261 11.2905 25.0167 11.4267 24.7639C11.6795 24.2924 11.9401 23.8253 12.1618 23.3367C12.2474 23.1481 12.259 22.9124 12.2785 22.6938C12.2901 22.4752 12.2901 22.2523 12.2746 22.0338C12.2668 21.8409 12.2979 21.6995 12.4846 21.6052C13.0408 21.3352 13.5931 21.0566 14.1377 20.7523C14.3244 20.6494 14.4722 20.4651 14.6316 20.3108C14.9778 19.968 15.3279 19.6251 15.6624 19.2651C15.8024 19.1151 15.9346 19.1065 16.098 19.188C16.2614 19.2694 16.4481 19.3294 16.6192 19.4151C17.0976 19.6551 17.5916 19.6123 18.0855 19.5137C18.5679 19.4194 19.054 19.3122 19.5675 19.2051ZM3.9043 30.4555C4.5733 30.6012 5.18784 30.7598 5.80628 30.8627C6.41305 30.9612 7.0276 31.0127 7.64214 31.0684C8.01554 31.1027 8.05443 31.0341 8.08944 30.6141C8.19446 29.3797 8.30725 28.1411 8.41616 26.9068C8.42394 26.8768 8.43561 26.8468 8.45117 26.8168C8.5134 26.8768 8.57174 26.9411 8.6262 27.0097C9.05015 27.6654 9.62192 28.124 10.2365 28.5311C10.3143 28.5826 10.3648 28.6683 10.3843 28.7669C10.501 30.1898 10.5826 31.6127 10.5593 33.0442C10.5593 33.1813 10.5126 33.2499 10.3959 33.2885C9.16295 33.6999 7.92219 34.0771 6.63086 34.2228C6.57252 34.2313 6.49084 34.2185 6.45583 34.1799C6.24969 33.9571 6.05132 33.7213 5.84907 33.4899C5.73627 33.3613 5.61569 33.2413 5.52234 33.0956C5.0167 32.3284 4.51495 31.557 4.01709 30.7855C3.95875 30.6955 3.94319 30.5798 3.9043 30.4555ZM36.168 30.4255C36.1174 30.5798 36.1019 30.6912 36.0513 30.7769C35.534 31.6813 35.0167 32.5899 34.3166 33.3485C34.0871 33.597 33.8848 33.8756 33.6554 34.1285C33.5892 34.1885 33.5037 34.2228 33.4181 34.2142C32.1423 34.0771 30.9132 33.6999 29.6919 33.2927C29.5597 33.2499 29.5013 33.1813 29.5091 33.0227C29.5675 31.6127 29.6258 30.1983 29.6764 28.7883C29.6803 28.6511 29.7308 28.5826 29.8436 28.5097C30.4582 28.1197 31.026 27.6611 31.4383 27.0097C31.4578 26.9797 31.4772 26.9539 31.5006 26.9282C31.5278 26.8982 31.5589 26.8725 31.6056 26.8211C31.625 26.8597 31.6445 26.9025 31.6523 26.9454C31.7612 28.1754 31.8701 29.4012 31.979 30.6312C31.9868 30.7384 31.9945 30.8541 32.0412 30.9398C32.0801 31.0084 32.1773 31.0812 32.2474 31.0769C33.4181 31.0427 34.5655 30.8284 35.7052 30.5584C35.8374 30.5284 35.9658 30.4855 36.168 30.4255Z" fill="black"/>
<path d="M6.71319 24.0176C6.75986 24.0947 6.80264 24.1762 6.84154 24.2576C7.03991 24.7633 7.27717 25.2476 7.6 25.6719C7.70891 25.8091 7.75169 25.9934 7.7128 26.1691C7.58055 26.9191 7.45609 27.6691 7.32773 28.4234C7.24605 28.9078 7.15659 29.3878 7.07102 29.8678C7.05158 29.9706 7.01657 30.0264 6.90377 30.0135C5.9625 29.9278 5.02902 29.7349 4.11886 29.4478C3.82715 29.3535 3.60156 29.1949 3.46153 28.8949C3.0648 28.042 2.66807 27.1934 2.27522 26.3405C2.25578 26.2891 2.24411 26.2334 2.23633 26.1777C2.26355 26.1819 2.29078 26.1862 2.31801 26.1948C2.92089 26.572 3.58211 26.782 4.25111 26.9491C4.59339 27.0348 4.93178 27.1205 5.27017 27.2105C5.41019 27.2491 5.49965 27.2277 5.55799 27.0605C5.76414 26.4691 5.97806 25.8776 6.19977 25.2905C6.35535 24.8833 6.52649 24.4762 6.71319 24.0176ZM37.8412 26.1519C37.8256 26.2291 37.8061 26.3019 37.7828 26.3748C37.425 27.1591 37.0632 27.9391 36.7054 28.7277C36.5148 29.1563 36.2075 29.3835 35.7914 29.5078C34.9279 29.7564 34.045 29.9278 33.1543 30.0178C33.0337 30.0307 33.0103 29.9535 32.9948 29.8592C32.9092 29.3792 32.8198 28.8949 32.7381 28.4106C32.6058 27.6477 32.4775 26.8805 32.3569 26.1134C32.3413 26.0062 32.3569 25.8562 32.4152 25.7748C32.7575 25.2905 33.0415 24.759 33.2593 24.189C33.2787 24.1419 33.3176 24.1033 33.3682 24.0304C33.4071 24.129 33.4382 24.1976 33.4654 24.2662C33.8155 25.1962 34.1655 26.1219 34.5078 27.0563C34.5662 27.2148 34.6478 27.262 34.7918 27.2191C35.5113 27.0091 36.2348 26.8162 36.9504 26.5934C37.1799 26.5248 37.39 26.3919 37.6117 26.2848C37.6739 26.2505 37.74 26.2119 37.8412 26.1519ZM18.024 31.1964C17.7711 30.9564 17.5417 30.7292 17.3005 30.515C16.9193 30.1764 16.4954 29.8849 16.1531 29.5035C15.2391 28.4835 14.36 27.4248 13.586 26.2677C13.4732 26.0962 13.3682 25.9205 13.2398 25.7105C13.5277 25.6762 13.7844 25.6676 14.0333 25.6119C14.2394 25.5691 14.4417 25.4919 14.6284 25.3891C14.8618 25.2519 15.0718 25.0676 15.2935 24.909C15.5308 24.7376 15.698 24.7719 15.8497 25.029C16.6276 26.3234 17.4055 27.6177 18.1873 28.9163C18.3079 29.1178 18.444 29.3106 18.5607 29.5163C18.5879 29.5592 18.5918 29.6663 18.5607 29.6921C18.3974 29.8678 18.3818 30.0864 18.409 30.3049C18.4285 30.4507 18.3935 30.6007 18.3118 30.7164C18.2184 30.8621 18.129 31.0207 18.024 31.1964Z" fill="black"/>
<path d="M34.6053 20.8982C34.6403 20.9582 34.6714 21.001 34.6947 21.0482C35.0059 21.6482 35.3131 22.2525 35.6243 22.8525C35.7916 23.174 35.8421 23.204 36.1494 23.0668C36.8184 22.7711 37.4213 22.3211 37.9191 21.7425C38.1642 21.4596 38.3898 21.1596 38.627 20.8682L38.6893 20.881C38.6737 21.2239 38.6776 21.5668 38.6426 21.9053C38.5492 22.8697 38.2342 23.774 37.9736 24.6954C37.9386 24.7854 37.8802 24.8626 37.8025 24.9097C37.0168 25.4112 36.1727 25.7926 35.2937 26.0455C35.1653 26.0798 35.1187 26.0541 35.0642 25.9212C34.6869 25.0383 34.2941 24.1597 33.9129 23.2768C33.8857 23.204 33.8818 23.1182 33.9051 23.0411C34.1152 22.3554 34.3369 21.6696 34.5547 20.9839C34.5702 20.9582 34.5858 20.9239 34.6053 20.8982ZM1.43917 20.8682C1.67254 21.1596 1.90202 21.4596 2.14706 21.7425C2.63715 22.3168 3.23613 22.7625 3.89736 23.0582C4.22408 23.204 4.27075 23.174 4.44967 22.8311C4.76083 22.2311 5.06811 21.6268 5.37927 21.0267C5.4065 20.9796 5.43761 20.9325 5.46873 20.8896C5.54652 21.1425 5.60875 21.3696 5.68265 21.5968C5.83824 22.0811 6.00549 22.5611 6.15718 23.0454C6.18051 23.1225 6.17663 23.204 6.1494 23.2811C5.76822 24.164 5.37927 25.0426 4.9981 25.9255C4.93975 26.0584 4.89308 26.0798 4.76472 26.0455C3.88569 25.7969 3.04166 25.4155 2.25597 24.9097C2.17818 24.8626 2.11595 24.7854 2.08483 24.6954C1.82812 23.7783 1.51307 22.874 1.41972 21.9096C1.38861 21.571 1.38861 21.2325 1.37305 20.8896L1.43917 20.8682ZM25.107 25.1755C25.5621 25.7155 26.1844 25.6083 26.7756 25.7198C25.5076 27.927 23.8546 29.6885 22.0615 31.3471C21.8865 31.0471 21.7348 30.8157 21.6181 30.5628C21.5714 30.4599 21.5909 30.3142 21.5947 30.1899C21.6103 30.0099 21.5597 29.8342 21.4508 29.6971C21.4197 29.6585 21.4158 29.5428 21.4469 29.5042C21.5909 29.3242 21.7348 29.1356 21.9098 28.9942C22.7499 28.3127 23.4656 27.4941 24.1307 26.6198C24.473 26.1741 24.7686 25.6855 25.107 25.1755Z" fill="black"/>
<path d="M38.3389 17.3496C38.3973 17.5639 38.4595 17.7225 38.4789 17.8853C38.5295 18.3139 38.584 18.7468 38.5995 19.1797C38.6034 19.3554 38.5528 19.5268 38.4556 19.6683C38.0511 20.1783 37.631 20.6712 37.1993 21.1512C36.9659 21.4083 36.7014 21.6269 36.4408 21.8455C36.2113 22.0383 36.1608 22.0083 36.0091 21.7426C35.659 21.1255 35.3012 20.5169 34.9511 19.8954C34.9045 19.814 34.8811 19.7154 34.8928 19.6168C35.0134 18.9182 35.1456 18.2196 35.2778 17.4825C35.4334 17.8082 35.5773 18.1168 35.7251 18.4168C35.8729 18.7168 36.0324 19.0254 36.1997 19.3211C36.3008 19.4968 36.4058 19.5183 36.5536 19.3768C36.7481 19.1882 36.927 18.9825 37.1059 18.7768C37.5027 18.3268 37.8955 17.8639 38.3389 17.3496ZM1.68392 17.491C1.99119 17.7868 2.31014 18.0654 2.60574 18.3739C2.87023 18.6482 3.09971 18.9568 3.35642 19.2397C3.66758 19.5783 3.76871 19.5568 3.97486 19.1368C4.1071 18.8711 4.24712 18.6054 4.37937 18.3354C4.51161 18.0653 4.63997 17.7953 4.78777 17.491C4.82278 17.6625 4.85778 17.8039 4.88501 17.9496C4.97836 18.4811 5.0756 19.0125 5.16117 19.5483C5.17672 19.6511 5.17283 19.784 5.12616 19.8697C4.75276 20.5469 4.36381 21.2112 3.98264 21.8841C3.91262 22.0083 3.82705 21.9783 3.74926 21.9226C3.52367 21.7555 3.27863 21.6098 3.08804 21.3998C2.57462 20.834 2.08454 20.2469 1.59835 19.6597C1.52056 19.5697 1.45055 19.4154 1.46222 19.2954C1.50889 18.7211 1.58279 18.1511 1.64891 17.581C1.65669 17.521 1.6917 17.4653 1.71504 17.4096L1.68392 17.491Z" fill="black"/>
<path d="M3.64106 12.5361C3.87443 12.819 4.10002 13.0804 4.31395 13.3547C4.36062 13.419 4.38007 13.5262 4.38396 13.6162C4.41118 14.4133 4.54732 15.1891 4.71457 15.9605C4.7379 16.072 4.73013 16.1834 4.68734 16.2863C4.36451 16.912 4.02612 17.5292 3.69162 18.1506C3.67995 18.1763 3.66439 18.1978 3.65272 18.2192C3.41157 17.9663 3.18598 17.7349 2.96817 17.4949C2.70757 17.2077 2.44697 16.9163 2.20193 16.6163C2.14358 16.5434 2.10469 16.3891 2.13191 16.2948C2.50869 15.0192 2.99582 13.7863 3.5866 12.6133C3.60216 12.5833 3.62161 12.5576 3.64106 12.5361ZM36.426 18.2492C36.1187 17.6749 35.8542 17.1263 35.5391 16.6163C35.3252 16.2648 35.3486 15.9348 35.4225 15.5491C35.5391 14.9319 35.5858 14.2976 35.6792 13.6719C35.7025 13.5219 35.7609 13.3804 35.8464 13.2604C36.0215 13.0161 36.2276 12.7976 36.4182 12.5704C36.4415 12.579 36.4571 12.5833 36.461 12.5918C36.7566 13.2562 37.0677 13.9119 37.34 14.5891C37.5617 15.1334 37.7367 15.7034 37.9234 16.2648C37.9507 16.3506 37.9507 16.5006 37.904 16.5563C37.4295 17.1134 36.9394 17.662 36.426 18.2492ZM20.3233 31.8225C20.7939 31.6468 21.0039 31.2997 20.8289 30.7854C20.8173 30.7596 20.8134 30.7339 20.8173 30.7039C20.9106 30.4811 21.0078 30.2625 21.1051 30.0396L21.1945 30.0696C21.179 30.1939 21.1518 30.3182 21.1479 30.4425C21.144 30.5282 21.1401 30.6311 21.179 30.6954C21.5563 31.3682 21.9452 32.0283 22.3264 32.7011C22.4742 32.9669 22.7037 33.0312 22.9565 33.0397C23.1043 33.044 23.2521 33.0183 23.4116 33.0012C23.2832 33.3354 23.1665 33.6483 23.046 33.9612C22.9993 34.0683 22.9565 34.184 22.9254 34.2998C22.8787 34.5055 22.7737 34.6084 22.5831 34.6084H21.2257C21.3034 34.4155 21.4007 34.2226 21.459 34.0169C21.5796 33.614 21.3151 33.3483 21.1362 33.0612C20.8756 32.6497 20.6033 32.2468 20.3233 31.8225ZM28.1374 22.6379V21.7893L28.4991 21.815L28.1879 22.6508L28.1374 22.6379ZM11.8208 22.6636L11.5096 21.8236L11.8674 21.785V22.6508L11.8208 22.6636ZM20.0043 32.1525C20.0899 32.2854 20.1599 32.3883 20.2416 32.5126C20.0588 32.5726 19.9227 32.7911 19.6932 32.6026L20.0043 32.1525Z" fill="black"/>
</g>
<defs>
<clipPath id="clip0_283_176">
<rect width="40" height="40" fill="white"/>
</clipPath>
</defs>
</svg>
