<svg width="40" height="40" viewBox="0 0 40 40" fill="none" xmlns="http://www.w3.org/2000/svg">
<g clip-path="url(#clip0_283_146)">
<rect width="40" height="40" fill="white"/>
<path d="M18.8006 0H21.1994C21.3054 0.0223152 21.417 0.055788 21.523 0.0669456C22.1423 0.150628 22.7615 0.200837 23.3752 0.306834C32.2566 1.82985 39.0237 9.11576 39.894 18.092C39.9107 18.2929 39.9665 18.4937 40 18.689V21.311C39.9609 21.5286 39.9107 21.7462 39.8884 21.9693C39.0349 31.0349 31.9219 38.5049 22.9066 39.7824C22.3375 39.8661 21.7685 39.9275 21.1994 40H18.8006C18.6834 39.9833 18.5662 39.9554 18.4435 39.9442C16.1172 39.749 13.8689 39.2245 11.7601 38.2204C5.11576 35.0349 1.25523 29.7796 0.161785 22.4937C0.0892608 22.0307 0.055788 21.5565 0 21.0879V18.9121C0.0167364 18.8285 0.0334728 18.7503 0.0446304 18.6667C0.161785 17.7908 0.23431 16.9093 0.401674 16.0446C2.03068 7.68759 9.07113 1.17155 17.5342 0.167364C17.9582 0.117155 18.3766 0.055788 18.8006 0ZM20.0391 37.7127H20.2622C21.4672 37.7462 22.6667 37.6792 23.8438 37.3835C25.0042 37.0879 26.1423 36.7029 27.2413 36.2287C28.9596 35.4979 30.4826 34.4714 31.8661 33.2441C32.7922 32.424 33.6234 31.5035 34.3543 30.5049C35.3361 29.1437 36.1339 27.6597 36.7141 26.0865C37.0934 25.0823 37.3891 24.0502 37.5398 22.9847C37.5955 22.5886 37.7071 22.1869 37.7015 21.7908C37.6681 20.2845 37.8577 18.7727 37.5453 17.2775C37.3835 16.5021 37.2497 15.7211 37.0377 14.9623C36.6471 13.5732 36.0335 12.2789 35.3138 11.0237C34.6667 9.90795 33.8912 8.87029 32.9986 7.94421C32.3291 7.2357 31.5704 6.61088 30.8285 5.98047C29.3947 4.7643 27.7155 3.96095 25.9749 3.29149C24.9819 2.90656 23.9442 2.64435 22.8898 2.50488C22.5105 2.45467 22.1311 2.33752 21.7517 2.34867C20.2455 2.38215 18.7336 2.19805 17.2385 2.50488C16.5356 2.64993 15.8271 2.76151 15.1353 2.95119C13.7406 3.33054 12.4407 3.94421 11.1743 4.6304C9.87448 5.33333 8.75314 6.26499 7.67643 7.25802C7.10739 7.78243 6.63877 8.42399 6.12552 9.00976C5.37239 9.87448 4.7643 10.8396 4.24547 11.8605C3.68201 12.9986 3.17434 14.1702 2.87308 15.4086C2.64993 16.3347 2.4212 17.2775 2.36541 18.2259C2.29289 19.5202 2.34868 20.8201 2.41004 22.1199C2.43794 22.7615 2.56067 23.4086 2.70572 24.0335C3.10181 25.6904 3.72106 27.2803 4.54672 28.7699C5.27755 30.1032 6.21478 31.3027 7.27476 32.3961C7.75453 32.8926 8.28452 33.3333 8.81451 33.7741C9.66248 34.4826 10.5551 35.1185 11.5425 35.6262C12.8257 36.2845 14.1423 36.848 15.537 37.2218C16.5077 37.484 17.4895 37.696 18.4993 37.7071C19.0181 37.7183 19.5258 37.7127 20.0391 37.7127Z" fill="black"/>
<path d="M8.29497 10.5104C7.50836 10.2482 7.11226 9.71266 7.17363 9.00415C7.22384 8.36817 7.69804 7.84934 8.32844 7.74334C9.05926 7.62619 9.58925 7.96649 9.96861 8.82563C11.2796 7.65966 12.7747 6.728 14.3926 6.05854C13.6004 5.32214 13.433 4.64711 13.8793 3.98881C14.2643 3.41977 15.0063 3.21336 15.6311 3.49787C16.3229 3.81587 16.5795 4.50764 16.3173 5.40025C18.7496 4.80889 21.182 4.80889 23.6144 5.32214C23.4079 4.34027 23.6701 3.70429 24.3898 3.41419C25.0314 3.16315 25.7566 3.40861 26.1137 3.99997C26.4986 4.64711 26.3257 5.35004 25.606 5.96928C27.2406 6.62758 28.758 7.54808 30.0913 8.69732C30.2141 8.21754 30.4316 7.8326 30.8668 7.67082C31.1569 7.55924 31.4749 7.52019 31.7817 7.55366C32.401 7.63177 32.8584 8.2008 32.8919 8.84237C32.931 9.53972 32.507 10.0697 31.6869 10.3152C32.6743 11.5313 33.5056 12.8312 34.1081 14.265C34.8222 13.6959 35.4024 13.6067 35.9826 13.9749C36.4902 14.2984 36.758 14.9233 36.5851 15.5035C36.334 16.3403 35.7204 16.6304 34.8724 16.5411C35.3968 18.7949 35.3856 21.032 34.9839 23.3026C35.4414 23.2022 35.8766 23.1966 36.2224 23.4867C36.4568 23.682 36.6409 23.9219 36.7636 24.2008C37.0091 24.7866 36.7524 25.4616 36.2169 25.8131C35.6311 26.198 34.9728 26.0976 34.3089 25.5007C33.7231 26.9958 32.9198 28.3961 31.9212 29.6569C32.3731 29.774 32.7524 29.9749 32.9254 30.3765C33.0425 30.6555 33.0983 30.9567 33.0872 31.258C33.0481 31.8549 32.546 32.3403 31.9547 32.4351C31.2294 32.5523 30.7385 32.2343 30.3145 31.3696C29.0091 32.5467 27.5139 33.4951 25.8961 34.1813C26.5321 34.8619 26.6436 35.5202 26.242 36.1283C25.8849 36.6638 25.2043 36.8926 24.5962 36.6694C23.9045 36.4184 23.6088 35.827 23.7204 34.9121C21.2768 35.4532 18.8333 35.47 16.3563 34.8675C16.4902 35.3696 16.4958 35.8549 16.1555 36.2287C15.9491 36.463 15.6869 36.6415 15.3912 36.7475C14.772 36.9539 14.0858 36.6248 13.7901 36.0446C13.4609 35.403 13.645 34.7392 14.2643 34.2203C13.4944 33.7908 12.6855 33.3947 11.9379 32.9093C11.1904 32.424 10.4819 31.8493 9.76777 31.3194C9.47768 32.3291 8.98116 32.7531 8.17224 32.6583C7.4972 32.5802 6.97837 32.0279 6.9449 31.3472C6.89469 30.5551 7.36331 30.0697 8.42886 29.8298C7.35116 28.5285 6.49199 27.0607 5.88493 25.4839C5.2601 26.265 4.55159 26.4602 3.87098 26.053C3.27405 25.6903 3.03416 24.9428 3.3131 24.3012C3.63109 23.5704 4.31728 23.3194 5.28242 23.6039C4.79148 21.3389 4.7859 18.9902 5.26568 16.7196C4.81938 16.8145 4.37307 16.8145 4.02161 16.5132C3.79288 16.318 3.60878 16.0669 3.49162 15.788C3.26289 15.2078 3.52509 14.5439 4.0495 14.2036C4.64085 13.8187 5.28242 13.9191 5.93514 14.4993C6.2866 13.8242 6.61575 13.1325 7.00627 12.4742C7.40794 11.7991 7.85982 11.1687 8.29497 10.5104ZM20.0941 34.3375C24.0495 34.2315 27.4637 32.8479 30.2364 30.0864C32.7301 27.6039 34.0802 24.4965 34.2922 20.9986C34.5376 16.887 33.1764 13.2719 30.3368 10.2817C27.8263 7.63734 24.652 6.19243 21.0425 5.97486C16.6464 5.71266 12.8361 7.23009 9.79009 10.4379C7.47489 12.8758 6.19176 15.8438 5.98535 19.191C5.71756 23.4867 7.16805 27.2357 10.2252 30.2538C12.9421 32.9372 16.3061 34.2259 20.0941 34.3375Z" fill="black"/>
<path d="M30.0025 21.7182C30.1475 21.205 30.1587 20.7475 29.9021 20.3068C29.7235 20.0055 29.6622 19.9944 29.4669 20.2789C29.3888 20.3905 29.2605 20.4909 29.2326 20.6192C29.1768 20.8201 29.1824 21.0432 29.1545 21.3277C29.0318 21.4114 28.8644 21.4114 28.7473 21.3221C28.5464 21.1827 28.4404 20.9874 28.4795 20.7475C28.5074 20.5634 28.5799 20.3905 28.6301 20.212C28.7975 19.6373 28.8142 19.1018 28.3567 18.6276C28.1503 18.4156 27.9885 18.1645 27.8156 17.9191C27.6817 17.7238 27.5143 17.6959 27.3023 17.7573C27.0792 17.8187 26.9397 17.9526 26.923 18.1813C26.8951 18.728 26.8672 19.2747 26.8616 19.827C26.8672 19.9553 26.9174 20.0725 27.0067 20.1618C27.9049 20.9986 28.5129 22.0195 28.9816 23.1353C29.2772 23.8382 29.2661 24.5913 29.2438 25.3333C29.2047 26.5049 28.803 27.509 28.0164 28.4184C27.3749 29.1604 26.6329 29.4058 25.7124 29.4114C24.7919 29.417 23.916 29.2719 23.0401 29.0544C22.0973 28.8256 21.1712 28.9874 20.2563 29.1938C19.8993 29.2719 19.5924 29.7127 19.559 30.0864C19.5199 30.4937 19.7431 30.7168 20.0778 30.8898C20.7863 31.2524 21.7068 31.1074 22.3149 30.5383C22.4599 30.4044 22.6162 30.2817 22.7612 30.1478L22.8505 30.1869C22.8505 30.304 22.8951 30.4491 22.8449 30.5383C22.4823 31.1632 22.1698 31.8438 21.4669 32.1673C21.1433 32.318 20.7751 32.3793 20.4237 32.4519C19.0792 32.7308 17.8519 32.53 16.7751 31.5983C15.7598 30.7224 14.6329 29.986 13.4223 29.4114C12.4069 28.9261 11.5869 28.2287 11.0122 27.2524C10.644 26.6276 10.2424 26.0251 9.88533 25.3947C8.80304 23.4867 8.34 21.4393 8.45716 19.2413C8.54084 17.7182 8.85325 16.2399 9.29398 14.7894C9.33303 14.6611 9.40555 14.5495 9.50597 14.4658V14.6666C9.53386 16.0055 9.4725 17.35 9.60639 18.6722C9.77933 20.4519 10.7221 21.8075 12.2731 22.7224C12.7751 23.0181 13.2717 23.3473 13.8072 23.5648C15.1238 24.1004 16.4683 24.5746 17.9132 24.6081C18.287 24.6136 18.6719 24.5244 19.0346 24.424C19.3972 24.3235 19.6036 24.0558 19.665 23.6764C19.7263 23.2803 19.5422 22.9735 19.2521 22.7559C18.9509 22.5272 18.6552 22.689 18.4042 22.9177C18.181 22.3989 18.5213 22.0418 18.9844 22.0474C19.7989 22.0585 20.34 22.3877 20.6189 23.1129C20.9871 24.0613 20.9425 25.0097 20.3846 25.8912C20.2452 26.1143 20.0387 26.2929 19.8044 26.5606C20.0443 26.4881 20.234 26.4658 20.3791 26.3821C21.0095 26.0195 21.6678 25.6736 21.93 24.9316C22.2703 23.9665 22.3428 23.0237 21.6845 22.1199C21.0816 21.2713 20.1985 20.6628 19.1908 20.4016C17.9857 20.0781 16.5241 21.2831 16.6022 22.5327C16.6189 22.8061 16.485 22.8563 16.2619 22.8842C15.4976 22.9846 14.8281 22.7224 14.2089 22.3263C13.0931 21.6122 12.1392 20.675 11.4028 19.576C10.8337 18.7447 10.6162 17.8242 10.6552 16.8312C10.6664 16.5913 10.6887 16.5634 10.9118 16.5244C10.9453 16.8089 10.9676 17.0934 11.0067 17.3724C11.0903 17.9804 11.4195 18.4714 11.8435 18.8842C12.2005 19.2301 12.5687 19.5927 12.9983 19.8382C13.4558 20.1004 13.9857 20.2399 14.4878 20.4184C14.5827 20.4519 14.7166 20.3961 14.8393 20.3738L14.3707 19.4198C14.7221 19.5871 14.9955 19.7768 15.2968 19.8326C15.598 19.8884 15.9272 19.8214 16.2452 19.8103L16.2563 19.7099C15.983 19.5648 15.7152 19.4198 15.4418 19.2747C15.3302 19.2134 15.2019 19.1632 15.1071 19.0795C14.3316 18.3933 13.6064 17.668 13.1155 16.7364C13.015 16.5467 12.9258 16.3514 12.8142 16.1729C12.5129 15.6876 12.3512 15.1241 12.3456 14.5551C12.34 14.0697 12.3344 13.5899 12.3456 13.1046C12.3679 11.7601 12.9927 10.6778 13.8686 9.72382C14.2312 9.32773 14.6496 8.98742 15.1127 8.71406C16.1838 8.10039 17.3609 8.01113 18.5046 8.40722C19.6482 8.80332 20.4014 9.64572 20.7473 10.8284C20.976 11.6095 20.3233 12.7866 19.6873 12.8647H19.5534C20.0611 12.1394 20.1168 11.3919 19.6761 10.7392C19.347 10.2538 18.8337 9.99718 18.3037 9.77403C17.6622 9.50625 17.0374 9.52298 16.4348 9.87445C16.0332 10.1088 15.7821 10.477 15.559 10.8619C14.8784 12.0558 14.8951 13.2719 15.5255 14.4714C15.7431 14.8842 16.0276 15.2468 16.4962 15.4254C16.7417 15.5202 16.9537 15.6931 17.2103 15.8438C16.9927 14.728 16.8588 13.6625 17.1433 12.5913L17.227 12.5802C17.2661 12.7698 17.3107 12.9651 17.3442 13.1604C17.4446 13.8298 17.757 14.41 18.1252 14.9623C18.2201 15.1018 18.3707 15.2134 18.5157 15.3138C18.711 15.4532 18.8449 15.3863 18.8616 15.1408C18.9007 14.6778 18.7333 14.265 18.5102 13.8744C18.4376 13.7461 18.3484 13.6234 18.2703 13.5007C18.4934 13.3779 18.7333 13.4226 18.9899 13.562C19.7542 13.9804 20.0666 14.6443 20.0332 15.4811C19.9885 16.5188 20.2563 17.4895 20.6413 18.4323C20.6803 18.5327 20.7696 18.6555 20.8588 18.6834C21.8072 19.0069 22.5492 19.6039 23.1406 20.3961C23.6594 21.099 24.0945 21.8577 24.4348 22.6666C24.6803 23.2413 24.7138 23.8326 24.6134 24.4463C24.5632 24.7308 24.5632 25.0209 24.5018 25.2998C24.3958 25.8019 24.2563 26.2984 24.1224 26.8173C24.3177 26.7392 24.5743 26.6778 24.7975 26.5495C25.2382 26.304 25.5785 25.9637 25.757 25.4672C26.0248 24.7196 26.2089 23.9665 25.9802 23.1799C25.9021 22.9121 25.7514 22.6555 25.5952 22.4156C25.4502 22.1924 25.2382 22.0809 24.9314 22.092C24.4627 22.1143 24.1503 21.8689 23.9941 21.4449C24.1447 21.3835 24.3065 21.3389 24.4348 21.2496C24.8867 20.9428 24.9314 20.4519 24.9202 19.9832C24.9035 19.2134 24.6636 18.4714 24.2284 17.8354C23.9774 17.456 23.6929 17.099 23.4195 16.7364C23.3972 16.7085 23.3749 16.6806 23.3581 16.6471C23.2298 16.3459 23.1071 16.039 22.9676 15.6931C23.7319 15.9498 24.2396 16.5634 24.87 17.0767C25.1601 16.2733 25.7012 15.7824 26.4823 15.509C26.3428 15.1464 26.2033 14.8284 25.7682 14.7057C24.3456 14.304 23.3804 13.3556 22.8226 12.0223C22.3818 10.9735 22.393 9.89676 22.9174 8.86468C23.135 8.4407 23.4864 8.12828 24.0164 8.13386C24.1057 8.14502 24.195 8.16176 24.2842 8.18965C23.4864 8.71964 23.4362 9.48951 23.5088 10.2705C23.6092 11.4086 24.128 11.9777 25.2549 12.1952C25.545 12.251 25.863 12.2064 26.1643 12.1618C26.4153 12.1227 26.5771 11.9609 26.6719 11.6987C26.8337 11.2468 27.1182 11.0906 27.4976 11.2022C27.7375 11.258 27.8937 11.4867 27.8602 11.7266C27.8379 11.9888 27.6817 12.1283 27.4028 12.1562C27.3302 12.1618 27.2577 12.2008 27.2131 12.2566C26.9453 12.7587 27.0457 13.5007 27.4083 13.9358C28.089 14.7615 28.9035 15.4644 29.8128 16.0334C30.7054 16.5913 31.1461 17.4281 31.1182 18.4993C31.1127 18.7392 31.0401 18.94 30.8281 19.0683C30.6719 19.1631 30.6552 19.2803 30.7221 19.4477C30.9174 19.933 30.962 20.4686 30.8393 20.9818C30.7556 21.3445 30.4711 21.5286 30.1977 21.7182C30.1643 21.7461 30.0862 21.7182 30.0025 21.7182ZM14.0304 26.5718C14.4544 26.8117 14.8895 27.0516 15.3135 27.3026C15.6092 27.4756 15.877 27.721 16.1894 27.827C17.2549 28.1841 18.0304 27.9163 18.75 26.9512C18.7221 26.9456 18.6943 26.9456 18.6719 26.9456C18.0471 27.0572 17.4279 27.0962 16.7975 26.9567C16.128 26.8061 15.453 26.689 14.7779 26.583C14.5269 26.5383 14.2591 26.5718 14.0304 26.5718ZM9.99133 22.3542C10.1141 22.6834 10.1531 23.085 10.3763 23.3249C10.8839 23.8828 11.5088 24.3235 12.2005 24.6192C13.1824 25.0488 14.2145 25.3612 15.2744 25.5453C15.4418 25.5732 15.6092 25.5676 15.7821 25.5732L15.7989 25.4839C15.7152 25.4505 15.6315 25.4114 15.5478 25.3835C14.7054 25.1269 13.863 24.8814 13.0262 24.6136C12.9035 24.5746 12.8198 24.4128 12.7194 24.3068C12.6636 24.2454 12.6134 24.1673 12.5408 24.1227C12.2284 23.9442 11.8825 23.8159 11.598 23.6039C11.0513 23.2134 10.5436 22.7894 9.99133 22.3542ZM30.2312 18.1032C30.1754 17.9247 30.1587 17.774 30.0806 17.668C30.0248 17.5899 29.8909 17.5676 29.7961 17.523C29.7514 17.6234 29.6845 17.7182 29.6733 17.8187C29.6678 17.9191 29.6901 18.0195 29.7459 18.1032C29.8128 18.2036 29.9188 18.2705 30.0081 18.3542L30.2312 18.1032Z" fill="black"/>
</g>
<defs>
<clipPath id="clip0_283_146">
<rect width="40" height="40" fill="white"/>
</clipPath>
</defs>
</svg>
