<svg width="40" height="40" viewBox="0 0 40 40" fill="none" xmlns="http://www.w3.org/2000/svg">
<g clip-path="url(#clip0_283_169)">
<path d="M25.9625 29.6657C25.7533 29.2849 25.5748 28.9471 25.384 28.6146C25.3471 28.5449 25.2856 28.4698 25.2117 28.4323C25.1317 28.3947 25.0148 28.3787 24.9286 28.4001C24.8856 28.4108 24.861 28.5342 24.8671 28.5985C24.8979 29.0329 24.5594 29.537 24.104 29.7086C24.0363 29.7354 23.9502 29.7408 23.8333 29.7622C24.1963 29.2528 23.9133 28.8613 23.581 28.5234C23.2425 28.1856 23.0456 27.8424 23.101 27.3866C23.1133 27.2954 22.9533 27.1774 22.8486 27.097C22.8117 27.0648 22.6517 27.0809 22.6394 27.1077C22.584 27.2257 22.5656 27.3544 22.5163 27.5421C22.4733 27.5153 22.3625 27.4885 22.3256 27.4295C22.221 27.2364 22.1102 27.038 22.061 26.8342C21.8456 25.944 21.1256 25.456 20.2948 25.0163C19.8825 24.8018 19.501 24.5229 19.1502 24.2387C18.824 23.9759 18.9225 23.6166 19.3286 23.4289C19.7471 23.2359 20.1656 23.1769 20.6579 23.4557C20.5225 23.5147 20.424 23.5415 20.3502 23.5898C20.264 23.6434 20.1963 23.7185 20.1163 23.7882C20.2086 23.7775 20.301 23.7668 20.3994 23.756C20.4302 23.7507 20.461 23.7507 20.5102 23.7453C20.5225 23.8472 20.5348 23.9491 20.5533 24.0671C20.6517 24.0403 20.7379 24.0135 20.8302 23.9866C20.9163 24.0939 20.9225 24.3299 21.1933 24.1904C21.2056 24.1851 21.2794 24.2333 21.304 24.2655C21.5933 24.657 22.5286 24.8661 22.9102 24.5712C23.0948 24.4264 23.1933 24.1422 23.2363 23.9116C23.3163 23.4397 23.021 23.0321 22.8179 22.6192C22.7317 22.4476 22.701 22.3189 22.7933 22.1312C22.8856 21.9488 22.904 21.7129 22.8548 21.5198C22.7686 21.1552 22.4733 21.0801 22.1102 21.3053C22.0794 21.3214 22.0363 21.3268 21.9933 21.3429C22.0979 20.6243 22.5102 20.6135 23.0517 20.6511C22.9779 20.399 22.8917 20.1738 22.6333 20.029C22.5163 19.9593 22.381 19.8949 22.3071 19.7984C22.2148 19.6751 22.0917 19.4767 22.1471 19.3909C22.264 19.2085 22.4425 19.0262 22.7686 19.1281C22.8671 19.1603 23.0086 19.0798 23.1317 19.0476C23.2671 19.0101 23.3963 18.9565 23.5379 18.935C23.6917 18.9082 23.8579 18.9243 24.0056 18.8975C24.2086 18.86 24.4486 19.0047 24.584 19.2514C24.8486 19.7287 24.9102 20.2221 24.7871 20.7369C24.7379 20.9407 24.7194 21.1337 24.9902 21.2678C25.064 21.3053 25.0825 21.4984 25.064 21.611C25.0333 21.7933 24.9286 21.9649 24.8856 22.1473C24.8671 22.2277 24.9163 22.3189 24.9286 22.4047C24.9963 22.3564 25.0763 22.3242 25.1194 22.2652C25.304 22.0239 25.6425 21.9756 26.061 22.1633C26.2148 22.2331 26.3563 22.3296 26.4733 22.4368C26.904 22.8283 27.304 23.252 27.7533 23.622C28.0179 23.8365 28.3563 23.9813 28.6702 24.1422C29.021 24.3138 29.2486 24.5658 29.3717 24.8876C29.741 25.6812 29.9502 25.767 30.4856 26.0084C30.6825 26.0995 30.9286 26.0942 31.1194 26.1853C31.6425 26.432 32.1533 26.7055 32.6702 26.9629C32.9533 27.1023 33.2179 27.3008 33.5194 27.3651C34.0733 27.4831 34.6456 27.5367 35.2117 27.5903C35.3963 27.6064 35.6056 27.5582 35.7779 27.4992C36.7317 27.1613 37.6917 26.8235 38.6271 26.4481C38.9348 26.3248 39.1748 26.0781 39.4825 25.8636C39.4825 25.9226 39.5133 26.0084 39.4763 26.0674C39.1071 26.7484 38.6394 27.3544 37.8333 27.703C37.1748 27.9872 36.541 28.3197 35.8579 28.5503C35.0702 28.813 34.2456 28.9954 33.4271 29.1991C33.2425 29.242 33.0394 29.2367 32.8486 29.2313C32.7748 29.2313 32.6825 29.1723 32.6271 29.1187C32.4117 28.9042 32.221 28.6682 31.9871 28.4698C31.3779 27.9389 30.6333 27.7673 29.7902 27.9014C29.7656 27.9067 29.7471 27.9336 29.6856 27.9818C29.8148 28.0301 29.9133 28.0783 30.024 28.1105C30.6456 28.2875 31.1625 28.5932 31.5379 29.0651C31.7656 29.3493 31.7102 29.4994 31.3286 29.5906C31.144 29.6335 30.9471 29.6281 30.7563 29.655C30.6148 29.6764 30.381 29.6979 30.3563 29.7622C30.3194 29.8802 30.3563 30.0679 30.4425 30.1644C30.8117 30.572 31.2117 30.9527 31.5933 31.3496C31.8886 31.6552 32.1594 31.9877 32.4733 32.2773C32.9102 32.6795 33.4025 33.0173 34.0794 33.1889C33.8825 33.2533 33.6856 33.3337 33.4825 33.382C32.7133 33.5643 31.9379 33.5268 31.1686 33.3874C30.9902 33.3552 30.824 33.2104 30.6763 33.0871C30.3317 32.7921 30.0363 32.4543 29.661 32.1969C29.4948 32.0842 29.1871 32.0896 28.9533 32.1111C28.7502 32.1325 28.6579 32.1111 28.664 31.9287C28.6763 31.607 28.5286 31.2852 28.7748 30.9688C28.9102 30.7918 28.6456 30.6739 28.4979 30.69C28.1348 30.7329 27.981 30.5237 27.8086 30.336C27.3225 29.7998 26.7071 29.5531 25.9625 29.6657ZM22.8425 25.8904C22.5225 25.9547 22.3625 25.7778 22.3071 25.5418C22.2394 25.2576 22.0117 25.145 21.7594 25.0163C21.0456 24.657 20.3379 24.287 19.624 23.9223C19.5748 23.8955 19.5071 23.8955 19.3656 23.8633C19.5871 24.1904 19.8025 24.4049 20.1225 24.5497C20.5963 24.7642 21.0579 24.9895 21.5194 25.2147C21.624 25.2683 21.704 25.3541 21.784 25.4292C22.0425 25.6759 22.0117 26.0995 22.4794 26.2282C22.4917 26.2336 22.4917 26.3355 22.4979 26.3623C22.584 26.6519 22.9963 26.9736 23.4517 26.8771C23.7163 26.8342 23.8148 26.8878 23.9994 27.1721C24.1471 27.3919 24.3317 27.7405 24.7625 27.7137C25.3963 27.6761 26.141 26.9307 26.1163 26.373C26.104 26.1639 26.1717 26.0298 26.3933 25.9547C26.5533 26.0513 26.7194 26.1478 26.8794 26.239L26.9533 26.1585C26.8179 26.0191 26.664 25.8904 26.5533 25.7402C26.344 25.4506 25.901 25.6115 25.8271 25.8797C25.784 26.0352 25.7471 26.1907 25.6917 26.3462C25.581 26.6572 25.3163 26.861 24.9963 26.9897C24.6579 27.1292 24.2886 26.9522 24.0363 26.5929C23.9871 26.5232 23.8763 26.4374 23.8086 26.4427C23.144 26.5178 23.0456 26.4642 22.8425 25.8904ZM24.7625 23.6488C24.8425 23.7239 24.9163 23.815 25.0086 23.8848C25.1563 23.9866 25.4825 24.1261 25.4825 24.1261C25.5933 24.3781 25.9933 24.3299 26.0486 24.169C26.3317 24.0295 26.424 23.8472 26.7994 23.8204C26.1963 23.3914 25.5071 23.3914 24.7625 23.6488ZM27.421 27.8585C27.4886 27.7834 27.661 27.6386 27.6363 27.6118C27.421 27.3544 27.181 27.1023 26.9163 26.8771C26.8733 26.8396 26.6702 26.8986 26.584 26.9629C26.4671 27.0434 26.3994 27.1721 26.3071 27.2793C26.1348 27.4724 26.1471 27.585 26.4056 27.6547C26.7071 27.7351 27.021 27.778 27.421 27.8585ZM23.3594 19.5517C23.5133 19.6965 23.6117 19.7931 23.7102 19.8842C23.7963 19.7984 23.9563 19.7019 23.944 19.6268C23.9256 19.5249 23.784 19.4284 23.6733 19.3694C23.6363 19.348 23.5133 19.4606 23.3594 19.5517Z" fill="black"/>
<path d="M12.5722 0.0537109C11.926 1.07261 11.6245 2.09688 11.403 3.14796C11.206 4.09715 11.286 5.03025 11.5753 5.95799C11.7907 6.64977 11.9814 7.34155 12.5168 7.90999C12.5291 7.92608 12.5414 7.9368 12.5537 7.95289C12.9353 8.39799 13.046 8.40336 13.4399 7.96898C13.6368 7.75448 13.8337 7.53997 14.0245 7.3201C14.0307 7.31474 14.043 7.3201 14.1045 7.3201C14.0676 7.57214 14.0553 7.82419 13.9999 8.07087C13.8522 8.6983 13.9937 9.70648 14.1599 10.3125C14.3691 11.0579 14.4922 11.4118 14.8799 12.1304C15.0276 12.3556 15.1384 12.4629 15.2676 12.613C15.3353 12.6935 15.446 12.8115 15.4953 12.7846C15.6184 12.7149 15.6984 12.5809 15.7907 12.4736C15.803 12.4575 15.803 12.42 15.7968 12.3932C15.5384 11.8408 15.563 11.755 16.3322 11.1598C16.763 10.7951 17.2553 10.4841 17.7291 10.1623C17.8214 10.1033 18.1722 9.85663 18.0922 10.0711C17.5384 11.1169 17.3722 12.1894 17.3907 13.278C17.4091 14.1897 17.5876 15.0959 18.0245 15.9325C18.2768 16.4098 18.5968 16.8603 18.9168 17.3054C19.5999 18.2492 20.2707 19.1984 21.1384 20.0296C21.3414 20.2226 21.5876 20.3889 21.8276 20.5766C21.766 20.6624 21.7168 20.7374 21.6245 20.8769C18.5414 18.4476 16.0553 15.6376 14.1599 12.4736C14.0553 12.6881 13.8584 12.8544 13.323 12.9562C13.5814 13.4871 13.4214 14.1521 13.4707 14.7045C13.4953 14.9619 13.5876 15.1388 13.7599 15.3533C14.0122 15.5732 14.2891 15.6161 14.4799 15.5947C14.7753 15.5625 15.0153 15.3319 14.923 14.9511C15.206 15.1764 15.2553 15.6215 15.1014 15.8145C14.9784 15.9701 14.6153 16.1577 14.2214 16.013C13.5814 15.7824 13.1076 15.3373 12.9045 14.7956C12.7568 14.4095 12.8245 13.9698 12.7876 13.5569C12.7322 12.9402 12.1968 12.4575 11.563 12.4951C11.4399 12.5004 11.2922 12.5916 11.2122 12.6827C10.9537 12.9884 11.2491 13.3853 11.4522 13.455C11.6799 13.5247 11.7907 13.4121 11.8399 13.337C11.9137 13.2244 11.8707 13.1064 11.9199 12.9938C12.2276 13.101 12.4368 13.4121 12.2891 13.6963C12.203 13.8625 11.803 13.9483 11.5199 13.9001C10.6337 13.7553 9.81528 12.8115 10.443 11.9963C10.4614 11.9749 10.7445 11.6907 11.0091 11.637C11.0091 11.637 10.8491 11.4225 10.7384 11.1008C10.5968 10.6878 10.646 10.2642 10.806 9.81373C11.3599 10.2642 11.8584 10.5216 11.926 11.562C11.926 11.562 12.123 11.5888 12.3691 11.7336C12.2768 11.4601 12.2399 10.9882 12.5353 10.6289C12.6707 10.8326 12.8984 11.2992 12.6953 11.8837C12.6953 11.8837 12.886 12.0339 13.0091 12.2591C13.0091 12.2591 13.2184 12.1733 13.323 12.1626C13.5691 12.1411 13.7599 12.1304 13.9999 12.1679C13.5137 11.2134 13.286 10.3393 13.1322 9.06832C13.0707 9.1005 12.9476 9.2721 12.8307 9.33109C12.4614 9.51342 12.203 9.4598 11.9199 9.18094C11.3907 8.66076 11.2737 8.339 10.9784 7.70621C10.646 6.99298 10.4922 6.387 10.3568 5.09996C10.3568 5.07851 10.3876 5.1375 10.3568 5.09996C9.68605 6.18858 9.47066 6.97689 9.0522 8.23711C8.72605 9.39545 8.82451 10.7522 9.43374 11.9642C9.82143 12.7417 10.3014 13.4603 10.9291 14.1039C12.2891 15.5089 13.6368 16.9246 15.0153 18.3135C15.5384 18.8391 16.1291 19.311 16.6953 19.8043C17.7107 20.6838 18.7384 21.5526 19.7599 22.432C19.9076 22.5607 20.043 22.7055 20.2399 22.8932C19.9568 22.9361 19.7291 22.9415 19.5384 23.0166C19.2614 23.1238 19.1445 22.9522 18.9907 22.8396C18.763 22.6734 18.5537 22.491 18.3384 22.3087C16.2091 20.4532 14.203 18.4959 12.2399 16.5063C12.166 16.4366 12.1045 16.3562 12.0122 16.2543C11.8707 16.3615 11.7353 16.4634 11.5445 16.6028C14.0307 18.8069 16.4922 20.9841 18.966 23.1721C18.843 23.3437 18.7014 23.2793 18.5414 23.1453C17.643 22.416 16.7322 21.7027 15.846 20.9573C14.7322 20.0189 13.6307 19.0643 12.5537 18.0883C11.8953 17.493 11.2922 16.8495 10.6768 16.2221C10.1045 15.6322 9.50758 15.053 8.98451 14.431C8.05528 13.3424 7.20605 12.1894 6.86143 10.8487C6.52297 9.53487 6.35682 8.19421 6.6522 6.83746C6.85528 5.88291 7.15066 4.97662 7.74758 4.15614C8.38758 3.2713 9.08297 2.41328 9.98759 1.72149C10.7199 1.16378 11.5199 0.681141 12.2891 0.166327C12.3445 0.128788 12.4245 0.1127 12.5722 0.0537109ZM10.5722 2.52589C9.72297 2.90128 8.31374 4.63878 7.91989 6.29047C7.51989 7.68476 7.48912 9.57778 8.24605 10.9131C8.27066 10.8434 8.27066 10.7736 8.2522 10.7039C8.01835 9.72793 8.02451 8.75193 8.2522 7.78129C8.56605 6.45671 9.23066 5.26084 10.0922 4.14005L10.2584 3.93091C10.283 3.36783 10.4553 2.90128 10.5722 2.52589ZM9.27989 13.5247C9.25528 13.5569 9.22451 13.589 9.19989 13.6212C9.23066 13.6909 9.24912 13.766 9.28605 13.8357C9.6922 14.5704 10.2584 15.2139 10.8737 15.8253C10.923 15.8735 11.1199 15.8896 11.126 15.8682C11.1937 15.7448 11.4891 15.6966 11.2984 15.4821C10.7507 14.8814 10.2153 14.2755 9.66143 13.6802C9.57528 13.5998 9.40297 13.5729 9.27989 13.5247ZM29.8091 24.856C30.1784 24.6951 30.5353 24.4752 30.8737 24.2875C31.8953 23.7191 33.4276 22.7109 34.0984 21.8314C34.5968 21.1772 34.646 21.1396 35.0091 20.0618C35.0645 19.8204 35.1076 19.5845 35.003 19.3163C34.9784 19.2252 34.8307 19.1018 34.7568 19.0697C34.5107 18.957 34.5845 18.7962 34.6768 18.6621C35.403 17.5896 34.9907 16.5492 34.203 15.7984C34.1107 15.7073 33.6922 15.4767 33.563 15.4391C33.563 15.4391 33.5937 14.9833 33.5814 14.8653C33.5014 14.0717 33.3107 13.7177 32.5045 13.3263C31.9076 13.0367 31.1876 12.9241 30.5107 13.0796C30.0553 13.1868 29.6307 13.4818 29.3722 13.7928C29.2491 13.9376 29.1076 14.1897 29.1076 14.1897C28.5045 14.2326 28.1414 14.7474 28.0676 15.2515C27.9753 15.8789 27.9753 16.5814 28.2953 17.1766C28.7137 17.9435 29.3353 18.5388 30.3445 18.7318C30.9907 18.8552 32.0368 18.4744 32.2276 17.7558C32.3445 17.3268 32.3999 16.9139 32.166 16.5063C31.8584 15.9647 31.1507 15.7073 30.3937 15.8574C29.8707 15.9647 29.4707 16.4581 29.4768 16.9997C29.4768 17.2571 29.7968 17.5896 30.086 17.6325C30.3076 17.6646 30.486 17.6217 30.523 17.3912C30.406 17.3912 30.2707 17.4287 30.2153 17.3858C29.9322 17.1766 30.0368 16.501 30.363 16.3508C30.5107 16.2811 30.5968 16.2275 30.7322 16.2167C31.0337 16.2006 31.3476 16.1631 31.6307 16.517C31.8768 16.8281 31.963 17.1552 31.8584 17.5252C31.766 17.8684 31.3722 18.0883 30.8184 18.1473C29.5014 18.2921 28.6337 17.2732 28.6091 16.3508C28.603 16.0827 28.5845 15.8092 28.6337 15.5518C28.6707 15.3694 28.7876 15.1925 28.923 15.0423C28.9784 14.978 29.1753 14.9511 29.2676 14.9833C29.526 15.0691 29.6984 15.0048 29.7107 14.7795C29.7291 14.2594 30.043 13.9376 30.566 13.7821C31.1445 13.6105 31.7353 13.6105 32.283 13.9001C32.443 13.9859 32.6891 14.1575 32.7937 14.2915C32.8922 14.4149 32.9907 14.6401 33.0276 14.9243C33.0399 15.1335 33.0276 15.3533 33.0276 15.659C33.2245 15.7341 33.4707 15.8574 33.6799 15.9701C33.8768 16.0773 34.006 16.2328 34.1476 16.3937C34.5045 16.8174 34.7876 18.0132 34.3691 18.5548C34.3322 18.5978 34.3014 18.646 34.2584 18.6836C34.0737 18.8659 33.9199 19.1179 34.2768 19.2949C34.3322 19.3217 34.4184 19.4343 34.4245 19.504C34.4553 19.8526 34.3199 20.3031 34.1291 20.6302C33.2922 22.0727 32.203 23.097 30.6768 24.0301C30.3753 24.2124 29.9937 24.2982 29.643 24.4109C29.6122 24.4162 29.6245 24.4162 29.5937 24.368C29.3845 24.0784 29.126 23.9282 28.6953 23.7298C29.1753 23.4188 29.7907 23.1292 30.2399 22.786C31.1691 22.0781 31.9753 21.2952 32.2522 20.1958C32.2707 20.11 32.2891 20.0189 32.283 19.9331C32.2707 19.6971 32.326 19.4236 31.9814 19.3217C31.766 19.2574 31.1753 19.5845 31.083 19.7936C31.0707 19.8204 31.0584 19.8472 31.0645 19.8687C31.2122 20.8179 30.6337 21.4775 29.8768 22.0298C29.4584 22.3355 29.163 22.4696 28.6707 22.668C28.326 22.8074 27.846 22.9576 27.686 22.9361C27.686 22.9361 27.446 22.7645 27.1937 22.4696C28.3876 22.2068 29.1137 21.4882 29.6614 20.8501C29.846 20.6141 29.9322 20.1154 29.8091 19.8526C29.5076 19.9062 29.206 19.9062 28.886 19.8741C28.0491 19.799 27.1937 19.429 26.923 18.7372C26.7076 18.2706 26.2584 18.0561 25.9814 17.7344C25.6737 17.3804 25.6737 17.182 25.6737 16.753C25.6737 16.5117 25.7968 16.383 25.8707 16.3025C26.326 15.7877 26.7876 15.2729 27.2491 14.7581C27.8768 14.0556 28.5291 13.3638 29.1137 12.6345C29.4276 12.2376 29.883 12.05 30.3322 11.9105C31.5876 11.5298 32.683 11.8998 33.6368 12.6345C34.443 13.2566 34.5476 14.2165 34.406 15.0906C34.406 15.0906 34.5907 15.2246 34.6399 15.2622C35.2799 15.7073 35.483 16.1738 35.5876 16.6833C35.6799 17.1123 35.7476 17.3965 35.6799 17.8845C35.6122 18.3779 35.3353 18.7962 35.3353 18.7962C35.3353 18.7962 35.4891 18.9302 35.5445 19.0321C35.9814 19.6596 35.4153 20.7267 35.206 21.2147C34.7937 22.0567 34.3568 22.7055 33.8337 23.274C33.8337 23.274 33.8522 23.5689 33.643 23.7834C33.4399 24.0248 32.9845 24.2875 32.7137 24.4591C32.2337 24.7702 31.8276 24.9418 31.3107 25.2045C31.1937 25.2635 30.9784 25.3708 30.8614 25.4244C30.4614 25.6067 30.1168 25.4673 29.9384 25.108C29.8707 24.9954 29.8399 24.9954 29.8091 24.856ZM27.5445 16.2435C27.5199 16.0183 27.5199 15.9164 27.5137 15.7502C27.5199 15.5142 27.5507 15.4606 27.5691 15.3319C27.4399 15.3641 27.083 15.3802 26.843 15.5839C26.3137 16.0344 26.1476 16.6779 26.2953 17.1123C26.3937 17.3858 26.6091 17.6271 26.8184 17.6593C26.9599 17.6807 27.1753 17.6432 27.1753 17.6432C27.1753 18.3296 27.4891 18.8981 28.1784 19.134C28.6891 19.3056 29.3168 19.2627 29.9076 19.1018C29.6491 19.0965 29.446 19.0053 29.3476 18.9678C28.4676 18.646 28.0307 18.0347 27.723 17.2678C27.686 17.1766 27.606 17.0908 27.5199 17.0372C27.446 16.989 27.2922 16.8763 27.1937 16.9407C27.126 17.005 27.2245 17.1284 27.2922 17.1713C27.366 17.2249 27.4214 17.3536 27.3291 17.3214C26.9722 17.1927 26.7507 16.8656 26.8368 16.5546C26.9107 16.3454 27.0891 16.2006 27.5445 16.2435ZM13.7045 31.023C13.323 31.4413 12.8245 31.5539 12.2522 31.4627C12.1968 31.452 12.123 31.4306 12.0984 31.3877C11.686 30.8031 11.0399 30.7871 10.3999 30.9265C10.0184 31.0069 9.63066 31.1946 9.34143 31.4252C8.91066 31.7738 8.46143 32.1545 8.19682 32.5996C7.69835 33.4308 6.89835 33.6239 5.95066 33.6024C5.4522 33.5917 4.95989 33.5059 4.46758 33.4469C4.38143 33.4362 4.28912 33.3987 4.22143 33.3504C4.09835 33.2646 4.04912 33.1627 4.25835 33.0984C4.44912 33.034 4.63989 32.975 4.81835 32.8892C5.37835 32.6318 5.87066 32.31 6.23989 31.8489C6.78143 31.1893 7.35989 30.5511 7.86451 29.87C8.05528 29.6126 8.12297 29.2748 8.19066 28.9637C8.29528 28.5026 7.9322 28.2398 7.46451 28.0682C7.19989 27.9717 7.04605 27.859 6.99066 27.607C6.8922 27.1404 6.87374 26.6954 6.98451 26.3843C7.15682 26.5345 7.31682 26.7007 7.51374 26.8294C7.79066 27.0117 8.12297 26.9688 8.38143 26.8241C8.51682 26.749 8.56605 26.5237 8.59682 26.3629C8.66451 26.0036 8.64605 25.6282 8.75066 25.2796C8.87989 24.8506 9.08912 24.443 9.27374 24.0301C9.29835 23.9711 9.40297 23.9175 9.47682 23.9121C9.52605 23.9121 9.6122 23.9872 9.63682 24.0462C9.72912 24.2822 9.77835 24.5557 10.0984 24.6361C10.5476 24.7433 10.9968 24.6951 11.3968 24.4752C12.1968 24.0355 12.9353 23.5368 13.5814 22.9308C13.7045 22.8128 13.8399 22.7002 13.963 22.5822C14.0553 22.4857 14.1414 22.3838 14.2091 22.2765C14.326 22.0888 14.3137 21.869 14.0984 21.7885C13.9568 21.7349 13.6614 21.7885 13.563 21.8904C13.3845 22.0674 13.3045 22.3248 13.1691 22.5393C13.126 22.6144 13.0399 22.668 12.9722 22.7324C12.9476 22.6573 12.9045 22.5822 12.8922 22.5071C12.7507 21.6545 13.0399 20.8662 13.3476 20.0778C13.4276 19.8794 13.4891 19.8151 13.6122 19.5898C14.0799 20.0403 14.566 20.3781 15.0891 20.8286C14.763 20.9091 14.486 20.9788 14.1722 21.0592C14.246 21.1021 14.3199 21.1772 14.406 21.1933C14.763 21.2576 15.126 21.3327 15.483 21.3434C15.7845 21.3542 15.9691 21.515 16.1291 21.7081C15.366 23.0058 14.1537 23.7727 12.7814 24.5074C12.0984 24.8774 11.3599 25.167 10.6337 25.478C10.4614 25.5531 10.2584 25.6496 10.086 25.419C10.006 25.3118 9.76605 25.4244 9.74758 25.6014C9.71066 25.9875 9.6922 26.3682 10.1107 26.6417C10.4737 26.883 10.843 26.8777 11.2368 26.7222C11.3845 26.6632 11.5445 26.6203 11.6799 26.5398C11.803 26.4701 11.9814 26.3736 11.9999 26.2717C12.0799 25.8481 12.4676 25.6872 12.8184 25.4995C13.1199 25.3332 13.4399 25.1938 13.766 25.0651C13.9137 25.0061 14.1168 24.9364 14.3199 24.9364C14.3076 25.0597 14.2522 25.2528 14.2214 25.3279C14.0491 25.8052 13.9014 26.143 13.6984 26.4701C13.4891 26.8348 13.3599 26.9206 13.0214 27.0332C12.7507 27.1726 12.7568 27.607 12.7507 27.977C12.7507 28.1272 12.7753 28.2773 12.7999 28.4275C12.843 28.7278 13.126 28.9691 13.4645 28.9584C13.7291 28.9477 13.9937 28.9101 14.2522 28.8619C14.5107 28.8136 14.5476 28.642 14.4245 28.4436C14.3507 28.3202 14.3014 28.1486 14.3384 28.0146C14.4491 27.2906 14.603 26.8777 14.8491 26.3468C15.3045 25.3547 16.0922 24.5342 16.8984 23.7405C17.163 23.4778 17.3476 23.2793 17.6184 23.0005C17.963 23.2579 18.4245 23.4938 18.4553 23.8317C18.603 24.2393 18.8799 24.5771 19.2553 24.856C19.4399 24.99 19.5937 25.1563 19.7537 25.3064C19.366 25.7676 17.5137 26.2449 16.9353 26.0089C17.0645 25.9339 17.1568 25.8641 17.2614 25.8159C17.4584 25.7301 17.6799 25.6764 17.8645 25.5638C18.2337 25.344 18.2707 25.2099 18.1476 24.8345C18.0553 24.5557 17.6922 24.3411 17.4337 24.5181C17.0522 24.7809 16.9291 24.9418 16.5784 25.2421C16.443 25.3601 16.1107 25.7783 15.9691 25.9446C15.5199 26.4862 15.2984 27.1136 15.1876 27.8269C15.126 28.2452 15.5014 28.6045 15.9753 28.6688C16.0799 28.6849 16.1722 28.76 16.2707 28.8082C16.1907 28.8779 16.123 28.9584 16.0307 29.012C15.7414 29.1729 15.403 29.2855 15.1568 29.4893C14.6399 29.9183 14.0368 30.0845 13.3476 30.1114C13.1937 30.1167 12.9907 30.0256 12.9291 30.2615C12.8676 30.4867 12.8984 30.6798 13.126 30.8085C13.286 30.8836 13.4891 30.9426 13.7045 31.023ZM12.4491 29.0978C12.1968 29.2909 11.9322 29.4518 11.5999 29.248C11.2799 29.0496 11.2922 28.8511 11.3722 28.4543C11.3968 28.3095 11.4399 28.1218 11.4645 27.9824C11.483 27.8805 11.4891 27.784 11.4645 27.6821C11.3045 27.6767 11.163 27.7035 11.046 27.7411C10.6768 27.859 10.3199 28.0146 9.93835 28.0843C9.80912 28.1111 9.57528 27.9609 9.48912 27.843C9.39066 27.6982 9.31682 27.4837 9.58143 27.355C9.61835 27.3335 9.63066 27.2745 9.66143 27.2263C9.32297 27.1834 9.08297 27.3818 9.15066 27.6445C9.18758 27.7947 9.27989 27.9395 9.40297 28.0414C9.74758 28.331 9.70451 28.642 9.55682 28.9745C9.39682 29.3284 9.22451 29.677 9.05835 30.0095C9.1322 30.1006 9.18758 30.1006 9.24297 30.165C9.66143 29.8754 10.0368 29.677 10.4368 29.4571C10.7568 29.2801 10.8799 29.13 11.4337 29.4357C11.5691 29.5429 11.9937 29.6073 12.2091 29.5268C12.4368 29.4303 12.5537 29.3606 12.4491 29.0978Z" fill="black"/>
<path d="M19.742 17.718C19.7051 17.6643 19.4282 17.364 19.2251 17.0047C19.2251 17.0047 19.4897 16.7259 19.6743 16.5382C20.5051 15.7016 21.3543 14.8865 22.1851 14.0499C22.9235 13.3099 23.6374 12.5484 24.3758 11.8083C25.182 11.0039 26.0005 10.2049 26.8312 9.41659C27.342 8.93396 27.8712 8.46204 28.3943 7.99549C28.8558 7.58257 29.3174 7.16964 29.7974 6.77817C30.5482 6.17219 31.3051 5.57157 32.0866 4.99241C32.6835 4.55267 33.3112 4.14511 33.9266 3.72682C33.982 3.68928 34.0497 3.66247 34.1174 3.64638C34.2528 3.61957 34.3943 3.60348 34.5358 3.58203C34.5174 3.72146 34.5358 3.87161 34.4743 3.99496C34.2158 4.48832 33.9574 4.98168 33.662 5.45896C33.0097 6.51004 32.3758 7.57184 31.6497 8.58538C30.9482 9.57747 30.1666 10.532 29.3789 11.4759C28.7205 12.2695 27.9943 13.0203 27.3235 13.8032C26.3266 14.9562 25.3482 16.1253 24.3697 17.289C23.9451 17.7931 23.5389 18.3079 23.1143 18.8066C23.0589 18.8709 22.8866 18.9353 22.8189 18.9085C22.3574 18.7208 22.1358 18.9407 21.9451 19.2517C21.9266 19.2839 21.8958 19.3053 21.8712 19.3375C21.6743 19.2946 21.6497 19.2142 21.7666 19.0747C22.4066 18.3132 23.0405 17.5464 23.6743 16.7795C24.3082 16.0127 24.9358 15.2404 25.582 14.4843C26.1728 13.7872 26.7943 13.1115 27.3666 12.409C28.1297 11.4705 28.8251 10.4998 29.3789 9.45413C29.422 9.37369 29.4651 9.2718 29.4405 9.19672C29.422 9.13774 29.2682 9.05193 29.2189 9.06802C29.0343 9.13237 28.8435 9.21281 28.6897 9.32543C27.8528 9.91532 27.0651 10.5427 26.3697 11.2667C25.7174 11.9478 24.9482 12.5484 24.2774 13.2187C23.3851 14.1035 22.5543 15.0313 21.6682 15.9215C21.2251 16.3612 20.7205 16.7527 20.2528 17.1763C20.0805 17.3265 19.9328 17.5142 19.742 17.718ZM16.3758 36.1172C16.1297 36.4765 15.9081 36.8519 15.6251 37.1844C15.1266 37.7636 14.4805 38.1711 13.6558 38.332C13.5881 38.3427 13.5205 38.332 13.4528 38.332C13.4282 38.3052 13.4035 38.273 13.3789 38.2462C13.5266 38.1658 13.6743 38.08 13.8158 37.9995C13.7974 37.9781 13.7728 37.9566 13.7543 37.9352C13.3728 37.9512 13.0528 38.1068 12.7205 38.2623C12.4743 38.3803 12.1974 38.4446 11.9266 38.5197C11.8528 38.5411 11.7605 38.509 11.6312 38.5036C11.7174 38.4017 11.7666 38.3374 11.8405 38.2462C11.5266 38.1389 11.2189 38.1175 10.9789 38.2676C10.7451 38.4124 10.542 38.6162 10.3943 38.8361C10.2528 39.0506 10.1974 39.308 10.0374 39.5547C10.0189 39.485 9.97584 39.4045 9.98815 39.3402C10.0312 39.1364 10.0681 38.9326 10.1543 38.7449C10.2774 38.4553 10.4128 38.1604 10.5912 37.8923C10.8866 37.4579 11.3728 37.2916 11.9328 37.2487C12.5297 37.2058 13.1328 37.1629 13.7297 37.0879C14.1728 37.0342 14.6712 36.4283 14.6405 36.0368C14.6097 35.6346 14.2097 35.4254 13.7174 35.5649C13.6005 35.597 13.4958 35.656 13.3912 35.6989C13.3728 35.6828 13.3482 35.6775 13.342 35.6668C13.1881 35.2538 13.1943 35.2646 12.6897 35.3933C12.4558 35.4523 12.2097 35.463 11.8774 35.5059C11.9943 35.3665 12.0558 35.2592 12.1481 35.1895C12.5358 34.8838 12.382 34.4226 12.0435 34.1384C11.8774 33.999 11.7543 33.822 11.6189 33.6719C11.6435 33.6397 11.6435 33.6236 11.6497 33.6236C12.2158 33.5539 12.3328 33.2375 12.3205 32.787C12.3143 32.5511 12.4681 32.3097 12.5789 32.0845C12.6712 31.8968 12.8374 31.7949 13.0897 31.7467C13.6189 31.6555 14.0435 31.3981 14.3882 31.0334C14.4497 30.9637 14.5728 30.894 14.6589 30.8994C15.2435 30.9315 15.8651 30.8672 16.3758 31.1943C16.8189 31.4785 17.2251 31.8057 17.6497 32.1113C17.8651 32.2668 18.0497 32.4224 18.3143 32.5618C19.0343 32.9372 19.9143 33.1088 21.0958 32.6637C21.2682 32.594 21.3728 32.5671 21.6005 32.4438C21.3235 33.0337 20.9851 33.511 20.6035 33.9722C20.0374 34.6586 19.2928 34.6747 18.4435 34.5031C17.6251 34.3422 17.0651 33.8595 16.4805 33.4091C16.1235 33.1356 15.742 32.9533 15.2435 32.964C14.5605 32.9801 14.1481 33.5968 14.4866 34.1277C14.8189 34.6425 15.3728 34.7283 15.982 34.7444C16.1605 34.7497 16.3574 34.798 16.5051 34.8838C16.9297 35.1251 17.2558 35.4523 17.4835 35.8545C17.6312 36.1172 17.6374 36.3585 17.4528 36.6159C17.1512 37.0396 16.7389 37.3185 16.1605 37.3882C16.1235 37.3935 16.0805 37.3935 16.0374 37.3882C16.0189 37.3882 16.0066 37.3667 15.9697 37.3453C16.2466 36.9806 16.462 36.5945 16.4558 36.144C16.4312 36.1387 16.4005 36.1279 16.3758 36.1172ZM11.2066 17.4659C11.022 17.5356 10.8743 17.5946 10.7266 17.6483C9.71738 18.0129 9.05277 18.5974 9.05277 19.6164C9.05277 19.863 9.13892 20.0561 9.4343 20.3189C9.97584 20.8015 10.0497 21.5094 9.63123 22.1797C9.28661 22.7267 8.65277 22.9519 7.87123 22.8071C7.85277 22.8018 7.8343 22.8125 7.79123 22.8179C7.52661 23.263 7.10815 23.4989 6.51123 23.4614C6.45584 23.7885 6.42507 24.0995 6.35123 24.3998C6.17892 25.1345 5.52046 25.2632 4.86815 25.2418C4.782 25.2364 4.70815 25.1399 4.622 25.0809C4.68353 25.0219 4.73277 24.9415 4.80661 24.9146C5.06507 24.8288 5.20046 24.6948 5.22507 24.4481C5.262 24.0352 5.06507 23.7134 4.7143 23.4667C4.09892 23.027 3.85277 22.8393 3.79123 21.9062C3.74815 20.9785 3.9143 20.2277 4.16661 19.4501C4.45584 18.5814 5.05892 17.9218 5.76661 17.305C6.622 16.5596 8.25892 16.0127 9.36046 15.6909C9.36046 15.6909 9.5143 15.8357 9.71738 16.0609C9.342 16.1467 8.97276 16.2218 8.60969 16.3237C7.37276 16.683 6.28354 17.2514 5.46507 18.1523C5.17584 18.4687 4.91123 18.8227 4.73892 19.1981C4.32661 20.1044 4.12353 21.0482 4.22815 22.0295C4.27123 22.4371 4.44969 22.7535 4.862 22.9787C5.40969 23.279 5.76661 23.692 5.70507 24.3087C5.742 24.3033 5.77277 24.2979 5.80969 24.2926C5.822 24.1424 5.84661 23.9869 5.84046 23.8368C5.81584 23.3756 5.73584 22.9358 5.262 22.6302C4.9543 22.4317 4.88661 22.1207 4.86815 21.815C4.84353 21.2627 4.88661 20.7211 5.12046 20.1848C5.37277 19.6003 5.5943 19.0157 6.00661 18.4902C6.622 17.7126 7.42815 17.1281 8.41892 16.7688C8.92353 16.5865 9.47738 16.5114 10.0189 16.4363C10.1666 16.5221 10.2712 16.6508 10.4312 16.7741C9.582 16.994 9.07738 17.3748 8.57277 17.8842C8.08046 18.3829 7.63123 18.9138 7.53892 19.5949C6.88661 19.6003 6.59123 19.7665 6.43123 20.2009C6.32046 20.5012 6.42507 20.7747 6.75123 20.9892C6.69584 20.7103 6.622 20.4422 6.92969 20.2384C7.21277 20.0561 7.61892 19.9917 7.90815 20.1741C8.32661 20.4422 8.6343 20.8873 8.302 21.4128C8.09892 21.7292 7.69277 21.8579 7.182 21.7507C6.97892 22.3191 6.54815 22.5444 5.87123 22.3245C5.95738 22.6409 6.28353 22.8232 6.73892 22.8179C7.08353 22.8125 7.39738 22.5229 7.502 22.1422C7.71738 22.2065 7.93276 22.3299 8.14815 22.3245C8.37584 22.3245 8.64046 22.2441 8.83123 22.1314C9.23738 21.8848 9.37892 21.268 9.15123 20.839C9.102 20.7425 8.9543 20.646 8.83738 20.6299C8.56661 20.5924 8.44969 20.4583 8.41276 20.2438C8.28969 19.4769 8.49892 18.7691 8.97276 18.1255C9.34815 17.6214 9.982 17.2032 10.5851 16.9189C10.5851 16.9189 10.7451 17.0584 10.8128 17.112C10.9789 17.2514 11.0281 17.2997 11.2066 17.4659ZM6.91123 28.5023C7.29892 28.8347 7.31738 28.8616 6.942 29.1082C6.38815 29.4729 5.79123 29.7839 5.22507 30.1325C4.75738 30.4167 4.29584 30.717 3.8343 31.012C3.742 31.071 3.65584 31.146 3.56969 31.2158C3.582 31.2372 3.5943 31.2533 3.60661 31.2748C4.35123 31.0495 5.102 30.835 5.84046 30.5937C6.5543 30.3631 7.09584 29.9341 7.53892 29.4032C7.56969 29.371 7.60046 29.3388 7.68046 29.253C7.662 29.3764 7.68046 29.4461 7.64353 29.4997C7.12661 30.2451 6.4743 31.1568 5.46507 31.5858C4.82507 31.8593 4.13584 32.0523 3.48969 32.3258C2.73277 32.6422 2.35123 33.0498 1.73584 33.5485C1.01584 34.1277 0.646612 34.8892 0.314304 35.6721C0.271227 35.7687 0.252765 35.8759 0.22815 35.9778C0.197381 35.9832 0.166612 35.9885 0.129688 35.9939C0.105073 35.9027 0.0435346 35.8008 0.0619961 35.715C0.437381 34.058 1.12661 32.5403 2.65277 31.4195C3.46507 30.8243 4.32046 30.2719 5.15738 29.6981C5.742 29.3013 6.32046 28.9098 6.91123 28.5023Z" fill="black"/>
<path d="M17.4961 31.5004C17.9761 31.6666 18.4376 31.6452 18.9176 31.5648C19.6192 31.4414 20.1115 31.0821 20.5176 30.6048C21.1699 29.8326 21.613 28.98 21.7915 28.0254C21.8407 27.7519 21.9884 27.7251 22.2284 27.9128C21.9269 28.8727 21.7546 29.8702 21.0161 30.6853C21.5207 30.519 22.1053 29.7415 22.8007 28.3901C22.8684 28.2131 22.973 28.4866 22.9976 28.5509C23.1392 28.9156 23.2807 29.2856 23.3915 29.661C23.4161 29.7415 23.3176 29.8594 23.2499 29.9452C22.9669 30.3153 22.6776 30.6799 22.3884 31.0499C22.4069 31.0714 22.4192 31.0875 22.4376 31.1089C22.8376 30.8676 23.2376 30.6317 23.6376 30.3903C23.6622 30.4011 23.6684 30.46 23.6684 30.4922C23.5946 30.5941 23.5022 30.6692 23.3669 30.7764C23.1146 30.9588 22.973 31.0821 22.7146 31.2591C22.4438 31.4468 22.2653 31.5916 21.8407 31.8275C20.6776 32.4603 19.9022 32.7016 18.7761 32.3477C18.3699 32.2136 17.8899 31.8865 17.4961 31.5004ZM21.3115 34.7984C21.2438 34.1281 21.4346 33.6079 21.7484 33.0127C21.853 32.8142 22.0684 32.2458 22.0684 32.2458C22.5792 31.9562 23.2807 31.5701 23.7853 31.1947C24.3822 30.7496 24.8438 30.4011 25.2684 29.8273C25.293 29.8004 25.3115 29.7683 25.373 29.6986C25.4776 30.0686 25.6069 30.3957 25.6438 30.7282C25.6622 30.8783 25.5392 31.0768 25.4099 31.1947C25.0961 31.4736 24.7392 31.7149 24.3946 31.967C24.0807 32.1975 23.9884 32.5086 24.1607 32.825C24.253 32.9966 24.3761 33.1038 24.6161 32.9805C24.7022 32.9376 24.813 32.9376 24.9853 32.9001C24.8561 33.2594 24.5484 33.3827 24.2838 33.4899C23.9022 33.6455 23.4838 33.7581 23.0653 33.8171C22.3146 33.9243 21.613 34.0637 21.3115 34.7984ZM22.3146 24.0249C22.3761 24.293 22.2715 24.3842 21.9884 24.3305C21.6376 24.2662 21.0469 23.9176 20.8684 23.7031C20.9915 23.5261 21.0961 23.3706 21.2069 23.2205C20.9915 23.1186 20.7822 23.0113 20.5484 22.9041C20.7515 22.7486 21.0099 22.5501 21.2684 22.3571C21.533 22.1479 21.7976 21.9334 22.0746 21.7404C22.1546 21.6814 22.3084 21.617 22.3822 21.6492C22.4684 21.6814 22.5238 21.8101 22.5484 21.9066C22.5669 21.9871 22.5422 22.105 22.4869 22.1587C22.1976 22.4268 22.3084 22.6896 22.4499 22.9684C22.5422 23.1454 22.6161 23.3331 22.7022 23.5154C22.8622 23.864 22.7822 23.9873 22.3146 24.0249Z" fill="black"/>
</g>
<defs>
<clipPath id="clip0_283_169">
<rect width="40" height="40" fill="white"/>
</clipPath>
</defs>
</svg>
