<svg width="40" height="40" viewBox="0 0 40 40" fill="none" xmlns="http://www.w3.org/2000/svg">
<g clip-path="url(#clip0_283_150)">
<path d="M31.9626 15.5366C31.8494 15.8522 31.7232 16.1104 31.6536 16.3972C31.5622 16.7701 31.7015 17.08 31.8668 17.3726C32.3673 18.2733 33.0809 18.7839 33.8207 19.2257C34.5605 19.6674 35.3177 19.9945 36.1358 20.0518C36.8712 20.0977 37.5805 19.9314 38.2724 19.6215C38.7859 19.3921 39.295 19.1396 39.8042 18.9044C39.8477 18.8814 39.8999 18.8929 40 18.8757C39.8869 19.1281 39.8129 19.3519 39.6954 19.5355C39.3647 20.0404 39.0296 20.5452 38.6684 21.0157C38.4987 21.2222 38.2942 21.3771 38.0766 21.4747C36.9365 22.0312 35.7441 22.2205 34.5431 22.3353C33.9208 22.3926 33.2985 22.4098 32.6849 22.232C32.2541 22.1115 31.819 22.0082 31.3969 21.8361C31.0139 21.6812 30.644 21.4517 30.2742 21.2394C30.2132 21.1936 30.1741 21.1132 30.1567 21.0214C29.9695 19.6961 29.3821 18.7208 28.6031 17.9119C28.4378 17.7397 28.2115 17.6709 28.0113 17.5676C27.8416 17.4816 27.7415 17.3439 27.7154 17.0914C27.6936 16.8619 27.624 16.6382 27.5631 16.3398L26.3795 17.189C26.5405 17.3439 26.7537 17.1717 26.7711 17.4758C26.7798 17.6652 26.8364 17.8545 26.8233 18.0381C26.8016 18.3594 26.7363 18.6749 26.6971 18.9905C26.6667 19.2314 26.5579 19.3117 26.3751 19.3117C26.275 19.3117 26.1271 19.3462 26.0879 19.4322C26.0052 19.633 25.9661 19.8797 25.9312 20.1092C25.9225 20.1494 26.0009 20.224 26.0444 20.2699C26.1358 20.3674 26.2359 20.4477 26.3185 20.551C26.436 20.6944 26.4708 20.8665 26.3751 21.0616C26.262 21.2968 26.1488 21.532 26.0487 21.773C25.9486 22.014 25.8137 22.0886 25.6353 21.9738C25.2611 21.7329 24.8912 21.4804 24.5344 21.2394C24.852 20.1035 25.1915 19.0306 25.2611 17.8487C25.2742 17.6479 25.2306 17.5389 25.087 17.4471C24.5561 17.0972 24.0339 16.7357 23.5074 16.3685C23.2681 16.2022 23.2681 15.9956 23.4943 15.8005C23.7772 15.5596 24.0644 15.3186 24.3429 15.0604C24.5126 14.9055 24.6388 14.9801 24.7694 15.135C25.0957 15.5137 25.4221 15.8923 25.7441 16.2767C25.8616 16.4202 25.9661 16.4374 26.1097 16.3284C26.4708 16.0473 26.8407 15.7833 27.228 15.5022C27.1889 15.4219 27.1627 15.3301 27.1149 15.267C26.6014 14.6302 26.101 13.9302 25.3481 13.8671C24.9782 13.8384 24.5909 13.9646 24.2211 14.0794C23.8381 14.1999 23.5509 14.5556 23.2637 14.8941C23.0983 15.0891 22.9243 15.2727 22.7111 15.5022C22.7111 15.3416 22.698 15.2383 22.7111 15.1465C22.9199 13.7351 23.3812 12.4672 23.9817 11.2796C24.1601 10.9354 24.356 10.6026 24.5605 10.2813C24.6171 10.2067 24.6997 10.1781 24.7781 10.1953C26.2054 10.7116 27.5587 11.4689 28.7903 12.5475C29.8477 13.4655 30.8573 14.481 31.8886 15.4506C31.9191 15.4907 31.9408 15.5137 31.9626 15.5366ZM15.4787 21.2394C15.1349 21.4747 14.7955 21.7271 14.443 21.9509C14.1906 22.1115 14.0949 22.0541 13.9469 21.7328C13.8512 21.5206 13.7598 21.3026 13.651 21.096C13.5379 20.878 13.5727 20.7059 13.7076 20.5395C13.7293 20.5108 13.7511 20.4879 13.7728 20.4649C14.1297 20.1035 14.1514 20.0289 13.9469 19.4953C13.9121 19.4035 13.7728 19.3232 13.6858 19.3232C13.4552 19.3347 13.329 19.2085 13.2985 18.9216C13.255 18.5372 13.2028 18.1471 13.1941 17.7627C13.1897 17.407 13.2898 17.3094 13.6249 17.2578C13.2637 16.8619 12.8808 16.6382 12.4543 16.3743C12.3977 16.6324 12.3499 16.8619 12.2889 17.0914C12.2672 17.1717 12.2019 17.2865 12.154 17.2865C11.6101 17.3152 11.2359 17.7512 10.9182 18.2503C10.5004 18.9159 10.1784 19.6732 9.96954 20.4879C9.95213 20.551 9.92167 20.6198 9.93037 20.6772C9.97389 21.1706 9.69974 21.2796 9.44299 21.446C8.79025 21.8648 8.08964 22.0312 7.38903 22.232C6.53612 22.4672 5.68755 22.3869 4.83899 22.2779C3.87728 22.1574 2.93299 21.9337 2.01044 21.532C1.54917 21.3312 1.23151 20.9182 0.926893 20.4707C0.596171 19.9887 0.304613 19.4839 0 18.9905L0.0565709 18.8757C0.139252 18.8987 0.21758 18.9273 0.300261 18.9618C1.25762 19.4609 2.22367 19.9141 3.26371 20.0461C4.047 20.1436 4.80418 19.9543 5.51784 19.5757C6.14447 19.2544 6.74935 18.8585 7.32376 18.3995C7.67624 18.1127 7.95039 17.6422 8.22454 17.2176C8.45518 16.8619 8.43777 16.4431 8.2463 16.0473C8.17667 15.9038 8.11575 15.7489 8.03742 15.5596C8.26806 15.3129 8.49434 15.049 8.73803 14.8195C9.52567 14.0851 10.3133 13.3565 11.114 12.6451C12.1062 11.7673 13.1984 11.1419 14.3081 10.5797C14.6084 10.4362 14.913 10.3158 15.2263 10.224C15.3177 10.2125 15.4134 10.2526 15.4787 10.3444C16.0009 11.1477 16.4491 12.0197 16.7493 13.0008C16.9669 13.7065 17.1236 14.4408 17.302 15.1637C17.3238 15.2498 17.3064 15.3588 17.3064 15.5194C16.993 15.1752 16.7232 14.8654 16.436 14.5843C16.2533 14.3949 16.0574 14.24 15.8442 14.1253C15.0174 13.7122 14.2298 13.7466 13.5292 14.5556C13.2768 14.8482 13.0244 15.1408 12.7372 15.4735C13.2071 15.8178 13.6118 16.1218 14.0252 16.403C14.0731 16.4374 14.1819 16.38 14.2341 16.3226C14.5605 15.9612 14.8825 15.5883 15.2002 15.2096C15.4526 14.917 15.47 14.9113 15.7528 15.1637C16.0052 15.3817 16.262 15.594 16.5187 15.8063C16.7493 16.0014 16.7537 16.2079 16.5144 16.3743C15.9878 16.7415 15.4656 17.1029 14.9347 17.4529C14.7955 17.5447 14.7476 17.6479 14.7563 17.8487C14.7911 18.7036 15.0087 19.4896 15.2089 20.2871C15.2872 20.5911 15.3786 20.8895 15.4787 21.2394Z" fill="black"/>
<path d="M24.2776 20.5679C24.2906 20.8719 24.1427 20.9809 23.9686 21.067C23.9338 21.0842 23.899 21.09 23.8642 21.1014C23.3594 21.308 23.4421 21.1817 23.3899 21.8817C23.3681 22.1972 23.5073 22.3005 23.6771 22.4038C24.0034 22.6046 24.0034 22.6046 23.9164 23.0636C23.8729 23.2873 23.8294 23.5053 23.7815 23.7233C23.7423 23.8955 23.6597 23.9528 23.5291 23.8783C23.5073 23.8668 23.4899 23.8553 23.4682 23.8496C23.0765 23.6832 23.0765 23.6832 22.8546 24.1307C22.8328 24.1823 22.8111 24.2282 22.7806 24.2684C22.6457 24.4348 22.6631 24.5839 22.7719 24.7618C22.872 24.9224 22.946 25.1118 23.0374 25.2839C23.1418 25.4732 23.1244 25.6453 22.9982 25.7945C22.8154 26.0068 22.624 26.219 22.4325 26.4198C22.2976 26.5633 22.1627 26.5289 22.0452 26.3682C21.919 26.1961 21.8059 26.0068 21.6666 25.8519C21.6013 25.783 21.5187 25.7601 21.4403 25.783C21.2141 25.8748 20.9921 25.9953 20.7789 26.1387C20.7006 26.1961 20.6483 26.3453 20.6092 26.4657C20.5831 26.5575 20.5961 26.6723 20.5918 26.7756C20.5744 27.2517 20.496 27.3608 20.1392 27.3952C20.0391 27.4066 19.939 27.4009 19.8389 27.3894C19.4908 27.3493 19.3907 27.2517 19.4125 26.8157C19.4299 26.3567 19.2906 26.1043 18.9686 25.9838C18.8294 25.9322 18.7032 25.8289 18.5596 25.7887C18.4812 25.7658 18.3986 25.7887 18.3289 25.8519C18.194 26.0068 18.0765 26.1904 17.9503 26.3625C17.8241 26.5346 17.6892 26.5575 17.5456 26.4084C17.3629 26.219 17.1845 26.024 17.0104 25.8232C16.8755 25.674 16.8407 25.5019 16.9495 25.2953C17.0626 25.0945 17.1627 24.888 17.2584 24.67C17.2932 24.5897 17.2976 24.4175 17.2628 24.3774C17.0844 24.1995 17.1322 23.7348 16.8059 23.7635C16.7319 23.7635 16.6623 23.7865 16.5926 23.8209C16.275 24.0102 16.2445 23.9012 16.1488 23.4881C16.0922 23.2529 16.0443 23.0119 16.0139 22.7652C16.0052 22.6849 16.0748 22.5931 16.1096 22.507C16.114 22.4956 16.1357 22.4956 16.1488 22.4841C16.6927 22.1858 16.6187 22.2718 16.5752 21.4284C16.5709 21.3539 16.4926 21.2563 16.4316 21.2162C16.3185 21.1588 16.201 21.1072 16.0791 21.0727C15.7963 20.9637 15.7006 20.8088 15.7484 20.4359C15.7876 20.1261 15.8485 19.822 15.9312 19.5237C15.9878 19.3171 16.114 19.2024 16.2967 19.2999C16.3228 19.3114 16.3533 19.3229 16.3794 19.3344C16.9016 19.5524 17.1235 19.4089 17.3107 18.7262C17.3281 18.6631 17.2976 18.5598 17.2671 18.4967C17.1671 18.2844 17.0626 18.0779 16.9538 17.8771C16.8581 17.6992 16.8711 17.5329 16.993 17.3952C17.1888 17.1714 17.3803 16.9305 17.5979 16.7411C17.6718 16.678 17.8416 16.7124 17.9199 16.787C18.0722 16.9305 18.1897 17.1313 18.3159 17.3149C18.4029 17.4411 18.4856 17.4583 18.6031 17.3837C18.7293 17.3034 18.8555 17.2403 18.986 17.1886C19.3255 17.0452 19.3255 17.0509 19.3429 16.569C19.3472 16.4543 19.3559 16.3395 19.3646 16.2248C19.3864 15.9666 19.4952 15.8346 19.6997 15.8404C19.9086 15.8461 20.1174 15.8404 20.3307 15.8404C20.5004 15.8461 20.6048 15.9609 20.6266 16.1846C20.6483 16.3912 20.6614 16.6034 20.6657 16.81C20.6657 16.9821 20.7136 17.0682 20.8398 17.114C21.04 17.1944 21.2315 17.3149 21.4316 17.3894C21.5187 17.4124 21.6057 17.3837 21.6753 17.3149C21.8189 17.1542 21.9408 16.9591 22.0713 16.7813C22.1888 16.6206 22.315 16.6206 22.4412 16.7526C22.6283 16.9477 22.8111 17.1542 22.9895 17.3608C23.1244 17.5157 23.1549 17.682 23.0417 17.8828C22.9329 18.0779 22.8459 18.2844 22.7371 18.4795C22.6631 18.6115 22.6631 18.7147 22.7458 18.8352C22.8024 18.9213 22.8503 19.0188 22.8938 19.1163C23.0678 19.4663 23.1157 19.495 23.4247 19.3975C23.4943 19.3745 23.5639 19.3516 23.6335 19.3229C23.9164 19.2024 24.0208 19.277 24.1035 19.6729C24.1644 19.9769 24.221 20.2753 24.2776 20.5679ZM19.9825 24.4921C21.1705 24.5266 22.1671 23.2299 22.1845 21.6063C22.1975 20.0343 21.2402 18.7434 20.0478 18.7262H20.0174C18.751 18.709 17.8328 20.0286 17.8111 21.5547C17.7893 23.1439 18.7641 24.4577 19.9825 24.4921ZM22.7502 10.6826C22.4804 11.0211 22.2367 11.3367 21.9843 11.6293C21.2228 12.507 21.2315 13.5914 21.597 14.7101C21.684 14.9798 21.7928 15.2437 21.8798 15.5134C21.9016 15.5822 21.8973 15.6683 21.9103 15.7715C20.644 15.4216 19.3342 15.4216 18.0678 15.7715C18.0722 15.6797 18.0635 15.5822 18.0896 15.5134C18.1766 15.2437 18.2854 14.9798 18.3724 14.7101C18.738 13.5971 18.751 12.5128 17.9852 11.6293C17.7284 11.3367 17.4891 11.0211 17.2236 10.6883C17.3933 10.522 17.5587 10.3556 17.7284 10.1949C18.1766 9.77039 18.4725 9.19666 18.6901 8.53115C19.0731 7.36075 19.2384 6.12724 19.3516 4.87079C19.4734 3.50533 19.6344 2.1456 19.7867 0.785879C19.8085 0.573601 19.8781 0.367061 19.9303 0.16052C19.939 0.131834 19.9608 0.103148 20.0304 -0.00585938C20.1261 0.516229 20.2393 0.957996 20.2872 1.4055C20.4177 2.63327 20.5134 3.86677 20.6309 5.10028C20.7658 6.50016 20.9921 7.86563 21.5013 9.12782C21.7188 9.66712 22.08 10.0228 22.4369 10.3843C22.5282 10.4875 22.6327 10.5793 22.7502 10.6826ZM17.4325 30.2064C17.8416 29.604 18.2375 29.0303 18.6248 28.4394C18.7249 28.2902 18.8033 28.1123 18.8511 27.923C18.9033 27.682 19.0121 27.6591 19.1731 27.6591C19.7389 27.6706 20.3046 27.6648 20.8703 27.6591C20.9878 27.6591 21.0443 27.705 21.0922 27.8542C21.3054 28.5139 21.6666 29.036 22.0583 29.5294C22.2236 29.7417 22.3933 29.9425 22.5587 30.149C22.1975 30.7285 21.845 31.3252 21.4664 31.8874C21.2053 32.2718 21.2053 32.7365 21.1575 33.184C21.1183 33.5111 21.1401 33.8496 21.0922 34.1708C20.9791 34.9913 20.8616 35.8174 20.7136 36.6321C20.5308 37.6648 20.3176 38.686 20.1087 39.7073C20.087 39.8105 20.0174 39.8966 19.9738 39.9941C19.9303 39.9023 19.8694 39.8163 19.852 39.7188C19.7737 39.3229 19.7171 38.9155 19.6344 38.5197C19.5039 37.8656 19.3472 37.2173 19.2341 36.5575C19.1122 35.8805 19.0165 35.1921 18.9295 34.5093C18.8598 33.9241 18.812 33.3332 18.7684 32.748C18.738 32.3521 18.5987 32.0251 18.416 31.7325C18.1636 31.3309 17.8981 30.9465 17.637 30.5564C17.5587 30.4359 17.4847 30.2925 17.4325 30.2064ZM0.97036 5.75432L15.0696 9.21388C14.5256 9.50074 14.0513 9.74744 13.577 9.99414C13.4508 10.063 13.3115 10.1089 13.1984 10.2064C12.8198 10.5334 12.4194 10.5162 11.9886 10.4359C9.91292 10.0458 7.8372 9.68433 5.76148 9.31141C5.15226 9.2024 4.53868 9.11634 3.92945 9.0016C3.80326 8.97291 3.68141 8.90407 3.58133 8.8008C2.95469 8.13528 2.33677 7.45828 1.71884 6.78129C1.4882 6.52885 1.25321 6.27068 1.02258 6.0125C0.992118 5.9666 0.961657 5.9207 0.935547 5.86907L0.97036 5.75432ZM25 9.21388C29.6823 8.05496 34.3646 6.88456 39.0513 5.77154C39.06 5.80022 39.0687 5.83465 39.0774 5.86333C39.06 5.90923 39.0382 5.95513 39.0121 5.98955C38.1418 6.94193 37.2758 7.89431 36.4012 8.83522C36.3054 8.93275 36.1879 8.99012 36.0661 9.00734C34.0339 9.36878 32.0017 9.73023 29.9695 10.0859C29.1862 10.2236 28.4029 10.3785 27.6196 10.4933C27.4586 10.5162 27.2758 10.4589 27.1192 10.3843C26.436 10.0458 25.7571 9.68433 25.0783 9.32862C25.0522 9.31715 25.0261 9.2942 25.0043 9.28272C25.0043 9.25978 25 9.23683 25 9.21388ZM4.53433 9.81629L11.8755 10.9178L11.8885 10.9867C11.4316 11.2621 10.9747 11.5375 10.5134 11.8071C10.4656 11.8358 10.4003 11.8128 10.3394 11.8071C9.16879 11.6809 7.99821 11.5317 6.82763 11.4342C6.44468 11.3998 6.16618 11.1244 5.85722 10.9064C5.43511 10.608 5.03041 10.2753 4.61701 9.95972C4.5822 9.93103 4.55173 9.90235 4.52127 9.86792L4.53433 9.81629ZM28.1375 10.9178L35.4743 9.81629C35.483 9.8335 35.4873 9.85071 35.496 9.87366C35.3437 9.99988 35.1914 10.1261 35.0348 10.2466C34.5952 10.5851 34.1601 10.9236 33.7162 11.2391C33.5813 11.3309 33.4377 11.3883 33.2854 11.4055C32.08 11.5489 30.8746 11.6809 29.6649 11.8071C29.5953 11.8243 29.5213 11.8128 29.4516 11.7842C29.0078 11.5202 28.5726 11.2506 28.1331 10.9809L28.1375 10.9178ZM7.58916 12.1399L9.76061 12.3407L9.78672 12.4095C9.6083 12.5759 9.42554 12.7251 9.25583 12.9087C9.01649 13.1726 8.80761 13.207 8.53781 12.9546C8.23755 12.6677 7.89377 12.4554 7.57175 12.2087L7.58916 12.1399ZM30.248 12.3464L32.4281 12.1456L32.4412 12.2087C32.1279 12.4497 31.7972 12.662 31.5013 12.9431C31.2053 13.2242 30.9791 13.1898 30.7267 12.8914C30.5744 12.7193 30.4003 12.5816 30.2393 12.4267L30.248 12.3464Z" fill="black"/>
</g>
<defs>
<clipPath id="clip0_283_150">
<rect width="40" height="40" fill="white"/>
</clipPath>
</defs>
</svg>
