<svg width="40" height="40" viewBox="0 0 40 40" fill="none" xmlns="http://www.w3.org/2000/svg">
<g clip-path="url(#clip0_283_153)">
<path d="M0 4.78754C1.4164 5.46077 2.91648 5.91009 4.45333 6.12145C6.7211 6.3662 10.8319 6.97564 12.0263 4.94663C13.2207 2.91763 11.3297 1.10156 11.3297 1.10156C11.3297 1.10156 13.3097 1.7575 13.3097 4.10713C13.3097 6.45676 12.9238 6.86795 12.6246 7.28892C12.3254 7.7099 11.131 9.42562 11.9395 12.6294C12.7479 15.8333 14.817 17.1109 14.817 17.1109C14.817 17.1109 15.1641 17.292 15.1322 18.5525C15.1002 19.8129 15.1322 23.0902 15.1322 23.0902C15.1322 23.0902 12.5561 19.6636 10.9597 18.4717C10.9597 18.4717 12.2021 16.5137 12.1427 15.493C12.0834 14.4724 12.0423 15.4661 11.5216 16.2689C11.2586 16.6436 10.9627 16.9903 10.6377 17.3042C10.6377 17.3042 10.5555 16.8832 8.88838 16.7609C8.88838 16.7609 10.7702 15.1112 11.211 14.0955C11.4051 13.6501 11.5467 13.1434 10.9483 13.9633C10.4847 14.6119 9.2378 15.6423 9.2378 15.6423C9.2378 15.6423 8.63945 15.0231 7.26235 14.5165C7.26235 14.5165 9.17157 13.7431 10.0348 13.021C10.4619 12.6637 10.8661 11.9955 10.5395 12.2868C10.2883 12.4997 9.85441 13.0773 7.002 13.8483C7.002 13.8483 6.0885 13.4787 4.89409 11.9294C4.89409 11.9294 8.10962 11.648 9.80645 10.9308C10.4916 10.642 9.56666 10.8158 8.91807 10.9308C7.97031 11.1169 5.36683 11.2711 4.67942 11.134C4.67942 11.134 3.91664 10.7473 2.59435 8.9459C2.59435 8.9459 7.39024 9.58471 9.98687 9.10744C10.1878 9.07072 9.80188 9.00464 9.02312 8.98261C7.20252 8.98043 5.38707 8.77536 3.60605 8.37073C2.50528 8.1015 1.28804 6.87774 0 4.78754ZM40 4.78754C38.5837 5.46113 37.0836 5.91046 35.5467 6.12145C33.2812 6.3662 29.1704 6.97564 27.9737 4.94663C26.777 2.91763 28.6726 1.10156 28.6726 1.10156C28.6726 1.10156 26.6903 1.7575 26.6903 4.10713C26.6903 6.45676 27.0762 6.86795 27.3754 7.28892C27.6746 7.7099 28.8713 9.42562 28.0742 12.6294C27.2772 15.8333 25.183 17.1109 25.183 17.1109C25.183 17.1109 24.8381 17.292 24.8678 18.5525C24.8975 19.8129 24.8678 23.0902 24.8678 23.0902C24.8678 23.0902 27.4439 19.6636 29.0425 18.4717C29.0425 18.4717 27.8002 16.5137 27.8596 15.493C27.9189 14.4724 27.96 15.4661 28.4784 16.2689C28.7421 16.643 29.038 16.9896 29.3623 17.3042C29.3623 17.3042 29.4445 16.8832 31.1116 16.7609C31.1116 16.7609 29.2321 15.1112 28.7913 14.0955C28.5949 13.6501 28.4533 13.1434 29.0517 13.9633C29.5084 14.6021 30.7599 15.6252 30.7599 15.6252C30.7599 15.6252 31.3583 15.006 32.7331 14.4993C32.7331 14.4993 30.8239 13.7259 29.9629 13.0039C29.5335 12.6466 29.1316 11.9784 29.4559 12.2696C29.7094 12.4826 30.141 13.0602 32.9957 13.8312C32.9957 13.8312 33.9092 13.4616 35.1013 11.9123C35.1013 11.9123 31.8858 11.6308 30.1913 10.9137C29.5061 10.6249 30.4196 10.7987 31.0774 10.9137C32.0274 11.0997 34.6286 11.2539 35.316 11.1169C35.316 11.1169 36.0788 10.7301 37.4011 8.92877C37.4011 8.92877 32.6052 9.56757 30.0086 9.0903C29.8076 9.05359 30.1958 8.98751 30.9723 8.96548C32.7937 8.96346 34.6099 8.7584 36.3917 8.3536C37.497 8.1015 38.7142 6.87774 40 4.78754Z" fill="black"/>
<path d="M25.7956 9.22474C25.7197 9.53699 25.6045 9.83671 25.4531 10.1156C25.1059 11.1779 24.5167 11.1216 23.1693 12.1006C21.8219 13.0796 20.8719 12.852 20.8719 12.852V10.1401H21.6552V9.44747L20.8719 8.34119V4.03598L21.2715 3.73738L20.9016 3.49263V2.69718C21.6415 2.59928 22.5801 4.03598 22.5801 4.03598C22.5025 3.30172 22.9341 1.75733 22.9341 1.75733H20.9016C20.8895 1.44743 20.9156 1.13719 20.9792 0.834608C21.0865 0.271676 21.7031 0 21.7031 0H18.2935C18.2935 0 18.9101 0.271676 19.0175 0.834608C19.0825 1.13695 19.1086 1.4474 19.0951 1.75733H17.0626C17.0626 1.75733 17.4942 3.29193 17.4165 4.03598C17.4165 4.03598 18.3552 2.59928 19.0951 2.69718V3.49018L18.7251 3.73493L19.1271 4.03353V8.34119L18.3415 9.44747V10.1401H19.1271V12.852C19.1271 12.852 18.1656 13.0796 16.8273 12.1006C15.489 11.1216 14.8976 11.1779 14.5436 10.1156C14.3908 9.83656 14.2733 9.53697 14.1942 9.22474C14.1942 9.22474 13.6049 10.5758 13.7123 11.523C13.8196 12.4702 15.4799 13.5324 15.6421 15.2555C15.8042 16.9785 15.5073 17.6394 16.6058 18.2121V19.0687L15.7745 19.8446C15.7745 19.8446 16.4459 21.2788 16.2838 22.3141C16.2838 22.3141 16.9004 20.4467 17.7568 20.5054V33.9424C17.7568 33.9424 18.9489 38.1962 19.8122 39.9976L19.698 38.343V18.753H18.4419L17.8824 18.5963L18.4465 18.2121H19.7003V16.1806L18.8142 15.9359L20.0018 14.6632L21.1893 15.9359L20.3169 16.1806V18.2121H21.5547L22.1211 18.5963L21.5707 18.753H20.326V38.3479L20.2004 39.9535C21.0568 38.1227 22.2261 33.9473 22.2261 33.9473V20.5103C23.0825 20.4516 23.6992 22.319 23.6992 22.319C23.5393 21.2837 24.2084 19.8495 24.2084 19.8495L23.384 19.0687V18.2121C24.4825 17.6394 24.1879 16.9883 24.3477 15.2555C24.5076 13.5226 26.1747 12.4702 26.2775 11.523C26.3803 10.5758 25.7956 9.22474 25.7956 9.22474ZM16.5738 17.3016C16.5738 17.3016 16.7131 16.4083 17.4485 16.3055C17.1739 15.7997 17.0172 15.2305 16.9918 14.646C16.9758 13.7551 16.2381 13.7258 15.8156 13.4002C15.4129 13.0697 15.0587 12.6761 14.7651 12.2328C15.2915 12.798 15.938 13.2179 16.6492 13.4565C17.6518 13.8163 17.2247 15.2041 18.0195 16.161L18.8188 17.1205C18.8188 17.1205 17.2772 16.2785 16.5738 17.3065V17.3016ZM24.0988 13.4002C23.6763 13.7258 22.9387 13.7551 22.9227 14.646C22.8972 15.2305 22.7405 15.7997 22.4659 16.3055C23.2013 16.4083 23.3406 17.3016 23.3406 17.3016C22.6372 16.2736 21.1025 17.1303 21.1025 17.1303L21.9018 16.1708C22.7012 15.2139 22.2741 13.8261 23.2721 13.4663C23.9832 13.2277 24.6298 12.8078 25.1562 12.2426C24.8601 12.6847 24.5037 13.0766 24.0988 13.4051V13.4002Z" fill="black"/>
</g>
<defs>
<clipPath id="clip0_283_153">
<rect width="40" height="40" fill="white"/>
</clipPath>
</defs>
</svg>
